$MeshFormat
2.2 0 8
$EndMeshFormat
$Nodes
468
1 0 0 0
2 1 0 0
3 0 1 0
4 0 -1 0
5 -1 0 0
6 0.9951847266722118 0.098017140329409 0
7 0.9807852804032812 0.1950903220158731 0
8 0.9569403357323504 0.2902846772539959 0
9 0.9238795325115864 0.3826834323643665 0
10 0.881921264348864 0.4713967368250455 0
11 0.8314696123032962 0.5555702330184784 0
12 0.7730104533638789 0.634393284162254 0
13 0.7071067811878892 0.707106781185206 0
14 0.6343932841648875 0.7730104533617177 0
15 0.5555702330208091 0.8314696123017388 0
16 0.4713967368270084 0.8819212643478147 0
17 0.3826834323658478 0.9238795325109728 0
18 0.2902846772549104 0.9569403357320729 0
19 0.1950903220163801 0.9807852804031804 0
20 0.09801714032971656 0.9951847266721815 0
21 -0.098017140329409 0.9951847266722118 0
22 -0.1950903220158731 0.9807852804032812 0
23 -0.2902846772539959 0.9569403357323504 0
24 -0.3826834323643665 0.9238795325115864 0
25 -0.4713967368250455 0.881921264348864 0
26 -0.5555702330184784 0.8314696123032962 0
27 -0.634393284162254 0.7730104533638789 0
28 -0.707106781185206 0.7071067811878892 0
29 -0.7730104533617177 0.6343932841648875 0
30 -0.8314696123017388 0.5555702330208091 0
31 -0.8819212643478147 0.4713967368270084 0
32 -0.9238795325109728 0.3826834323658478 0
33 -0.9569403357320729 0.2902846772549104 0
34 -0.9807852804031804 0.1950903220163801 0
35 -0.9951847266721815 0.09801714032971656 0
36 -0.9951847266722118 -0.098017140329409 0
37 -0.9807852804032812 -0.1950903220158731 0
38 -0.9569403357323504 -0.2902846772539959 0
39 -0.9238795325115864 -0.3826834323643665 0
40 -0.881921264348864 -0.4713967368250455 0
41 -0.8314696123032962 -0.5555702330184784 0
42 -0.7730104533638789 -0.634393284162254 0
43 -0.7071067811878892 -0.707106781185206 0
44 -0.6343932841648875 -0.7730104533617177 0
45 -0.5555702330208091 -0.8314696123017388 0
46 -0.4713967368270084 -0.8819212643478147 0
47 -0.3826834323658478 -0.9238795325109728 0
48 -0.2902846772549104 -0.9569403357320729 0
49 -0.1950903220163801 -0.9807852804031804 0
50 -0.09801714032971656 -0.9951847266721815 0
51 0.098017140329409 -0.9951847266722118 0
52 0.1950903220158731 -0.9807852804032812 0
53 0.2902846772539959 -0.9569403357323504 0
54 0.3826834323643665 -0.9238795325115864 0
55 0.4713967368250455 -0.881921264348864 0
56 0.5555702330184784 -0.8314696123032962 0
57 0.634393284162254 -0.7730104533638789 0
58 0.707106781185206 -0.7071067811878892 0
59 0.7730104533617177 -0.6343932841648875 0
60 0.8314696123017388 -0.5555702330208091 0
61 0.8819212643478147 -0.4713967368270084 0
62 0.9238795325109728 -0.3826834323658478 0
63 0.9569403357320729 -0.2902846772549104 0
64 0.9807852804031804 -0.1950903220163801 0
65 0.9951847266721815 -0.09801714032971656 0
66 8.426467060186336e-15 5.545243676759848e-15 0
67 -0.4020880984647632 -0.2982088578748932 0
68 -0.2954367307274031 0.4118217893473876 0
69 0.2963383631531899 -0.4087610820978091 0
70 0.4094816582322033 0.2989144428249093 0
71 0.5789908556044473 -0.08810523761796055 0
72 0.07983240319640818 0.5715404670897244 0
73 -0.09009687944866895 -0.5748228750334167 0
74 -0.5748042211236027 0.08526415178250672 0
75 -0.2968689019794189 -0.02674516139065948 0
76 -0.1083630025432193 -0.2759021576109553 0
77 -0.01682405742112838 0.2896714447140972 0
78 0.2733416864734537 -0.09898290452298282 0
79 -0.6780521242240797 -0.1918708196516505 0
80 -0.1896326233645191 0.6789079532270125 0
81 0.1918708196516499 -0.6780521242240815 0
82 0.6779555206994138 0.1961457149948515 0
83 -0.3804370686186029 -0.5931582684405763 0
84 0.5946269598208211 -0.3785436823580674 0
85 -0.593158268440578 0.3804370686186029 0
86 0.3800083500638913 0.6036704010283349 0
87 -0.5958173909871199 -0.4422021423414857 0
88 -0.4422021423414869 0.5958173909871214 0
89 0.442202142341487 -0.5958173909871215 0
90 0.6041049138801815 0.4480347393833818 0
91 0.1956126921573244 0.1583915341957161 0
92 0.1184031637260478 -0.2705537959104337 0
93 -0.224545186133349 0.2002877035225415 0
94 0.4420277201625643 0.06848443448152985 0
95 0.1889493232445182 0.3959722361784784 0
96 -0.003582273274922056 0.785984622113733 0
97 -0.785984622113733 -0.003582273274924263 0
98 0.7796691807504628 0.001549303409316351 0
99 0.003582273274923194 -0.7859846221137329 0
100 -0.2284093776173293 -0.7483599000881053 0
101 0.748359900088106 -0.2284093776173271 0
102 -0.748359900088106 0.2284093776173287 0
103 0.2297991210938212 0.738680090544694 0
104 -0.4256191542343475 0.2374299619389925 0
105 0.1036555886690487 -0.4762144162194056 0
106 -0.4882237917915215 -0.1097421551078278 0
107 -0.1070578258836177 0.4869010922328014 0
108 -0.2467405805823824 -0.4353445731519532 0
109 0.4348580482346547 -0.2437878782588465 0
110 -0.2636554146782679 -0.1944333202861087 0
111 -0.7631127185387978 -0.3658600190311663 0
112 -0.3658600190311661 0.7631127185387983 0
113 0.7699546937707157 0.3587314929723325 0
114 0.3658600190311665 -0.7631127185387983 0
115 -0.5643569300252997 -0.6295469380177375 0
116 0.6295469380177375 -0.5643569300252999 0
117 -0.6295469380177373 0.5643569300253001 0
118 0.5497024007081733 0.6187739929935159 0
119 -0.1437436321581657 -0.07807774499239367 0
120 0.1606424500885938 0.004300598949953729 0
121 -0.003780694566203917 -0.1673602467858418 0
122 -0.069435347264695 0.1480597841672801 0
123 -0.8299180251194084 -0.1465287280240875 0
124 -0.1465287280240848 0.8299180251194095 0
125 0.1465287280240858 -0.8299180251194095 0
126 0.8375010403425993 0.1413118380633867 0
127 -0.38113173626153 -0.7516469890636974 0
128 0.751646989063699 -0.3811317362615276 0
129 -0.7516469890636988 0.3811317362615289 0
130 0.3754627886790279 0.7640564469599966 0
131 0.5109788234279812 0.1846278794246267 0
132 -0.5553977155574891 -0.2899630874669553 0
133 -0.2861422976027973 0.5579088162180433 0
134 0.2883319190370338 -0.5538173875845829 0
135 -0.440934894060352 -0.4491063559825522 0
136 0.4518563512784824 -0.4322354237285296 0
137 -0.4480152973221178 0.4369696786479992 0
138 0.4462855018409865 0.4497225705388248 0
139 -0.05324443948138752 -0.4193975551437669 0
140 -0.4167944821547696 0.07079293214433931 0
141 0.2293167433003759 0.5405888305748675 0
142 0.5986179870973362 0.06366414596327508 0
143 0.05372175196451884 0.4277437675216534 0
144 -0.1686050687396893 0.3315752484601313 0
145 0.2694762690140345 -0.2572581840749321 0
146 0.425152206825794 -0.07618625387480404 0
147 -0.642501379891927 -0.04361073290941553 0
148 -0.05031156322072775 0.6415889963763518 0
149 0.0482892305008997 -0.638345906149732 0
150 -0.231929022716379 -0.5988023717589204 0
151 -0.5981917598588989 0.232589007812563 0
152 0.5988023717589216 -0.2319290227163783 0
153 -0.8482124424295397 0.125860913360267 0
154 -0.125860913360268 -0.8482124424295396 0
155 0.1258609133602675 0.8482124424295402 0
156 0.84821244242954 -0.1258609133602686 0
157 0.5899161427773134 0.3127121427476854 0
158 -0.1735202111068604 0.06134883989688337 0
159 0.328408638244663 0.1811961337320194 0
160 0.09964778912390904 0.280432117108549 0
161 0.1337327279399117 -0.1294709597935202 0
162 0.06391111856002452 0.1202054366020898 0
163 0.2806538375697805 0.04899431040634707 0
164 0.3212583107028458 0.4328359221152592 0
165 -0.7157710153745197 -0.4844111055076935 0
166 -0.4844111055076932 0.7157710153745206 0
167 0.4844111055076934 -0.7157710153745205 0
168 0.6942318773419995 0.4734984014404488 0
169 -0.6956654700907273 0.1145177190807443 0
170 -0.1046194577611946 -0.6877582508005042 0
171 0.09922602507067403 0.6996928574796533 0
172 0.693549203088019 -0.1086198020207827 0
173 -0.3058228616654408 0.2625900696648426 0
174 0.1611609734550627 -0.3684696053283563 0
175 -0.3759427332321281 -0.1861583353967512 0
176 -0.2852308076144451 -0.307442047788547 0
177 0.2648219546947304 0.2885208482867634 0
178 0.8379864548452449 0.2673957229032948 0
179 -0.258879016659527 0.8337906051102736 0
180 0.2588790166595277 -0.8337906051102736 0
181 -0.8337906051102733 -0.2588790166595279 0
182 0.4991363804390895 0.7242821583149768 0
183 0.723580748029463 -0.4919151471525118 0
184 -0.7235807480294627 0.4919151471525125 0
185 -0.4919151471525131 -0.7235807480294625 0
186 -0.3183292342639028 0.1016941545485561 0
187 0.01249357289528364 -0.3279442646818379 0
188 -0.2904278222400317 -0.8444528120997723 0
189 -0.8444528120997726 0.290427822240031 0
190 0.8444528120997729 -0.2904278222400304 0
191 0.298181744386004 0.8323420169986804 0
192 -0.8905184531607659 -0.03983450504587761 0
193 0.03983450504587591 -0.8905184531607658 0
194 -0.03983450504587517 0.8905184531607659 0
195 0.8838276503291614 0.0449573500967432 0
196 0.6690573680292647 0.5903175198251169 0
197 0.5967155120014093 -0.6733751574938805 0
198 -0.5967155120014093 0.6733751574938809 0
199 -0.6733751574938805 -0.5967155120014096 0
200 0.1831366618876434 -0.571230561630807 0
201 -0.4936497005321604 0.3410997801410204 0
202 0.2778025216417409 0.6423974199949705 0
203 0.7054310264316319 0.08566682096330573 0
204 0.5034074307084114 0.004254361039027612 0
205 -0.2232566280942085 0.4760331063638775 0
206 -0.5752530386497904 -0.1863735026015574 0
207 0.3985638899534546 -0.3460521038479412 0
208 -0.3455634314677941 -0.496564700705808 0
209 -0.5004413762457786 0.003003013273504741 0
210 -0.1423967588596471 -0.4797642673373635 0
211 0.4981892492476019 0.3523787829914536 0
212 -0.4014834817450191 -0.03905149382624709 0
213 -0.1531851696395556 -0.3718483224949632 0
214 -0.7307257768597527 -0.09235999035487294 0
215 -0.09310086481069002 0.7300209063145519 0
216 0.09308458338689983 -0.7296734729686474 0
217 -0.3042674415403423 -0.6719162113828933 0
218 0.6713789084434244 -0.3040033705904255 0
219 -0.671289384177271 0.3043290176935695 0
220 -0.004645602728614642 0.5171756719926675 0
221 0.01453882624244939 -0.5458670566201071 0
222 -0.5183402574296213 0.1720262862441469 0
223 -0.179268082432357 0.5768416191739294 0
224 0.5008693590861552 -0.3380466984943145 0
225 0.4837340913531755 -0.1517280762012941 0
226 -0.1604726014346236 -0.1782736170425605 0
227 -0.1219665409831577 0.2394586619820527 0
228 -0.04101020144091218 0.4034091041505796 0
229 0.1474295938975255 0.4767815548555203 0
230 0.3894815262660306 -0.1705122438735389 0
231 -0.6470085509665258 -0.3533163347090244 0
232 -0.353316334709027 0.6470085509665271 0
233 0.3533163347090271 -0.6470085509665273 0
234 -0.525919320355951 -0.5165862617921771 0
235 -0.5165862617921779 0.5259193203559535 0
236 0.5165862617921779 -0.525919320355954 0
237 0.5285620584726545 0.5068315386278609 0
238 0.1650833351656403 0.6378359436639294 0
239 0.2263173385671561 -0.4597992142801249 0
240 -0.3804159090315689 0.3476491091289159 0
241 -0.4704917946631889 -0.2144595754186711 0
242 -0.3393737126895943 -0.3895396875518189 0
243 0.6723624601369527 -0.01688451339287414 0
244 0.0364812689516623 0.2104470125044666 0
245 0.3322274111334222 -0.02040911257016238 0
246 0.3906754121981287 -0.5237043774096206 0
247 -0.391410147095714 0.5242343282127645 0
248 -0.5245552157436166 -0.389036662304812 0
249 0.4091263545551559 0.2041209574277288 0
250 -0.2355925695925575 -0.09946653702002781 0
251 -0.09606448990816197 0.005500615781150233 0
252 0.08155105493049461 -0.3809920532903698 0
253 -0.334454166076043 0.1843606710806269 0
254 -0.205240947655165 -0.8960588171025472 0
255 -0.8960588171025474 0.2052409476551645 0
256 0.8960588171025476 -0.2052409476551648 0
257 0.2168602213183715 0.8872790070360176 0
258 -0.9173049496986312 0.06092560229176865 0
259 -0.06092560229176933 -0.9173049496986311 0
260 0.06092560229176967 0.9173049496986316 0
261 0.9161898158933639 -0.06007179478329214 0
262 0.0817016096487039 -0.0494119055798526 0
263 0.20303075545349 -0.184524273362479 0
264 0.5167166031654333 0.1016535243853499 0
265 -0.1996618560881989 -0.2821684604727228 0
266 -0.02829188313805182 -0.0774806362009889 0
267 -0.7269411869785077 -0.2662677203343993 0
268 -0.2660012683954552 0.72704307138362 0
269 0.2662677203344 -0.726941186978509 0
270 0.7446031066591935 0.2580438767241283 0
271 -0.465212391526829 -0.6191005057782125 0
272 0.6192753499901473 -0.4649869884005753 0
273 -0.6191005057782133 0.4652123915268299 0
274 0.463079466527256 0.637634563399945 0
275 0.6523771504657694 0.3783994841452683 0
276 0.8453586195000278 0.3997659386065832 0
277 -0.4035719224619385 0.8490727238932609 0
278 -0.8490727238932605 -0.403571922461939 0
279 0.4035719224619387 -0.8490727238932607 0
280 0.6869747181079322 -0.6267352164721713 0
281 0.6262092734455981 0.6853383743368089 0
282 -0.6267352164721713 -0.6869747181079322 0
283 -0.6869747181079321 0.6267352164721715 0
284 0.3802660799696581 0.4970076936595428 0
285 -0.3300004132021876 -0.1068971317506328 0
286 0.1845848241393908 0.2405513825629441 0
287 0.5987983752361715 0.1522635718489162 0
288 0.2435484042635611 -0.01843290708173395 0
289 0.1124052471158689 0.3626255665148286 0
290 -0.3317292634974011 -0.246560640336575 0
291 -0.9061217388597802 -0.129838241440912 0
292 0.1298382414409116 -0.9061217388597808 0
293 -0.1298382414409112 0.9061217388597809 0
294 0.916569062937555 0.1359601770977464 0
295 -0.3826917494109668 -0.8267667661412996 0
296 -0.8267667661413001 0.3826917494109663 0
297 0.8267667661413001 -0.3826917494109656 0
298 0.396171732135263 0.8376347506802271 0
299 0.3916793359845115 0.3867459766198013 0
300 -0.1505666373159188 0.4114639890562504 0
301 0.3520389912372731 -0.2642789181838013 0
302 0.1401505018769222 0.0929839829012467 0
303 -0.7042216260711547 0.01969261469583621 0
304 -0.01589298708146738 -0.6993950529937005 0
305 0.01637473010911714 0.6961791429798159 0
306 -0.6293760646549037 0.1516305857928699 0
307 -0.1542847988553515 -0.6262456813205962 0
308 0.6272732665195936 -0.1545832180183608 0
309 0.03855598824475437 -0.2402021452507835 0
310 -0.5718496042672192 -0.07589529752351744 0
311 -0.2401384279628763 -0.5240166467582303 0
312 0.4956044848842494 0.2651956189364798 0
313 -0.2614637556358816 0.6389209486100285 0
314 0.2683300414015597 -0.640357351126905 0
315 -0.6389627345628981 -0.2644044770980445 0
316 0.5355298632503703 -0.4372990321257836 0
317 -0.5346861209204872 0.4393469712361446 0
318 -0.4386354018555256 -0.5348958844407129 0
319 -0.1533437555808011 0.140824220416317 0
320 0.09468096386318985 -0.5691409950047367 0
321 -0.5171495418007974 0.2558169433955513 0
322 0.07677561053655702 0.03843394764912419 0
323 -0.2126007049810695 -0.01822795188969675 0
324 -0.07553206593958206 -0.2019033683751885 0
325 0.3538880110287276 0.6810168452318877 0
326 -0.01813520301418853 0.07765665456797495 0
327 0.45798397626377 0.5522734600413373 0
328 -0.2488735876169207 0.3353342065766264 0
329 0.2446655039915771 -0.3513792769653852 0
330 0.07221364419101833 0.7705957770239915 0
331 0.7818248734421135 -0.08654830643845698 0
332 -0.7712649596410608 0.07531524062381575 0
333 -0.07303225913483 -0.7691426609131145 0
334 -0.07597095840928489 0.5754898420391023 0
335 0.525983274462676 -0.2405327668895521 0
336 0.1200646991348722 0.183835244312502 0
337 -0.4786174591246648 -0.3163394303522475 0
338 -0.3194704697168575 0.4812342164529865 0
339 0.3163686825977343 -0.476104458923613 0
340 -0.4565411205345655 -0.8030770759768026 0
341 -0.8030770759768029 0.4565411205345651 0
342 0.8030770759768032 -0.4565411205345645 0
343 0.4688513073084349 0.8002131309974483 0
344 -0.9015111970450187 -0.2041241970788793 0
345 0.2041241970788789 -0.9015111970450191 0
346 -0.2041241970788784 0.9015111970450191 0
347 0.9018565726572096 0.2163731169562697 0
348 0.5249844881023311 0.4291754587940729 0
349 0.7520464410754915 0.5478738033838781 0
350 -0.5577731835390546 0.7457618027795759 0
351 0.5577731835390548 -0.7457618027795754 0
352 -0.7457618027795755 -0.557773183539055 0
353 0.2387225193512354 0.4535773454760635 0
354 0.7494350463008629 0.1539601999046792 0
355 0.790442248373445 0.08105231101702162 0
356 0.3070268373658643 0.7316985639460459 0
357 -0.6252211266350394 -0.515504275987146 0
358 -0.5155042759871463 0.6252211266350403 0
359 0.5155042759871464 -0.6252211266350405 0
360 0.6091317236864546 0.5274912384540649 0
361 -0.5805743652302637 0.005306005640792053 0
362 -0.1908285002508552 0.7599361122309736 0
363 0.1913261736113127 -0.7596750828801841 0
364 -0.7590431496619532 -0.1877258436372534 0
365 0.6721017910695108 -0.4041161849526215 0
366 -0.6717551790978448 0.4046050722506087 0
367 -0.4045927570199635 -0.6718805445389685 0
368 -0.8173660812678181 -0.07212058256827991 0
369 -0.07215915370820974 0.8173293845505545 0
370 0.07215830607057069 -0.8173112966004344 0
371 -0.3057531109712489 -0.761126827201027 0
372 0.7610988543282939 -0.3057393630042583 0
373 -0.7610941935480905 0.3057563167268306 0
374 -0.03879887718321678 0.2141633165164649 0
375 -0.06534358797851583 -0.3405167507596912 0
376 -0.3429271379530607 0.03472894905513095 0
377 0.2697726643425377 0.1261194630242276 0
378 0.02279498832686232 -0.4602824504437733 0
379 -0.4297939706069908 0.1522632646014073 0
380 -0.05339118948551049 -0.5003544050597677 0
381 -0.493188992366475 0.09455710371033493 0
382 0.3696716300115784 -0.4227545303893241 0
383 0.3097093494652879 0.5439174637953652 0
384 0.6772430169573602 0.2986717764410569 0
385 0.1826662723112857 -0.0794203918984358 0
386 -0.3690035723235327 0.435924824215928 0
387 0.5884552891312257 0.2300727399344454 0
388 0.04158810586845126 0.3527764000019415 0
389 -0.1694326328429068 -0.5551877692108672 0
390 0.358866627731945 0.096315205888588 0
391 -0.09149289843909662 0.3334186818686594 0
392 0.1993473331280424 -0.2864370271283173 0
393 -0.2139626490277115 0.2738491780412389 0
394 -0.1225900736699526 0.639267838099995 0
395 0.5755860166560979 -0.3036115102000088 0
396 0.2636997083430879 0.3701376030815247 0
397 -0.8050321709308467 -0.4657908181627424 0
398 -0.465790818162742 0.8050321709308477 0
399 0.4657908181627422 -0.8050321709308474 0
400 0.7958304180567324 0.4678061010411277 0
401 0.1230296542132791 -0.6380177846846811 0
402 -0.5753220079775585 0.3041124854952386 0
403 -0.4371138760165983 -0.3684461988132648 0
404 -0.1370269851306598 -0.9275092432612159 0
405 -0.9275092432612161 0.1370269851306594 0
406 0.1389480173151035 0.9269444645953551 0
407 0.9272862165001627 -0.1368562236289645 0
408 0.301875246249884 -0.1796230378078147 0
409 0.008749628838684156 0.5975434871103344 0
410 -0.6760869455734657 -0.4235636962623722 0
411 0.423563696262374 -0.6760869455734665 0
412 -0.4235636962623738 0.6760869455734663 0
413 -0.6409413244972626 -0.1197170242734593 0
414 -0.3037233035406536 -0.5791130020601566 0
415 0.5780806212841598 -0.009419981104646579 0
416 0.1510179711593028 0.5495644010698737 0
417 -0.242377632957872 0.1223883034917229 0
418 0.4111042253512051 0.003977772204076651 0
419 0.5005527712789601 -0.07125344419173806 0
420 -0.02955625350959637 -0.629237828319492 0
421 0.6747381844986194 -0.2093717499278112 0
422 -0.2091967060019887 -0.6744656750170209 0
423 -0.6759947234717354 0.2078074784348791 0
424 -0.1918409901147907 -0.8160396089867527 0
425 -0.816039608986753 0.1918409901147895 0
426 0.1964569095975581 0.8145694527368295 0
427 0.8160396089867541 -0.1918409901147901 0
428 0.075614935691449 0.4999609148608488 0
429 -0.1020998013749414 0.08667802296592113 0
430 -0.260333286934434 0.04585015348534846 0
431 0.3388321095589898 0.2529406817601543 0
432 0.5739143888946394 0.3841401216123725 0
433 0.2609961499222715 0.2070567145452125 0
434 0.09687855877282858 -0.1911251656622299 0
435 0.8668239272719851 0.3397722528201146 0
436 -0.3342441847549402 0.8698407908051599 0
437 0.3342441847549409 -0.8698407908051601 0
438 -0.8698407908051599 -0.3342441847549413 0
439 0.57236923400773 0.7296915485636761 0
440 0.7289164939637178 -0.5745941621671359 0
441 -0.7289164939637177 0.5745941621671362 0
442 -0.5745941621671362 -0.7289164939637177 0
443 0.05604806373143768 -0.1229697828044867 0
444 0.2122771552218167 0.06108406743863611 0
445 0.04311667630445166 0.8425232488853326 0
446 0.8413867526821871 -0.04473036705710877 0
447 -0.8426570854087463 0.04373699559100991 0
448 -0.04328039929321365 -0.8422326256631568 0
449 -0.08675615089840814 -0.1386104709805491 0
450 -0.4138211645173345 -0.1255585615759773 0
451 -0.2361326532230377 -0.3611099306125893 0
452 0.1856848077769175 0.3230399589555146 0
453 0.3338985471898857 0.3367408558353984 0
454 0.8092343446542168 0.2079988842455178 0
455 0.4257699688106825 0.7017302725146216 0
456 -0.7576155441345268 0.1557323567806671 0
457 -0.1531671551794706 -0.7549045462883504 0
458 0.1508632731432605 0.7530151458810384 0
459 0.7570548070566472 -0.1552050447297028 0
460 -0.03366163164791384 -0.2589714889107164 0
461 0.4470172126909929 0.1337765733337243 0
462 -0.2239143734356044 0.3991946106600566 0
463 0.3198583544922685 -0.3365685879614109 0
464 -0.6399996280599665 0.06012010736665797 0
465 0.06496738169245796 0.6422313366185104 0
466 -0.00286687707349108 0.1533434030267508 0
467 0.3467771627640872 -0.09944247073935156 0
468 0.5629567719397628 -0.1733756642887092 0
$EndNodes
$Elements
937
1 15 2 0 1 1
2 15 2 0 2 2
3 15 2 0 3 3
4 15 2 0 4 4
5 15 2 0 5 5
6 1 2 0 1 2 6
7 1 2 0 1 6 7
8 1 2 0 1 7 8
9 1 2 0 1 8 9
10 1 2 0 1 9 10
11 1 2 0 1 10 11
12 1 2 0 1 11 12
13 1 2 0 1 12 13
14 1 2 0 1 13 14
15 1 2 0 1 14 15
16 1 2 0 1 15 16
17 1 2 0 1 16 17
18 1 2 0 1 17 18
19 1 2 0 1 18 19
20 1 2 0 1 19 20
21 1 2 0 1 20 3
22 1 2 0 2 3 21
23 1 2 0 2 21 22
24 1 2 0 2 22 23
25 1 2 0 2 23 24
26 1 2 0 2 24 25
27 1 2 0 2 25 26
28 1 2 0 2 26 27
29 1 2 0 2 27 28
30 1 2 0 2 28 29
31 1 2 0 2 29 30
32 1 2 0 2 30 31
33 1 2 0 2 31 32
34 1 2 0 2 32 33
35 1 2 0 2 33 34
36 1 2 0 2 34 35
37 1 2 0 2 35 5
38 1 2 0 3 5 36
39 1 2 0 3 36 37
40 1 2 0 3 37 38
41 1 2 0 3 38 39
42 1 2 0 3 39 40
43 1 2 0 3 40 41
44 1 2 0 3 41 42
45 1 2 0 3 42 43
46 1 2 0 3 43 44
47 1 2 0 3 44 45
48 1 2 0 3 45 46
49 1 2 0 3 46 47
50 1 2 0 3 47 48
51 1 2 0 3 48 49
52 1 2 0 3 49 50
53 1 2 0 3 50 4
54 1 2 0 4 4 51
55 1 2 0 4 51 52
56 1 2 0 4 52 53
57 1 2 0 4 53 54
58 1 2 0 4 54 55
59 1 2 0 4 55 56
60 1 2 0 4 56 57
61 1 2 0 4 57 58
62 1 2 0 4 58 59
63 1 2 0 4 59 60
64 1 2 0 4 60 61
65 1 2 0 4 61 62
66 1 2 0 4 62 63
67 1 2 0 4 63 64
68 1 2 0 4 64 65
69 1 2 0 4 65 2
70 2 2 0 6 378 252 187
71 2 2 0 6 379 186 253
72 2 2 0 6 139 378 187
73 2 2 0 6 140 186 379
74 2 2 0 6 186 417 253
75 2 2 0 6 172 331 243
76 2 2 0 6 13 196 12
77 2 2 0 6 58 197 57
78 2 2 0 6 28 198 27
79 2 2 0 6 43 199 42
80 2 2 0 6 90 168 360
81 2 2 0 6 331 98 243
82 2 2 0 6 417 93 253
83 2 2 0 6 77 244 160
84 2 2 0 6 77 160 388
85 2 2 0 6 112 232 268
86 2 2 0 6 114 233 269
87 2 2 0 6 111 231 267
88 2 2 0 6 116 272 236
89 2 2 0 6 115 271 234
90 2 2 0 6 117 273 235
91 2 2 0 6 103 238 202
92 2 2 0 6 232 313 268
93 2 2 0 6 233 314 269
94 2 2 0 6 231 315 267
95 2 2 0 6 236 272 316
96 2 2 0 6 235 273 317
97 2 2 0 6 234 271 318
98 2 2 0 6 165 357 410
99 2 2 0 6 166 358 412
100 2 2 0 6 167 359 411
101 2 2 0 6 71 172 243
102 2 2 0 6 329 239 69
103 2 2 0 6 174 239 329
104 2 2 0 6 328 68 240
105 2 2 0 6 173 328 240
106 2 2 0 6 133 205 223
107 2 2 0 6 136 224 207
108 2 2 0 6 13 281 196
109 2 2 0 6 28 283 198
110 2 2 0 6 58 280 197
111 2 2 0 6 43 282 199
112 2 2 0 6 262 266 443
113 2 2 0 6 90 275 168
114 2 2 0 6 113 168 275
115 2 2 0 6 103 458 238
116 2 2 0 6 245 418 390
117 2 2 0 6 66 266 262
118 2 2 0 6 168 196 360
119 2 2 0 6 166 198 358
120 2 2 0 6 167 197 359
121 2 2 0 6 165 199 357
122 2 2 0 6 105 239 174
123 2 2 0 6 104 173 240
124 2 2 0 6 94 390 418
125 2 2 0 6 93 173 253
126 2 2 0 6 92 252 174
127 2 2 0 6 146 230 225
128 2 2 0 6 109 225 230
129 2 2 0 6 111 397 165
130 2 2 0 6 112 398 166
131 2 2 0 6 114 399 167
132 2 2 0 6 113 400 168
133 2 2 0 6 133 223 313
134 2 2 0 6 136 316 224
135 2 2 0 6 87 410 357
136 2 2 0 6 88 412 358
137 2 2 0 6 89 411 359
138 2 2 0 6 92 187 252
139 2 2 0 6 82 287 203
140 2 2 0 6 142 203 287
141 2 2 0 6 107 228 220
142 2 2 0 6 143 220 228
143 2 2 0 6 163 245 390
144 2 2 0 6 92 263 434
145 2 2 0 6 105 200 239
146 2 2 0 6 104 240 201
147 2 2 0 6 134 239 200
148 2 2 0 6 137 201 240
149 2 2 0 6 2 6 195
150 2 2 0 6 3 21 194
151 2 2 0 6 4 51 193
152 2 2 0 6 5 36 192
153 2 2 0 6 62 63 190
154 2 2 0 6 17 18 191
155 2 2 0 6 32 33 189
156 2 2 0 6 47 48 188
157 2 2 0 6 92 392 263
158 2 2 0 6 140 209 212
159 2 2 0 6 139 213 210
160 2 2 0 6 87 248 231
161 2 2 0 6 88 247 232
162 2 2 0 6 89 246 233
163 2 2 0 6 87 234 248
164 2 2 0 6 88 235 247
165 2 2 0 6 89 236 246
166 2 2 0 6 132 231 248
167 2 2 0 6 134 233 246
168 2 2 0 6 133 232 247
169 2 2 0 6 135 248 234
170 2 2 0 6 137 247 235
171 2 2 0 6 136 246 236
172 2 2 0 6 118 274 327
173 2 2 0 6 118 327 237
174 2 2 0 6 171 238 458
175 2 2 0 6 164 383 353
176 2 2 0 6 106 241 450
177 2 2 0 6 108 451 242
178 2 2 0 6 97 214 303
179 2 2 0 6 99 216 304
180 2 2 0 6 96 215 305
181 2 2 0 6 73 170 420
182 2 2 0 6 67 175 241
183 2 2 0 6 67 242 176
184 2 2 0 6 110 285 175
185 2 2 0 6 106 206 241
186 2 2 0 6 108 242 208
187 2 2 0 6 111 165 410
188 2 2 0 6 112 166 412
189 2 2 0 6 114 167 411
190 2 2 0 6 120 262 385
191 2 2 0 6 73 307 170
192 2 2 0 6 71 308 172
193 2 2 0 6 106 209 310
194 2 2 0 6 108 311 210
195 2 2 0 6 123 181 364
196 2 2 0 6 124 179 362
197 2 2 0 6 125 180 363
198 2 2 0 6 127 367 185
199 2 2 0 6 128 365 183
200 2 2 0 6 129 366 184
201 2 2 0 6 113 178 435
202 2 2 0 6 114 180 437
203 2 2 0 6 112 179 436
204 2 2 0 6 111 181 438
205 2 2 0 6 115 442 185
206 2 2 0 6 118 439 182
207 2 2 0 6 116 440 183
208 2 2 0 6 117 441 184
209 2 2 0 6 141 202 238
210 2 2 0 6 113 276 400
211 2 2 0 6 112 277 398
212 2 2 0 6 114 279 399
213 2 2 0 6 111 278 397
214 2 2 0 6 175 450 241
215 2 2 0 6 176 242 451
216 2 2 0 6 147 303 214
217 2 2 0 6 149 304 216
218 2 2 0 6 148 305 215
219 2 2 0 6 118 196 281
220 2 2 0 6 117 198 283
221 2 2 0 6 116 197 280
222 2 2 0 6 115 199 282
223 2 2 0 6 157 211 312
224 2 2 0 6 134 200 314
225 2 2 0 6 81 314 200
226 2 2 0 6 137 317 201
227 2 2 0 6 85 201 317
228 2 2 0 6 249 390 461
229 2 2 0 6 159 390 249
230 2 2 0 6 105 174 252
231 2 2 0 6 104 253 173
232 2 2 0 6 157 312 387
233 2 2 0 6 110 226 250
234 2 2 0 6 119 250 226
235 2 2 0 6 141 353 383
236 2 2 0 6 132 241 206
237 2 2 0 6 135 208 242
238 2 2 0 6 209 361 310
239 2 2 0 6 161 385 262
240 2 2 0 6 110 176 265
241 2 2 0 6 106 212 209
242 2 2 0 6 108 210 213
243 2 2 0 6 210 311 389
244 2 2 0 6 107 223 205
245 2 2 0 6 109 207 224
246 2 2 0 6 98 203 243
247 2 2 0 6 92 174 392
248 2 2 0 6 93 393 173
249 2 2 0 6 67 290 175
250 2 2 0 6 67 176 290
251 2 2 0 6 110 175 290
252 2 2 0 6 110 290 176
253 2 2 0 6 369 293 124
254 2 2 0 6 370 292 125
255 2 2 0 6 368 291 123
256 2 2 0 6 372 128 297
257 2 2 0 6 373 129 296
258 2 2 0 6 371 127 295
259 2 2 0 6 4 193 259
260 2 2 0 6 5 192 258
261 2 2 0 6 2 195 261
262 2 2 0 6 3 194 260
263 2 2 0 6 48 254 188
264 2 2 0 6 33 255 189
265 2 2 0 6 63 256 190
266 2 2 0 6 18 257 191
267 2 2 0 6 80 313 223
268 2 2 0 6 84 224 316
269 2 2 0 6 194 293 369
270 2 2 0 6 193 292 370
271 2 2 0 6 192 291 368
272 2 2 0 6 190 372 297
273 2 2 0 6 189 373 296
274 2 2 0 6 188 371 295
275 2 2 0 6 95 229 289
276 2 2 0 6 143 289 229
277 2 2 0 6 74 222 306
278 2 2 0 6 151 306 222
279 2 2 0 6 76 265 213
280 2 2 0 6 111 267 181
281 2 2 0 6 113 270 178
282 2 2 0 6 112 268 179
283 2 2 0 6 114 269 180
284 2 2 0 6 118 182 274
285 2 2 0 6 115 185 271
286 2 2 0 6 116 183 272
287 2 2 0 6 117 184 273
288 2 2 0 6 140 376 186
289 2 2 0 6 139 187 375
290 2 2 0 6 111 438 278
291 2 2 0 6 114 437 279
292 2 2 0 6 112 436 277
293 2 2 0 6 113 435 276
294 2 2 0 6 115 282 442
295 2 2 0 6 116 280 440
296 2 2 0 6 117 283 441
297 2 2 0 6 118 281 439
298 2 2 0 6 82 384 387
299 2 2 0 6 124 346 179
300 2 2 0 6 125 345 180
301 2 2 0 6 123 344 181
302 2 2 0 6 128 183 342
303 2 2 0 6 129 184 341
304 2 2 0 6 127 185 340
305 2 2 0 6 100 188 424
306 2 2 0 6 102 189 425
307 2 2 0 6 101 190 427
308 2 2 0 6 103 191 426
309 2 2 0 6 71 243 415
310 2 2 0 6 70 211 299
311 2 2 0 6 138 299 211
312 2 2 0 6 126 355 195
313 2 2 0 6 98 195 355
314 2 2 0 6 142 243 203
315 2 2 0 6 119 251 323
316 2 2 0 6 103 356 191
317 2 2 0 6 130 191 356
318 2 2 0 6 8 178 347
319 2 2 0 6 23 179 346
320 2 2 0 6 53 180 345
321 2 2 0 6 38 181 344
322 2 2 0 6 15 343 182
323 2 2 0 6 60 342 183
324 2 2 0 6 30 341 184
325 2 2 0 6 45 340 185
326 2 2 0 6 8 435 178
327 2 2 0 6 23 436 179
328 2 2 0 6 53 437 180
329 2 2 0 6 38 438 181
330 2 2 0 6 60 183 440
331 2 2 0 6 15 182 439
332 2 2 0 6 30 184 441
333 2 2 0 6 45 185 442
334 2 2 0 6 92 309 187
335 2 2 0 6 6 294 195
336 2 2 0 6 21 293 194
337 2 2 0 6 51 292 193
338 2 2 0 6 36 291 192
339 2 2 0 6 17 191 298
340 2 2 0 6 62 190 297
341 2 2 0 6 32 189 296
342 2 2 0 6 47 188 295
343 2 2 0 6 77 391 227
344 2 2 0 6 126 195 294
345 2 2 0 6 130 298 191
346 2 2 0 6 134 339 239
347 2 2 0 6 137 240 386
348 2 2 0 6 77 227 374
349 2 2 0 6 132 206 315
350 2 2 0 6 79 315 206
351 2 2 0 6 135 318 208
352 2 2 0 6 83 208 318
353 2 2 0 6 138 284 299
354 2 2 0 6 164 299 284
355 2 2 0 6 118 360 196
356 2 2 0 6 116 359 197
357 2 2 0 6 115 357 199
358 2 2 0 6 117 358 198
359 2 2 0 6 140 212 376
360 2 2 0 6 139 375 213
361 2 2 0 6 181 267 364
362 2 2 0 6 179 268 362
363 2 2 0 6 180 269 363
364 2 2 0 6 185 367 271
365 2 2 0 6 183 365 272
366 2 2 0 6 184 366 273
367 2 2 0 6 158 323 251
368 2 2 0 6 325 86 455
369 2 2 0 6 455 86 274
370 2 2 0 6 97 192 368
371 2 2 0 6 96 194 369
372 2 2 0 6 99 193 370
373 2 2 0 6 100 371 188
374 2 2 0 6 101 372 190
375 2 2 0 6 102 373 189
376 2 2 0 6 164 284 383
377 2 2 0 6 447 192 97
378 2 2 0 6 445 194 96
379 2 2 0 6 448 193 99
380 2 2 0 6 98 446 195
381 2 2 0 6 177 396 452
382 2 2 0 6 12 196 349
383 2 2 0 6 57 197 351
384 2 2 0 6 27 198 350
385 2 2 0 6 42 199 352
386 2 2 0 6 168 349 196
387 2 2 0 6 167 351 197
388 2 2 0 6 166 350 198
389 2 2 0 6 165 352 199
390 2 2 0 6 107 300 228
391 2 2 0 6 142 264 204
392 2 2 0 6 228 300 391
393 2 2 0 6 105 320 200
394 2 2 0 6 104 201 321
395 2 2 0 6 121 443 266
396 2 2 0 6 109 230 301
397 2 2 0 6 81 200 401
398 2 2 0 6 85 402 201
399 2 2 0 6 141 383 202
400 2 2 0 6 86 202 383
401 2 2 0 6 161 434 263
402 2 2 0 6 94 204 264
403 2 2 0 6 230 408 301
404 2 2 0 6 103 202 356
405 2 2 0 6 66 326 251
406 2 2 0 6 110 250 285
407 2 2 0 6 213 265 451
408 2 2 0 6 86 325 202
409 2 2 0 6 95 452 396
410 2 2 0 6 68 205 338
411 2 2 0 6 133 338 205
412 2 2 0 6 169 423 456
413 2 2 0 6 170 422 457
414 2 2 0 6 172 421 459
415 2 2 0 6 251 326 429
416 2 2 0 6 132 337 241
417 2 2 0 6 101 421 218
418 2 2 0 6 102 423 219
419 2 2 0 6 100 422 217
420 2 2 0 6 110 265 226
421 2 2 0 6 142 287 264
422 2 2 0 6 75 212 285
423 2 2 0 6 96 369 215
424 2 2 0 6 97 368 214
425 2 2 0 6 99 370 216
426 2 2 0 6 101 218 372
427 2 2 0 6 102 219 373
428 2 2 0 6 100 217 371
429 2 2 0 6 76 226 265
430 2 2 0 6 79 206 413
431 2 2 0 6 83 414 208
432 2 2 0 6 4 259 50
433 2 2 0 6 5 258 35
434 2 2 0 6 2 261 65
435 2 2 0 6 3 260 20
436 2 2 0 6 34 255 33
437 2 2 0 6 49 254 48
438 2 2 0 6 19 257 18
439 2 2 0 6 64 256 63
440 2 2 0 6 72 238 465
441 2 2 0 6 171 465 238
442 2 2 0 6 170 304 420
443 2 2 0 6 169 306 423
444 2 2 0 6 170 307 422
445 2 2 0 6 172 308 421
446 2 2 0 6 135 242 403
447 2 2 0 6 147 361 464
448 2 2 0 6 131 387 312
449 2 2 0 6 93 319 227
450 2 2 0 6 122 227 319
451 2 2 0 6 56 351 399
452 2 2 0 6 11 349 400
453 2 2 0 6 26 350 398
454 2 2 0 6 41 352 397
455 2 2 0 6 107 205 300
456 2 2 0 6 109 301 207
457 2 2 0 6 147 464 303
458 2 2 0 6 94 418 204
459 2 2 0 6 146 204 418
460 2 2 0 6 131 264 287
461 2 2 0 6 106 310 206
462 2 2 0 6 108 208 311
463 2 2 0 6 144 227 391
464 2 2 0 6 146 419 204
465 2 2 0 6 142 204 415
466 2 2 0 6 68 462 205
467 2 2 0 6 82 203 354
468 2 2 0 6 98 355 203
469 2 2 0 6 157 387 384
470 2 2 0 6 140 381 209
471 2 2 0 6 139 210 380
472 2 2 0 6 74 209 381
473 2 2 0 6 73 380 210
474 2 2 0 6 188 254 424
475 2 2 0 6 189 255 425
476 2 2 0 6 190 256 427
477 2 2 0 6 191 257 426
478 2 2 0 6 70 312 211
479 2 2 0 6 115 234 357
480 2 2 0 6 117 235 358
481 2 2 0 6 118 237 360
482 2 2 0 6 116 236 359
483 2 2 0 6 162 302 336
484 2 2 0 6 96 305 330
485 2 2 0 6 97 303 332
486 2 2 0 6 99 304 333
487 2 2 0 6 171 330 305
488 2 2 0 6 169 332 303
489 2 2 0 6 170 333 304
490 2 2 0 6 111 410 231
491 2 2 0 6 112 412 232
492 2 2 0 6 114 411 233
493 2 2 0 6 105 221 320
494 2 2 0 6 104 321 222
495 2 2 0 6 136 207 382
496 2 2 0 6 107 220 334
497 2 2 0 6 160 289 388
498 2 2 0 6 73 210 389
499 2 2 0 6 75 376 212
500 2 2 0 6 76 213 375
501 2 2 0 6 80 394 215
502 2 2 0 6 148 215 394
503 2 2 0 6 152 395 218
504 2 2 0 6 84 218 395
505 2 2 0 6 74 361 209
506 2 2 0 6 138 211 348
507 2 2 0 6 81 401 216
508 2 2 0 6 149 216 401
509 2 2 0 6 151 402 219
510 2 2 0 6 85 219 402
511 2 2 0 6 144 391 300
512 2 2 0 6 109 335 225
513 2 2 0 6 119 266 251
514 2 2 0 6 66 251 266
515 2 2 0 6 79 267 315
516 2 2 0 6 80 268 313
517 2 2 0 6 81 269 314
518 2 2 0 6 83 318 271
519 2 2 0 6 85 317 273
520 2 2 0 6 84 316 272
521 2 2 0 6 69 239 339
522 2 2 0 6 91 444 377
523 2 2 0 6 157 432 211
524 2 2 0 6 145 301 408
525 2 2 0 6 121 460 309
526 2 2 0 6 95 353 229
527 2 2 0 6 141 229 353
528 2 2 0 6 82 270 384
529 2 2 0 6 177 452 286
530 2 2 0 6 141 238 416
531 2 2 0 6 77 388 228
532 2 2 0 6 143 228 388
533 2 2 0 6 150 217 422
534 2 2 0 6 151 219 423
535 2 2 0 6 152 218 421
536 2 2 0 6 126 347 454
537 2 2 0 6 130 455 343
538 2 2 0 6 91 336 302
539 2 2 0 6 167 399 351
540 2 2 0 6 168 400 349
541 2 2 0 6 166 398 350
542 2 2 0 6 165 397 352
543 2 2 0 6 138 237 327
544 2 2 0 6 144 393 227
545 2 2 0 6 93 227 393
546 2 2 0 6 121 324 460
547 2 2 0 6 79 413 214
548 2 2 0 6 147 214 413
549 2 2 0 6 150 414 217
550 2 2 0 6 83 217 414
551 2 2 0 6 149 320 221
552 2 2 0 6 151 222 321
553 2 2 0 6 136 382 246
554 2 2 0 6 82 354 270
555 2 2 0 6 163 288 245
556 2 2 0 6 78 245 288
557 2 2 0 6 137 386 247
558 2 2 0 6 145 263 392
559 2 2 0 6 67 241 337
560 2 2 0 6 9 10 276
561 2 2 0 6 24 25 277
562 2 2 0 6 39 40 278
563 2 2 0 6 54 55 279
564 2 2 0 6 58 59 280
565 2 2 0 6 13 14 281
566 2 2 0 6 43 44 282
567 2 2 0 6 28 29 283
568 2 2 0 6 125 216 370
569 2 2 0 6 123 214 368
570 2 2 0 6 124 215 369
571 2 2 0 6 127 371 217
572 2 2 0 6 128 372 218
573 2 2 0 6 129 373 219
574 2 2 0 6 76 324 226
575 2 2 0 6 106 450 212
576 2 2 0 6 108 213 451
577 2 2 0 6 149 221 420
578 2 2 0 6 73 420 221
579 2 2 0 6 107 334 223
580 2 2 0 6 109 224 335
581 2 2 0 6 91 286 336
582 2 2 0 6 160 336 286
583 2 2 0 6 66 322 326
584 2 2 0 6 79 214 364
585 2 2 0 6 80 215 362
586 2 2 0 6 81 216 363
587 2 2 0 6 125 363 216
588 2 2 0 6 124 362 215
589 2 2 0 6 123 364 214
590 2 2 0 6 84 365 218
591 2 2 0 6 83 367 217
592 2 2 0 6 85 366 219
593 2 2 0 6 128 218 365
594 2 2 0 6 127 217 367
595 2 2 0 6 129 219 366
596 2 2 0 6 132 315 231
597 2 2 0 6 133 313 232
598 2 2 0 6 134 314 233
599 2 2 0 6 135 234 318
600 2 2 0 6 136 236 316
601 2 2 0 6 137 235 317
602 2 2 0 6 94 461 390
603 2 2 0 6 91 302 444
604 2 2 0 6 147 310 361
605 2 2 0 6 146 225 419
606 2 2 0 6 71 419 225
607 2 2 0 6 90 237 348
608 2 2 0 6 138 348 237
609 2 2 0 6 143 428 220
610 2 2 0 6 72 220 428
611 2 2 0 6 105 378 221
612 2 2 0 6 104 222 379
613 2 2 0 6 73 221 380
614 2 2 0 6 74 381 222
615 2 2 0 6 71 225 468
616 2 2 0 6 135 403 248
617 2 2 0 6 72 409 220
618 2 2 0 6 75 285 250
619 2 2 0 6 162 326 322
620 2 2 0 6 122 374 227
621 2 2 0 6 80 223 394
622 2 2 0 6 84 395 224
623 2 2 0 6 119 226 449
624 2 2 0 6 105 252 378
625 2 2 0 6 104 379 253
626 2 2 0 6 220 409 334
627 2 2 0 6 121 309 434
628 2 2 0 6 77 228 391
629 2 2 0 6 162 336 244
630 2 2 0 6 141 416 229
631 2 2 0 6 176 451 265
632 2 2 0 6 121 434 443
633 2 2 0 6 143 229 428
634 2 2 0 6 121 266 449
635 2 2 0 6 178 454 347
636 2 2 0 6 182 343 455
637 2 2 0 6 146 467 230
638 2 2 0 6 15 16 343
639 2 2 0 6 45 46 340
640 2 2 0 6 60 61 342
641 2 2 0 6 30 31 341
642 2 2 0 6 37 38 344
643 2 2 0 6 22 23 346
644 2 2 0 6 52 53 345
645 2 2 0 6 7 8 347
646 2 2 0 6 37 291 36
647 2 2 0 6 52 292 51
648 2 2 0 6 22 293 21
649 2 2 0 6 7 294 6
650 2 2 0 6 47 295 46
651 2 2 0 6 62 297 61
652 2 2 0 6 32 296 31
653 2 2 0 6 17 298 16
654 2 2 0 6 207 463 382
655 2 2 0 6 86 327 274
656 2 2 0 6 120 385 288
657 2 2 0 6 119 323 250
658 2 2 0 6 87 357 234
659 2 2 0 6 88 358 235
660 2 2 0 6 89 359 236
661 2 2 0 6 90 360 237
662 2 2 0 6 192 447 258
663 2 2 0 6 195 446 261
664 2 2 0 6 193 448 259
665 2 2 0 6 194 445 260
666 2 2 0 6 148 409 305
667 2 2 0 6 126 294 347
668 2 2 0 6 124 293 346
669 2 2 0 6 125 292 345
670 2 2 0 6 123 291 344
671 2 2 0 6 129 341 296
672 2 2 0 6 128 342 297
673 2 2 0 6 127 340 295
674 2 2 0 6 130 343 298
675 2 2 0 6 142 415 243
676 2 2 0 6 69 382 463
677 2 2 0 6 41 397 40
678 2 2 0 6 11 400 10
679 2 2 0 6 26 398 25
680 2 2 0 6 56 399 55
681 2 2 0 6 70 249 312
682 2 2 0 6 131 312 249
683 2 2 0 6 164 453 299
684 2 2 0 6 9 435 8
685 2 2 0 6 24 436 23
686 2 2 0 6 39 438 38
687 2 2 0 6 54 437 53
688 2 2 0 6 30 441 29
689 2 2 0 6 15 439 14
690 2 2 0 6 45 442 44
691 2 2 0 6 60 440 59
692 2 2 0 6 270 354 454
693 2 2 0 6 156 331 459
694 2 2 0 6 155 330 458
695 2 2 0 6 153 332 456
696 2 2 0 6 154 333 457
697 2 2 0 6 70 431 249
698 2 2 0 6 159 249 431
699 2 2 0 6 87 231 410
700 2 2 0 6 88 232 412
701 2 2 0 6 89 233 411
702 2 2 0 6 156 459 427
703 2 2 0 6 155 458 426
704 2 2 0 6 154 457 424
705 2 2 0 6 153 456 425
706 2 2 0 6 164 396 453
707 2 2 0 6 246 382 339
708 2 2 0 6 66 262 322
709 2 2 0 6 160 244 336
710 2 2 0 6 68 386 240
711 2 2 0 6 67 403 242
712 2 2 0 6 305 409 465
713 2 2 0 6 56 57 351
714 2 2 0 6 26 27 350
715 2 2 0 6 41 42 352
716 2 2 0 6 11 12 349
717 2 2 0 6 72 416 238
718 2 2 0 6 247 386 338
719 2 2 0 6 75 250 323
720 2 2 0 6 138 327 284
721 2 2 0 6 82 387 287
722 2 2 0 6 150 389 311
723 2 2 0 6 121 449 324
724 2 2 0 6 133 247 338
725 2 2 0 6 132 248 337
726 2 2 0 6 134 246 339
727 2 2 0 6 78 408 467
728 2 2 0 6 120 322 262
729 2 2 0 6 230 467 408
730 2 2 0 6 77 374 244
731 2 2 0 6 100 457 422
732 2 2 0 6 102 456 423
733 2 2 0 6 101 459 421
734 2 2 0 6 148 334 409
735 2 2 0 6 75 430 376
736 2 2 0 6 131 249 461
737 2 2 0 6 154 254 404
738 2 2 0 6 153 255 405
739 2 2 0 6 156 256 407
740 2 2 0 6 155 257 406
741 2 2 0 6 49 404 254
742 2 2 0 6 34 405 255
743 2 2 0 6 64 407 256
744 2 2 0 6 19 406 257
745 2 2 0 6 153 405 258
746 2 2 0 6 154 404 259
747 2 2 0 6 155 406 260
748 2 2 0 6 156 407 261
749 2 2 0 6 35 258 405
750 2 2 0 6 50 259 404
751 2 2 0 6 20 260 406
752 2 2 0 6 65 261 407
753 2 2 0 6 206 310 413
754 2 2 0 6 208 414 311
755 2 2 0 6 113 384 270
756 2 2 0 6 173 393 328
757 2 2 0 6 174 329 392
758 2 2 0 6 161 263 385
759 2 2 0 6 78 385 263
760 2 2 0 6 113 275 384
761 2 2 0 6 177 433 431
762 2 2 0 6 186 376 430
763 2 2 0 6 212 450 285
764 2 2 0 6 131 461 264
765 2 2 0 6 248 403 337
766 2 2 0 6 146 418 245
767 2 2 0 6 146 245 467
768 2 2 0 6 200 320 401
769 2 2 0 6 201 402 321
770 2 2 0 6 202 325 356
771 2 2 0 6 204 419 415
772 2 2 0 6 71 415 419
773 2 2 0 6 162 244 466
774 2 2 0 6 34 35 405
775 2 2 0 6 49 50 404
776 2 2 0 6 64 65 407
777 2 2 0 6 19 20 406
778 2 2 0 6 78 467 245
779 2 2 0 6 153 258 447
780 2 2 0 6 154 259 448
781 2 2 0 6 155 260 445
782 2 2 0 6 156 261 446
783 2 2 0 6 86 284 327
784 2 2 0 6 80 362 268
785 2 2 0 6 79 364 267
786 2 2 0 6 81 363 269
787 2 2 0 6 83 271 367
788 2 2 0 6 85 273 366
789 2 2 0 6 84 272 365
790 2 2 0 6 229 416 428
791 2 2 0 6 72 428 416
792 2 2 0 6 122 429 326
793 2 2 0 6 144 300 462
794 2 2 0 6 145 463 301
795 2 2 0 6 120 302 322
796 2 2 0 6 162 322 302
797 2 2 0 6 177 286 433
798 2 2 0 6 225 335 468
799 2 2 0 6 154 424 254
800 2 2 0 6 153 425 255
801 2 2 0 6 156 427 256
802 2 2 0 6 155 426 257
803 2 2 0 6 158 251 429
804 2 2 0 6 78 263 408
805 2 2 0 6 144 462 328
806 2 2 0 6 145 329 463
807 2 2 0 6 145 408 263
808 2 2 0 6 157 384 275
809 2 2 0 6 90 432 275
810 2 2 0 6 157 275 432
811 2 2 0 6 159 431 433
812 2 2 0 6 175 285 450
813 2 2 0 6 163 377 444
814 2 2 0 6 46 295 340
815 2 2 0 6 31 296 341
816 2 2 0 6 61 297 342
817 2 2 0 6 16 298 343
818 2 2 0 6 37 344 291
819 2 2 0 6 22 346 293
820 2 2 0 6 52 345 292
821 2 2 0 6 7 347 294
822 2 2 0 6 73 389 307
823 2 2 0 6 161 262 443
824 2 2 0 6 95 396 353
825 2 2 0 6 164 353 396
826 2 2 0 6 163 444 288
827 2 2 0 6 120 288 444
828 2 2 0 6 126 354 355
829 2 2 0 6 203 355 354
830 2 2 0 6 40 397 278
831 2 2 0 6 25 398 277
832 2 2 0 6 55 399 279
833 2 2 0 6 10 400 276
834 2 2 0 6 86 383 284
835 2 2 0 6 140 379 381
836 2 2 0 6 222 381 379
837 2 2 0 6 221 378 380
838 2 2 0 6 139 380 378
839 2 2 0 6 78 288 385
840 2 2 0 6 119 449 266
841 2 2 0 6 131 287 387
842 2 2 0 6 94 264 461
843 2 2 0 6 91 433 286
844 2 2 0 6 74 306 464
845 2 2 0 6 169 464 306
846 2 2 0 6 71 468 308
847 2 2 0 6 178 270 454
848 2 2 0 6 182 455 274
849 2 2 0 6 143 388 289
850 2 2 0 6 130 356 325
851 2 2 0 6 9 276 435
852 2 2 0 6 24 277 436
853 2 2 0 6 54 279 437
854 2 2 0 6 39 278 438
855 2 2 0 6 14 439 281
856 2 2 0 6 59 440 280
857 2 2 0 6 44 442 282
858 2 2 0 6 29 441 283
859 2 2 0 6 150 307 389
860 2 2 0 6 152 468 335
861 2 2 0 6 223 334 394
862 2 2 0 6 148 394 334
863 2 2 0 6 224 395 335
864 2 2 0 6 152 335 395
865 2 2 0 6 187 460 375
866 2 2 0 6 76 375 460
867 2 2 0 6 211 432 348
868 2 2 0 6 159 377 390
869 2 2 0 6 163 390 377
870 2 2 0 6 153 447 332
871 2 2 0 6 154 448 333
872 2 2 0 6 155 445 330
873 2 2 0 6 156 446 331
874 2 2 0 6 67 337 403
875 2 2 0 6 75 323 430
876 2 2 0 6 149 401 320
877 2 2 0 6 151 321 402
878 2 2 0 6 68 338 386
879 2 2 0 6 69 339 382
880 2 2 0 6 93 417 319
881 2 2 0 6 158 319 417
882 2 2 0 6 130 325 455
883 2 2 0 6 147 413 310
884 2 2 0 6 150 311 414
885 2 2 0 6 74 464 361
886 2 2 0 6 149 420 304
887 2 2 0 6 150 422 307
888 2 2 0 6 151 423 306
889 2 2 0 6 152 421 308
890 2 2 0 6 187 309 460
891 2 2 0 6 144 328 393
892 2 2 0 6 145 392 329
893 2 2 0 6 160 286 452
894 2 2 0 6 160 452 289
895 2 2 0 6 95 289 452
896 2 2 0 6 205 462 300
897 2 2 0 6 207 301 463
898 2 2 0 6 158 429 319
899 2 2 0 6 122 319 429
900 2 2 0 6 244 374 466
901 2 2 0 6 122 466 374
902 2 2 0 6 92 434 309
903 2 2 0 6 91 377 433
904 2 2 0 6 158 430 323
905 2 2 0 6 120 444 302
906 2 2 0 6 70 299 453
907 2 2 0 6 226 324 449
908 2 2 0 6 161 443 434
909 2 2 0 6 169 303 464
910 2 2 0 6 171 305 465
911 2 2 0 6 152 308 468
912 2 2 0 6 90 348 432
913 2 2 0 6 96 330 445
914 2 2 0 6 98 331 446
915 2 2 0 6 99 333 448
916 2 2 0 6 97 332 447
917 2 2 0 6 76 460 324
918 2 2 0 6 169 456 332
919 2 2 0 6 170 457 333
920 2 2 0 6 171 458 330
921 2 2 0 6 172 459 331
922 2 2 0 6 162 466 326
923 2 2 0 6 122 326 466
924 2 2 0 6 68 328 462
925 2 2 0 6 69 463 329
926 2 2 0 6 159 433 377
927 2 2 0 6 126 454 354
928 2 2 0 6 70 453 431
929 2 2 0 6 177 431 453
930 2 2 0 6 177 453 396
931 2 2 0 6 158 417 430
932 2 2 0 6 186 430 417
933 2 2 0 6 101 427 459
934 2 2 0 6 103 426 458
935 2 2 0 6 100 424 457
936 2 2 0 6 102 425 456
937 2 2 0 6 72 465 409
$EndElements
