$MeshFormat
2.2 0 8
$EndMeshFormat
$Nodes
145
1     0.000000000e+000   -5.000000000e+000 0
         2     1.000000000e+001   -5.000000000e+000 0 
         3     1.000000000e+001    5.000000000e+000 0 
         4     0.000000000e+000    5.000000000e+000 0 
         5     5.000000000e+000    0.000000000e+000 0 
         6     0.000000000e+000    0.000000000e+000 0 
         7     5.000000000e+000   -5.000000000e+000 0 
         8     1.000000000e+001    0.000000000e+000 0 
         9     5.000000000e+000    5.000000000e+000 0 
        10     2.500000000e+000   -2.500000000e+000 0 
        11     2.500000000e+000    2.500000000e+000 0 
        12     7.500000000e+000   -2.500000000e+000 0 
        13     7.500000000e+000    2.500000000e+000 0 
        14     2.500000000e+000    0.000000000e+000 0 
        15     0.000000000e+000   -2.500000000e+000 0 
        16     2.500000000e+000   -5.000000000e+000 0 
        17     5.000000000e+000   -2.500000000e+000 0 
        18     0.000000000e+000    2.500000000e+000 0 
        19     5.000000000e+000    2.500000000e+000 0 
        20     2.500000000e+000    5.000000000e+000 0 
        21     7.500000000e+000   -5.000000000e+000 0 
        22     1.000000000e+001   -2.500000000e+000 0 
        23     7.500000000e+000    0.000000000e+000 0 
        24     1.000000000e+001    2.500000000e+000 0 
        25     7.500000000e+000    5.000000000e+000 0 
        26     1.250000000e+000   -1.250000000e+000 0 
        27     3.750000000e+000   -1.250000000e+000 0 
        28     3.750000000e+000    1.250000000e+000 0 
        29     1.250000000e+000    1.250000000e+000 0 
        30     1.250000000e+000   -3.750000000e+000 0 
        31     3.750000000e+000   -3.750000000e+000 0 
        32     6.250000000e+000   -3.750000000e+000 0 
        33     6.250000000e+000   -1.250000000e+000 0 
        34     1.250000000e+000    3.750000000e+000 0 
        35     3.750000000e+000    3.750000000e+000 0 
        36     6.250000000e+000    1.250000000e+000 0 
        37     6.250000000e+000    3.750000000e+000 0 
        38     8.750000000e+000   -3.750000000e+000 0 
        39     8.750000000e+000   -1.250000000e+000 0 
        40     8.750000000e+000    1.250000000e+000 0 
        41     8.750000000e+000    3.750000000e+000 0 
        42     2.500000000e+000   -1.250000000e+000 0 
        43     1.250000000e+000    0.000000000e+000 0 
        44     0.000000000e+000   -1.250000000e+000 0 
        45     1.250000000e+000   -2.500000000e+000 0 
        46     3.750000000e+000    0.000000000e+000 0 
        47     3.750000000e+000   -2.500000000e+000 0 
        48     5.000000000e+000   -1.250000000e+000 0 
        49     2.500000000e+000    1.250000000e+000 0 
        50     5.000000000e+000    1.250000000e+000 0 
        51     3.750000000e+000    2.500000000e+000 0 
        52     1.250000000e+000    2.500000000e+000 0 
        53     0.000000000e+000    1.250000000e+000 0 
        54     0.000000000e+000   -3.750000000e+000 0 
        55     1.250000000e+000   -5.000000000e+000 0 
        56     2.500000000e+000   -3.750000000e+000 0 
        57     3.750000000e+000   -5.000000000e+000 0 
        58     5.000000000e+000   -3.750000000e+000 0 
        59     6.250000000e+000   -2.500000000e+000 0 
        60     6.250000000e+000   -5.000000000e+000 0 
        61     7.500000000e+000   -3.750000000e+000 0 
        62     7.500000000e+000   -1.250000000e+000 0 
        63     6.250000000e+000    0.000000000e+000 0 
        64     0.000000000e+000    3.750000000e+000 0 
        65     2.500000000e+000    3.750000000e+000 0 
        66     1.250000000e+000    5.000000000e+000 0 
        67     5.000000000e+000    3.750000000e+000 0 
        68     3.750000000e+000    5.000000000e+000 0 
        69     6.250000000e+000    2.500000000e+000 0 
        70     7.500000000e+000    1.250000000e+000 0 
        71     7.500000000e+000    3.750000000e+000 0 
        72     6.250000000e+000    5.000000000e+000 0 
        73     8.750000000e+000   -5.000000000e+000 0 
        74     1.000000000e+001   -3.750000000e+000 0 
        75     8.750000000e+000   -2.500000000e+000 0 
        76     1.000000000e+001   -1.250000000e+000 0 
        77     8.750000000e+000    0.000000000e+000 0 
        78     1.000000000e+001    1.250000000e+000 0 
        79     8.750000000e+000    2.500000000e+000 0 
        80     1.000000000e+001    3.750000000e+000 0 
        81     8.750000000e+000    5.000000000e+000 0 
        82     1.875000000e+000   -6.250000000e-001 0 
        83     1.875000000e+000   -1.875000000e+000 0 
        84     3.125000000e+000   -1.875000000e+000 0 
        85     3.125000000e+000   -6.250000000e-001 0 
        86     6.250000000e-001   -6.250000000e-001 0 
        87     1.875000000e+000    6.250000000e-001 0 
        88     6.250000000e-001    6.250000000e-001 0 
        89     6.250000000e-001   -1.875000000e+000 0 
        90     6.250000000e-001   -3.125000000e+000 0 
        91     1.875000000e+000   -3.125000000e+000 0 
        92     4.375000000e+000   -6.250000000e-001 0 
        93     4.375000000e+000    6.250000000e-001 0 
        94     3.125000000e+000    6.250000000e-001 0 
        95     4.375000000e+000   -1.875000000e+000 0 
        96     3.125000000e+000   -3.125000000e+000 0 
        97     4.375000000e+000   -3.125000000e+000 0 
        98     5.625000000e+000   -1.875000000e+000 0 
        99     5.625000000e+000   -6.250000000e-001 0 
       100     3.125000000e+000    1.875000000e+000 0 
       101     1.875000000e+000    1.875000000e+000 0 
       102     4.375000000e+000    1.875000000e+000 0 
       103     5.625000000e+000    6.250000000e-001 0 
       104     5.625000000e+000    1.875000000e+000 0 
       105     4.375000000e+000    3.125000000e+000 0 
       106     3.125000000e+000    3.125000000e+000 0 
       107     6.250000000e-001    1.875000000e+000 0 
       108     1.875000000e+000    3.125000000e+000 0 
       109     6.250000000e-001    3.125000000e+000 0 
       110     6.250000000e-001   -4.375000000e+000 0 
       111     1.875000000e+000   -4.375000000e+000 0 
       112     3.125000000e+000   -4.375000000e+000 0 
       113     4.375000000e+000   -4.375000000e+000 0 
       114     5.625000000e+000   -4.375000000e+000 0 
       115     5.625000000e+000   -3.125000000e+000 0 
       116     6.875000000e+000   -3.125000000e+000 0 
       117     6.875000000e+000   -1.875000000e+000 0 
       118     6.875000000e+000   -4.375000000e+000 0 
       119     8.125000000e+000   -4.375000000e+000 0 
       120     8.125000000e+000   -3.125000000e+000 0 
       121     6.875000000e+000   -6.250000000e-001 0 
       122     8.125000000e+000   -1.875000000e+000 0 
       123     8.125000000e+000   -6.250000000e-001 0 
       124     6.875000000e+000    6.250000000e-001 0 
       125     6.250000000e-001    4.375000000e+000 0 
       126     1.875000000e+000    4.375000000e+000 0 
       127     3.125000000e+000    4.375000000e+000 0 
       128     4.375000000e+000    4.375000000e+000 0 
       129     5.625000000e+000    3.125000000e+000 0 
       130     5.625000000e+000    4.375000000e+000 0 
       131     6.875000000e+000    1.875000000e+000 0 
       132     6.875000000e+000    3.125000000e+000 0 
       133     8.125000000e+000    6.250000000e-001 0 
       134     8.125000000e+000    1.875000000e+000 0 
       135     6.875000000e+000    4.375000000e+000 0 
       136     8.125000000e+000    3.125000000e+000 0 
       137     8.125000000e+000    4.375000000e+000 0 
       138     9.375000000e+000   -4.375000000e+000 0 
       139     9.375000000e+000   -3.125000000e+000 0 
       140     9.375000000e+000   -1.875000000e+000 0 
       141     9.375000000e+000   -6.250000000e-001 0 
       142     9.375000000e+000    6.250000000e-001 0 
       143     9.375000000e+000    1.875000000e+000 0 
       144     9.375000000e+000    3.125000000e+000 0 
       145     9.375000000e+000    4.375000000e+000 0 
$EndNodes
$Elements
256
	   1 2 2 1 1 70      13     131
       2 2 2 1 1 26      42      82
       3 2 2 1 1 125      66       4
       4 2 2 1 1 88      53       6
       5 2 2 1 1 5      92      48
       6 2 2 1 1 48      99       5
       7 2 2 1 1 5      99      63
       8 2 2 1 1 67     130       9
       9 2 2 1 1 56      31      96
      10 2 2 1 1 45      91      10
      11 2 2 1 1 51     106      11
      12 2 2 1 1 6      43      88
      13 2 2 1 1 75      39     122
      14 2 2 1 1 61     120      12
      15 2 2 1 1 72       9     130
      16 2 2 1 1 79      41     136
      17 2 2 1 1 94      49      14
      18 2 2 1 1 85      46      14
      19 2 2 1 1 10      83      45
      20 2 2 1 1 10      91      56
      21 2 2 1 1 115      59      17
      22 2 2 1 1 47      97      17
      23 2 2 1 1 109      64      18
      24 2 2 1 1 104      69      19
      25 2 2 1 1 11     100      51
      26 2 2 1 1 65     127      20
      27 2 2 1 1 12     116      61
      28 2 2 1 1 12     120      75
      29 2 2 1 1 134      13      70
      30 2 2 1 1 62     123      23
      31 2 2 1 1 13     134      79
      32 2 2 1 1 71     137      25
      33 2 2 1 1 44      89      26
      34 2 2 1 1 43      86      26
      35 2 2 1 1 47      95      27
      36 2 2 1 1 14      42      85
      37 2 2 1 1 50     102      28
      38 2 2 1 1 14      46      94
      39 2 2 1 1 52     107      29
      40 2 2 1 1 87      49      29
      41 2 2 1 1 55     111      30
      42 2 2 1 1 54     110      30
      43 2 2 1 1 58      17      97
      44 2 2 1 1 57     113      31
      45 2 2 1 1 60     118      32
      46 2 2 1 1 17      58     115
      47 2 2 1 1 62     121      33
      48 2 2 1 1 98      59      33
      49 2 2 1 1 65     126      34
      50 2 2 1 1 18      52     109
      51 2 2 1 1 68      20     127
      52 2 2 1 1 67     128      35
      53 2 2 1 1 103      63      36
      54 2 2 1 1 19      50     104
      55 2 2 1 1 71     135      37
      56 2 2 1 1 129      69      37
      57 2 2 1 1 74     139      38
      58 2 2 1 1 73     138      38
      59 2 2 1 1 77      23     123
      60 2 2 1 1 76     141      39
      61 2 2 1 1 78     143      40
      62 2 2 1 1 133      77      40
      63 2 2 1 1 81      25     137
      64 2 2 1 1 80     145      41
      65 2 2 1 1 84      27      42
      66 2 2 1 1 83      10      42
      67 2 2 1 1 87      29      43
      68 2 2 1 1 26      82      43
      69 2 2 1 1 26      86      44
      70 2 2 1 1 90      30      45
      71 2 2 1 1 26      89      45
      72 2 2 1 1 93      28      46
      73 2 2 1 1 92       5      46
      74 2 2 1 1 96      31      47
      75 2 2 1 1 27      84      47
      76 2 2 1 1 98      33      48
      77 2 2 1 1 27      95      48
      78 2 2 1 1 101      29      49
      79 2 2 1 1 100      11      49
      80 2 2 1 1 103      36      50
      81 2 2 1 1 28      93      50
      82 2 2 1 1 105      35      51
      83 2 2 1 1 28     102      51
      84 2 2 1 1 108      34      52
      85 2 2 1 1 29     101      52
      86 2 2 1 1 29     107      53
      87 2 2 1 1 30      90      54
      88 2 2 1 1 30     110      55
      89 2 2 1 1 112      31      56
      90 2 2 1 1 30     111      56
      91 2 2 1 1 31     112      57
      92 2 2 1 1 114      32      58
      93 2 2 1 1 31     113      58
      94 2 2 1 1 117      33      59
      95 2 2 1 1 116      12      59
      96 2 2 1 1 32     114      60
      97 2 2 1 1 119      38      61
      98 2 2 1 1 32     118      61
      99 2 2 1 1 122      39      62
     100 2 2 1 1 33     117      62
     101 2 2 1 1 124      36      63
     102 2 2 1 1 33     121      63
     103 2 2 1 1 125       4      64
     104 2 2 1 1 11     106      65
     105 2 2 1 1 34     108      65
     106 2 2 1 1 34     126      66
     107 2 2 1 1 129      37      67
     108 2 2 1 1 35     105      67
     109 2 2 1 1 35     128      68
     110 2 2 1 1 132      37      69
     111 2 2 1 1 131      13      69
     112 2 2 1 1 133      40      70
     113 2 2 1 1 36     124      70
     114 2 2 1 1 136      41      71
     115 2 2 1 1 37     132      71
     116 2 2 1 1 37     135      72
     117 2 2 1 1 38     119      73
     118 2 2 1 1 38     138      74
     119 2 2 1 1 140      39      75
     120 2 2 1 1 38     139      75
     121 2 2 1 1 39     140      76
     122 2 2 1 1 142      40      77
     123 2 2 1 1 39     141      77
     124 2 2 1 1 40     142      78
     125 2 2 1 1 144      41      79
     126 2 2 1 1 40     143      79
     127 2 2 1 1 41     144      80
     128 2 2 1 1 41     145      81
     129 2 2 1 1 14      43      82
     130 2 2 1 1 42      14      82
     131 2 2 1 1 26      45      83
     132 2 2 1 1 42      26      83
     133 2 2 1 1 10      47      84
     134 2 2 1 1 42      10      84
     135 2 2 1 1 27      46      85
     136 2 2 1 1 42      27      85
     137 2 2 1 1 6      44      86
     138 2 2 1 1 43       6      86
     139 2 2 1 1 14      49      87
     140 2 2 1 1 43      14      87
     141 2 2 1 1 29      53      88
     142 2 2 1 1 43      29      88
     143 2 2 1 1 15      45      89
     144 2 2 1 1 44      15      89
     145 2 2 1 1 15      54      90
     146 2 2 1 1 45      15      90
     147 2 2 1 1 30      56      91
     148 2 2 1 1 45      30      91
     149 2 2 1 1 27      48      92
     150 2 2 1 1 46      27      92
     151 2 2 1 1 5      50      93
     152 2 2 1 1 46       5      93
     153 2 2 1 1 28      49      94
     154 2 2 1 1 46      28      94
     155 2 2 1 1 17      48      95
     156 2 2 1 1 47      17      95
     157 2 2 1 1 10      56      96
     158 2 2 1 1 47      10      96
     159 2 2 1 1 31      58      97
     160 2 2 1 1 47      31      97
     161 2 2 1 1 17      59      98
     162 2 2 1 1 48      17      98
     163 2 2 1 1 33      63      99
     164 2 2 1 1 48      33      99
     165 2 2 1 1 28      51     100
     166 2 2 1 1 49      28     100
     167 2 2 1 1 11      52     101
     168 2 2 1 1 49      11     101
     169 2 2 1 1 19      51     102
     170 2 2 1 1 50      19     102
     171 2 2 1 1 5      63     103
     172 2 2 1 1 50       5     103
     173 2 2 1 1 36      69     104
     174 2 2 1 1 50      36     104
     175 2 2 1 1 19      67     105
     176 2 2 1 1 51      19     105
     177 2 2 1 1 35      65     106
     178 2 2 1 1 51      35     106
     179 2 2 1 1 18      53     107
     180 2 2 1 1 52      18     107
     181 2 2 1 1 11      65     108
     182 2 2 1 1 52      11     108
     183 2 2 1 1 34      64     109
     184 2 2 1 1 52      34     109
     185 2 2 1 1 1      55     110
     186 2 2 1 1 54       1     110
     187 2 2 1 1 16      56     111
     188 2 2 1 1 55      16     111
     189 2 2 1 1 16      57     112
     190 2 2 1 1 56      16     112
     191 2 2 1 1 7      58     113
     192 2 2 1 1 57       7     113
     193 2 2 1 1 7      60     114
     194 2 2 1 1 58       7     114
     195 2 2 1 1 32      59     115
     196 2 2 1 1 58      32     115
     197 2 2 1 1 32      61     116
     198 2 2 1 1 59      32     116
     199 2 2 1 1 12      62     117
     200 2 2 1 1 59      12     117
     201 2 2 1 1 21      61     118
     202 2 2 1 1 60      21     118
     203 2 2 1 1 21      73     119
     204 2 2 1 1 61      21     119
     205 2 2 1 1 38      75     120
     206 2 2 1 1 61      38     120
     207 2 2 1 1 23      63     121
     208 2 2 1 1 62      23     121
     209 2 2 1 1 12      75     122
     210 2 2 1 1 62      12     122
     211 2 2 1 1 39      77     123
     212 2 2 1 1 62      39     123
     213 2 2 1 1 23      70     124
     214 2 2 1 1 63      23     124
     215 2 2 1 1 34      66     125
     216 2 2 1 1 64      34     125
     217 2 2 1 1 20      66     126
     218 2 2 1 1 65      20     126
     219 2 2 1 1 35      68     127
     220 2 2 1 1 65      35     127
     221 2 2 1 1 9      68     128
     222 2 2 1 1 67       9     128
     223 2 2 1 1 19      69     129
     224 2 2 1 1 67      19     129
     225 2 2 1 1 37      72     130
     226 2 2 1 1 67      37     130
     227 2 2 1 1 36      70     131
     228 2 2 1 1 69      36     131
     229 2 2 1 1 13      71     132
     230 2 2 1 1 69      13     132
     231 2 2 1 1 23      77     133
     232 2 2 1 1 70      23     133
     233 2 2 1 1 40      79     134
     234 2 2 1 1 70      40     134
     235 2 2 1 1 25      72     135
     236 2 2 1 1 71      25     135
     237 2 2 1 1 13      79     136
     238 2 2 1 1 71      13     136
     239 2 2 1 1 41      81     137
     240 2 2 1 1 71      41     137
     241 2 2 1 1 2      74     138
     242 2 2 1 1 73       2     138
     243 2 2 1 1 22      75     139
     244 2 2 1 1 74      22     139
     245 2 2 1 1 22      76     140
     246 2 2 1 1 75      22     140
     247 2 2 1 1 8      77     141
     248 2 2 1 1 76       8     141
     249 2 2 1 1 8      78     142
     250 2 2 1 1 77       8     142
     251 2 2 1 1 24      79     143
     252 2 2 1 1 78      24     143
     253 2 2 1 1 24      80     144
     254 2 2 1 1 79      24     144
     255 2 2 1 1 3      81     145
     256 2 2 1 1 80       3     145
$EndElements
