$MeshFormat
2.2 0 8
$EndMeshFormat
$Nodes
81
1 0 -5 0
2 10 -5 0
3 10 5 0
4 0 5 0
5 1.249999999998969 -5 0
6 2.499999999995362 -5 0
7 3.749999999991711 -5 0
8 4.999999999992398 -5 0
9 6.249999999994298 -5 0
10 7.499999999996199 -5 0
11 8.749999999998099 -5 0
12 10 -3.749999999998547 0
13 10 -2.500000000002472 0
14 10 -1.250000000006484 0
15 10 -6.158629162200668e-12 0
16 10 1.249999999995381 0
17 10 2.49999999999692 0
18 10 3.74999999999846 0
19 8.75 5 0
20 7.5 5 0
21 6.25 5 0
22 5 5 0
23 3.75 5 0
24 2.5 5 0
25 1.25 5 0
26 0 3.749999999998547 0
27 0 2.500000000002472 0
28 0 1.250000000006484 0
29 0 6.158629162200668e-12 0
30 0 -1.249999999995381 0
31 0 -2.49999999999692 0
32 0 -3.74999999999846 0
33 1.249999999999098 -3.749999999998471 0
34 1.249999999999227 -2.499999999997613 0
35 1.249999999999355 -1.249999999996769 0
36 1.249999999999485 4.618527782440651e-12 0
37 1.249999999999613 1.250000000005096 0
38 1.249999999999742 2.500000000001778 0
39 1.249999999999871 3.749999999998536 0
40 2.499999999995942 -3.74999999999848 0
41 2.499999999996521 -2.499999999998308 0
42 2.499999999997101 -1.249999999998157 0
43 2.499999999997681 3.079314581100334e-12 0
44 2.499999999998261 1.250000000003709 0
45 2.49999999999884 2.500000000001084 0
46 2.49999999999942 3.749999999998525 0
47 3.749999999992746 -3.749999999998491 0
48 3.749999999993784 -2.499999999999001 0
49 3.749999999994819 -1.249999999999545 0
50 3.749999999995856 1.539435245945242e-12 0
51 3.749999999996892 1.250000000002321 0
52 3.749999999997927 2.500000000000389 0
53 3.749999999998964 3.749999999998515 0
54 4.999999999993348 -3.749999999998503 0
55 4.999999999994297 -2.499999999999696 0
56 4.999999999995249 -1.250000000000932 0
57 4.999999999996197 -2.220446049250313e-16 0
58 4.99999999999715 1.250000000000933 0
59 4.999999999998098 2.499999999999696 0
60 4.999999999999051 3.749999999998503 0
61 6.249999999995009 -3.749999999998514 0
62 6.249999999995723 -2.500000000000389 0
63 6.249999999996437 -1.25000000000232 0
64 6.249999999997149 -1.539546268247705e-12 0
65 6.249999999997861 1.249999999999545 0
66 6.249999999998575 2.499999999999001 0
67 6.249999999999286 3.749999999998493 0
68 7.499999999996672 -3.749999999998526 0
69 7.499999999997148 -2.500000000001083 0
70 7.499999999997623 -1.250000000003708 0
71 7.499999999998099 -3.079536625705259e-12 0
72 7.499999999998575 1.249999999998157 0
73 7.499999999999048 2.499999999998307 0
74 7.499999999999526 3.749999999998481 0
75 8.749999999998336 -3.749999999998535 0
76 8.749999999998575 -2.500000000001777 0
77 8.749999999998813 -1.250000000005096 0
78 8.749999999999048 -4.619082893952964e-12 0
79 8.749999999999286 1.249999999996769 0
80 8.749999999999527 2.499999999997613 0
81 8.749999999999762 3.749999999998471 0
$EndNodes
$Elements
160
1 1 2 1 1 1 5
2 1 2 1 1 5 6
3 1 2 1 1 6 7
4 1 2 1 1 7 8
5 1 2 1 1 8 9
6 1 2 1 1 9 10
7 1 2 1 1 10 11
8 1 2 1 1 11 2
9 1 2 2 2 2 12
10 1 2 2 2 12 13
11 1 2 2 2 13 14
12 1 2 2 2 14 15
13 1 2 2 2 15 16
14 1 2 2 2 16 17
15 1 2 2 2 17 18
16 1 2 2 2 18 3
17 1 2 3 3 3 19
18 1 2 3 3 19 20
19 1 2 3 3 20 21
20 1 2 3 3 21 22
21 1 2 3 3 22 23
22 1 2 3 3 23 24
23 1 2 3 3 24 25
24 1 2 3 3 25 4
25 1 2 4 4 4 26
26 1 2 4 4 26 27
27 1 2 4 4 27 28
28 1 2 4 4 28 29
29 1 2 4 4 29 30
30 1 2 4 4 30 31
31 1 2 4 4 31 32
32 1 2 4 4 32 1
33 2 2 1 1 1 5 32
34 2 2 1 1 32 5 33
35 2 2 1 1 32 33 34
36 2 2 1 1 34 31 32
37 2 2 1 1 31 34 30
38 2 2 1 1 30 34 35
39 2 2 1 1 30 35 36
40 2 2 1 1 36 29 30
41 2 2 1 1 29 36 28
42 2 2 1 1 28 36 37
43 2 2 1 1 28 37 38
44 2 2 1 1 38 27 28
45 2 2 1 1 27 38 26
46 2 2 1 1 26 38 39
47 2 2 1 1 26 39 25
48 2 2 1 1 25 4 26
49 2 2 1 1 5 6 40
50 2 2 1 1 40 33 5
51 2 2 1 1 33 40 34
52 2 2 1 1 34 40 41
53 2 2 1 1 34 41 42
54 2 2 1 1 42 35 34
55 2 2 1 1 35 42 36
56 2 2 1 1 36 42 43
57 2 2 1 1 36 43 44
58 2 2 1 1 44 37 36
59 2 2 1 1 37 44 38
60 2 2 1 1 38 44 45
61 2 2 1 1 38 45 46
62 2 2 1 1 46 39 38
63 2 2 1 1 39 46 25
64 2 2 1 1 25 46 24
65 2 2 1 1 6 7 40
66 2 2 1 1 40 7 47
67 2 2 1 1 40 47 48
68 2 2 1 1 48 41 40
69 2 2 1 1 41 48 42
70 2 2 1 1 42 48 49
71 2 2 1 1 42 49 50
72 2 2 1 1 50 43 42
73 2 2 1 1 43 50 44
74 2 2 1 1 44 50 51
75 2 2 1 1 44 51 52
76 2 2 1 1 52 45 44
77 2 2 1 1 45 52 46
78 2 2 1 1 46 52 53
79 2 2 1 1 46 53 23
80 2 2 1 1 23 24 46
81 2 2 1 1 7 8 54
82 2 2 1 1 54 47 7
83 2 2 1 1 47 54 48
84 2 2 1 1 48 54 55
85 2 2 1 1 48 55 56
86 2 2 1 1 56 49 48
87 2 2 1 1 49 56 50
88 2 2 1 1 50 56 57
89 2 2 1 1 50 57 58
90 2 2 1 1 58 51 50
91 2 2 1 1 51 58 52
92 2 2 1 1 52 58 59
93 2 2 1 1 52 59 60
94 2 2 1 1 60 53 52
95 2 2 1 1 53 60 23
96 2 2 1 1 23 60 22
97 2 2 1 1 8 9 54
98 2 2 1 1 54 9 61
99 2 2 1 1 54 61 62
100 2 2 1 1 62 55 54
101 2 2 1 1 55 62 56
102 2 2 1 1 56 62 63
103 2 2 1 1 56 63 64
104 2 2 1 1 64 57 56
105 2 2 1 1 57 64 58
106 2 2 1 1 58 64 65
107 2 2 1 1 58 65 66
108 2 2 1 1 66 59 58
109 2 2 1 1 59 66 60
110 2 2 1 1 60 66 67
111 2 2 1 1 60 67 21
112 2 2 1 1 21 22 60
113 2 2 1 1 9 10 68
114 2 2 1 1 68 61 9
115 2 2 1 1 61 68 62
116 2 2 1 1 62 68 69
117 2 2 1 1 62 69 70
118 2 2 1 1 70 63 62
119 2 2 1 1 63 70 64
120 2 2 1 1 64 70 71
121 2 2 1 1 64 71 72
122 2 2 1 1 72 65 64
123 2 2 1 1 65 72 66
124 2 2 1 1 66 72 73
125 2 2 1 1 66 73 74
126 2 2 1 1 74 67 66
127 2 2 1 1 67 74 21
128 2 2 1 1 21 74 20
129 2 2 1 1 10 11 68
130 2 2 1 1 68 11 75
131 2 2 1 1 68 75 76
132 2 2 1 1 76 69 68
133 2 2 1 1 69 76 70
134 2 2 1 1 70 76 77
135 2 2 1 1 70 77 78
136 2 2 1 1 78 71 70
137 2 2 1 1 71 78 72
138 2 2 1 1 72 78 79
139 2 2 1 1 72 79 80
140 2 2 1 1 80 73 72
141 2 2 1 1 73 80 74
142 2 2 1 1 74 80 81
143 2 2 1 1 74 81 19
144 2 2 1 1 19 20 74
145 2 2 1 1 11 2 12
146 2 2 1 1 12 75 11
147 2 2 1 1 75 12 76
148 2 2 1 1 76 12 13
149 2 2 1 1 76 13 14
150 2 2 1 1 14 77 76
151 2 2 1 1 77 14 78
152 2 2 1 1 78 14 15
153 2 2 1 1 78 15 16
154 2 2 1 1 16 79 78
155 2 2 1 1 79 16 80
156 2 2 1 1 80 16 17
157 2 2 1 1 80 17 18
158 2 2 1 1 18 81 80
159 2 2 1 1 81 18 19
160 2 2 1 1 19 18 3
$EndElements
