$MeshFormat
2.2 0 8
$EndMeshFormat
$Nodes
145
1 -1 -1 0
2 -1 1 0
3 1 1 0
4 1 -1 0
5 -1 0.7500000000004167 0
6 -1 0.5000000000011573 0
7 -1 0.250000000001955 0
8 -1 2.752797989558076e-12 0
9 -1 -0.2499999999979354 0
10 -1 -0.4999999999986235 0
11 -1 -0.7499999999993117 0
12 -0.7500000000004167 -1 0
13 -0.5000000000011573 -1 0
14 -0.250000000001955 -1 0
15 -2.752797989558076e-12 -1 0
16 0.2499999999979354 -1 0
17 0.4999999999986235 -1 0
18 0.7499999999993117 -1 0
19 1 -0.7500000000004167 0
20 1 -0.5000000000011573 0
21 1 -0.250000000001955 0
22 1 -2.752797989558076e-12 0
23 1 0.2499999999979354 0
24 1 0.4999999999986235 0
25 1 0.7499999999993117 0
26 0.7500000000004167 1 0
27 0.5000000000011573 1 0
28 0.250000000001955 1 0
29 2.752797989558076e-12 1 0
30 -0.2499999999979354 1 0
31 -0.4999999999986235 1 0
32 -0.7499999999993117 1 0
33 0 0 0
34 0.5000000000013765 0.4999999999986236 0
35 0.4999999999986236 -0.5000000000013765 0
36 -0.5000000000013765 -0.4999999999986235 0
37 -0.4999999999989747 0.5000000000010252 0
38 -0.2500000000020647 -0.7499999999993118 0
39 0.2499999999979354 -0.7500000000006882 0
40 -1.376426750354653e-12 -0.5 0
41 0.5 -1.376426750354653e-12 0
42 0.7499999999993118 -0.2500000000020646 0
43 0.7500000000006882 0.2499999999979354 0
44 0.2499999999993118 -0.2500000000006882 0
45 0.2500000000006882 0.2499999999993118 0
46 -0.2500000000006882 -0.2499999999993118 0
47 -0.7500000000006882 -0.7499999999993118 0
48 -0.7500000000006882 -0.2499999999979353 0
49 -0.7499999999994873 0.7500000000005126 0
50 -0.249999999998111 0.7500000000005126 0
51 0.7500000000006882 0.7499999999993118 0
52 0.7499999999993118 -0.7500000000006882 0
53 -0.5 1.376398994779038e-12 0
54 -0.2499999999994873 0.2500000000005126 0
55 -0.7499999999994873 0.250000000001889 0
56 1.376398994779038e-12 0.5 0
57 0.2500000000020646 0.7499999999993118 0
58 -0.3750000000017206 -0.6249999999989677 0
59 -0.1250000000017206 -0.6249999999996558 0
60 -0.2500000000013765 -0.4999999999993117 0
61 -2.06464012553198e-12 -0.75 0
62 0.1249999999982795 -0.6250000000003442 0
63 -0.1250000000024088 -0.8749999999996558 0
64 0.1249999999975913 -0.8750000000003442 0
65 0.3749999999982795 -0.6250000000010323 0
66 0.2499999999986236 -0.5000000000006882 0
67 0.5000000000006882 0.2499999999986236 0
68 0.6250000000003442 0.1249999999982795 0
69 0.6250000000010323 0.3749999999982795 0
70 0.6249999999996558 -0.1250000000017205 0
71 0.75 -2.064612369956365e-12 0
72 0.4999999999993118 -0.2500000000013765 0
73 0.6249999999989677 -0.3750000000017205 0
74 0.8749999999996558 -0.1250000000024087 0
75 0.8750000000003442 0.1249999999975913 0
76 0.1249999999996559 -0.1250000000003441 0
77 0.25 -6.882133751773267e-13 0
78 0.1250000000003441 0.1249999999996559 0
79 0.3749999999996559 -0.1250000000010323 0
80 0.3750000000003441 0.1249999999989677 0
81 0.3749999999989677 -0.3750000000010323 0
82 0.3750000000010323 0.3749999999989677 0
83 -0.1250000000003441 -0.1249999999996559 0
84 -6.882133751773267e-13 -0.25 0
85 -0.1250000000010323 -0.3749999999996559 0
86 0.1249999999989677 -0.3750000000003441 0
87 -0.3750000000010323 -0.3749999999989677 0
88 -0.8750000000003442 -0.8749999999996558 0
89 -0.8750000000003442 -0.6249999999989677 0
90 -0.7500000000006882 -0.4999999999986235 0
91 -0.8750000000003442 -0.3749999999982795 0
92 -0.6250000000010323 -0.6249999999989677 0
93 -0.6250000000010323 -0.3749999999982794 0
94 -0.8750000000003442 -0.1249999999975913 0
95 -0.8749999999997436 0.8750000000002562 0
96 -0.6249999999990554 0.8750000000002562 0
97 -0.4999999999987991 0.7500000000005126 0
98 -0.3749999999983673 0.8750000000002562 0
99 -0.6249999999992311 0.6250000000007689 0
100 -0.3749999999985428 0.6250000000007689 0
101 -0.1249999999976791 0.8750000000002562 0
102 0.8750000000003442 0.8749999999996558 0
103 0.8750000000003442 0.6249999999989677 0
104 0.7500000000006882 0.4999999999986236 0
105 0.8750000000003442 0.3749999999982795 0
106 0.6250000000010323 0.6249999999989677 0
107 0.8749999999996558 -0.8750000000003442 0
108 0.6249999999989677 -0.8750000000003442 0
109 0.4999999999986236 -0.7500000000006882 0
110 0.3749999999982795 -0.8750000000003442 0
111 0.6249999999989677 -0.6250000000010323 0
112 -0.6250000000003442 -0.1249999999982795 0
113 -0.75 2.064598492168557e-12 0
114 -0.5000000000006882 -0.2499999999986235 0
115 -0.3750000000003441 -0.1249999999989677 0
116 -0.25 6.881994973895189e-13 0
117 -0.6249999999997436 0.1250000000016327 0
118 -0.8749999999997436 0.1250000000023209 0
119 -0.3749999999997436 0.1250000000009445 0
120 -0.4999999999994873 0.2500000000012008 0
121 -0.1249999999997436 0.1250000000002563 0
122 -0.374999999999231 0.3750000000007689 0
123 -0.6249999999992311 0.3750000000014571 0
124 2.064598492168557e-12 0.75 0
125 0.1250000000017205 0.6249999999996558 0
126 0.1250000000024087 0.8749999999996558 0
127 0.1250000000010323 0.3749999999996559 0
128 0.2500000000013765 0.4999999999993118 0
129 6.881994973895189e-13 0.25 0
130 0.3750000000017205 0.6249999999989677 0
131 -0.1249999999983673 0.6250000000002562 0
132 -0.2499999999987991 0.5000000000005126 0
133 -0.1249999999990555 0.3750000000002563 0
134 -0.6250000000009228 -0.8749999999996558 0
135 -0.375000000001611 -0.8749999999996558 0
136 -0.5000000000013765 -0.7499999999993118 0
137 0.6250000000009228 0.8749999999996558 0
138 0.3750000000016109 0.8749999999996558 0
139 0.5000000000013765 0.7499999999993118 0
140 0.8749999999996558 -0.6250000000009228 0
141 0.8749999999996558 -0.3750000000016109 0
142 0.7499999999993118 -0.5000000000013765 0
143 -0.8749999999997436 0.6250000000008349 0
144 -0.8749999999997436 0.3750000000015231 0
145 -0.7499999999994873 0.5000000000012008 0
$EndNodes
$Elements
292
1 15 2 0 1 1
2 15 2 0 2 2
3 15 2 0 3 3
4 15 2 0 4 4
5 1 2 0 1 2 5
6 1 2 0 1 5 6
7 1 2 0 1 6 7
8 1 2 0 1 7 8
9 1 2 0 1 8 9
10 1 2 0 1 9 10
11 1 2 0 1 10 11
12 1 2 0 1 11 1
13 1 2 0 2 1 12
14 1 2 0 2 12 13
15 1 2 0 2 13 14
16 1 2 0 2 14 15
17 1 2 0 2 15 16
18 1 2 0 2 16 17
19 1 2 0 2 17 18
20 1 2 0 2 18 4
21 1 2 0 3 4 19
22 1 2 0 3 19 20
23 1 2 0 3 20 21
24 1 2 0 3 21 22
25 1 2 0 3 22 23
26 1 2 0 3 23 24
27 1 2 0 3 24 25
28 1 2 0 3 25 3
29 1 2 0 4 3 26
30 1 2 0 4 26 27
31 1 2 0 4 27 28
32 1 2 0 4 28 29
33 1 2 0 4 29 30
34 1 2 0 4 30 31
35 1 2 0 4 31 32
36 1 2 0 4 32 2
37 2 2 0 6 36 58 60
38 2 2 0 6 58 59 60
39 2 2 0 6 58 38 59
40 2 2 0 6 60 59 40
41 2 2 0 6 38 61 59
42 2 2 0 6 61 62 59
43 2 2 0 6 61 39 62
44 2 2 0 6 59 62 40
45 2 2 0 6 38 63 61
46 2 2 0 6 63 64 61
47 2 2 0 6 63 15 64
48 2 2 0 6 61 64 39
49 2 2 0 6 40 62 66
50 2 2 0 6 62 65 66
51 2 2 0 6 62 39 65
52 2 2 0 6 66 65 35
53 2 2 0 6 34 67 69
54 2 2 0 6 67 68 69
55 2 2 0 6 67 41 68
56 2 2 0 6 69 68 43
57 2 2 0 6 41 70 68
58 2 2 0 6 70 71 68
59 2 2 0 6 70 42 71
60 2 2 0 6 68 71 43
61 2 2 0 6 41 72 70
62 2 2 0 6 72 73 70
63 2 2 0 6 72 35 73
64 2 2 0 6 70 73 42
65 2 2 0 6 43 71 75
66 2 2 0 6 71 74 75
67 2 2 0 6 71 42 74
68 2 2 0 6 75 74 22
69 2 2 0 6 33 76 78
70 2 2 0 6 76 77 78
71 2 2 0 6 76 44 77
72 2 2 0 6 78 77 45
73 2 2 0 6 44 79 77
74 2 2 0 6 79 80 77
75 2 2 0 6 79 41 80
76 2 2 0 6 77 80 45
77 2 2 0 6 44 81 79
78 2 2 0 6 81 72 79
79 2 2 0 6 81 35 72
80 2 2 0 6 79 72 41
81 2 2 0 6 45 80 82
82 2 2 0 6 80 67 82
83 2 2 0 6 80 41 67
84 2 2 0 6 82 67 34
85 2 2 0 6 33 83 76
86 2 2 0 6 83 84 76
87 2 2 0 6 83 46 84
88 2 2 0 6 76 84 44
89 2 2 0 6 46 85 84
90 2 2 0 6 85 86 84
91 2 2 0 6 85 40 86
92 2 2 0 6 84 86 44
93 2 2 0 6 46 87 85
94 2 2 0 6 87 60 85
95 2 2 0 6 87 36 60
96 2 2 0 6 85 60 40
97 2 2 0 6 44 86 81
98 2 2 0 6 86 66 81
99 2 2 0 6 86 40 66
100 2 2 0 6 81 66 35
101 2 2 0 6 1 88 11
102 2 2 0 6 88 89 11
103 2 2 0 6 88 47 89
104 2 2 0 6 11 89 10
105 2 2 0 6 47 90 89
106 2 2 0 6 90 91 89
107 2 2 0 6 90 48 91
108 2 2 0 6 89 91 10
109 2 2 0 6 47 92 90
110 2 2 0 6 92 93 90
111 2 2 0 6 92 36 93
112 2 2 0 6 90 93 48
113 2 2 0 6 10 91 9
114 2 2 0 6 91 94 9
115 2 2 0 6 91 48 94
116 2 2 0 6 9 94 8
117 2 2 0 6 2 95 32
118 2 2 0 6 95 96 32
119 2 2 0 6 95 49 96
120 2 2 0 6 32 96 31
121 2 2 0 6 49 97 96
122 2 2 0 6 97 98 96
123 2 2 0 6 97 50 98
124 2 2 0 6 96 98 31
125 2 2 0 6 49 99 97
126 2 2 0 6 99 100 97
127 2 2 0 6 99 37 100
128 2 2 0 6 97 100 50
129 2 2 0 6 31 98 30
130 2 2 0 6 98 101 30
131 2 2 0 6 98 50 101
132 2 2 0 6 30 101 29
133 2 2 0 6 3 102 25
134 2 2 0 6 102 103 25
135 2 2 0 6 102 51 103
136 2 2 0 6 25 103 24
137 2 2 0 6 51 104 103
138 2 2 0 6 104 105 103
139 2 2 0 6 104 43 105
140 2 2 0 6 103 105 24
141 2 2 0 6 51 106 104
142 2 2 0 6 106 69 104
143 2 2 0 6 106 34 69
144 2 2 0 6 104 69 43
145 2 2 0 6 24 105 23
146 2 2 0 6 105 75 23
147 2 2 0 6 105 43 75
148 2 2 0 6 23 75 22
149 2 2 0 6 4 107 18
150 2 2 0 6 107 108 18
151 2 2 0 6 107 52 108
152 2 2 0 6 18 108 17
153 2 2 0 6 52 109 108
154 2 2 0 6 109 110 108
155 2 2 0 6 109 39 110
156 2 2 0 6 108 110 17
157 2 2 0 6 52 111 109
158 2 2 0 6 111 65 109
159 2 2 0 6 111 35 65
160 2 2 0 6 109 65 39
161 2 2 0 6 17 110 16
162 2 2 0 6 110 64 16
163 2 2 0 6 110 39 64
164 2 2 0 6 16 64 15
165 2 2 0 6 8 94 113
166 2 2 0 6 94 112 113
167 2 2 0 6 94 48 112
168 2 2 0 6 113 112 53
169 2 2 0 6 48 114 112
170 2 2 0 6 114 115 112
171 2 2 0 6 114 46 115
172 2 2 0 6 112 115 53
173 2 2 0 6 48 93 114
174 2 2 0 6 93 87 114
175 2 2 0 6 93 36 87
176 2 2 0 6 114 87 46
177 2 2 0 6 53 115 116
178 2 2 0 6 115 83 116
179 2 2 0 6 115 46 83
180 2 2 0 6 116 83 33
181 2 2 0 6 8 113 118
182 2 2 0 6 113 117 118
183 2 2 0 6 113 53 117
184 2 2 0 6 118 117 55
185 2 2 0 6 53 119 117
186 2 2 0 6 119 120 117
187 2 2 0 6 119 54 120
188 2 2 0 6 117 120 55
189 2 2 0 6 53 116 119
190 2 2 0 6 116 121 119
191 2 2 0 6 116 33 121
192 2 2 0 6 119 121 54
193 2 2 0 6 55 120 123
194 2 2 0 6 120 122 123
195 2 2 0 6 120 54 122
196 2 2 0 6 123 122 37
197 2 2 0 6 29 124 126
198 2 2 0 6 124 125 126
199 2 2 0 6 124 56 125
200 2 2 0 6 126 125 57
201 2 2 0 6 56 127 125
202 2 2 0 6 127 128 125
203 2 2 0 6 127 45 128
204 2 2 0 6 125 128 57
205 2 2 0 6 56 129 127
206 2 2 0 6 129 78 127
207 2 2 0 6 129 33 78
208 2 2 0 6 127 78 45
209 2 2 0 6 57 128 130
210 2 2 0 6 128 82 130
211 2 2 0 6 128 45 82
212 2 2 0 6 130 82 34
213 2 2 0 6 29 101 124
214 2 2 0 6 101 131 124
215 2 2 0 6 101 50 131
216 2 2 0 6 124 131 56
217 2 2 0 6 50 132 131
218 2 2 0 6 132 133 131
219 2 2 0 6 132 54 133
220 2 2 0 6 131 133 56
221 2 2 0 6 50 100 132
222 2 2 0 6 100 122 132
223 2 2 0 6 100 37 122
224 2 2 0 6 132 122 54
225 2 2 0 6 56 133 129
226 2 2 0 6 133 121 129
227 2 2 0 6 133 54 121
228 2 2 0 6 129 121 33
229 2 2 0 6 1 12 88
230 2 2 0 6 12 134 88
231 2 2 0 6 12 13 134
232 2 2 0 6 88 134 47
233 2 2 0 6 13 135 134
234 2 2 0 6 135 136 134
235 2 2 0 6 135 38 136
236 2 2 0 6 134 136 47
237 2 2 0 6 13 14 135
238 2 2 0 6 14 63 135
239 2 2 0 6 14 15 63
240 2 2 0 6 135 63 38
241 2 2 0 6 47 136 92
242 2 2 0 6 136 58 92
243 2 2 0 6 136 38 58
244 2 2 0 6 92 58 36
245 2 2 0 6 3 26 102
246 2 2 0 6 26 137 102
247 2 2 0 6 26 27 137
248 2 2 0 6 102 137 51
249 2 2 0 6 27 138 137
250 2 2 0 6 138 139 137
251 2 2 0 6 138 57 139
252 2 2 0 6 137 139 51
253 2 2 0 6 27 28 138
254 2 2 0 6 28 126 138
255 2 2 0 6 28 29 126
256 2 2 0 6 138 126 57
257 2 2 0 6 51 139 106
258 2 2 0 6 139 130 106
259 2 2 0 6 139 57 130
260 2 2 0 6 106 130 34
261 2 2 0 6 4 19 107
262 2 2 0 6 19 140 107
263 2 2 0 6 19 20 140
264 2 2 0 6 107 140 52
265 2 2 0 6 20 141 140
266 2 2 0 6 141 142 140
267 2 2 0 6 141 42 142
268 2 2 0 6 140 142 52
269 2 2 0 6 20 21 141
270 2 2 0 6 21 74 141
271 2 2 0 6 21 22 74
272 2 2 0 6 141 74 42
273 2 2 0 6 52 142 111
274 2 2 0 6 142 73 111
275 2 2 0 6 142 42 73
276 2 2 0 6 111 73 35
277 2 2 0 6 2 5 95
278 2 2 0 6 5 143 95
279 2 2 0 6 5 6 143
280 2 2 0 6 95 143 49
281 2 2 0 6 6 144 143
282 2 2 0 6 144 145 143
283 2 2 0 6 144 55 145
284 2 2 0 6 143 145 49
285 2 2 0 6 6 7 144
286 2 2 0 6 7 118 144
287 2 2 0 6 7 8 118
288 2 2 0 6 144 118 55
289 2 2 0 6 49 145 99
290 2 2 0 6 145 123 99
291 2 2 0 6 145 55 123
292 2 2 0 6 99 123 37
$EndElements
