$MeshFormat
2.2 0 8
$EndMeshFormat
$Nodes
545
1 -1 -1 0
2 1 -1 0
3 1 1 0
4 -1 1 0
5 -0.8750000000002213 -1 0
6 -0.7500000000004167 -1 0
7 -0.6250000000007869 -1 0
8 -0.5000000000011573 -1 0
9 -0.3750000000015561 -1 0
10 -0.250000000001955 -1 0
11 -0.1250000000023539 -1 0
12 -2.752797989558076e-12 -1 0
13 0.1249999999975913 -1 0
14 0.2499999999979354 -1 0
15 0.3749999999982796 -1 0
16 0.4999999999986235 -1 0
17 0.6249999999989677 -1 0
18 0.7499999999993117 -1 0
19 0.8749999999996558 -1 0
20 1 -0.8750000000002213 0
21 1 -0.7500000000004167 0
22 1 -0.6250000000007869 0
23 1 -0.5000000000011573 0
24 1 -0.3750000000015561 0
25 1 -0.250000000001955 0
26 1 -0.1250000000023539 0
27 1 -2.752797989558076e-12 0
28 1 0.1249999999975913 0
29 1 0.2499999999979354 0
30 1 0.3749999999982796 0
31 1 0.4999999999986235 0
32 1 0.6249999999989677 0
33 1 0.7499999999993117 0
34 1 0.8749999999996558 0
35 0.8750000000002213 1 0
36 0.7500000000004167 1 0
37 0.6250000000007869 1 0
38 0.5000000000011573 1 0
39 0.3750000000015561 1 0
40 0.250000000001955 1 0
41 0.1250000000023539 1 0
42 2.752797989558076e-12 1 0
43 -0.1249999999975913 1 0
44 -0.2499999999979354 1 0
45 -0.3749999999982796 1 0
46 -0.4999999999986235 1 0
47 -0.6249999999989677 1 0
48 -0.7499999999993117 1 0
49 -0.8749999999996558 1 0
50 -1 0.8750000000002213 0
51 -1 0.7500000000004167 0
52 -1 0.6250000000007869 0
53 -1 0.5000000000011573 0
54 -1 0.3750000000015561 0
55 -1 0.250000000001955 0
56 -1 0.1250000000023539 0
57 -1 2.752797989558076e-12 0
58 -1 -0.1249999999975913 0
59 -1 -0.2499999999979354 0
60 -1 -0.3749999999982796 0
61 -1 -0.4999999999986235 0
62 -1 -0.6249999999989677 0
63 -1 -0.7499999999993117 0
64 -1 -0.8749999999996558 0
65 0 0 0
66 -0.5000000000013765 -0.4999999999986236 0
67 0.4999999999988027 -0.5000000000011973 0
68 0.5000000000011973 0.4999999999988027 0
69 -0.4999999999986235 0.5000000000013765 0
70 -0.2500000000006882 -0.2499999999993118 0
71 -0.2500000000020647 -0.7499999999993118 0
72 -1.376398994779038e-12 -0.5 0
73 0.5 -1.376398994779038e-12 0
74 0.2499999999994014 -0.2500000000005986 0
75 0.7499999999994014 -0.250000000001975 0
76 1.376398994779038e-12 0.5 0
77 0.2500000000005986 0.2499999999994014 0
78 0.250000000001975 0.7499999999994014 0
79 -0.7499999999993118 0.2500000000020646 0
80 -0.7500000000006882 -0.2499999999979354 0
81 -0.5 1.376426750354653e-12 0
82 0.249999999998025 -0.7500000000005986 0
83 0.7500000000005986 0.249999999998025 0
84 -0.2499999999993118 0.2500000000006882 0
85 -0.2499999999979353 0.7500000000006882 0
86 -0.7500000000006882 -0.7499999999993118 0
87 0.7499999999994014 -0.7500000000005986 0
88 0.7500000000005986 0.7499999999994014 0
89 -0.7499999999993118 0.7500000000006882 0
90 -0.1250000000003441 -0.1249999999996559 0
91 -0.1250000000010323 -0.3749999999996559 0
92 -6.881994973895189e-13 -0.25 0
93 -0.2500000000013765 -0.4999999999993117 0
94 -0.1250000000017205 -0.6249999999996558 0
95 -0.3750000000010323 -0.3749999999989678 0
96 -0.3750000000017206 -0.6249999999989677 0
97 -0.1250000000024088 -0.8749999999996558 0
98 -2.064598492168557e-12 -0.75 0
99 0.75 -2.064598492168557e-12 0
100 0.6249999999997007 -0.1250000000016757 0
101 0.8749999999997007 -0.1250000000023639 0
102 0.3749999999997007 -0.1250000000009875 0
103 0.4999999999994014 -0.2500000000012869 0
104 0.25 -6.881994973895189e-13 0
105 0.1249999999997007 -0.1250000000002993 0
106 0.3749999999991021 -0.3750000000008979 0
107 0.6249999999991021 -0.3750000000015862 0
108 2.064598492168557e-12 0.75 0
109 0.1250000000016757 0.6249999999997007 0
110 0.1250000000023639 0.8749999999997007 0
111 0.1250000000009875 0.3749999999997007 0
112 0.2500000000012869 0.4999999999994014 0
113 6.881994973895189e-13 0.25 0
114 0.1250000000002993 0.1249999999997007 0
115 0.3750000000008979 0.3749999999991021 0
116 0.3750000000015862 0.6249999999991021 0
117 -0.6249999999989677 0.3750000000017205 0
118 -0.6249999999996558 0.1250000000017205 0
119 -0.4999999999993118 0.2500000000013765 0
120 -0.75 2.064612369956365e-12 0
121 -0.6250000000003442 -0.1249999999982795 0
122 -0.8749999999996558 0.1250000000024087 0
123 -0.8750000000003442 -0.1249999999975913 0
124 -0.6250000000010323 -0.3749999999982795 0
125 -0.5000000000006882 -0.2499999999986236 0
126 0.2499999999987132 -0.5000000000005986 0
127 0.3749999999984138 -0.6250000000008979 0
128 0.1249999999990125 -0.3750000000002993 0
129 0.1249999999983243 -0.6250000000002993 0
130 0.1249999999976361 -0.8750000000002992 0
131 0.5000000000005986 0.2499999999987132 0
132 0.6250000000008979 0.3749999999984138 0
133 0.3750000000002993 0.1249999999990125 0
134 0.6250000000002993 0.1249999999983243 0
135 0.8750000000002993 0.1249999999976361 0
136 -0.3749999999989677 0.3750000000010323 0
137 -0.2499999999986235 0.5000000000006882 0
138 -0.3749999999982794 0.6250000000010323 0
139 -0.1249999999989677 0.3750000000003441 0
140 -0.1249999999982794 0.6250000000003442 0
141 -0.1249999999996559 0.1250000000003441 0
142 -0.1249999999975913 0.8750000000003442 0
143 -0.25 6.881994973895189e-13 0
144 -0.3749999999996559 0.1250000000010323 0
145 -0.3750000000003441 -0.1249999999989677 0
146 -0.8750000000003442 -0.8749999999996558 0
147 -0.8750000000003442 -0.6249999999989677 0
148 -0.7500000000006882 -0.4999999999986236 0
149 -0.8750000000003442 -0.3749999999982795 0
150 -0.6250000000010323 -0.6249999999989677 0
151 0.8749999999997007 -0.8750000000002992 0
152 0.6249999999990125 -0.8750000000002992 0
153 0.4999999999987131 -0.7500000000005985 0
154 0.3749999999983242 -0.8750000000002992 0
155 0.6249999999991021 -0.6250000000008979 0
156 0.8750000000002993 0.8749999999997007 0
157 0.8750000000002993 0.6249999999990125 0
158 0.7500000000005986 0.4999999999987131 0
159 0.8750000000002993 0.3749999999983242 0
160 0.6250000000008979 0.6249999999991021 0
161 -0.8749999999996558 0.8750000000003442 0
162 -0.6249999999989677 0.8750000000003442 0
163 -0.4999999999986235 0.7500000000006882 0
164 -0.3749999999982794 0.8750000000003442 0
165 -0.6249999999989677 0.6250000000010323 0
166 -0.6250000000009228 -0.8749999999996558 0
167 -0.375000000001611 -0.8749999999996558 0
168 -0.5000000000013765 -0.7499999999993118 0
169 0.8749999999997007 -0.625000000000878 0
170 0.8749999999997007 -0.3750000000015662 0
171 0.7499999999994014 -0.5000000000012869 0
172 0.625000000000878 0.8749999999997007 0
173 0.3750000000015662 0.8749999999997007 0
174 0.5000000000012869 0.7499999999994014 0
175 -0.8749999999996558 0.6250000000009228 0
176 -0.8749999999996558 0.3750000000016109 0
177 -0.7499999999993118 0.5000000000013765 0
178 -0.06250000000017206 -0.06249999999982796 0
179 -0.06250000000051616 -0.187499999999828 0
180 -3.440997486947595e-13 -0.125 0
181 -0.1250000000006882 -0.2499999999996559 0
182 -0.06250000000086026 -0.312499999999828 0
183 -0.1875000000005162 -0.1874999999994839 0
184 -0.1875000000008603 -0.3124999999994839 0
185 -0.06250000000120436 -0.437499999999828 0
186 -1.032299246084278e-12 -0.375 0
187 -0.2500000000010323 -0.3749999999993118 0
188 -0.1875000000012044 -0.4374999999994839 0
189 -0.1875000000015485 -0.5624999999994837 0
190 -0.1250000000013765 -0.4999999999996559 0
191 -0.2500000000017206 -0.6249999999993118 0
192 -0.1875000000018926 -0.6874999999994837 0
193 -0.06250000000154847 -0.5624999999998279 0
194 -0.3125000000008603 -0.3124999999991397 0
195 -0.3125000000012044 -0.4374999999991398 0
196 -0.3750000000013765 -0.4999999999989678 0
197 -0.3125000000015485 -0.5624999999991397 0
198 -0.4375000000012043 -0.4374999999987957 0
199 -0.4375000000015485 -0.5624999999987956 0
200 -0.3125000000018927 -0.6874999999991398 0
201 -0.06250000000189257 -0.6874999999998278 0
202 -1.720498743473797e-12 -0.625 0
203 -0.1250000000020647 -0.7499999999996558 0
204 -0.06250000000223668 -0.8124999999998279 0
205 -0.1875000000022367 -0.8124999999994836 0
206 -0.0625000000025808 -0.9374999999998279 0
207 -2.408698240863316e-12 -0.875 0
208 0.875 -2.408698240863316e-12 0
209 0.8124999999998503 -0.06250000000221426 0
210 0.9374999999998503 -0.06250000000255836 0
211 0.6874999999998503 -0.06250000000187016 0
212 0.7499999999997007 -0.1250000000020198 0
213 0.625 -1.720498743473797e-12 0
214 0.5624999999998503 -0.06250000000152606 0
215 0.687499999999551 -0.1875000000018254 0
216 0.812499999999551 -0.1875000000021695 0
217 0.4374999999998503 -0.06250000000118196 0
218 0.4999999999997007 -0.1250000000013316 0
219 0.437499999999551 -0.1875000000011372 0
220 0.562499999999551 -0.1875000000014813 0
221 0.312499999999551 -0.1875000000007931 0
222 0.3749999999994014 -0.2500000000009427 0
223 0.6249999999994014 -0.2500000000016309 0
224 0.375 -1.032299246084278e-12 0
225 0.3124999999998503 -0.06250000000083786 0
226 0.1874999999998503 -0.06250000000049376 0
227 0.2499999999997007 -0.1250000000006434 0
228 0.125 -3.440997486947595e-13 0
229 0.06249999999985035 -0.06250000000014966 0
230 0.187499999999551 -0.187500000000449 0
231 0.5624999999992517 -0.3125000000014365 0
232 0.6874999999992517 -0.3125000000017806 0
233 0.4374999999992517 -0.3125000000010923 0
234 0.4999999999991021 -0.375000000001242 0
235 0.3124999999992517 -0.3125000000007483 0
236 0.4374999999989524 -0.4375000000010476 0
237 0.5624999999989524 -0.4375000000013917 0
238 2.408698240863316e-12 0.875 0
239 0.06250000000221426 0.8124999999998503 0
240 0.06250000000255836 0.9374999999998503 0
241 0.06250000000187016 0.6874999999998503 0
242 0.1250000000020198 0.7499999999997007 0
243 1.720498743473797e-12 0.625 0
244 0.06250000000152606 0.5624999999998503 0
245 0.1875000000018254 0.687499999999551 0
246 0.1875000000021695 0.812499999999551 0
247 0.06250000000118196 0.4374999999998503 0
248 0.1250000000013316 0.4999999999997007 0
249 0.1875000000011372 0.437499999999551 0
250 0.1875000000014813 0.562499999999551 0
251 0.1875000000007931 0.312499999999551 0
252 0.2500000000009427 0.3749999999994014 0
253 0.2500000000016309 0.6249999999994014 0
254 1.032299246084278e-12 0.375 0
255 0.06250000000083786 0.3124999999998503 0
256 0.06250000000049376 0.1874999999998503 0
257 0.1250000000006434 0.2499999999997007 0
258 3.440997486947595e-13 0.125 0
259 0.06250000000014966 0.06249999999985034 0
260 0.187500000000449 0.187499999999551 0
261 0.3125000000014365 0.5624999999992517 0
262 0.3125000000017806 0.6874999999992517 0
263 0.3125000000010924 0.4374999999992517 0
264 0.3750000000012421 0.4999999999991021 0
265 0.3125000000007483 0.3124999999992517 0
266 0.4375000000010476 0.4374999999989524 0
267 0.4375000000013917 0.5624999999989524 0
268 -0.5624999999987956 0.4375000000015485 0
269 -0.5624999999991398 0.3125000000015485 0
270 -0.4999999999989675 0.3750000000013765 0
271 -0.6249999999993118 0.2500000000017205 0
272 -0.5624999999994837 0.1875000000015485 0
273 -0.6874999999991398 0.3125000000018926 0
274 -0.6874999999994837 0.1875000000018926 0
275 -0.5624999999998279 0.06250000000154847 0
276 -0.4999999999996558 0.1250000000013765 0
277 -0.7499999999996558 0.1250000000020646 0
278 -0.6874999999998278 0.06250000000189257 0
279 -0.6875000000001721 -0.06249999999810744 0
280 -0.625 1.720512621261605e-12 0
281 -0.7500000000003442 -0.1249999999979354 0
282 -0.6875000000005163 -0.1874999999981075 0
283 -0.5625000000001721 -0.06249999999845152 0
284 -0.8124999999994836 0.1875000000022367 0
285 -0.8124999999998279 0.06250000000223666 0
286 -0.875 2.408698240863316e-12 0
287 -0.8125000000001721 -0.06249999999776335 0
288 -0.9374999999998279 0.06250000000258076 0
289 -0.9375000000001721 -0.06249999999741927 0
290 -0.8125000000005163 -0.1874999999977633 0
291 -0.5625000000005163 -0.1874999999984515 0
292 -0.5000000000003442 -0.1249999999986236 0
293 -0.6250000000006882 -0.2499999999982795 0
294 -0.5625000000008602 -0.3124999999984516 0
295 -0.6875000000008602 -0.3124999999981075 0
296 -0.5625000000012044 -0.4374999999984516 0
297 -0.5000000000010323 -0.3749999999986236 0
298 0.3749999999987579 -0.5000000000008979 0
299 0.4374999999986083 -0.5625000000010476 0
300 0.3124999999989076 -0.4375000000007483 0
301 0.3124999999985635 -0.5625000000007483 0
302 0.2499999999990573 -0.3750000000005986 0
303 0.2499999999983691 -0.6250000000005986 0
304 0.3124999999982194 -0.6875000000007483 0
305 0.1874999999992069 -0.312500000000449 0
306 0.1874999999988628 -0.437500000000449 0
307 0.1249999999986684 -0.5000000000002993 0
308 0.1874999999985187 -0.562500000000449 0
309 0.06249999999881804 -0.4375000000001496 0
310 0.06249999999847394 -0.5625000000001497 0
311 0.1874999999981746 -0.687500000000449 0
312 0.1249999999993566 -0.2500000000002993 0
313 0.06249999999950624 -0.1875000000001497 0
314 0.06249999999916214 -0.3125000000001497 0
315 0.1249999999979802 -0.7500000000002993 0
316 0.1874999999978305 -0.812500000000449 0
317 0.06249999999812984 -0.6875000000001497 0
318 0.06249999999778574 -0.8125000000001497 0
319 0.06249999999744164 -0.9375000000001497 0
320 0.5000000000008979 0.3749999999987579 0
321 0.5625000000010476 0.4374999999986083 0
322 0.4375000000007483 0.3124999999989076 0
323 0.5625000000007483 0.3124999999985635 0
324 0.3750000000005986 0.2499999999990573 0
325 0.6250000000005986 0.2499999999983691 0
326 0.6875000000007483 0.3124999999982194 0
327 0.312500000000449 0.1874999999992069 0
328 0.437500000000449 0.1874999999988628 0
329 0.5000000000002993 0.1249999999986684 0
330 0.562500000000449 0.1874999999985187 0
331 0.4375000000001497 0.06249999999881804 0
332 0.5625000000001497 0.06249999999847394 0
333 0.687500000000449 0.1874999999981746 0
334 0.2500000000002993 0.1249999999993566 0
335 0.1875000000001497 0.06249999999950624 0
336 0.3125000000001497 0.06249999999916214 0
337 0.7500000000002993 0.1249999999979802 0
338 0.812500000000449 0.1874999999978305 0
339 0.6875000000001497 0.06249999999812984 0
340 0.8125000000001497 0.06249999999778574 0
341 0.9375000000001497 0.06249999999744164 0
342 -0.4374999999987956 0.4375000000012044 0
343 -0.3749999999986235 0.5000000000010323 0
344 -0.4374999999984515 0.5625000000012044 0
345 -0.3124999999987956 0.4375000000008603 0
346 -0.3124999999984514 0.5625000000008602 0
347 -0.3124999999991397 0.3125000000008603 0
348 -0.2499999999989677 0.3750000000006882 0
349 -0.2499999999982794 0.6250000000006882 0
350 -0.3124999999981074 0.6875000000008602 0
351 -0.1874999999991397 0.3125000000005161 0
352 -0.1874999999987956 0.4375000000005161 0
353 -0.1249999999986235 0.5000000000003442 0
354 -0.1874999999984515 0.5625000000005163 0
355 -0.06249999999879563 0.4375000000001721 0
356 -0.06249999999845152 0.5625000000001721 0
357 -0.1874999999981074 0.6875000000005163 0
358 -0.1874999999994839 0.1875000000005162 0
359 -0.1249999999993118 0.2500000000003441 0
360 -0.06249999999948384 0.1875000000001721 0
361 -0.06249999999913972 0.3125000000001721 0
362 -0.06249999999982795 0.06250000000017206 0
363 -0.1249999999979353 0.7500000000003442 0
364 -0.1874999999977633 0.8125000000005163 0
365 -0.06249999999810741 0.6875000000001721 0
366 -0.06249999999776332 0.8125000000001721 0
367 -0.06249999999741922 0.9375000000001721 0
368 -0.125 3.440928098008555e-13 0
369 -0.1874999999998279 0.06250000000051616 0
370 -0.1875000000001721 -0.06249999999948386 0
371 -0.2499999999996559 0.1250000000006882 0
372 -0.2500000000003441 -0.1249999999993118 0
373 -0.3124999999994839 0.1875000000008603 0
374 -0.3124999999998279 0.06250000000086027 0
375 -0.375 1.03232006276599e-12 0
376 -0.3125000000001721 -0.06249999999913975 0
377 -0.4374999999998279 0.06250000000120438 0
378 -0.4375000000001721 -0.06249999999879564 0
379 -0.3125000000005161 -0.1874999999991398 0
380 -0.3749999999993118 0.2500000000010323 0
381 -0.4374999999991397 0.3125000000012044 0
382 -0.4374999999994839 0.1875000000012044 0
383 -0.3750000000006882 -0.2499999999989677 0
384 -0.4375000000005161 -0.1874999999987957 0
385 -0.4375000000008603 -0.3124999999987956 0
386 -0.9375000000001721 -0.9374999999998279 0
387 -0.9375000000001721 -0.8124999999994837 0
388 -0.8750000000003442 -0.7499999999993118 0
389 -0.9375000000001721 -0.6874999999991397 0
390 -0.8125000000005163 -0.8124999999994837 0
391 -0.8125000000005163 -0.6874999999991398 0
392 -0.9375000000001721 -0.5624999999987956 0
393 -0.7500000000006882 -0.6249999999989677 0
394 -0.8125000000005163 -0.5624999999987956 0
395 -0.8125000000005163 -0.4374999999984515 0
396 -0.8750000000003442 -0.4999999999986237 0
397 -0.7500000000006882 -0.3749999999982794 0
398 -0.8125000000005163 -0.3124999999981075 0
399 -0.9375000000001721 -0.4374999999984516 0
400 -0.6875000000008602 -0.6874999999991399 0
401 -0.6875000000008602 -0.5624999999987956 0
402 -0.6250000000010323 -0.4999999999986237 0
403 -0.6875000000008602 -0.4374999999984516 0
404 -0.5625000000012044 -0.5624999999987956 0
405 -0.9375000000001721 -0.3124999999981075 0
406 -0.8750000000003442 -0.2499999999979355 0
407 -0.9375000000001721 -0.1874999999977634 0
408 0.9374999999998503 -0.9375000000001497 0
409 0.8124999999995062 -0.9375000000001497 0
410 0.7499999999993565 -0.8750000000002992 0
411 0.687499999999162 -0.9375000000001497 0
412 0.812499999999551 -0.812500000000449 0
413 0.6874999999992069 -0.812500000000449 0
414 0.5624999999988181 -0.9375000000001497 0
415 0.6249999999990572 -0.7500000000005987 0
416 0.5624999999988628 -0.8125000000004488 0
417 0.4374999999985187 -0.8125000000004488 0
418 0.4999999999986683 -0.875000000000299 0
419 0.3749999999983691 -0.7500000000005986 0
420 0.3124999999981746 -0.812500000000449 0
421 0.4374999999984739 -0.9375000000001497 0
422 0.6874999999992517 -0.6875000000007483 0
423 0.5624999999989075 -0.6875000000007483 0
424 0.4999999999987579 -0.6250000000008979 0
425 0.4374999999985635 -0.6875000000007483 0
426 0.5624999999989524 -0.5625000000010476 0
427 0.3124999999981298 -0.9375000000001497 0
428 0.2499999999979802 -0.8750000000002991 0
429 0.1874999999977858 -0.9375000000001497 0
430 0.9375000000001497 0.9374999999998503 0
431 0.9375000000001497 0.8124999999995062 0
432 0.8750000000002993 0.7499999999993565 0
433 0.9375000000001497 0.687499999999162 0
434 0.812500000000449 0.812499999999551 0
435 0.812500000000449 0.6874999999992069 0
436 0.9375000000001497 0.5624999999988181 0
437 0.7500000000005986 0.6249999999990572 0
438 0.812500000000449 0.5624999999988628 0
439 0.812500000000449 0.4374999999985187 0
440 0.8750000000002993 0.4999999999986683 0
441 0.7500000000005986 0.3749999999983691 0
442 0.812500000000449 0.3124999999981746 0
443 0.9375000000001497 0.4374999999984739 0
444 0.6875000000007483 0.6874999999992517 0
445 0.6875000000007483 0.5624999999989075 0
446 0.6250000000008979 0.4999999999987579 0
447 0.6875000000007483 0.4374999999985635 0
448 0.5625000000010476 0.5624999999989524 0
449 0.9375000000001497 0.3124999999981298 0
450 0.8750000000002993 0.2499999999979802 0
451 0.9375000000001497 0.1874999999977858 0
452 -0.9374999999998279 0.9375000000001721 0
453 -0.8124999999994836 0.9375000000001721 0
454 -0.7499999999993118 0.8750000000003442 0
455 -0.6874999999991397 0.9375000000001721 0
456 -0.8124999999994836 0.8125000000005163 0
457 -0.6874999999991398 0.8125000000005163 0
458 -0.5624999999987956 0.9375000000001721 0
459 -0.6249999999989677 0.7500000000006882 0
460 -0.5624999999987956 0.8125000000005163 0
461 -0.4374999999984515 0.8125000000005163 0
462 -0.4999999999986236 0.8750000000003442 0
463 -0.3749999999982795 0.7500000000006882 0
464 -0.3124999999981074 0.8125000000005163 0
465 -0.4374999999984515 0.9375000000001721 0
466 -0.6874999999991398 0.6875000000008602 0
467 -0.5624999999987956 0.6875000000008602 0
468 -0.4999999999986236 0.6250000000010323 0
469 -0.4374999999984515 0.6875000000008602 0
470 -0.5624999999987956 0.5625000000012044 0
471 -0.3124999999981074 0.9375000000001721 0
472 -0.2499999999979353 0.8750000000003442 0
473 -0.1874999999977633 0.9375000000001721 0
474 -0.8125000000003804 -0.9374999999998279 0
475 -0.6875000000006697 -0.9374999999998279 0
476 -0.7500000000006335 -0.8749999999996558 0
477 -0.5625000000010401 -0.9374999999998279 0
478 -0.6875000000008056 -0.8124999999994837 0
479 -0.4375000000013841 -0.9374999999998279 0
480 -0.5000000000012669 -0.8749999999996558 0
481 -0.4375000000014936 -0.8124999999994836 0
482 -0.5625000000011495 -0.8124999999994836 0
483 -0.3125000000018378 -0.8124999999994836 0
484 -0.3750000000017206 -0.7499999999993118 0
485 -0.6250000000010323 -0.7499999999993118 0
486 -0.312500000001783 -0.9374999999998279 0
487 -0.1875000000021819 -0.9374999999998279 0
488 -0.2500000000020099 -0.8749999999996558 0
489 -0.5625000000012043 -0.6874999999991398 0
490 -0.4375000000015485 -0.6874999999991398 0
491 -0.5000000000013766 -0.6249999999989677 0
492 0.9374999999998503 -0.8125000000003579 0
493 0.9374999999998503 -0.6875000000006473 0
494 0.8749999999997007 -0.7500000000005888 0
495 0.9374999999998503 -0.5625000000010176 0
496 0.812499999999551 -0.6875000000007383 0
497 0.9374999999998503 -0.4375000000013617 0
498 0.8749999999997007 -0.5000000000012221 0
499 0.812499999999551 -0.4375000000014265 0
500 0.812499999999551 -0.5625000000010825 0
501 0.812499999999551 -0.3125000000017706 0
502 0.7499999999994014 -0.3750000000016309 0
503 0.7499999999994014 -0.6250000000009428 0
504 0.9374999999998503 -0.3125000000017606 0
505 0.9374999999998503 -0.1875000000021594 0
506 0.8749999999997007 -0.250000000001965 0
507 0.6874999999992517 -0.5625000000010925 0
508 0.6874999999992517 -0.4375000000014365 0
509 0.6249999999991021 -0.5000000000012421 0
510 0.8125000000003579 0.9374999999998503 0
511 0.6875000000006473 0.9374999999998503 0
512 0.7500000000005886 0.8749999999997007 0
513 0.5625000000010176 0.9374999999998503 0
514 0.6875000000007383 0.812499999999551 0
515 0.4375000000013617 0.9374999999998503 0
516 0.5000000000012221 0.8749999999997007 0
517 0.4375000000014265 0.812499999999551 0
518 0.5625000000010825 0.812499999999551 0
519 0.3125000000017706 0.812499999999551 0
520 0.3750000000016309 0.7499999999994014 0
521 0.6250000000009428 0.7499999999994014 0
522 0.3125000000017606 0.9374999999998503 0
523 0.1875000000021594 0.9374999999998503 0
524 0.250000000001965 0.8749999999997007 0
525 0.5625000000010925 0.6874999999992517 0
526 0.4375000000014365 0.6874999999992517 0
527 0.5000000000012421 0.6249999999991021 0
528 -0.9374999999998279 0.8125000000003804 0
529 -0.9374999999998279 0.6875000000006697 0
530 -0.8749999999996558 0.7500000000006335 0
531 -0.9374999999998279 0.5625000000010401 0
532 -0.8124999999994836 0.6875000000008056 0
533 -0.9374999999998279 0.4375000000013841 0
534 -0.8749999999996558 0.5000000000012669 0
535 -0.8124999999994836 0.4375000000014937 0
536 -0.8124999999994836 0.5625000000011496 0
537 -0.8124999999994836 0.3125000000018378 0
538 -0.7499999999993118 0.3750000000017205 0
539 -0.7499999999993118 0.6250000000010323 0
540 -0.9374999999998279 0.312500000001783 0
541 -0.9374999999998279 0.1875000000021819 0
542 -0.8749999999996558 0.2500000000020098 0
543 -0.6874999999991398 0.5625000000012044 0
544 -0.6874999999991398 0.4375000000015485 0
545 -0.6249999999989677 0.5000000000013765 0
$EndNodes
$Elements
1092
1 15 2 0 1 1
2 15 2 0 2 2
3 15 2 0 3 3
4 15 2 0 4 4
5 1 2 0 1 1 5
6 1 2 0 1 5 6
7 1 2 0 1 6 7
8 1 2 0 1 7 8
9 1 2 0 1 8 9
10 1 2 0 1 9 10
11 1 2 0 1 10 11
12 1 2 0 1 11 12
13 1 2 0 1 12 13
14 1 2 0 1 13 14
15 1 2 0 1 14 15
16 1 2 0 1 15 16
17 1 2 0 1 16 17
18 1 2 0 1 17 18
19 1 2 0 1 18 19
20 1 2 0 1 19 2
21 1 2 0 2 2 20
22 1 2 0 2 20 21
23 1 2 0 2 21 22
24 1 2 0 2 22 23
25 1 2 0 2 23 24
26 1 2 0 2 24 25
27 1 2 0 2 25 26
28 1 2 0 2 26 27
29 1 2 0 2 27 28
30 1 2 0 2 28 29
31 1 2 0 2 29 30
32 1 2 0 2 30 31
33 1 2 0 2 31 32
34 1 2 0 2 32 33
35 1 2 0 2 33 34
36 1 2 0 2 34 3
37 1 2 0 3 3 35
38 1 2 0 3 35 36
39 1 2 0 3 36 37
40 1 2 0 3 37 38
41 1 2 0 3 38 39
42 1 2 0 3 39 40
43 1 2 0 3 40 41
44 1 2 0 3 41 42
45 1 2 0 3 42 43
46 1 2 0 3 43 44
47 1 2 0 3 44 45
48 1 2 0 3 45 46
49 1 2 0 3 46 47
50 1 2 0 3 47 48
51 1 2 0 3 48 49
52 1 2 0 3 49 4
53 1 2 0 4 4 50
54 1 2 0 4 50 51
55 1 2 0 4 51 52
56 1 2 0 4 52 53
57 1 2 0 4 53 54
58 1 2 0 4 54 55
59 1 2 0 4 55 56
60 1 2 0 4 56 57
61 1 2 0 4 57 58
62 1 2 0 4 58 59
63 1 2 0 4 59 60
64 1 2 0 4 60 61
65 1 2 0 4 61 62
66 1 2 0 4 62 63
67 1 2 0 4 63 64
68 1 2 0 4 64 1
69 2 2 0 6 65 178 180
70 2 2 0 6 178 179 180
71 2 2 0 6 178 90 179
72 2 2 0 6 180 179 92
73 2 2 0 6 90 181 179
74 2 2 0 6 181 182 179
75 2 2 0 6 181 91 182
76 2 2 0 6 179 182 92
77 2 2 0 6 90 183 181
78 2 2 0 6 183 184 181
79 2 2 0 6 183 70 184
80 2 2 0 6 181 184 91
81 2 2 0 6 92 182 186
82 2 2 0 6 182 185 186
83 2 2 0 6 182 91 185
84 2 2 0 6 186 185 72
85 2 2 0 6 70 187 184
86 2 2 0 6 187 188 184
87 2 2 0 6 187 93 188
88 2 2 0 6 184 188 91
89 2 2 0 6 93 189 188
90 2 2 0 6 189 190 188
91 2 2 0 6 189 94 190
92 2 2 0 6 188 190 91
93 2 2 0 6 93 191 189
94 2 2 0 6 191 192 189
95 2 2 0 6 191 71 192
96 2 2 0 6 189 192 94
97 2 2 0 6 91 190 185
98 2 2 0 6 190 193 185
99 2 2 0 6 190 94 193
100 2 2 0 6 185 193 72
101 2 2 0 6 70 194 187
102 2 2 0 6 194 195 187
103 2 2 0 6 194 95 195
104 2 2 0 6 187 195 93
105 2 2 0 6 95 196 195
106 2 2 0 6 196 197 195
107 2 2 0 6 196 96 197
108 2 2 0 6 195 197 93
109 2 2 0 6 95 198 196
110 2 2 0 6 198 199 196
111 2 2 0 6 198 66 199
112 2 2 0 6 196 199 96
113 2 2 0 6 93 197 191
114 2 2 0 6 197 200 191
115 2 2 0 6 197 96 200
116 2 2 0 6 191 200 71
117 2 2 0 6 72 193 202
118 2 2 0 6 193 201 202
119 2 2 0 6 193 94 201
120 2 2 0 6 202 201 98
121 2 2 0 6 94 203 201
122 2 2 0 6 203 204 201
123 2 2 0 6 203 97 204
124 2 2 0 6 201 204 98
125 2 2 0 6 94 192 203
126 2 2 0 6 192 205 203
127 2 2 0 6 192 71 205
128 2 2 0 6 203 205 97
129 2 2 0 6 98 204 207
130 2 2 0 6 204 206 207
131 2 2 0 6 204 97 206
132 2 2 0 6 207 206 12
133 2 2 0 6 27 208 210
134 2 2 0 6 208 209 210
135 2 2 0 6 208 99 209
136 2 2 0 6 210 209 101
137 2 2 0 6 99 211 209
138 2 2 0 6 211 212 209
139 2 2 0 6 211 100 212
140 2 2 0 6 209 212 101
141 2 2 0 6 99 213 211
142 2 2 0 6 213 214 211
143 2 2 0 6 213 73 214
144 2 2 0 6 211 214 100
145 2 2 0 6 101 212 216
146 2 2 0 6 212 215 216
147 2 2 0 6 212 100 215
148 2 2 0 6 216 215 75
149 2 2 0 6 73 217 214
150 2 2 0 6 217 218 214
151 2 2 0 6 217 102 218
152 2 2 0 6 214 218 100
153 2 2 0 6 102 219 218
154 2 2 0 6 219 220 218
155 2 2 0 6 219 103 220
156 2 2 0 6 218 220 100
157 2 2 0 6 102 221 219
158 2 2 0 6 221 222 219
159 2 2 0 6 221 74 222
160 2 2 0 6 219 222 103
161 2 2 0 6 100 220 215
162 2 2 0 6 220 223 215
163 2 2 0 6 220 103 223
164 2 2 0 6 215 223 75
165 2 2 0 6 73 224 217
166 2 2 0 6 224 225 217
167 2 2 0 6 224 104 225
168 2 2 0 6 217 225 102
169 2 2 0 6 104 226 225
170 2 2 0 6 226 227 225
171 2 2 0 6 226 105 227
172 2 2 0 6 225 227 102
173 2 2 0 6 104 228 226
174 2 2 0 6 228 229 226
175 2 2 0 6 228 65 229
176 2 2 0 6 226 229 105
177 2 2 0 6 102 227 221
178 2 2 0 6 227 230 221
179 2 2 0 6 227 105 230
180 2 2 0 6 221 230 74
181 2 2 0 6 75 223 232
182 2 2 0 6 223 231 232
183 2 2 0 6 223 103 231
184 2 2 0 6 232 231 107
185 2 2 0 6 103 233 231
186 2 2 0 6 233 234 231
187 2 2 0 6 233 106 234
188 2 2 0 6 231 234 107
189 2 2 0 6 103 222 233
190 2 2 0 6 222 235 233
191 2 2 0 6 222 74 235
192 2 2 0 6 233 235 106
193 2 2 0 6 107 234 237
194 2 2 0 6 234 236 237
195 2 2 0 6 234 106 236
196 2 2 0 6 237 236 67
197 2 2 0 6 42 238 240
198 2 2 0 6 238 239 240
199 2 2 0 6 238 108 239
200 2 2 0 6 240 239 110
201 2 2 0 6 108 241 239
202 2 2 0 6 241 242 239
203 2 2 0 6 241 109 242
204 2 2 0 6 239 242 110
205 2 2 0 6 108 243 241
206 2 2 0 6 243 244 241
207 2 2 0 6 243 76 244
208 2 2 0 6 241 244 109
209 2 2 0 6 110 242 246
210 2 2 0 6 242 245 246
211 2 2 0 6 242 109 245
212 2 2 0 6 246 245 78
213 2 2 0 6 76 247 244
214 2 2 0 6 247 248 244
215 2 2 0 6 247 111 248
216 2 2 0 6 244 248 109
217 2 2 0 6 111 249 248
218 2 2 0 6 249 250 248
219 2 2 0 6 249 112 250
220 2 2 0 6 248 250 109
221 2 2 0 6 111 251 249
222 2 2 0 6 251 252 249
223 2 2 0 6 251 77 252
224 2 2 0 6 249 252 112
225 2 2 0 6 109 250 245
226 2 2 0 6 250 253 245
227 2 2 0 6 250 112 253
228 2 2 0 6 245 253 78
229 2 2 0 6 76 254 247
230 2 2 0 6 254 255 247
231 2 2 0 6 254 113 255
232 2 2 0 6 247 255 111
233 2 2 0 6 113 256 255
234 2 2 0 6 256 257 255
235 2 2 0 6 256 114 257
236 2 2 0 6 255 257 111
237 2 2 0 6 113 258 256
238 2 2 0 6 258 259 256
239 2 2 0 6 258 65 259
240 2 2 0 6 256 259 114
241 2 2 0 6 111 257 251
242 2 2 0 6 257 260 251
243 2 2 0 6 257 114 260
244 2 2 0 6 251 260 77
245 2 2 0 6 78 253 262
246 2 2 0 6 253 261 262
247 2 2 0 6 253 112 261
248 2 2 0 6 262 261 116
249 2 2 0 6 112 263 261
250 2 2 0 6 263 264 261
251 2 2 0 6 263 115 264
252 2 2 0 6 261 264 116
253 2 2 0 6 112 252 263
254 2 2 0 6 252 265 263
255 2 2 0 6 252 77 265
256 2 2 0 6 263 265 115
257 2 2 0 6 116 264 267
258 2 2 0 6 264 266 267
259 2 2 0 6 264 115 266
260 2 2 0 6 267 266 68
261 2 2 0 6 69 268 270
262 2 2 0 6 268 269 270
263 2 2 0 6 268 117 269
264 2 2 0 6 270 269 119
265 2 2 0 6 117 271 269
266 2 2 0 6 271 272 269
267 2 2 0 6 271 118 272
268 2 2 0 6 269 272 119
269 2 2 0 6 117 273 271
270 2 2 0 6 273 274 271
271 2 2 0 6 273 79 274
272 2 2 0 6 271 274 118
273 2 2 0 6 119 272 276
274 2 2 0 6 272 275 276
275 2 2 0 6 272 118 275
276 2 2 0 6 276 275 81
277 2 2 0 6 79 277 274
278 2 2 0 6 277 278 274
279 2 2 0 6 277 120 278
280 2 2 0 6 274 278 118
281 2 2 0 6 120 279 278
282 2 2 0 6 279 280 278
283 2 2 0 6 279 121 280
284 2 2 0 6 278 280 118
285 2 2 0 6 120 281 279
286 2 2 0 6 281 282 279
287 2 2 0 6 281 80 282
288 2 2 0 6 279 282 121
289 2 2 0 6 118 280 275
290 2 2 0 6 280 283 275
291 2 2 0 6 280 121 283
292 2 2 0 6 275 283 81
293 2 2 0 6 79 284 277
294 2 2 0 6 284 285 277
295 2 2 0 6 284 122 285
296 2 2 0 6 277 285 120
297 2 2 0 6 122 286 285
298 2 2 0 6 286 287 285
299 2 2 0 6 286 123 287
300 2 2 0 6 285 287 120
301 2 2 0 6 122 288 286
302 2 2 0 6 288 289 286
303 2 2 0 6 288 57 289
304 2 2 0 6 286 289 123
305 2 2 0 6 120 287 281
306 2 2 0 6 287 290 281
307 2 2 0 6 287 123 290
308 2 2 0 6 281 290 80
309 2 2 0 6 81 283 292
310 2 2 0 6 283 291 292
311 2 2 0 6 283 121 291
312 2 2 0 6 292 291 125
313 2 2 0 6 121 293 291
314 2 2 0 6 293 294 291
315 2 2 0 6 293 124 294
316 2 2 0 6 291 294 125
317 2 2 0 6 121 282 293
318 2 2 0 6 282 295 293
319 2 2 0 6 282 80 295
320 2 2 0 6 293 295 124
321 2 2 0 6 125 294 297
322 2 2 0 6 294 296 297
323 2 2 0 6 294 124 296
324 2 2 0 6 297 296 66
325 2 2 0 6 67 236 299
326 2 2 0 6 236 298 299
327 2 2 0 6 236 106 298
328 2 2 0 6 299 298 127
329 2 2 0 6 106 300 298
330 2 2 0 6 300 301 298
331 2 2 0 6 300 126 301
332 2 2 0 6 298 301 127
333 2 2 0 6 106 235 300
334 2 2 0 6 235 302 300
335 2 2 0 6 235 74 302
336 2 2 0 6 300 302 126
337 2 2 0 6 127 301 304
338 2 2 0 6 301 303 304
339 2 2 0 6 301 126 303
340 2 2 0 6 304 303 82
341 2 2 0 6 74 305 302
342 2 2 0 6 305 306 302
343 2 2 0 6 305 128 306
344 2 2 0 6 302 306 126
345 2 2 0 6 128 307 306
346 2 2 0 6 307 308 306
347 2 2 0 6 307 129 308
348 2 2 0 6 306 308 126
349 2 2 0 6 128 309 307
350 2 2 0 6 309 310 307
351 2 2 0 6 309 72 310
352 2 2 0 6 307 310 129
353 2 2 0 6 126 308 303
354 2 2 0 6 308 311 303
355 2 2 0 6 308 129 311
356 2 2 0 6 303 311 82
357 2 2 0 6 74 230 305
358 2 2 0 6 230 312 305
359 2 2 0 6 230 105 312
360 2 2 0 6 305 312 128
361 2 2 0 6 105 313 312
362 2 2 0 6 313 314 312
363 2 2 0 6 313 92 314
364 2 2 0 6 312 314 128
365 2 2 0 6 105 229 313
366 2 2 0 6 229 180 313
367 2 2 0 6 229 65 180
368 2 2 0 6 313 180 92
369 2 2 0 6 128 314 309
370 2 2 0 6 314 186 309
371 2 2 0 6 314 92 186
372 2 2 0 6 309 186 72
373 2 2 0 6 82 311 316
374 2 2 0 6 311 315 316
375 2 2 0 6 311 129 315
376 2 2 0 6 316 315 130
377 2 2 0 6 129 317 315
378 2 2 0 6 317 318 315
379 2 2 0 6 317 98 318
380 2 2 0 6 315 318 130
381 2 2 0 6 129 310 317
382 2 2 0 6 310 202 317
383 2 2 0 6 310 72 202
384 2 2 0 6 317 202 98
385 2 2 0 6 130 318 319
386 2 2 0 6 318 207 319
387 2 2 0 6 318 98 207
388 2 2 0 6 319 207 12
389 2 2 0 6 68 266 321
390 2 2 0 6 266 320 321
391 2 2 0 6 266 115 320
392 2 2 0 6 321 320 132
393 2 2 0 6 115 322 320
394 2 2 0 6 322 323 320
395 2 2 0 6 322 131 323
396 2 2 0 6 320 323 132
397 2 2 0 6 115 265 322
398 2 2 0 6 265 324 322
399 2 2 0 6 265 77 324
400 2 2 0 6 322 324 131
401 2 2 0 6 132 323 326
402 2 2 0 6 323 325 326
403 2 2 0 6 323 131 325
404 2 2 0 6 326 325 83
405 2 2 0 6 77 327 324
406 2 2 0 6 327 328 324
407 2 2 0 6 327 133 328
408 2 2 0 6 324 328 131
409 2 2 0 6 133 329 328
410 2 2 0 6 329 330 328
411 2 2 0 6 329 134 330
412 2 2 0 6 328 330 131
413 2 2 0 6 133 331 329
414 2 2 0 6 331 332 329
415 2 2 0 6 331 73 332
416 2 2 0 6 329 332 134
417 2 2 0 6 131 330 325
418 2 2 0 6 330 333 325
419 2 2 0 6 330 134 333
420 2 2 0 6 325 333 83
421 2 2 0 6 77 260 327
422 2 2 0 6 260 334 327
423 2 2 0 6 260 114 334
424 2 2 0 6 327 334 133
425 2 2 0 6 114 335 334
426 2 2 0 6 335 336 334
427 2 2 0 6 335 104 336
428 2 2 0 6 334 336 133
429 2 2 0 6 114 259 335
430 2 2 0 6 259 228 335
431 2 2 0 6 259 65 228
432 2 2 0 6 335 228 104
433 2 2 0 6 133 336 331
434 2 2 0 6 336 224 331
435 2 2 0 6 336 104 224
436 2 2 0 6 331 224 73
437 2 2 0 6 83 333 338
438 2 2 0 6 333 337 338
439 2 2 0 6 333 134 337
440 2 2 0 6 338 337 135
441 2 2 0 6 134 339 337
442 2 2 0 6 339 340 337
443 2 2 0 6 339 99 340
444 2 2 0 6 337 340 135
445 2 2 0 6 134 332 339
446 2 2 0 6 332 213 339
447 2 2 0 6 332 73 213
448 2 2 0 6 339 213 99
449 2 2 0 6 135 340 341
450 2 2 0 6 340 208 341
451 2 2 0 6 340 99 208
452 2 2 0 6 341 208 27
453 2 2 0 6 69 342 344
454 2 2 0 6 342 343 344
455 2 2 0 6 342 136 343
456 2 2 0 6 344 343 138
457 2 2 0 6 136 345 343
458 2 2 0 6 345 346 343
459 2 2 0 6 345 137 346
460 2 2 0 6 343 346 138
461 2 2 0 6 136 347 345
462 2 2 0 6 347 348 345
463 2 2 0 6 347 84 348
464 2 2 0 6 345 348 137
465 2 2 0 6 138 346 350
466 2 2 0 6 346 349 350
467 2 2 0 6 346 137 349
468 2 2 0 6 350 349 85
469 2 2 0 6 84 351 348
470 2 2 0 6 351 352 348
471 2 2 0 6 351 139 352
472 2 2 0 6 348 352 137
473 2 2 0 6 139 353 352
474 2 2 0 6 353 354 352
475 2 2 0 6 353 140 354
476 2 2 0 6 352 354 137
477 2 2 0 6 139 355 353
478 2 2 0 6 355 356 353
479 2 2 0 6 355 76 356
480 2 2 0 6 353 356 140
481 2 2 0 6 137 354 349
482 2 2 0 6 354 357 349
483 2 2 0 6 354 140 357
484 2 2 0 6 349 357 85
485 2 2 0 6 84 358 351
486 2 2 0 6 358 359 351
487 2 2 0 6 358 141 359
488 2 2 0 6 351 359 139
489 2 2 0 6 141 360 359
490 2 2 0 6 360 361 359
491 2 2 0 6 360 113 361
492 2 2 0 6 359 361 139
493 2 2 0 6 141 362 360
494 2 2 0 6 362 258 360
495 2 2 0 6 362 65 258
496 2 2 0 6 360 258 113
497 2 2 0 6 139 361 355
498 2 2 0 6 361 254 355
499 2 2 0 6 361 113 254
500 2 2 0 6 355 254 76
501 2 2 0 6 85 357 364
502 2 2 0 6 357 363 364
503 2 2 0 6 357 140 363
504 2 2 0 6 364 363 142
505 2 2 0 6 140 365 363
506 2 2 0 6 365 366 363
507 2 2 0 6 365 108 366
508 2 2 0 6 363 366 142
509 2 2 0 6 140 356 365
510 2 2 0 6 356 243 365
511 2 2 0 6 356 76 243
512 2 2 0 6 365 243 108
513 2 2 0 6 142 366 367
514 2 2 0 6 366 238 367
515 2 2 0 6 366 108 238
516 2 2 0 6 367 238 42
517 2 2 0 6 65 362 178
518 2 2 0 6 362 368 178
519 2 2 0 6 362 141 368
520 2 2 0 6 178 368 90
521 2 2 0 6 141 369 368
522 2 2 0 6 369 370 368
523 2 2 0 6 369 143 370
524 2 2 0 6 368 370 90
525 2 2 0 6 141 358 369
526 2 2 0 6 358 371 369
527 2 2 0 6 358 84 371
528 2 2 0 6 369 371 143
529 2 2 0 6 90 370 183
530 2 2 0 6 370 372 183
531 2 2 0 6 370 143 372
532 2 2 0 6 183 372 70
533 2 2 0 6 84 373 371
534 2 2 0 6 373 374 371
535 2 2 0 6 373 144 374
536 2 2 0 6 371 374 143
537 2 2 0 6 144 375 374
538 2 2 0 6 375 376 374
539 2 2 0 6 375 145 376
540 2 2 0 6 374 376 143
541 2 2 0 6 144 377 375
542 2 2 0 6 377 378 375
543 2 2 0 6 377 81 378
544 2 2 0 6 375 378 145
545 2 2 0 6 143 376 372
546 2 2 0 6 376 379 372
547 2 2 0 6 376 145 379
548 2 2 0 6 372 379 70
549 2 2 0 6 84 347 373
550 2 2 0 6 347 380 373
551 2 2 0 6 347 136 380
552 2 2 0 6 373 380 144
553 2 2 0 6 136 381 380
554 2 2 0 6 381 382 380
555 2 2 0 6 381 119 382
556 2 2 0 6 380 382 144
557 2 2 0 6 136 342 381
558 2 2 0 6 342 270 381
559 2 2 0 6 342 69 270
560 2 2 0 6 381 270 119
561 2 2 0 6 144 382 377
562 2 2 0 6 382 276 377
563 2 2 0 6 382 119 276
564 2 2 0 6 377 276 81
565 2 2 0 6 70 379 194
566 2 2 0 6 379 383 194
567 2 2 0 6 379 145 383
568 2 2 0 6 194 383 95
569 2 2 0 6 145 384 383
570 2 2 0 6 384 385 383
571 2 2 0 6 384 125 385
572 2 2 0 6 383 385 95
573 2 2 0 6 145 378 384
574 2 2 0 6 378 292 384
575 2 2 0 6 378 81 292
576 2 2 0 6 384 292 125
577 2 2 0 6 95 385 198
578 2 2 0 6 385 297 198
579 2 2 0 6 385 125 297
580 2 2 0 6 198 297 66
581 2 2 0 6 1 386 64
582 2 2 0 6 386 387 64
583 2 2 0 6 386 146 387
584 2 2 0 6 64 387 63
585 2 2 0 6 146 388 387
586 2 2 0 6 388 389 387
587 2 2 0 6 388 147 389
588 2 2 0 6 387 389 63
589 2 2 0 6 146 390 388
590 2 2 0 6 390 391 388
591 2 2 0 6 390 86 391
592 2 2 0 6 388 391 147
593 2 2 0 6 63 389 62
594 2 2 0 6 389 392 62
595 2 2 0 6 389 147 392
596 2 2 0 6 62 392 61
597 2 2 0 6 86 393 391
598 2 2 0 6 393 394 391
599 2 2 0 6 393 148 394
600 2 2 0 6 391 394 147
601 2 2 0 6 148 395 394
602 2 2 0 6 395 396 394
603 2 2 0 6 395 149 396
604 2 2 0 6 394 396 147
605 2 2 0 6 148 397 395
606 2 2 0 6 397 398 395
607 2 2 0 6 397 80 398
608 2 2 0 6 395 398 149
609 2 2 0 6 147 396 392
610 2 2 0 6 396 399 392
611 2 2 0 6 396 149 399
612 2 2 0 6 392 399 61
613 2 2 0 6 86 400 393
614 2 2 0 6 400 401 393
615 2 2 0 6 400 150 401
616 2 2 0 6 393 401 148
617 2 2 0 6 150 402 401
618 2 2 0 6 402 403 401
619 2 2 0 6 402 124 403
620 2 2 0 6 401 403 148
621 2 2 0 6 150 404 402
622 2 2 0 6 404 296 402
623 2 2 0 6 404 66 296
624 2 2 0 6 402 296 124
625 2 2 0 6 148 403 397
626 2 2 0 6 403 295 397
627 2 2 0 6 403 124 295
628 2 2 0 6 397 295 80
629 2 2 0 6 61 399 60
630 2 2 0 6 399 405 60
631 2 2 0 6 399 149 405
632 2 2 0 6 60 405 59
633 2 2 0 6 149 406 405
634 2 2 0 6 406 407 405
635 2 2 0 6 406 123 407
636 2 2 0 6 405 407 59
637 2 2 0 6 149 398 406
638 2 2 0 6 398 290 406
639 2 2 0 6 398 80 290
640 2 2 0 6 406 290 123
641 2 2 0 6 59 407 58
642 2 2 0 6 407 289 58
643 2 2 0 6 407 123 289
644 2 2 0 6 58 289 57
645 2 2 0 6 2 408 19
646 2 2 0 6 408 409 19
647 2 2 0 6 408 151 409
648 2 2 0 6 19 409 18
649 2 2 0 6 151 410 409
650 2 2 0 6 410 411 409
651 2 2 0 6 410 152 411
652 2 2 0 6 409 411 18
653 2 2 0 6 151 412 410
654 2 2 0 6 412 413 410
655 2 2 0 6 412 87 413
656 2 2 0 6 410 413 152
657 2 2 0 6 18 411 17
658 2 2 0 6 411 414 17
659 2 2 0 6 411 152 414
660 2 2 0 6 17 414 16
661 2 2 0 6 87 415 413
662 2 2 0 6 415 416 413
663 2 2 0 6 415 153 416
664 2 2 0 6 413 416 152
665 2 2 0 6 153 417 416
666 2 2 0 6 417 418 416
667 2 2 0 6 417 154 418
668 2 2 0 6 416 418 152
669 2 2 0 6 153 419 417
670 2 2 0 6 419 420 417
671 2 2 0 6 419 82 420
672 2 2 0 6 417 420 154
673 2 2 0 6 152 418 414
674 2 2 0 6 418 421 414
675 2 2 0 6 418 154 421
676 2 2 0 6 414 421 16
677 2 2 0 6 87 422 415
678 2 2 0 6 422 423 415
679 2 2 0 6 422 155 423
680 2 2 0 6 415 423 153
681 2 2 0 6 155 424 423
682 2 2 0 6 424 425 423
683 2 2 0 6 424 127 425
684 2 2 0 6 423 425 153
685 2 2 0 6 155 426 424
686 2 2 0 6 426 299 424
687 2 2 0 6 426 67 299
688 2 2 0 6 424 299 127
689 2 2 0 6 153 425 419
690 2 2 0 6 425 304 419
691 2 2 0 6 425 127 304
692 2 2 0 6 419 304 82
693 2 2 0 6 16 421 15
694 2 2 0 6 421 427 15
695 2 2 0 6 421 154 427
696 2 2 0 6 15 427 14
697 2 2 0 6 154 428 427
698 2 2 0 6 428 429 427
699 2 2 0 6 428 130 429
700 2 2 0 6 427 429 14
701 2 2 0 6 154 420 428
702 2 2 0 6 420 316 428
703 2 2 0 6 420 82 316
704 2 2 0 6 428 316 130
705 2 2 0 6 14 429 13
706 2 2 0 6 429 319 13
707 2 2 0 6 429 130 319
708 2 2 0 6 13 319 12
709 2 2 0 6 3 430 34
710 2 2 0 6 430 431 34
711 2 2 0 6 430 156 431
712 2 2 0 6 34 431 33
713 2 2 0 6 156 432 431
714 2 2 0 6 432 433 431
715 2 2 0 6 432 157 433
716 2 2 0 6 431 433 33
717 2 2 0 6 156 434 432
718 2 2 0 6 434 435 432
719 2 2 0 6 434 88 435
720 2 2 0 6 432 435 157
721 2 2 0 6 33 433 32
722 2 2 0 6 433 436 32
723 2 2 0 6 433 157 436
724 2 2 0 6 32 436 31
725 2 2 0 6 88 437 435
726 2 2 0 6 437 438 435
727 2 2 0 6 437 158 438
728 2 2 0 6 435 438 157
729 2 2 0 6 158 439 438
730 2 2 0 6 439 440 438
731 2 2 0 6 439 159 440
732 2 2 0 6 438 440 157
733 2 2 0 6 158 441 439
734 2 2 0 6 441 442 439
735 2 2 0 6 441 83 442
736 2 2 0 6 439 442 159
737 2 2 0 6 157 440 436
738 2 2 0 6 440 443 436
739 2 2 0 6 440 159 443
740 2 2 0 6 436 443 31
741 2 2 0 6 88 444 437
742 2 2 0 6 444 445 437
743 2 2 0 6 444 160 445
744 2 2 0 6 437 445 158
745 2 2 0 6 160 446 445
746 2 2 0 6 446 447 445
747 2 2 0 6 446 132 447
748 2 2 0 6 445 447 158
749 2 2 0 6 160 448 446
750 2 2 0 6 448 321 446
751 2 2 0 6 448 68 321
752 2 2 0 6 446 321 132
753 2 2 0 6 158 447 441
754 2 2 0 6 447 326 441
755 2 2 0 6 447 132 326
756 2 2 0 6 441 326 83
757 2 2 0 6 31 443 30
758 2 2 0 6 443 449 30
759 2 2 0 6 443 159 449
760 2 2 0 6 30 449 29
761 2 2 0 6 159 450 449
762 2 2 0 6 450 451 449
763 2 2 0 6 450 135 451
764 2 2 0 6 449 451 29
765 2 2 0 6 159 442 450
766 2 2 0 6 442 338 450
767 2 2 0 6 442 83 338
768 2 2 0 6 450 338 135
769 2 2 0 6 29 451 28
770 2 2 0 6 451 341 28
771 2 2 0 6 451 135 341
772 2 2 0 6 28 341 27
773 2 2 0 6 4 452 49
774 2 2 0 6 452 453 49
775 2 2 0 6 452 161 453
776 2 2 0 6 49 453 48
777 2 2 0 6 161 454 453
778 2 2 0 6 454 455 453
779 2 2 0 6 454 162 455
780 2 2 0 6 453 455 48
781 2 2 0 6 161 456 454
782 2 2 0 6 456 457 454
783 2 2 0 6 456 89 457
784 2 2 0 6 454 457 162
785 2 2 0 6 48 455 47
786 2 2 0 6 455 458 47
787 2 2 0 6 455 162 458
788 2 2 0 6 47 458 46
789 2 2 0 6 89 459 457
790 2 2 0 6 459 460 457
791 2 2 0 6 459 163 460
792 2 2 0 6 457 460 162
793 2 2 0 6 163 461 460
794 2 2 0 6 461 462 460
795 2 2 0 6 461 164 462
796 2 2 0 6 460 462 162
797 2 2 0 6 163 463 461
798 2 2 0 6 463 464 461
799 2 2 0 6 463 85 464
800 2 2 0 6 461 464 164
801 2 2 0 6 162 462 458
802 2 2 0 6 462 465 458
803 2 2 0 6 462 164 465
804 2 2 0 6 458 465 46
805 2 2 0 6 89 466 459
806 2 2 0 6 466 467 459
807 2 2 0 6 466 165 467
808 2 2 0 6 459 467 163
809 2 2 0 6 165 468 467
810 2 2 0 6 468 469 467
811 2 2 0 6 468 138 469
812 2 2 0 6 467 469 163
813 2 2 0 6 165 470 468
814 2 2 0 6 470 344 468
815 2 2 0 6 470 69 344
816 2 2 0 6 468 344 138
817 2 2 0 6 163 469 463
818 2 2 0 6 469 350 463
819 2 2 0 6 469 138 350
820 2 2 0 6 463 350 85
821 2 2 0 6 46 465 45
822 2 2 0 6 465 471 45
823 2 2 0 6 465 164 471
824 2 2 0 6 45 471 44
825 2 2 0 6 164 472 471
826 2 2 0 6 472 473 471
827 2 2 0 6 472 142 473
828 2 2 0 6 471 473 44
829 2 2 0 6 164 464 472
830 2 2 0 6 464 364 472
831 2 2 0 6 464 85 364
832 2 2 0 6 472 364 142
833 2 2 0 6 44 473 43
834 2 2 0 6 473 367 43
835 2 2 0 6 473 142 367
836 2 2 0 6 43 367 42
837 2 2 0 6 1 5 386
838 2 2 0 6 5 474 386
839 2 2 0 6 5 6 474
840 2 2 0 6 386 474 146
841 2 2 0 6 6 475 474
842 2 2 0 6 475 476 474
843 2 2 0 6 475 166 476
844 2 2 0 6 474 476 146
845 2 2 0 6 6 7 475
846 2 2 0 6 7 477 475
847 2 2 0 6 7 8 477
848 2 2 0 6 475 477 166
849 2 2 0 6 146 476 390
850 2 2 0 6 476 478 390
851 2 2 0 6 476 166 478
852 2 2 0 6 390 478 86
853 2 2 0 6 8 479 477
854 2 2 0 6 479 480 477
855 2 2 0 6 479 167 480
856 2 2 0 6 477 480 166
857 2 2 0 6 167 481 480
858 2 2 0 6 481 482 480
859 2 2 0 6 481 168 482
860 2 2 0 6 480 482 166
861 2 2 0 6 167 483 481
862 2 2 0 6 483 484 481
863 2 2 0 6 483 71 484
864 2 2 0 6 481 484 168
865 2 2 0 6 166 482 478
866 2 2 0 6 482 485 478
867 2 2 0 6 482 168 485
868 2 2 0 6 478 485 86
869 2 2 0 6 8 9 479
870 2 2 0 6 9 486 479
871 2 2 0 6 9 10 486
872 2 2 0 6 479 486 167
873 2 2 0 6 10 487 486
874 2 2 0 6 487 488 486
875 2 2 0 6 487 97 488
876 2 2 0 6 486 488 167
877 2 2 0 6 10 11 487
878 2 2 0 6 11 206 487
879 2 2 0 6 11 12 206
880 2 2 0 6 487 206 97
881 2 2 0 6 167 488 483
882 2 2 0 6 488 205 483
883 2 2 0 6 488 97 205
884 2 2 0 6 483 205 71
885 2 2 0 6 86 485 400
886 2 2 0 6 485 489 400
887 2 2 0 6 485 168 489
888 2 2 0 6 400 489 150
889 2 2 0 6 168 490 489
890 2 2 0 6 490 491 489
891 2 2 0 6 490 96 491
892 2 2 0 6 489 491 150
893 2 2 0 6 168 484 490
894 2 2 0 6 484 200 490
895 2 2 0 6 484 71 200
896 2 2 0 6 490 200 96
897 2 2 0 6 150 491 404
898 2 2 0 6 491 199 404
899 2 2 0 6 491 96 199
900 2 2 0 6 404 199 66
901 2 2 0 6 2 20 408
902 2 2 0 6 20 492 408
903 2 2 0 6 20 21 492
904 2 2 0 6 408 492 151
905 2 2 0 6 21 493 492
906 2 2 0 6 493 494 492
907 2 2 0 6 493 169 494
908 2 2 0 6 492 494 151
909 2 2 0 6 21 22 493
910 2 2 0 6 22 495 493
911 2 2 0 6 22 23 495
912 2 2 0 6 493 495 169
913 2 2 0 6 151 494 412
914 2 2 0 6 494 496 412
915 2 2 0 6 494 169 496
916 2 2 0 6 412 496 87
917 2 2 0 6 23 497 495
918 2 2 0 6 497 498 495
919 2 2 0 6 497 170 498
920 2 2 0 6 495 498 169
921 2 2 0 6 170 499 498
922 2 2 0 6 499 500 498
923 2 2 0 6 499 171 500
924 2 2 0 6 498 500 169
925 2 2 0 6 170 501 499
926 2 2 0 6 501 502 499
927 2 2 0 6 501 75 502
928 2 2 0 6 499 502 171
929 2 2 0 6 169 500 496
930 2 2 0 6 500 503 496
931 2 2 0 6 500 171 503
932 2 2 0 6 496 503 87
933 2 2 0 6 23 24 497
934 2 2 0 6 24 504 497
935 2 2 0 6 24 25 504
936 2 2 0 6 497 504 170
937 2 2 0 6 25 505 504
938 2 2 0 6 505 506 504
939 2 2 0 6 505 101 506
940 2 2 0 6 504 506 170
941 2 2 0 6 25 26 505
942 2 2 0 6 26 210 505
943 2 2 0 6 26 27 210
944 2 2 0 6 505 210 101
945 2 2 0 6 170 506 501
946 2 2 0 6 506 216 501
947 2 2 0 6 506 101 216
948 2 2 0 6 501 216 75
949 2 2 0 6 87 503 422
950 2 2 0 6 503 507 422
951 2 2 0 6 503 171 507
952 2 2 0 6 422 507 155
953 2 2 0 6 171 508 507
954 2 2 0 6 508 509 507
955 2 2 0 6 508 107 509
956 2 2 0 6 507 509 155
957 2 2 0 6 171 502 508
958 2 2 0 6 502 232 508
959 2 2 0 6 502 75 232
960 2 2 0 6 508 232 107
961 2 2 0 6 155 509 426
962 2 2 0 6 509 237 426
963 2 2 0 6 509 107 237
964 2 2 0 6 426 237 67
965 2 2 0 6 3 35 430
966 2 2 0 6 35 510 430
967 2 2 0 6 35 36 510
968 2 2 0 6 430 510 156
969 2 2 0 6 36 511 510
970 2 2 0 6 511 512 510
971 2 2 0 6 511 172 512
972 2 2 0 6 510 512 156
973 2 2 0 6 36 37 511
974 2 2 0 6 37 513 511
975 2 2 0 6 37 38 513
976 2 2 0 6 511 513 172
977 2 2 0 6 156 512 434
978 2 2 0 6 512 514 434
979 2 2 0 6 512 172 514
980 2 2 0 6 434 514 88
981 2 2 0 6 38 515 513
982 2 2 0 6 515 516 513
983 2 2 0 6 515 173 516
984 2 2 0 6 513 516 172
985 2 2 0 6 173 517 516
986 2 2 0 6 517 518 516
987 2 2 0 6 517 174 518
988 2 2 0 6 516 518 172
989 2 2 0 6 173 519 517
990 2 2 0 6 519 520 517
991 2 2 0 6 519 78 520
992 2 2 0 6 517 520 174
993 2 2 0 6 172 518 514
994 2 2 0 6 518 521 514
995 2 2 0 6 518 174 521
996 2 2 0 6 514 521 88
997 2 2 0 6 38 39 515
998 2 2 0 6 39 522 515
999 2 2 0 6 39 40 522
1000 2 2 0 6 515 522 173
1001 2 2 0 6 40 523 522
1002 2 2 0 6 523 524 522
1003 2 2 0 6 523 110 524
1004 2 2 0 6 522 524 173
1005 2 2 0 6 40 41 523
1006 2 2 0 6 41 240 523
1007 2 2 0 6 41 42 240
1008 2 2 0 6 523 240 110
1009 2 2 0 6 173 524 519
1010 2 2 0 6 524 246 519
1011 2 2 0 6 524 110 246
1012 2 2 0 6 519 246 78
1013 2 2 0 6 88 521 444
1014 2 2 0 6 521 525 444
1015 2 2 0 6 521 174 525
1016 2 2 0 6 444 525 160
1017 2 2 0 6 174 526 525
1018 2 2 0 6 526 527 525
1019 2 2 0 6 526 116 527
1020 2 2 0 6 525 527 160
1021 2 2 0 6 174 520 526
1022 2 2 0 6 520 262 526
1023 2 2 0 6 520 78 262
1024 2 2 0 6 526 262 116
1025 2 2 0 6 160 527 448
1026 2 2 0 6 527 267 448
1027 2 2 0 6 527 116 267
1028 2 2 0 6 448 267 68
1029 2 2 0 6 4 50 452
1030 2 2 0 6 50 528 452
1031 2 2 0 6 50 51 528
1032 2 2 0 6 452 528 161
1033 2 2 0 6 51 529 528
1034 2 2 0 6 529 530 528
1035 2 2 0 6 529 175 530
1036 2 2 0 6 528 530 161
1037 2 2 0 6 51 52 529
1038 2 2 0 6 52 531 529
1039 2 2 0 6 52 53 531
1040 2 2 0 6 529 531 175
1041 2 2 0 6 161 530 456
1042 2 2 0 6 530 532 456
1043 2 2 0 6 530 175 532
1044 2 2 0 6 456 532 89
1045 2 2 0 6 53 533 531
1046 2 2 0 6 533 534 531
1047 2 2 0 6 533 176 534
1048 2 2 0 6 531 534 175
1049 2 2 0 6 176 535 534
1050 2 2 0 6 535 536 534
1051 2 2 0 6 535 177 536
1052 2 2 0 6 534 536 175
1053 2 2 0 6 176 537 535
1054 2 2 0 6 537 538 535
1055 2 2 0 6 537 79 538
1056 2 2 0 6 535 538 177
1057 2 2 0 6 175 536 532
1058 2 2 0 6 536 539 532
1059 2 2 0 6 536 177 539
1060 2 2 0 6 532 539 89
1061 2 2 0 6 53 54 533
1062 2 2 0 6 54 540 533
1063 2 2 0 6 54 55 540
1064 2 2 0 6 533 540 176
1065 2 2 0 6 55 541 540
1066 2 2 0 6 541 542 540
1067 2 2 0 6 541 122 542
1068 2 2 0 6 540 542 176
1069 2 2 0 6 55 56 541
1070 2 2 0 6 56 288 541
1071 2 2 0 6 56 57 288
1072 2 2 0 6 541 288 122
1073 2 2 0 6 176 542 537
1074 2 2 0 6 542 284 537
1075 2 2 0 6 542 122 284
1076 2 2 0 6 537 284 79
1077 2 2 0 6 89 539 466
1078 2 2 0 6 539 543 466
1079 2 2 0 6 539 177 543
1080 2 2 0 6 466 543 165
1081 2 2 0 6 177 544 543
1082 2 2 0 6 544 545 543
1083 2 2 0 6 544 117 545
1084 2 2 0 6 543 545 165
1085 2 2 0 6 177 538 544
1086 2 2 0 6 538 273 544
1087 2 2 0 6 538 79 273
1088 2 2 0 6 544 273 117
1089 2 2 0 6 165 545 470
1090 2 2 0 6 545 268 470
1091 2 2 0 6 545 117 268
1092 2 2 0 6 470 268 69
$EndElements
