$MeshFormat
2.2 0 8
$EndMeshFormat
$Nodes
401
1 -1 -1 0
2 1 -1 0
3 1 1 0
4 -1 1 0
5 -0.7500000000004167 -1 0
6 -0.5000000000011573 -1 0
7 -0.250000000001955 -1 0
8 -2.752797989558076e-12 -1 0
9 0.2499999999979354 -1 0
10 0.4999999999986235 -1 0
11 0.7499999999993117 -1 0
12 -0.8750000000002083 -1 0
13 -0.6250000000007869 -1 0
14 -0.3750000000015561 -1 0
15 -0.1250000000023539 -1 0
16 0.1249999999975913 -1 0
17 0.3749999999982794 -1 0
18 0.6249999999989676 -1 0
19 0.8749999999996558 -1 0
20 1 -0.7500000000004167 0
21 1 -0.5000000000011573 0
22 1 -0.250000000001955 0
23 1 -2.752797989558076e-12 0
24 1 0.2499999999979354 0
25 1 0.4999999999986235 0
26 1 0.7499999999993117 0
27 1 -0.8750000000002083 0
28 1 -0.6250000000007869 0
29 1 -0.3750000000015561 0
30 1 -0.1250000000023539 0
31 1 0.1249999999975913 0
32 1 0.3749999999982794 0
33 1 0.6249999999989676 0
34 1 0.8749999999996558 0
35 0.7500000000004167 1 0
36 0.5000000000011573 1 0
37 0.250000000001955 1 0
38 2.752797989558076e-12 1 0
39 -0.2499999999979354 1 0
40 -0.4999999999986235 1 0
41 -0.7499999999993117 1 0
42 0.8750000000002083 1 0
43 0.6250000000007869 1 0
44 0.3750000000015561 1 0
45 0.1250000000023539 1 0
46 -0.1249999999975913 1 0
47 -0.3749999999982794 1 0
48 -0.6249999999989676 1 0
49 -0.8749999999996558 1 0
50 -1 0.7500000000004167 0
51 -1 0.5000000000011573 0
52 -1 0.250000000001955 0
53 -1 2.752797989558076e-12 0
54 -1 -0.2499999999979354 0
55 -1 -0.4999999999986235 0
56 -1 -0.7499999999993117 0
57 -1 0.8750000000002083 0
58 -1 0.6250000000007869 0
59 -1 0.3750000000015561 0
60 -1 0.1250000000023539 0
61 -1 -0.1249999999975913 0
62 -1 -0.3749999999982794 0
63 -1 -0.6249999999989676 0
64 -1 -0.8749999999996558 0
65 0 0 0
66 -0.3761609582334743 -0.3570511792922074 0
67 0.3570511792922072 -0.3761609582334741 0
68 0.3761609582334742 0.3570511792922074 0
69 -0.3570511792922073 0.3761609582334742 0
70 -0.008040532787061629 -0.5740400490589259 0
71 0.5740400490589259 -0.008040532787061475 0
72 0.008040532787061485 0.5740400490589259 0
73 -0.5740400490589259 0.008040532787061638 0
74 0.659807604560228 -0.6638640203267554 0
75 0.6638640203267554 0.659807604560228 0
76 -0.659807604560228 0.6638640203267554 0
77 -0.6638640203267554 -0.659807604560228 0
78 -0.1266871798879554 -0.2954686817171822 0
79 0.2865824462363816 -0.1363792706986374 0
80 0.1109608950380711 0.2532823166062163 0
81 -0.2954686817171823 0.1266871798879553 0
82 0.692657832363648 -0.2784690799392487 0
83 0.2784690799392487 0.692657832363648 0
84 -0.692657832363648 0.2784690799392488 0
85 -0.2784690799392487 -0.692657832363648 0
86 0.697291394961685 0.2654344033231205 0
87 -0.2654344033231205 0.697291394961685 0
88 0.2654344033231204 -0.697291394961685 0
89 -0.697291394961685 -0.2654344033231204 0
90 0.1268664894638944 -0.3344587215902018 0
91 -0.1245055683580675 0.3302239064800833 0
92 0.3372971803085503 0.1183232418646042 0
93 -0.3348222090830925 -0.1333225655770018 0
94 0.07060949351564458 -0.8008351867549175 0
95 0.8008351867549177 0.07060949351564474 0
96 -0.07060949351564474 0.8008351867549175 0
97 -0.8008351867549176 -0.07060949351564444 0
98 -0.4694222129489362 -0.8012544406490388 0
99 0.8012544406490388 -0.4694222129489362 0
100 0.4694222129489361 0.8012544406490388 0
101 -0.8012544406490388 0.4694222129489362 0
102 0.473505077713925 -0.7876051553309272 0
103 0.7876051553309272 0.473505077713925 0
104 -0.473505077713925 0.7876051553309272 0
105 -0.7876051553309275 -0.4735050777139252 0
106 -0.2186779472060622 -0.4908911609803094 0
107 0.4904285289790183 -0.2191825333582217 0
108 0.222682274858537 0.4894303050301533 0
109 -0.4908911609803094 0.2186779472060622 0
110 0.8265291771073373 -0.1172778075495513 0
111 0.1172778075495513 0.8265291771073373 0
112 -0.1172778075495514 -0.8265291771073373 0
113 -0.8265291771073373 0.1172778075495515 0
114 0.2303408600365423 -0.495962941905956 0
115 -0.4959629419059561 -0.2303408600365426 0
116 -0.2303408600365425 0.4959629419059562 0
117 0.4959629419059562 0.2303408600365425 0
118 -0.8057697510823811 -0.8057697510821349 0
119 0.8057697510821349 -0.8057697510823811 0
120 0.8057697510823811 0.8057697510821349 0
121 -0.8057697510821349 0.8057697510823811 0
122 0.5734351610172203 -0.4346250050067247 0
123 0.4352082952567773 0.5732687903590761 0
124 -0.5735122663507688 0.4345409073146981 0
125 -0.4345409073146982 -0.5735122663507689 0
126 -0.575904229678916 -0.4266085652127987 0
127 0.5760154610025958 0.4265679858808498 0
128 -0.4266085652127987 0.5759042296789161 0
129 0.4265957143238738 -0.5759182459609203 0
130 -0.1442312035257281 -0.08684369473436647 0
131 0.1800757913784929 0.0136848987383581 0
132 -0.09968611338348268 0.1505896606429706 0
133 0.0537677239441809 -0.139910911667005 0
134 0.8533663592582803 -0.6378111968719294 0
135 0.6378111968719294 0.8533663592582803 0
136 -0.6378111968719294 -0.8533663592582803 0
137 -0.8533663592582803 0.6378111968719293 0
138 0.6378164866708447 -0.8514477853480129 0
139 0.8514477853480129 0.6378164866708447 0
140 -0.6378164866708447 0.8514477853480129 0
141 -0.8514477853480129 -0.6378164866708448 0
142 0.3218168127642944 -0.2562701144660557 0
143 0.206724467850138 -0.2354189961444196 0
144 0.2419588343780508 -0.355309839911838 0
145 0.2435609266357726 0.3051667479492118 0
146 0.2241290376733107 0.1858027792354102 0
147 0.3567290692710122 0.2376872105784058 0
148 -0.3262599305046948 0.2514240690607147 0
149 -0.2099871250376249 0.2284555431840193 0
150 -0.2407783738251374 0.3531924323567788 0
151 -0.2514240690607148 -0.3262599305046948 0
152 -0.2307546944855239 -0.214395623647092 0
153 -0.3554915836582834 -0.2451868724346046 0
154 0.8938025776654637 0.3617525388559302 0
155 0.7424482751463062 0.3694697405185228 0
156 0.8486456974808425 0.257717201660528 0
157 -0.3617525388559302 0.8938025776654637 0
158 -0.3694697405185228 0.7424482751463062 0
159 -0.257717201660528 0.8486456974808425 0
160 -0.8938025776654637 -0.3617525388559303 0
161 -0.7424482751463062 -0.3694697405185228 0
162 -0.8486456974808425 -0.2577172016605279 0
163 0.3617525388559302 -0.8938025776654637 0
164 0.3694697405185227 -0.7424482751463062 0
165 0.2577172016605279 -0.8486456974808425 0
166 -0.8463289161818239 0.2642345399706019 0
167 -0.7469561365063434 0.3739456464440925 0
168 -0.9006272203245194 0.3597111064754456 0
169 -0.2642345399706019 -0.8463289161818239 0
170 -0.3739456464440924 -0.7469561365063434 0
171 -0.3597111064754456 -0.9006272203245194 0
172 0.8463289161818239 -0.2642345399706019 0
173 0.7469561365063434 -0.3739456464440924 0
174 0.9006272203245194 -0.3597111064754456 0
175 0.2642345399706019 0.8463289161818239 0
176 0.3739456464440924 0.7469561365063434 0
177 0.3597111064754456 0.9006272203245194 0
178 -0.1432548063631552 -0.6333489407112869 0
179 -0.1978734437444001 -0.7595935047354927 0
180 -0.06265917016830652 -0.7002846130831316 0
181 0.6333489407112869 -0.1432548063631551 0
182 0.7595935047354927 -0.1978734437444 0
183 0.7002846130831316 -0.06265917016830638 0
184 0.1432548063631551 0.6333489407112869 0
185 0.1978734437444 0.7595935047354927 0
186 0.0626591701683064 0.7002846130831316 0
187 -0.6333489407112869 0.1432548063631552 0
188 -0.7595935047354927 0.1978734437444001 0
189 -0.7002846130831316 0.06265917016830656 0
190 -0.7490632908583013 -0.1680219484193824 0
191 -0.9004175933774587 -0.1603047467567899 0
192 0.1680219484193825 -0.7490632908583013 0
193 0.16030474675679 -0.9004175933774587 0
194 0.7490632908583014 0.1680219484193826 0
195 0.9004175933774589 0.1603047467567901 0
196 -0.1680219484193826 0.7490632908583013 0
197 -0.1603047467567901 0.9004175933774587 0
198 0.1786036747502183 -0.4152108317480789 0
199 0.2936960196643748 -0.436061950069715 0
200 -0.4153925754945243 -0.1818317128067722 0
201 -0.4360619500697152 -0.293696019664375 0
202 -0.177423214197305 0.4130934241930198 0
203 -0.2936960196643749 0.4360619500697152 0
204 0.4166300611072533 0.1743320509505734 0
205 0.4360619500697152 0.293696019664375 0
206 0.4556686146837381 0.05514135453877136 0
207 0.311939813272466 -0.009028014417016596 0
208 0.4303112476476538 -0.07220990174284944 0
209 -0.05823251778550301 0.4521319777695046 0
210 -0.006772336659998199 0.2917531115431498 0
211 0.0595007139125663 0.4136611828325711 0
212 0.05941297833841638 -0.4542493853245638 0
213 8.965478796950366e-05 -0.314963701653692 0
214 -0.06736385633750851 -0.4347543653880541 0
215 -0.4544311290710092 -0.06264101639497009 0
216 -0.3151454454001374 -0.003317692844523254 0
217 -0.4347543653880541 0.06736385633750847 0
218 0.8938025776654637 0.4867525388562742 0
219 -0.4867525388562742 0.8938025776654637 0
220 0.4867525388562742 -0.8938025776654637 0
221 -0.8938025776654637 -0.4867525388562743 0
222 -0.9006272203245194 0.4847111064750468 0
223 -0.4847111064750468 -0.9006272203245194 0
224 0.9006272203245194 -0.4847111064750468 0
225 0.4847111064750467 0.9006272203245194 0
226 0.05548044751903555 0.1266411583031082 0
227 0.005637390827294211 0.2019359886245934 0
228 -0.04984305669174134 0.0752948303214853 0
229 0.09003789568924644 0.00684244936917905 0
230 0.145518343208282 0.1334836076722872 0
231 -0.9132645885536687 0.1836389037757533 0
232 -0.1836389037757532 -0.9132645885536687 0
233 0.9132645885536687 -0.1836389037757531 0
234 0.1836389037757531 0.9132645885536687 0
235 0.3885054876077 -0.1777809020284296 0
236 0.5322342890189721 -0.1136115330726416 0
237 0.1668215849483041 0.3713563108181848 0
238 0.1153614038227992 0.5317351770445395 0
239 -0.1726825635470088 -0.3931799213487458 0
240 -0.1133592399965619 -0.5324656050196177 0
241 -0.3931799213487459 0.1726825635470088 0
242 -0.5324656050196177 0.1133592399965619 0
243 0.4237398541356128 -0.2976717457958479 0
244 0.2994216165460056 0.4232407421611803 0
245 -0.4239711701362583 0.2974194527197682 0
246 -0.2974194527197682 -0.4239711701362584 0
247 0.6874376179069218 0.03128448036429163 0
248 0.6356657220103055 0.1286969352680295 0
249 -0.03128448036429163 0.6874376179069217 0
250 -0.1286969352680295 0.6356657220103055 0
251 -0.6874376179069217 -0.0312844803642914 0
252 -0.6356657220103055 -0.1286969352680294 0
253 0.03128448036429148 -0.6874376179069217 0
254 0.1286969352680294 -0.6356657220103055 0
255 0.5966271684338206 0.2478876316798315 0
256 0.535001495482441 0.1111501636247405 0
257 -0.2478876316798315 0.5966271684338206 0
258 -0.1111501636247405 0.535001495482441 0
259 -0.5966271684338206 -0.2478876316798315 0
260 -0.535001495482441 -0.1111501636247405 0
261 0.2478876316798314 -0.5966271684338205 0
262 0.1111501636247403 -0.5350014954824409 0
263 -0.2485735135726554 -0.5917744966719787 0
264 0.5915431806713332 -0.2488258066487352 0
265 0.2505756773988929 0.5910440686969006 0
266 -0.5917744966719787 0.2485735135726555 0
267 -0.02333415701695341 -0.8136821819311274 0
268 0.8136821819311275 -0.02333415701695328 0
269 0.02333415701695328 0.8136821819311274 0
270 -0.8136821819311275 0.02333415701695353 0
271 -0.532201713665539 0.3266094272603801 0
272 -0.6330850493572084 0.3565049936269734 0
273 0.5319318449981193 -0.3269037691824732 0
274 0.6330464966904341 -0.3565470424729867 0
275 0.3289452850576571 0.5313495476946146 0
276 0.356838687598013 0.632963311361362 0
277 -0.3266094272603802 -0.5322017136655391 0
278 -0.3565049936269734 -0.6330850493572084 0
279 -0.4652817228214881 0.4053509327740861 0
280 0.4652431701547137 -0.4053929816200994 0
281 0.4056846267451257 0.4651599848256417 0
282 -0.4053509327740862 -0.4652817228214882 0
283 0.03530474675644589 -0.9004175933774587 0
284 -0.9004175933774587 -0.03530474675644582 0
285 0.9004175933774589 0.03530474675644597 0
286 -0.03530474675644597 0.9004175933774587 0
287 0.9028848755410674 -0.777884875541399 0
288 0.9028848755410674 -0.9028848755411906 0
289 0.777884875541399 0.9028848755410674 0
290 0.9028848755411906 0.9028848755410674 0
291 -0.9028848755410674 0.777884875541399 0
292 -0.9028848755410674 0.9028848755411906 0
293 -0.777884875541399 -0.9028848755410674 0
294 -0.9028848755411906 -0.9028848755410674 0
295 -0.9028848755411906 -0.7778848755407233 0
296 0.7778848755407233 -0.9028848755411906 0
297 0.9028848755411906 0.7778848755407233 0
298 -0.7778848755407233 0.9028848755411906 0
299 -0.03645972797188725 -0.2176897966920936 0
300 -0.04523173979077361 -0.1133773032006857 0
301 -0.1354591917068417 -0.1911561882257743 0
302 -0.2198499426214552 0.01992174257679442 0
303 -0.1219586584546054 0.03187298295430207 0
304 -0.1975773975503325 0.138638420265463 0
305 0.09031710670403764 -0.2371848166286034 0
306 0.2586864858435216 0.06600407030148116 0
307 -0.1120958408707751 0.2404067835615269 0
308 -0.2395267063044103 -0.1100831301556841 0
309 -0.0586389037761521 -0.9132645885536687 0
310 0.9132645885536687 -0.05863890377615205 0
311 0.05863890377615205 0.9132645885536687 0
312 -0.9132645885536687 0.05863890377615215 0
313 -0.07211560176286405 -0.04342184736718323 0
314 0.02688386197209045 -0.0699554558335025 0
315 0.2333291188074373 -0.06134718598013965 0
316 0.1701750850902813 -0.1381450911828212 0
317 0.9257238926740065 0.6939082433350782 0
318 0.9257238926740065 0.5689082433347341 0
319 -0.6939082433350782 0.9257238926740065 0
320 -0.5689082433347341 0.9257238926740065 0
321 -0.9257238926740065 -0.6939082433350783 0
322 -0.9257238926740065 -0.5689082433347341 0
323 0.6939082433350782 -0.9257238926740065 0
324 0.5689082433347341 -0.9257238926740065 0
325 -0.5689055984365434 -0.9266831796291402 0
326 -0.6939055984361731 -0.9266831796291402 0
327 0.9266831796291402 -0.5689055984365434 0
328 0.9266831796291402 -0.6939055984361731 0
329 0.5689055984365434 0.9266831796291402 0
330 0.6939055984361731 0.9266831796291402 0
331 -0.9266831796291402 0.5689055984365433 0
332 -0.9266831796291402 0.6939055984361731 0
333 0.6873448008331295 -0.4520236089778304 0
334 0.4523152541028567 0.6872616155040574 0
335 -0.6873833534999039 0.4519815601318171 0
336 -0.4519815601318172 -0.6873833534999039 0
337 0.5432016594420509 -0.6198911331438379 0
338 0.4500503960188994 -0.6817617006459238 0
339 0.5666563411370765 -0.7257345878288413 0
340 0.6199397406646756 0.5431877952205389 0
341 0.6818103081667615 0.4500365317973875 0
342 0.7257345878288413 0.5666563411370765 0
343 -0.5432080848865134 0.6198841250028357 0
344 -0.4500568214633619 0.6817546925049216 0
345 -0.5666563411370765 0.7257345878288413 0
346 -0.6198841250028357 -0.5432080848865134 0
347 -0.6817546925049217 -0.450056821463362 0
348 -0.7257345878288415 -0.5666563411370766 0
349 -0.535933585792436 -0.3284747126246707 0
350 -0.4760325939561951 -0.3918298722525031 0
351 0.328468287180208 -0.5359405939334382 0
352 0.3918234468080405 -0.4760396020971972 0
353 0.535989201454276 0.3284544229586961 0
354 0.476088209618035 0.3918095825865286 0
355 -0.3284747126246706 0.5359335857924361 0
356 -0.391829872252503 0.4760325939561951 0
357 -0.6365978123203004 -0.3460214842679595 0
358 0.3460150588234971 -0.6366048204613026 0
359 -0.3460214842679596 0.6365978123203005 0
360 0.6366534279821404 0.3460011946019852 0
361 0.6166213827887241 -0.54924451266674 0
362 0.500015437670547 -0.5052716254838225 0
363 0.5495361577917663 0.616538197459652 0
364 0.5056118781296866 0.4999183881199629 0
365 -0.6166599354554985 0.5492024638207267 0
366 -0.5000604157817837 0.505222568496807 0
367 -0.5492024638207268 -0.6166599354554985 0
368 -0.505222568496807 -0.5000604157817838 0
369 -0.6508376085993424 -0.7565869819092541 0
370 -0.5536167049104328 -0.8273103999536595 0
371 -0.5666431166378458 -0.7305310226046334 0
372 0.7565869819092541 -0.6508376085993424 0
373 0.8273103999536595 -0.5536167049104328 0
374 0.7305310226046334 -0.5666431166378458 0
375 0.6508376085993424 0.7565869819092541 0
376 0.5536167049104328 0.8273103999536595 0
377 0.5666431166378457 0.7305310226046334 0
378 -0.7565869819092541 0.6508376085993424 0
379 -0.8273103999536595 0.5536167049104328 0
380 -0.7305310226046334 0.5666431166378458 0
381 0.5556607821923849 -0.81952647033947 0
382 0.6488120456155364 -0.7576559028373842 0
383 0.81952647033947 0.5556607821923849 0
384 0.7576559028373842 0.6488120456155364 0
385 -0.5556607821923849 0.81952647033947 0
386 -0.6488120456155364 0.7576559028373842 0
387 -0.8195264703394702 -0.555660782192385 0
388 -0.7576559028373842 -0.6488120456155364 0
389 0.7327886778211814 -0.7348168857045683 0
390 0.8295680551702076 -0.7217904739771552 0
391 0.7348168857045683 0.7327886778211814 0
392 0.7217904739771552 0.8295680551702076 0
393 -0.7327886778211814 0.7348168857045683 0
394 -0.8295680551702076 0.7217904739771552 0
395 -0.7348168857045683 -0.7327886778211814 0
396 -0.7217904739771552 -0.8295680551702076 0
397 0.7217931188764898 -0.828608768215197 0
398 0.828608768215197 0.7217931188764898 0
399 -0.7217931188764898 0.828608768215197 0
400 -0.828608768215197 -0.7217931188764899 0
401 0.1169217576613369 -0.06311300646432345 0
$EndNodes
$Elements
804
1 15 2 0 1 1
2 15 2 0 2 2
3 15 2 0 3 3
4 15 2 0 4 4
5 1 2 0 1 1 12
6 1 2 0 1 12 5
7 1 2 0 1 5 13
8 1 2 0 1 13 6
9 1 2 0 1 6 14
10 1 2 0 1 14 7
11 1 2 0 1 7 15
12 1 2 0 1 15 8
13 1 2 0 1 8 16
14 1 2 0 1 16 9
15 1 2 0 1 9 17
16 1 2 0 1 17 10
17 1 2 0 1 10 18
18 1 2 0 1 18 11
19 1 2 0 1 11 19
20 1 2 0 1 19 2
21 1 2 0 2 2 27
22 1 2 0 2 27 20
23 1 2 0 2 20 28
24 1 2 0 2 28 21
25 1 2 0 2 21 29
26 1 2 0 2 29 22
27 1 2 0 2 22 30
28 1 2 0 2 30 23
29 1 2 0 2 23 31
30 1 2 0 2 31 24
31 1 2 0 2 24 32
32 1 2 0 2 32 25
33 1 2 0 2 25 33
34 1 2 0 2 33 26
35 1 2 0 2 26 34
36 1 2 0 2 34 3
37 1 2 0 3 3 42
38 1 2 0 3 42 35
39 1 2 0 3 35 43
40 1 2 0 3 43 36
41 1 2 0 3 36 44
42 1 2 0 3 44 37
43 1 2 0 3 37 45
44 1 2 0 3 45 38
45 1 2 0 3 38 46
46 1 2 0 3 46 39
47 1 2 0 3 39 47
48 1 2 0 3 47 40
49 1 2 0 3 40 48
50 1 2 0 3 48 41
51 1 2 0 3 41 49
52 1 2 0 3 49 4
53 1 2 0 4 4 57
54 1 2 0 4 57 50
55 1 2 0 4 50 58
56 1 2 0 4 58 51
57 1 2 0 4 51 59
58 1 2 0 4 59 52
59 1 2 0 4 52 60
60 1 2 0 4 60 53
61 1 2 0 4 53 61
62 1 2 0 4 61 54
63 1 2 0 4 54 62
64 1 2 0 4 62 55
65 1 2 0 4 55 63
66 1 2 0 4 63 56
67 1 2 0 4 56 64
68 1 2 0 4 64 1
69 2 2 0 6 67 142 144
70 2 2 0 6 142 143 144
71 2 2 0 6 142 79 143
72 2 2 0 6 144 143 90
73 2 2 0 6 68 145 147
74 2 2 0 6 145 146 147
75 2 2 0 6 145 80 146
76 2 2 0 6 147 146 92
77 2 2 0 6 69 148 150
78 2 2 0 6 148 149 150
79 2 2 0 6 148 81 149
80 2 2 0 6 150 149 91
81 2 2 0 6 66 151 153
82 2 2 0 6 151 152 153
83 2 2 0 6 151 78 152
84 2 2 0 6 153 152 93
85 2 2 0 6 24 154 156
86 2 2 0 6 154 155 156
87 2 2 0 6 154 103 155
88 2 2 0 6 156 155 86
89 2 2 0 6 39 157 159
90 2 2 0 6 157 158 159
91 2 2 0 6 157 104 158
92 2 2 0 6 159 158 87
93 2 2 0 6 54 160 162
94 2 2 0 6 160 161 162
95 2 2 0 6 160 105 161
96 2 2 0 6 162 161 89
97 2 2 0 6 9 163 165
98 2 2 0 6 163 164 165
99 2 2 0 6 163 102 164
100 2 2 0 6 165 164 88
101 2 2 0 6 52 166 168
102 2 2 0 6 166 167 168
103 2 2 0 6 166 84 167
104 2 2 0 6 168 167 101
105 2 2 0 6 7 169 171
106 2 2 0 6 169 170 171
107 2 2 0 6 169 85 170
108 2 2 0 6 171 170 98
109 2 2 0 6 22 172 174
110 2 2 0 6 172 173 174
111 2 2 0 6 172 82 173
112 2 2 0 6 174 173 99
113 2 2 0 6 37 175 177
114 2 2 0 6 175 176 177
115 2 2 0 6 175 83 176
116 2 2 0 6 177 176 100
117 2 2 0 6 70 178 180
118 2 2 0 6 178 179 180
119 2 2 0 6 178 85 179
120 2 2 0 6 180 179 112
121 2 2 0 6 71 181 183
122 2 2 0 6 181 182 183
123 2 2 0 6 181 82 182
124 2 2 0 6 183 182 110
125 2 2 0 6 72 184 186
126 2 2 0 6 184 185 186
127 2 2 0 6 184 83 185
128 2 2 0 6 186 185 111
129 2 2 0 6 73 187 189
130 2 2 0 6 187 188 189
131 2 2 0 6 187 84 188
132 2 2 0 6 189 188 113
133 2 2 0 6 54 162 191
134 2 2 0 6 162 190 191
135 2 2 0 6 162 89 190
136 2 2 0 6 191 190 97
137 2 2 0 6 9 165 193
138 2 2 0 6 165 192 193
139 2 2 0 6 165 88 192
140 2 2 0 6 193 192 94
141 2 2 0 6 24 156 195
142 2 2 0 6 156 194 195
143 2 2 0 6 156 86 194
144 2 2 0 6 195 194 95
145 2 2 0 6 39 159 197
146 2 2 0 6 159 196 197
147 2 2 0 6 159 87 196
148 2 2 0 6 197 196 96
149 2 2 0 6 67 144 199
150 2 2 0 6 144 198 199
151 2 2 0 6 144 90 198
152 2 2 0 6 199 198 114
153 2 2 0 6 66 153 201
154 2 2 0 6 153 200 201
155 2 2 0 6 153 93 200
156 2 2 0 6 201 200 115
157 2 2 0 6 69 150 203
158 2 2 0 6 150 202 203
159 2 2 0 6 150 91 202
160 2 2 0 6 203 202 116
161 2 2 0 6 68 147 205
162 2 2 0 6 147 204 205
163 2 2 0 6 147 92 204
164 2 2 0 6 205 204 117
165 2 2 0 6 71 206 208
166 2 2 0 6 206 207 208
167 2 2 0 6 206 92 207
168 2 2 0 6 208 207 79
169 2 2 0 6 72 209 211
170 2 2 0 6 209 210 211
171 2 2 0 6 209 91 210
172 2 2 0 6 211 210 80
173 2 2 0 6 70 212 214
174 2 2 0 6 212 213 214
175 2 2 0 6 212 90 213
176 2 2 0 6 214 213 78
177 2 2 0 6 73 215 217
178 2 2 0 6 215 216 217
179 2 2 0 6 215 93 216
180 2 2 0 6 217 216 81
181 2 2 0 6 25 218 32
182 2 2 0 6 218 154 32
183 2 2 0 6 218 103 154
184 2 2 0 6 32 154 24
185 2 2 0 6 40 219 47
186 2 2 0 6 219 157 47
187 2 2 0 6 219 104 157
188 2 2 0 6 47 157 39
189 2 2 0 6 10 220 17
190 2 2 0 6 220 163 17
191 2 2 0 6 220 102 163
192 2 2 0 6 17 163 9
193 2 2 0 6 55 221 62
194 2 2 0 6 221 160 62
195 2 2 0 6 221 105 160
196 2 2 0 6 62 160 54
197 2 2 0 6 51 59 222
198 2 2 0 6 59 168 222
199 2 2 0 6 59 52 168
200 2 2 0 6 222 168 101
201 2 2 0 6 6 14 223
202 2 2 0 6 14 171 223
203 2 2 0 6 14 7 171
204 2 2 0 6 223 171 98
205 2 2 0 6 21 29 224
206 2 2 0 6 29 174 224
207 2 2 0 6 29 22 174
208 2 2 0 6 224 174 99
209 2 2 0 6 36 44 225
210 2 2 0 6 44 177 225
211 2 2 0 6 44 37 177
212 2 2 0 6 225 177 100
213 2 2 0 6 65 226 228
214 2 2 0 6 226 227 228
215 2 2 0 6 226 80 227
216 2 2 0 6 228 227 132
217 2 2 0 6 65 229 226
218 2 2 0 6 229 230 226
219 2 2 0 6 229 131 230
220 2 2 0 6 226 230 80
221 2 2 0 6 52 231 166
222 2 2 0 6 231 188 166
223 2 2 0 6 231 113 188
224 2 2 0 6 166 188 84
225 2 2 0 6 7 232 169
226 2 2 0 6 232 179 169
227 2 2 0 6 232 112 179
228 2 2 0 6 169 179 85
229 2 2 0 6 22 233 172
230 2 2 0 6 233 182 172
231 2 2 0 6 233 110 182
232 2 2 0 6 172 182 82
233 2 2 0 6 37 234 175
234 2 2 0 6 234 185 175
235 2 2 0 6 234 111 185
236 2 2 0 6 175 185 83
237 2 2 0 6 71 208 236
238 2 2 0 6 208 235 236
239 2 2 0 6 208 79 235
240 2 2 0 6 236 235 107
241 2 2 0 6 72 211 238
242 2 2 0 6 211 237 238
243 2 2 0 6 211 80 237
244 2 2 0 6 238 237 108
245 2 2 0 6 70 214 240
246 2 2 0 6 214 239 240
247 2 2 0 6 214 78 239
248 2 2 0 6 240 239 106
249 2 2 0 6 73 217 242
250 2 2 0 6 217 241 242
251 2 2 0 6 217 81 241
252 2 2 0 6 242 241 109
253 2 2 0 6 67 243 142
254 2 2 0 6 243 235 142
255 2 2 0 6 243 107 235
256 2 2 0 6 142 235 79
257 2 2 0 6 68 244 145
258 2 2 0 6 244 237 145
259 2 2 0 6 244 108 237
260 2 2 0 6 145 237 80
261 2 2 0 6 69 245 148
262 2 2 0 6 245 241 148
263 2 2 0 6 245 109 241
264 2 2 0 6 148 241 81
265 2 2 0 6 66 246 151
266 2 2 0 6 246 239 151
267 2 2 0 6 246 106 239
268 2 2 0 6 151 239 78
269 2 2 0 6 71 247 248
270 2 2 0 6 247 194 248
271 2 2 0 6 247 95 194
272 2 2 0 6 248 194 86
273 2 2 0 6 72 249 250
274 2 2 0 6 249 196 250
275 2 2 0 6 249 96 196
276 2 2 0 6 250 196 87
277 2 2 0 6 73 251 252
278 2 2 0 6 251 190 252
279 2 2 0 6 251 97 190
280 2 2 0 6 252 190 89
281 2 2 0 6 70 253 254
282 2 2 0 6 253 192 254
283 2 2 0 6 253 94 192
284 2 2 0 6 254 192 88
285 2 2 0 6 71 248 256
286 2 2 0 6 248 255 256
287 2 2 0 6 248 86 255
288 2 2 0 6 256 255 117
289 2 2 0 6 72 250 258
290 2 2 0 6 250 257 258
291 2 2 0 6 250 87 257
292 2 2 0 6 258 257 116
293 2 2 0 6 73 252 260
294 2 2 0 6 252 259 260
295 2 2 0 6 252 89 259
296 2 2 0 6 260 259 115
297 2 2 0 6 70 254 262
298 2 2 0 6 254 261 262
299 2 2 0 6 254 88 261
300 2 2 0 6 262 261 114
301 2 2 0 6 70 240 178
302 2 2 0 6 240 263 178
303 2 2 0 6 240 106 263
304 2 2 0 6 178 263 85
305 2 2 0 6 71 236 181
306 2 2 0 6 236 264 181
307 2 2 0 6 236 107 264
308 2 2 0 6 181 264 82
309 2 2 0 6 72 238 184
310 2 2 0 6 238 265 184
311 2 2 0 6 238 108 265
312 2 2 0 6 184 265 83
313 2 2 0 6 73 242 187
314 2 2 0 6 242 266 187
315 2 2 0 6 242 109 266
316 2 2 0 6 187 266 84
317 2 2 0 6 70 180 253
318 2 2 0 6 180 267 253
319 2 2 0 6 180 112 267
320 2 2 0 6 253 267 94
321 2 2 0 6 71 183 247
322 2 2 0 6 183 268 247
323 2 2 0 6 183 110 268
324 2 2 0 6 247 268 95
325 2 2 0 6 72 186 249
326 2 2 0 6 186 269 249
327 2 2 0 6 186 111 269
328 2 2 0 6 249 269 96
329 2 2 0 6 73 189 251
330 2 2 0 6 189 270 251
331 2 2 0 6 189 113 270
332 2 2 0 6 251 270 97
333 2 2 0 6 84 266 272
334 2 2 0 6 266 271 272
335 2 2 0 6 266 109 271
336 2 2 0 6 272 271 124
337 2 2 0 6 82 264 274
338 2 2 0 6 264 273 274
339 2 2 0 6 264 107 273
340 2 2 0 6 274 273 122
341 2 2 0 6 83 265 276
342 2 2 0 6 265 275 276
343 2 2 0 6 265 108 275
344 2 2 0 6 276 275 123
345 2 2 0 6 85 263 278
346 2 2 0 6 263 277 278
347 2 2 0 6 263 106 277
348 2 2 0 6 278 277 125
349 2 2 0 6 69 279 245
350 2 2 0 6 279 271 245
351 2 2 0 6 279 124 271
352 2 2 0 6 245 271 109
353 2 2 0 6 67 280 243
354 2 2 0 6 280 273 243
355 2 2 0 6 280 122 273
356 2 2 0 6 243 273 107
357 2 2 0 6 68 281 244
358 2 2 0 6 281 275 244
359 2 2 0 6 281 123 275
360 2 2 0 6 244 275 108
361 2 2 0 6 66 282 246
362 2 2 0 6 282 277 246
363 2 2 0 6 282 125 277
364 2 2 0 6 246 277 106
365 2 2 0 6 8 16 283
366 2 2 0 6 16 193 283
367 2 2 0 6 16 9 193
368 2 2 0 6 283 193 94
369 2 2 0 6 53 61 284
370 2 2 0 6 61 191 284
371 2 2 0 6 61 54 191
372 2 2 0 6 284 191 97
373 2 2 0 6 23 31 285
374 2 2 0 6 31 195 285
375 2 2 0 6 31 24 195
376 2 2 0 6 285 195 95
377 2 2 0 6 38 46 286
378 2 2 0 6 46 197 286
379 2 2 0 6 46 39 197
380 2 2 0 6 286 197 96
381 2 2 0 6 2 27 288
382 2 2 0 6 27 287 288
383 2 2 0 6 27 20 287
384 2 2 0 6 288 287 119
385 2 2 0 6 3 42 290
386 2 2 0 6 42 289 290
387 2 2 0 6 42 35 289
388 2 2 0 6 290 289 120
389 2 2 0 6 4 57 292
390 2 2 0 6 57 291 292
391 2 2 0 6 57 50 291
392 2 2 0 6 292 291 121
393 2 2 0 6 1 12 294
394 2 2 0 6 12 293 294
395 2 2 0 6 12 5 293
396 2 2 0 6 294 293 118
397 2 2 0 6 1 294 64
398 2 2 0 6 294 295 64
399 2 2 0 6 294 118 295
400 2 2 0 6 64 295 56
401 2 2 0 6 2 288 19
402 2 2 0 6 288 296 19
403 2 2 0 6 288 119 296
404 2 2 0 6 19 296 11
405 2 2 0 6 3 290 34
406 2 2 0 6 290 297 34
407 2 2 0 6 290 120 297
408 2 2 0 6 34 297 26
409 2 2 0 6 4 292 49
410 2 2 0 6 292 298 49
411 2 2 0 6 292 121 298
412 2 2 0 6 49 298 41
413 2 2 0 6 78 299 301
414 2 2 0 6 299 300 301
415 2 2 0 6 299 133 300
416 2 2 0 6 301 300 130
417 2 2 0 6 81 302 304
418 2 2 0 6 302 303 304
419 2 2 0 6 302 130 303
420 2 2 0 6 304 303 132
421 2 2 0 6 78 213 299
422 2 2 0 6 213 305 299
423 2 2 0 6 213 90 305
424 2 2 0 6 299 305 133
425 2 2 0 6 80 230 146
426 2 2 0 6 230 306 146
427 2 2 0 6 230 131 306
428 2 2 0 6 146 306 92
429 2 2 0 6 80 210 227
430 2 2 0 6 210 307 227
431 2 2 0 6 210 91 307
432 2 2 0 6 227 307 132
433 2 2 0 6 81 216 302
434 2 2 0 6 216 308 302
435 2 2 0 6 216 93 308
436 2 2 0 6 302 308 130
437 2 2 0 6 71 256 206
438 2 2 0 6 256 204 206
439 2 2 0 6 256 117 204
440 2 2 0 6 206 204 92
441 2 2 0 6 73 260 215
442 2 2 0 6 260 200 215
443 2 2 0 6 260 115 200
444 2 2 0 6 215 200 93
445 2 2 0 6 72 258 209
446 2 2 0 6 258 202 209
447 2 2 0 6 258 116 202
448 2 2 0 6 209 202 91
449 2 2 0 6 70 262 212
450 2 2 0 6 262 198 212
451 2 2 0 6 262 114 198
452 2 2 0 6 212 198 90
453 2 2 0 6 8 309 15
454 2 2 0 6 309 232 15
455 2 2 0 6 309 112 232
456 2 2 0 6 15 232 7
457 2 2 0 6 23 310 30
458 2 2 0 6 310 233 30
459 2 2 0 6 310 110 233
460 2 2 0 6 30 233 22
461 2 2 0 6 38 311 45
462 2 2 0 6 311 234 45
463 2 2 0 6 311 111 234
464 2 2 0 6 45 234 37
465 2 2 0 6 53 312 60
466 2 2 0 6 312 231 60
467 2 2 0 6 312 113 231
468 2 2 0 6 60 231 52
469 2 2 0 6 65 313 314
470 2 2 0 6 313 300 314
471 2 2 0 6 313 130 300
472 2 2 0 6 314 300 133
473 2 2 0 6 65 228 313
474 2 2 0 6 228 303 313
475 2 2 0 6 228 132 303
476 2 2 0 6 313 303 130
477 2 2 0 6 79 207 315
478 2 2 0 6 207 306 315
479 2 2 0 6 207 92 306
480 2 2 0 6 315 306 131
481 2 2 0 6 79 316 143
482 2 2 0 6 316 305 143
483 2 2 0 6 316 133 305
484 2 2 0 6 143 305 90
485 2 2 0 6 81 304 149
486 2 2 0 6 304 307 149
487 2 2 0 6 304 132 307
488 2 2 0 6 149 307 91
489 2 2 0 6 78 301 152
490 2 2 0 6 301 308 152
491 2 2 0 6 301 130 308
492 2 2 0 6 152 308 93
493 2 2 0 6 25 33 318
494 2 2 0 6 33 317 318
495 2 2 0 6 33 26 317
496 2 2 0 6 318 317 139
497 2 2 0 6 40 48 320
498 2 2 0 6 48 319 320
499 2 2 0 6 48 41 319
500 2 2 0 6 320 319 140
501 2 2 0 6 55 63 322
502 2 2 0 6 63 321 322
503 2 2 0 6 63 56 321
504 2 2 0 6 322 321 141
505 2 2 0 6 10 18 324
506 2 2 0 6 18 323 324
507 2 2 0 6 18 11 323
508 2 2 0 6 324 323 138
509 2 2 0 6 6 325 13
510 2 2 0 6 325 326 13
511 2 2 0 6 325 136 326
512 2 2 0 6 13 326 5
513 2 2 0 6 21 327 28
514 2 2 0 6 327 328 28
515 2 2 0 6 327 134 328
516 2 2 0 6 28 328 20
517 2 2 0 6 36 329 43
518 2 2 0 6 329 330 43
519 2 2 0 6 329 135 330
520 2 2 0 6 43 330 35
521 2 2 0 6 51 331 58
522 2 2 0 6 331 332 58
523 2 2 0 6 331 137 332
524 2 2 0 6 58 332 50
525 2 2 0 6 8 283 309
526 2 2 0 6 283 267 309
527 2 2 0 6 283 94 267
528 2 2 0 6 309 267 112
529 2 2 0 6 23 285 310
530 2 2 0 6 285 268 310
531 2 2 0 6 285 95 268
532 2 2 0 6 310 268 110
533 2 2 0 6 38 286 311
534 2 2 0 6 286 269 311
535 2 2 0 6 286 96 269
536 2 2 0 6 311 269 111
537 2 2 0 6 53 284 312
538 2 2 0 6 284 270 312
539 2 2 0 6 284 97 270
540 2 2 0 6 312 270 113
541 2 2 0 6 82 274 173
542 2 2 0 6 274 333 173
543 2 2 0 6 274 122 333
544 2 2 0 6 173 333 99
545 2 2 0 6 83 276 176
546 2 2 0 6 276 334 176
547 2 2 0 6 276 123 334
548 2 2 0 6 176 334 100
549 2 2 0 6 84 272 167
550 2 2 0 6 272 335 167
551 2 2 0 6 272 124 335
552 2 2 0 6 167 335 101
553 2 2 0 6 85 278 170
554 2 2 0 6 278 336 170
555 2 2 0 6 278 125 336
556 2 2 0 6 170 336 98
557 2 2 0 6 74 337 339
558 2 2 0 6 337 338 339
559 2 2 0 6 337 129 338
560 2 2 0 6 339 338 102
561 2 2 0 6 75 340 342
562 2 2 0 6 340 341 342
563 2 2 0 6 340 127 341
564 2 2 0 6 342 341 103
565 2 2 0 6 76 343 345
566 2 2 0 6 343 344 345
567 2 2 0 6 343 128 344
568 2 2 0 6 345 344 104
569 2 2 0 6 77 346 348
570 2 2 0 6 346 347 348
571 2 2 0 6 346 126 347
572 2 2 0 6 348 347 105
573 2 2 0 6 66 201 350
574 2 2 0 6 201 349 350
575 2 2 0 6 201 115 349
576 2 2 0 6 350 349 126
577 2 2 0 6 67 199 352
578 2 2 0 6 199 351 352
579 2 2 0 6 199 114 351
580 2 2 0 6 352 351 129
581 2 2 0 6 68 205 354
582 2 2 0 6 205 353 354
583 2 2 0 6 205 117 353
584 2 2 0 6 354 353 127
585 2 2 0 6 69 203 356
586 2 2 0 6 203 355 356
587 2 2 0 6 203 116 355
588 2 2 0 6 356 355 128
589 2 2 0 6 89 357 259
590 2 2 0 6 357 349 259
591 2 2 0 6 357 126 349
592 2 2 0 6 259 349 115
593 2 2 0 6 88 358 261
594 2 2 0 6 358 351 261
595 2 2 0 6 358 129 351
596 2 2 0 6 261 351 114
597 2 2 0 6 87 359 257
598 2 2 0 6 359 355 257
599 2 2 0 6 359 128 355
600 2 2 0 6 257 355 116
601 2 2 0 6 86 360 255
602 2 2 0 6 360 353 255
603 2 2 0 6 360 127 353
604 2 2 0 6 255 353 117
605 2 2 0 6 74 361 337
606 2 2 0 6 361 362 337
607 2 2 0 6 361 122 362
608 2 2 0 6 337 362 129
609 2 2 0 6 75 363 340
610 2 2 0 6 363 364 340
611 2 2 0 6 363 123 364
612 2 2 0 6 340 364 127
613 2 2 0 6 76 365 343
614 2 2 0 6 365 366 343
615 2 2 0 6 365 124 366
616 2 2 0 6 343 366 128
617 2 2 0 6 77 367 346
618 2 2 0 6 367 368 346
619 2 2 0 6 367 125 368
620 2 2 0 6 346 368 126
621 2 2 0 6 77 369 371
622 2 2 0 6 369 370 371
623 2 2 0 6 369 136 370
624 2 2 0 6 371 370 98
625 2 2 0 6 74 372 374
626 2 2 0 6 372 373 374
627 2 2 0 6 372 134 373
628 2 2 0 6 374 373 99
629 2 2 0 6 75 375 377
630 2 2 0 6 375 376 377
631 2 2 0 6 375 135 376
632 2 2 0 6 377 376 100
633 2 2 0 6 76 378 380
634 2 2 0 6 378 379 380
635 2 2 0 6 378 137 379
636 2 2 0 6 380 379 101
637 2 2 0 6 74 339 382
638 2 2 0 6 339 381 382
639 2 2 0 6 339 102 381
640 2 2 0 6 382 381 138
641 2 2 0 6 75 342 384
642 2 2 0 6 342 383 384
643 2 2 0 6 342 103 383
644 2 2 0 6 384 383 139
645 2 2 0 6 76 345 386
646 2 2 0 6 345 385 386
647 2 2 0 6 345 104 385
648 2 2 0 6 386 385 140
649 2 2 0 6 77 348 388
650 2 2 0 6 348 387 388
651 2 2 0 6 348 105 387
652 2 2 0 6 388 387 141
653 2 2 0 6 74 374 361
654 2 2 0 6 374 333 361
655 2 2 0 6 374 99 333
656 2 2 0 6 361 333 122
657 2 2 0 6 75 377 363
658 2 2 0 6 377 334 363
659 2 2 0 6 377 100 334
660 2 2 0 6 363 334 123
661 2 2 0 6 77 371 367
662 2 2 0 6 371 336 367
663 2 2 0 6 371 98 336
664 2 2 0 6 367 336 125
665 2 2 0 6 76 380 365
666 2 2 0 6 380 335 365
667 2 2 0 6 380 101 335
668 2 2 0 6 365 335 124
669 2 2 0 6 21 224 327
670 2 2 0 6 224 373 327
671 2 2 0 6 224 99 373
672 2 2 0 6 327 373 134
673 2 2 0 6 36 225 329
674 2 2 0 6 225 376 329
675 2 2 0 6 225 100 376
676 2 2 0 6 329 376 135
677 2 2 0 6 6 223 325
678 2 2 0 6 223 370 325
679 2 2 0 6 223 98 370
680 2 2 0 6 325 370 136
681 2 2 0 6 51 222 331
682 2 2 0 6 222 379 331
683 2 2 0 6 222 101 379
684 2 2 0 6 331 379 137
685 2 2 0 6 25 318 218
686 2 2 0 6 318 383 218
687 2 2 0 6 318 139 383
688 2 2 0 6 218 383 103
689 2 2 0 6 40 320 219
690 2 2 0 6 320 385 219
691 2 2 0 6 320 140 385
692 2 2 0 6 219 385 104
693 2 2 0 6 10 324 220
694 2 2 0 6 324 381 220
695 2 2 0 6 324 138 381
696 2 2 0 6 220 381 102
697 2 2 0 6 55 322 221
698 2 2 0 6 322 387 221
699 2 2 0 6 322 141 387
700 2 2 0 6 221 387 105
701 2 2 0 6 89 161 357
702 2 2 0 6 161 347 357
703 2 2 0 6 161 105 347
704 2 2 0 6 357 347 126
705 2 2 0 6 86 155 360
706 2 2 0 6 155 341 360
707 2 2 0 6 155 103 341
708 2 2 0 6 360 341 127
709 2 2 0 6 87 158 359
710 2 2 0 6 158 344 359
711 2 2 0 6 158 104 344
712 2 2 0 6 359 344 128
713 2 2 0 6 88 164 358
714 2 2 0 6 164 338 358
715 2 2 0 6 164 102 338
716 2 2 0 6 358 338 129
717 2 2 0 6 74 389 372
718 2 2 0 6 389 390 372
719 2 2 0 6 389 119 390
720 2 2 0 6 372 390 134
721 2 2 0 6 75 391 375
722 2 2 0 6 391 392 375
723 2 2 0 6 391 120 392
724 2 2 0 6 375 392 135
725 2 2 0 6 76 393 378
726 2 2 0 6 393 394 378
727 2 2 0 6 393 121 394
728 2 2 0 6 378 394 137
729 2 2 0 6 77 395 369
730 2 2 0 6 395 396 369
731 2 2 0 6 395 118 396
732 2 2 0 6 369 396 136
733 2 2 0 6 74 382 389
734 2 2 0 6 382 397 389
735 2 2 0 6 382 138 397
736 2 2 0 6 389 397 119
737 2 2 0 6 75 384 391
738 2 2 0 6 384 398 391
739 2 2 0 6 384 139 398
740 2 2 0 6 391 398 120
741 2 2 0 6 76 386 393
742 2 2 0 6 386 399 393
743 2 2 0 6 386 140 399
744 2 2 0 6 393 399 121
745 2 2 0 6 77 388 395
746 2 2 0 6 388 400 395
747 2 2 0 6 388 141 400
748 2 2 0 6 395 400 118
749 2 2 0 6 67 352 280
750 2 2 0 6 352 362 280
751 2 2 0 6 352 129 362
752 2 2 0 6 280 362 122
753 2 2 0 6 68 354 281
754 2 2 0 6 354 364 281
755 2 2 0 6 354 127 364
756 2 2 0 6 281 364 123
757 2 2 0 6 69 356 279
758 2 2 0 6 356 366 279
759 2 2 0 6 356 128 366
760 2 2 0 6 279 366 124
761 2 2 0 6 66 350 282
762 2 2 0 6 350 368 282
763 2 2 0 6 350 126 368
764 2 2 0 6 282 368 125
765 2 2 0 6 20 328 287
766 2 2 0 6 328 390 287
767 2 2 0 6 328 134 390
768 2 2 0 6 287 390 119
769 2 2 0 6 35 330 289
770 2 2 0 6 330 392 289
771 2 2 0 6 330 135 392
772 2 2 0 6 289 392 120
773 2 2 0 6 50 332 291
774 2 2 0 6 332 394 291
775 2 2 0 6 332 137 394
776 2 2 0 6 291 394 121
777 2 2 0 6 5 326 293
778 2 2 0 6 326 396 293
779 2 2 0 6 326 136 396
780 2 2 0 6 293 396 118
781 2 2 0 6 26 297 317
782 2 2 0 6 297 398 317
783 2 2 0 6 297 120 398
784 2 2 0 6 317 398 139
785 2 2 0 6 41 298 319
786 2 2 0 6 298 399 319
787 2 2 0 6 298 121 399
788 2 2 0 6 319 399 140
789 2 2 0 6 11 296 323
790 2 2 0 6 296 397 323
791 2 2 0 6 296 119 397
792 2 2 0 6 323 397 138
793 2 2 0 6 56 295 321
794 2 2 0 6 295 400 321
795 2 2 0 6 295 118 400
796 2 2 0 6 321 400 141
797 2 2 0 6 65 314 229
798 2 2 0 6 314 401 229
799 2 2 0 6 314 133 401
800 2 2 0 6 229 401 131
801 2 2 0 6 79 315 316
802 2 2 0 6 315 401 316
803 2 2 0 6 315 131 401
804 2 2 0 6 316 401 133
$EndElements
