$MeshFormat
2.2 0 8
$EndMeshFormat
$Nodes
109
1 -1 -1 0
2 1 -1 0
3 1 1 0
4 -1 1 0
5 -0.7500000000004167 -1 0
6 -0.5000000000011573 -1 0
7 -0.250000000001955 -1 0
8 -2.752797989558076e-12 -1 0
9 0.2499999999979354 -1 0
10 0.4999999999986235 -1 0
11 0.7499999999993117 -1 0
12 1 -0.7500000000004167 0
13 1 -0.5000000000011573 0
14 1 -0.250000000001955 0
15 1 -2.752797989558076e-12 0
16 1 0.2499999999979354 0
17 1 0.4999999999986235 0
18 1 0.7499999999993117 0
19 0.7500000000004167 1 0
20 0.5000000000011573 1 0
21 0.250000000001955 1 0
22 2.752797989558076e-12 1 0
23 -0.2499999999979354 1 0
24 -0.4999999999986235 1 0
25 -0.7499999999993117 1 0
26 -1 0.7500000000004167 0
27 -1 0.5000000000011573 0
28 -1 0.250000000001955 0
29 -1 2.752797989558076e-12 0
30 -1 -0.2499999999979354 0
31 -1 -0.4999999999986235 0
32 -1 -0.7499999999993117 0
33 0 0 0
34 -0.3761609582334743 -0.3570511792922074 0
35 0.3570511792922072 -0.3761609582334741 0
36 0.3761609582334742 0.3570511792922074 0
37 -0.3570511792922073 0.3761609582334742 0
38 -0.008040532787061629 -0.5740400490589259 0
39 0.5740400490589259 -0.008040532787061475 0
40 0.008040532787061485 0.5740400490589259 0
41 -0.5740400490589259 0.008040532787061638 0
42 0.659807604560228 -0.6638640203267554 0
43 0.6638640203267554 0.659807604560228 0
44 -0.659807604560228 0.6638640203267554 0
45 -0.6638640203267554 -0.659807604560228 0
46 -0.1266871798879554 -0.2954686817171822 0
47 0.2865824462363816 -0.1363792706986374 0
48 0.1109608950380711 0.2532823166062163 0
49 -0.2954686817171823 0.1266871798879553 0
50 0.692657832363648 -0.2784690799392487 0
51 0.2784690799392487 0.692657832363648 0
52 -0.692657832363648 0.2784690799392488 0
53 -0.2784690799392487 -0.692657832363648 0
54 0.697291394961685 0.2654344033231205 0
55 -0.2654344033231205 0.697291394961685 0
56 0.2654344033231204 -0.697291394961685 0
57 -0.697291394961685 -0.2654344033231204 0
58 0.1268664894638944 -0.3344587215902018 0
59 -0.1245055683580675 0.3302239064800833 0
60 0.3372971803085503 0.1183232418646042 0
61 -0.3348222090830925 -0.1333225655770018 0
62 0.07060949351564458 -0.8008351867549175 0
63 0.8008351867549177 0.07060949351564474 0
64 -0.07060949351564474 0.8008351867549175 0
65 -0.8008351867549176 -0.07060949351564444 0
66 -0.4694222129489362 -0.8012544406490388 0
67 0.8012544406490388 -0.4694222129489362 0
68 0.4694222129489361 0.8012544406490388 0
69 -0.8012544406490388 0.4694222129489362 0
70 0.473505077713925 -0.7876051553309272 0
71 0.7876051553309272 0.473505077713925 0
72 -0.473505077713925 0.7876051553309272 0
73 -0.7876051553309275 -0.4735050777139252 0
74 -0.2186779472060622 -0.4908911609803094 0
75 0.4904285289790183 -0.2191825333582217 0
76 0.222682274858537 0.4894303050301533 0
77 -0.4908911609803094 0.2186779472060622 0
78 0.8265291771073373 -0.1172778075495513 0
79 0.1172778075495513 0.8265291771073373 0
80 -0.1172778075495514 -0.8265291771073373 0
81 -0.8265291771073373 0.1172778075495515 0
82 0.2303408600365423 -0.495962941905956 0
83 -0.4959629419059561 -0.2303408600365426 0
84 -0.2303408600365425 0.4959629419059562 0
85 0.4959629419059562 0.2303408600365425 0
86 -0.8057697510823811 -0.8057697510821349 0
87 0.8057697510821349 -0.8057697510823811 0
88 0.8057697510823811 0.8057697510821349 0
89 -0.8057697510821349 0.8057697510823811 0
90 0.5734351610172203 -0.4346250050067247 0
91 0.4352082952567773 0.5732687903590761 0
92 -0.5735122663507688 0.4345409073146981 0
93 -0.4345409073146982 -0.5735122663507689 0
94 -0.575904229678916 -0.4266085652127987 0
95 0.5760154610025958 0.4265679858808498 0
96 -0.4266085652127987 0.5759042296789161 0
97 0.4265957143238738 -0.5759182459609203 0
98 -0.1442312035257281 -0.08684369473436647 0
99 0.1800757913784929 0.0136848987383581 0
100 -0.09968611338348268 0.1505896606429706 0
101 0.0537677239441809 -0.139910911667005 0
102 0.8533663592582803 -0.6378111968719294 0
103 0.6378111968719294 0.8533663592582803 0
104 -0.6378111968719294 -0.8533663592582803 0
105 -0.8533663592582803 0.6378111968719293 0
106 0.6378164866708447 -0.8514477853480129 0
107 0.8514477853480129 0.6378164866708447 0
108 -0.6378164866708447 0.8514477853480129 0
109 -0.8514477853480129 -0.6378164866708448 0
$EndNodes
$Elements
220
1 15 2 0 1 1
2 15 2 0 2 2
3 15 2 0 3 3
4 15 2 0 4 4
5 1 2 0 1 1 5
6 1 2 0 1 5 6
7 1 2 0 1 6 7
8 1 2 0 1 7 8
9 1 2 0 1 8 9
10 1 2 0 1 9 10
11 1 2 0 1 10 11
12 1 2 0 1 11 2
13 1 2 0 2 2 12
14 1 2 0 2 12 13
15 1 2 0 2 13 14
16 1 2 0 2 14 15
17 1 2 0 2 15 16
18 1 2 0 2 16 17
19 1 2 0 2 17 18
20 1 2 0 2 18 3
21 1 2 0 3 3 19
22 1 2 0 3 19 20
23 1 2 0 3 20 21
24 1 2 0 3 21 22
25 1 2 0 3 22 23
26 1 2 0 3 23 24
27 1 2 0 3 24 25
28 1 2 0 3 25 4
29 1 2 0 4 4 26
30 1 2 0 4 26 27
31 1 2 0 4 27 28
32 1 2 0 4 28 29
33 1 2 0 4 29 30
34 1 2 0 4 30 31
35 1 2 0 4 31 32
36 1 2 0 4 32 1
37 2 2 0 6 35 47 58
38 2 2 0 6 36 48 60
39 2 2 0 6 37 49 59
40 2 2 0 6 34 46 61
41 2 2 0 6 16 71 54
42 2 2 0 6 23 72 55
43 2 2 0 6 30 73 57
44 2 2 0 6 9 70 56
45 2 2 0 6 28 52 69
46 2 2 0 6 7 53 66
47 2 2 0 6 14 50 67
48 2 2 0 6 21 51 68
49 2 2 0 6 38 53 80
50 2 2 0 6 39 50 78
51 2 2 0 6 40 51 79
52 2 2 0 6 41 52 81
53 2 2 0 6 30 57 65
54 2 2 0 6 9 56 62
55 2 2 0 6 16 54 63
56 2 2 0 6 23 55 64
57 2 2 0 6 35 58 82
58 2 2 0 6 34 61 83
59 2 2 0 6 37 59 84
60 2 2 0 6 36 60 85
61 2 2 0 6 39 60 47
62 2 2 0 6 40 59 48
63 2 2 0 6 38 58 46
64 2 2 0 6 41 61 49
65 2 2 0 6 17 71 16
66 2 2 0 6 24 72 23
67 2 2 0 6 10 70 9
68 2 2 0 6 31 73 30
69 2 2 0 6 27 28 69
70 2 2 0 6 6 7 66
71 2 2 0 6 13 14 67
72 2 2 0 6 20 21 68
73 2 2 0 6 33 48 100
74 2 2 0 6 33 99 48
75 2 2 0 6 28 81 52
76 2 2 0 6 7 80 53
77 2 2 0 6 14 78 50
78 2 2 0 6 21 79 51
79 2 2 0 6 39 47 75
80 2 2 0 6 40 48 76
81 2 2 0 6 38 46 74
82 2 2 0 6 41 49 77
83 2 2 0 6 35 75 47
84 2 2 0 6 36 76 48
85 2 2 0 6 37 77 49
86 2 2 0 6 34 74 46
87 2 2 0 6 39 63 54
88 2 2 0 6 40 64 55
89 2 2 0 6 41 65 57
90 2 2 0 6 38 62 56
91 2 2 0 6 39 54 85
92 2 2 0 6 40 55 84
93 2 2 0 6 41 57 83
94 2 2 0 6 38 56 82
95 2 2 0 6 38 74 53
96 2 2 0 6 39 75 50
97 2 2 0 6 40 76 51
98 2 2 0 6 41 77 52
99 2 2 0 6 38 80 62
100 2 2 0 6 39 78 63
101 2 2 0 6 40 79 64
102 2 2 0 6 41 81 65
103 2 2 0 6 52 77 92
104 2 2 0 6 50 75 90
105 2 2 0 6 51 76 91
106 2 2 0 6 53 74 93
107 2 2 0 6 37 92 77
108 2 2 0 6 35 90 75
109 2 2 0 6 36 91 76
110 2 2 0 6 34 93 74
111 2 2 0 6 8 9 62
112 2 2 0 6 29 30 65
113 2 2 0 6 15 16 63
114 2 2 0 6 22 23 64
115 2 2 0 6 2 12 87
116 2 2 0 6 3 19 88
117 2 2 0 6 4 26 89
118 2 2 0 6 1 5 86
119 2 2 0 6 1 86 32
120 2 2 0 6 2 87 11
121 2 2 0 6 3 88 18
122 2 2 0 6 4 89 25
123 2 2 0 6 46 101 98
124 2 2 0 6 49 98 100
125 2 2 0 6 46 58 101
126 2 2 0 6 48 99 60
127 2 2 0 6 48 59 100
128 2 2 0 6 49 61 98
129 2 2 0 6 39 85 60
130 2 2 0 6 41 83 61
131 2 2 0 6 40 84 59
132 2 2 0 6 38 82 58
133 2 2 0 6 8 80 7
134 2 2 0 6 15 78 14
135 2 2 0 6 22 79 21
136 2 2 0 6 29 81 28
137 2 2 0 6 33 98 101
138 2 2 0 6 33 100 98
139 2 2 0 6 47 60 99
140 2 2 0 6 47 101 58
141 2 2 0 6 49 100 59
142 2 2 0 6 46 98 61
143 2 2 0 6 17 18 107
144 2 2 0 6 24 25 108
145 2 2 0 6 31 32 109
146 2 2 0 6 10 11 106
147 2 2 0 6 6 104 5
148 2 2 0 6 13 102 12
149 2 2 0 6 20 103 19
150 2 2 0 6 27 105 26
151 2 2 0 6 8 62 80
152 2 2 0 6 15 63 78
153 2 2 0 6 22 64 79
154 2 2 0 6 29 65 81
155 2 2 0 6 50 90 67
156 2 2 0 6 51 91 68
157 2 2 0 6 52 92 69
158 2 2 0 6 53 93 66
159 2 2 0 6 42 97 70
160 2 2 0 6 43 95 71
161 2 2 0 6 44 96 72
162 2 2 0 6 45 94 73
163 2 2 0 6 34 83 94
164 2 2 0 6 35 82 97
165 2 2 0 6 36 85 95
166 2 2 0 6 37 84 96
167 2 2 0 6 57 94 83
168 2 2 0 6 56 97 82
169 2 2 0 6 55 96 84
170 2 2 0 6 54 95 85
171 2 2 0 6 42 90 97
172 2 2 0 6 43 91 95
173 2 2 0 6 44 92 96
174 2 2 0 6 45 93 94
175 2 2 0 6 45 104 66
176 2 2 0 6 42 102 67
177 2 2 0 6 43 103 68
178 2 2 0 6 44 105 69
179 2 2 0 6 42 70 106
180 2 2 0 6 43 71 107
181 2 2 0 6 44 72 108
182 2 2 0 6 45 73 109
183 2 2 0 6 42 67 90
184 2 2 0 6 43 68 91
185 2 2 0 6 45 66 93
186 2 2 0 6 44 69 92
187 2 2 0 6 13 67 102
188 2 2 0 6 20 68 103
189 2 2 0 6 6 66 104
190 2 2 0 6 27 69 105
191 2 2 0 6 17 107 71
192 2 2 0 6 24 108 72
193 2 2 0 6 10 106 70
194 2 2 0 6 31 109 73
195 2 2 0 6 57 73 94
196 2 2 0 6 54 71 95
197 2 2 0 6 55 72 96
198 2 2 0 6 56 70 97
199 2 2 0 6 42 87 102
200 2 2 0 6 43 88 103
201 2 2 0 6 44 89 105
202 2 2 0 6 45 86 104
203 2 2 0 6 42 106 87
204 2 2 0 6 43 107 88
205 2 2 0 6 44 108 89
206 2 2 0 6 45 109 86
207 2 2 0 6 35 97 90
208 2 2 0 6 36 95 91
209 2 2 0 6 37 96 92
210 2 2 0 6 34 94 93
211 2 2 0 6 12 102 87
212 2 2 0 6 19 103 88
213 2 2 0 6 26 105 89
214 2 2 0 6 5 104 86
215 2 2 0 6 18 88 107
216 2 2 0 6 25 89 108
217 2 2 0 6 11 87 106
218 2 2 0 6 32 86 109
219 2 2 0 6 33 101 99
220 2 2 0 6 47 99 101
$EndElements
