$MeshFormat
2.2 0 8
$EndMeshFormat
$Nodes
146
1 0 -5 0
2 0 5 0
3 10 5 0
4 10 -5 0
5 0.9999999999991893 -5 0
6 1.999999999996827 -5 0
7 2.99999999999391 -5 0
8 3.999999999991027 -5 0
9 4.999999999992411 -5 0
10 5.999999999993932 -5 0
11 6.999999999995455 -5 0
12 7.999999999996978 -5 0
13 8.99999999999849 -5 0
14 10 -3.999999999998766 0
15 10 -3.000000000000863 0
16 10 -2.00000000000407 0
17 10 -1.00000000000724 0
18 10 -6.145306485905166e-12 0
19 10 0.9999999999950866 0
20 10 1.999999999996321 0
21 10 2.999999999997555 0
22 10 3.999999999998776 0
23 8.999999999999998 5 0
24 7.999999999999996 5 0
25 6.999999999999994 5 0
26 5.999999999999991 5 0
27 4.999999999999989 5 0
28 3.999999999999988 5 0
29 2.999999999999985 5 0
30 1.999999999999982 5 0
31 0.9999999999999911 5 0
32 0 3.999999999998766 0
33 0 3.000000000000863 0
34 0 2.00000000000407 0
35 0 1.00000000000724 0
36 0 6.145306485905166e-12 0
37 0 -0.9999999999950866 0
38 0 -1.999999999996321 0
39 0 -2.999999999997555 0
40 0 -3.999999999998776 0
41 5.009117855331747 -0.02007440298325678 0
42 2.928571428571498 2.071428571428599 0
43 7.071428571428473 -2.071428571428676 0
44 2.875502331714626 -2.05740491307331 0
45 7.071428571428634 2.071428571428546 0
46 4.978106820731777 2.767670059829803 0
47 2.191361910399908 -0.02292156179660893 0
48 5.091432426096532 -2.790847424706141 0
49 7.803135888501709 -9.253190681672929e-14 0
50 1.705026455026564 3.294973544973561 0
51 8.294973544973343 -3.294973544973916 0
52 1.705026455026077 -3.294973544973095 0
53 8.294973544973832 3.294973544973472 0
54 1.511339309160245 1.407101126393429 0
55 8.514029781808786 -1.341990772301002 0
56 3.592898873606602 -3.488660690839458 0
57 3.592898873606405 3.48866069084089 0
58 1.5113393091583 -1.4071011263938 0
59 6.407101126393828 -3.488660690841865 0
60 6.407101126393782 3.488660690840905 0
61 8.488660690841671 1.407101126393838 0
62 3.600917305521205 0.6647590643686296 0
63 5.648458837988978 -1.41995192143687 0
64 5.641848556996891 1.440509779001204 0
65 3.628024871515612 -0.7370576492716793 0
66 6.445211916410954 -0.4649033136942842 0
67 4.27992844466841 1.987369388203553 0
68 4.221581917073376 -2.048501607165562 0
69 6.976145267691653 0.9349913403512669 0
70 1.114764452295346 -0.4254095135697504 0
71 4.634424556384151 3.899040514185316 0
72 5.335396291358469 -3.901567944252006 0
73 8.889133601317678 0.4122870663279499 0
74 7.23271752630644 -0.8805091524480921 0
75 0.9766513578691232 2.390736031439528 0
76 9.025937324882758 -2.384092117756882 0
77 2.60926396855961 -4.023348642130467 0
78 2.597014030181532 4.006094296444185 0
79 7.402985969817673 -4.006094296445273 0
80 0.9939057035548888 -2.402985969817719 0
81 7.390736031438878 4.023348642131694 0
82 9.006094296445063 2.402985969817889 0
83 2.659617905031896 -1.001485474361107 0
84 2.563358442295796 1.045615545290179 0
85 6.018238939721034 -2.396787788686902 0
86 6.04120624923919 2.452829717181883 0
87 4.594070346919785 -1.036693023036436 0
88 4.614847164770582 0.9935397046068337 0
89 0.9987810650544173 4.00121893494558 0
90 0.9987810650544108 -4.001218934945586 0
91 9.001218934945658 -4.001218934945663 0
92 9.001218934945671 4.001218934945671 0
93 0.8352088193320456 0.6857853535104499 0
94 4.299212442786871 -4.167513246759151 0
95 9.201725863699551 -0.6127697904650288 0
96 5.69575769849984 4.167092008414894 0
97 2.749983923260633 2.95306157221722 0
98 7.370236452033051 -2.996165664369062 0
99 2.003834335631053 -2.370236452032968 0
100 7.996165664368852 2.370236452033325 0
101 1.987347033780916 2.277938243379189 0
102 8.012652966218774 -2.277938243380717 0
103 2.728497715055381 -2.977153787313465 0
104 7.277938243380127 3.012652966219705 0
105 3.119883420440938 -0.1300588371770783 0
106 5.983990145945146 0.4973363066829862 0
107 3.555077168645896 2.526732917538884 0
108 4.125134375219166 -0.02930555002953339 0
109 5.025844701687086 -1.939383264324653 0
110 3.584460325794323 -2.628298480831496 0
111 7.828924900352569 0.857976649555635 0
112 5.023425247808786 1.953472242302398 0
113 6.453082133683138 -1.382724911230811 0
114 5.638040592547871 -0.5559164739778543 0
115 3.500275056987604 -4.335904515945814 0
116 0.6646398972722827 1.496724502270943 0
117 9.34833859407822 -1.467770536106844 0
118 3.564867492034411 4.278759100294078 0
119 6.498718971266498 4.335820268277499 0
120 0.7240018930017071 -1.447099321954535 0
121 9.276777717720881 1.444474832506217 0
122 6.429096677511871 -4.279264586307828 0
123 0.7997140572249188 3.201017201097397 0
124 9.200285942775139 -3.201017201097509 0
125 1.79898279890263 -4.200285942774583 0
126 1.798982798902199 4.200285942775653 0
127 0.7997140572235929 -3.201017201098061 0
128 8.20101720109799 4.200285942775798 0
129 8.201017201098216 -4.200285942776634 0
130 9.200285942776482 3.201017201098184 0
131 6.407897623878175 1.497797519387395 0
132 3.552639903804964 1.524074117315403 0
133 7.964678054465674 -0.7963625996269552 0
134 1.643206586696668 0.5380341899655398 0
135 4.366979491780257 -3.290667551795503 0
136 5.551319290249749 3.35505859809056 0
137 1.926044042398124 -0.7783497735769147 0
138 4.291582463241966 3.127934601645918 0
139 5.737673298257624 -3.165516793744072 0
140 7.672265018936677 1.528346827952522 0
141 7.723224426279366 -1.554220193755028 0
142 3.52636154455453 -1.558311782793405 0
143 2.24007567253683 -1.641950230878009 0
144 7.064334396489393 0.1398182699136545 0
145 6.669340019280148 -2.813488467919254 0
146 8.476960028656965 -0.4046665956658984 0
$EndNodes
$Elements
290
1 1 2 1 1 1 5
2 1 2 1 1 5 6
3 1 2 1 1 6 7
4 1 2 1 1 7 8
5 1 2 1 1 8 9
6 1 2 1 1 9 10
7 1 2 1 1 10 11
8 1 2 1 1 11 12
9 1 2 1 1 12 13
10 1 2 1 1 13 4
11 1 2 1 2 4 14
12 1 2 1 2 14 15
13 1 2 1 2 15 16
14 1 2 1 2 16 17
15 1 2 1 2 17 18
16 1 2 1 2 18 19
17 1 2 1 2 19 20
18 1 2 1 2 20 21
19 1 2 1 2 21 22
20 1 2 1 2 22 3
21 1 2 1 3 3 23
22 1 2 1 3 23 24
23 1 2 1 3 24 25
24 1 2 1 3 25 26
25 1 2 1 3 26 27
26 1 2 1 3 27 28
27 1 2 1 3 28 29
28 1 2 1 3 29 30
29 1 2 1 3 30 31
30 1 2 1 3 31 2
31 1 2 1 4 2 32
32 1 2 1 4 32 33
33 1 2 1 4 33 34
34 1 2 1 4 34 35
35 1 2 1 4 35 36
36 1 2 1 4 36 37
37 1 2 1 4 37 38
38 1 2 1 4 38 39
39 1 2 1 4 39 40
40 1 2 1 4 40 1
41 2 2 8 6 138 107 67
42 2 2 8 6 1 5 90
43 2 2 8 6 2 32 89
44 2 2 8 6 2 89 31
45 2 2 8 6 4 14 91
46 2 2 8 6 1 90 40
47 2 2 8 6 3 23 92
48 2 2 8 6 3 92 22
49 2 2 8 6 4 91 13
50 2 2 8 6 46 138 67
51 2 2 8 6 142 87 65
52 2 2 8 6 67 132 88
53 2 2 8 6 144 106 66
54 2 2 8 6 132 62 88
55 2 2 8 6 68 87 142
56 2 2 8 6 54 84 101
57 2 2 8 6 60 86 104
58 2 2 8 6 42 101 84
59 2 2 8 6 45 104 86
60 2 2 8 6 48 68 135
61 2 2 8 6 69 106 144
62 2 2 8 6 68 110 135
63 2 2 8 6 27 28 71
64 2 2 8 6 36 37 70
65 2 2 8 6 18 19 73
66 2 2 8 6 9 10 72
67 2 2 8 6 28 118 71
68 2 2 8 6 37 120 70
69 2 2 8 6 19 121 73
70 2 2 8 6 10 122 72
71 2 2 8 6 62 84 105
72 2 2 8 6 47 105 84
73 2 2 8 6 66 114 113
74 2 2 8 6 69 131 106
75 2 2 8 6 46 67 112
76 2 2 8 6 62 108 88
77 2 2 8 6 57 71 118
78 2 2 8 6 58 70 120
79 2 2 8 6 61 73 121
80 2 2 8 6 59 72 122
81 2 2 8 6 6 7 77
82 2 2 8 6 33 34 75
83 2 2 8 6 15 16 76
84 2 2 8 6 29 30 78
85 2 2 8 6 24 25 81
86 2 2 8 6 38 39 80
87 2 2 8 6 20 21 82
88 2 2 8 6 11 12 79
89 2 2 8 6 66 113 74
90 2 2 8 6 49 73 111
91 2 2 8 6 61 111 73
92 2 2 8 6 27 71 96
93 2 2 8 6 36 70 93
94 2 2 8 6 18 73 95
95 2 2 8 6 9 72 94
96 2 2 8 6 63 113 114
97 2 2 8 6 64 106 131
98 2 2 8 6 63 109 85
99 2 2 8 6 48 85 109
100 2 2 8 6 45 69 140
101 2 2 8 6 57 78 97
102 2 2 8 6 59 79 98
103 2 2 8 6 58 80 99
104 2 2 8 6 61 82 100
105 2 2 8 6 46 136 71
106 2 2 8 6 47 134 70
107 2 2 8 6 48 135 72
108 2 2 8 6 57 97 107
109 2 2 8 6 41 88 108
110 2 2 8 6 64 86 112
111 2 2 8 6 50 75 101
112 2 2 8 6 51 76 102
113 2 2 8 6 52 77 103
114 2 2 8 6 53 81 104
115 2 2 8 6 63 85 113
116 2 2 8 6 45 131 69
117 2 2 8 6 48 109 68
118 2 2 8 6 46 112 86
119 2 2 8 6 43 113 85
120 2 2 8 6 64 88 106
121 2 2 8 6 41 106 88
122 2 2 8 6 26 27 96
123 2 2 8 6 35 36 93
124 2 2 8 6 17 18 95
125 2 2 8 6 8 9 94
126 2 2 8 6 49 146 73
127 2 2 8 6 6 77 125
128 2 2 8 6 33 75 123
129 2 2 8 6 15 76 124
130 2 2 8 6 30 126 78
131 2 2 8 6 24 81 128
132 2 2 8 6 39 127 80
133 2 2 8 6 21 130 82
134 2 2 8 6 12 129 79
135 2 2 8 6 68 109 87
136 2 2 8 6 55 102 76
137 2 2 8 6 54 101 75
138 2 2 8 6 56 103 77
139 2 2 8 6 60 104 81
140 2 2 8 6 65 87 108
141 2 2 8 6 41 108 87
142 2 2 8 6 50 97 78
143 2 2 8 6 51 98 79
144 2 2 8 6 52 99 80
145 2 2 8 6 53 100 82
146 2 2 8 6 42 107 97
147 2 2 8 6 49 144 74
148 2 2 8 6 66 74 144
149 2 2 8 6 133 55 146
150 2 2 8 6 47 83 105
151 2 2 8 6 65 105 83
152 2 2 8 6 5 6 125
153 2 2 8 6 32 33 123
154 2 2 8 6 14 15 124
155 2 2 8 6 30 31 126
156 2 2 8 6 23 24 128
157 2 2 8 6 39 40 127
158 2 2 8 6 21 22 130
159 2 2 8 6 12 13 129
160 2 2 8 6 71 136 96
161 2 2 8 6 70 134 93
162 2 2 8 6 72 135 94
163 2 2 8 6 146 55 95
164 2 2 8 6 5 125 90
165 2 2 8 6 32 123 89
166 2 2 8 6 14 124 91
167 2 2 8 6 31 89 126
168 2 2 8 6 23 128 92
169 2 2 8 6 40 90 127
170 2 2 8 6 13 91 129
171 2 2 8 6 22 92 130
172 2 2 8 6 64 131 86
173 2 2 8 6 45 86 131
174 2 2 8 6 50 101 97
175 2 2 8 6 51 102 98
176 2 2 8 6 52 103 99
177 2 2 8 6 53 104 100
178 2 2 8 6 47 70 137
179 2 2 8 6 58 137 70
180 2 2 8 6 62 132 84
181 2 2 8 6 48 72 139
182 2 2 8 6 59 139 72
183 2 2 8 6 57 138 71
184 2 2 8 6 46 71 138
185 2 2 8 6 34 116 75
186 2 2 8 6 16 117 76
187 2 2 8 6 59 122 79
188 2 2 8 6 54 75 116
189 2 2 8 6 58 120 80
190 2 2 8 6 55 76 117
191 2 2 8 6 11 79 122
192 2 2 8 6 57 118 78
193 2 2 8 6 7 115 77
194 2 2 8 6 38 80 120
195 2 2 8 6 29 78 118
196 2 2 8 6 61 121 82
197 2 2 8 6 20 82 121
198 2 2 8 6 25 119 81
199 2 2 8 6 60 81 119
200 2 2 8 6 56 77 115
201 2 2 8 6 42 132 107
202 2 2 8 6 67 107 132
203 2 2 8 6 42 84 132
204 2 2 8 6 44 142 83
205 2 2 8 6 65 83 142
206 2 2 8 6 43 74 113
207 2 2 8 6 50 123 75
208 2 2 8 6 51 124 76
209 2 2 8 6 52 125 77
210 2 2 8 6 50 78 126
211 2 2 8 6 51 79 129
212 2 2 8 6 52 80 127
213 2 2 8 6 53 128 81
214 2 2 8 6 53 82 130
215 2 2 8 6 43 141 74
216 2 2 8 6 49 74 133
217 2 2 8 6 54 134 84
218 2 2 8 6 47 84 134
219 2 2 8 6 46 86 136
220 2 2 8 6 60 136 86
221 2 2 8 6 42 97 101
222 2 2 8 6 43 98 102
223 2 2 8 6 44 99 103
224 2 2 8 6 45 100 104
225 2 2 8 6 67 88 112
226 2 2 8 6 64 112 88
227 2 2 8 6 63 87 109
228 2 2 8 6 63 114 87
229 2 2 8 6 41 87 114
230 2 2 8 6 44 83 143
231 2 2 8 6 47 137 83
232 2 2 8 6 48 139 85
233 2 2 8 6 66 106 114
234 2 2 8 6 41 114 106
235 2 2 8 6 43 85 145
236 2 2 8 6 44 110 142
237 2 2 8 6 68 142 110
238 2 2 8 6 62 105 108
239 2 2 8 6 65 108 105
240 2 2 8 6 59 98 145
241 2 2 8 6 69 111 140
242 2 2 8 6 61 100 140
243 2 2 8 6 56 110 103
244 2 2 8 6 58 99 143
245 2 2 8 6 44 103 110
246 2 2 8 6 85 139 145
247 2 2 8 6 50 89 123
248 2 2 8 6 50 126 89
249 2 2 8 6 51 91 124
250 2 2 8 6 52 90 125
251 2 2 8 6 52 127 90
252 2 2 8 6 51 129 91
253 2 2 8 6 53 92 128
254 2 2 8 6 53 130 92
255 2 2 8 6 59 145 139
256 2 2 8 6 49 111 144
257 2 2 8 6 69 144 111
258 2 2 8 6 8 94 115
259 2 2 8 6 35 93 116
260 2 2 8 6 17 95 117
261 2 2 8 6 56 115 94
262 2 2 8 6 54 116 93
263 2 2 8 6 55 117 95
264 2 2 8 6 26 96 119
265 2 2 8 6 60 119 96
266 2 2 8 6 56 135 110
267 2 2 8 6 7 8 115
268 2 2 8 6 34 35 116
269 2 2 8 6 16 17 117
270 2 2 8 6 28 29 118
271 2 2 8 6 25 26 119
272 2 2 8 6 37 38 120
273 2 2 8 6 19 20 121
274 2 2 8 6 10 11 122
275 2 2 8 6 54 93 134
276 2 2 8 6 56 94 135
277 2 2 8 6 60 96 136
278 2 2 8 6 55 141 102
279 2 2 8 6 43 102 141
280 2 2 8 6 44 143 99
281 2 2 8 6 43 145 98
282 2 2 8 6 57 107 138
283 2 2 8 6 45 140 100
284 2 2 8 6 83 137 143
285 2 2 8 6 58 143 137
286 2 2 8 6 73 146 95
287 2 2 8 6 61 140 111
288 2 2 8 6 55 133 141
289 2 2 8 6 74 141 133
290 2 2 8 6 49 133 146
$EndElements
