$MeshFormat
2.2 0 8
$EndMeshFormat
$Nodes
556
1 0 -5 0
2 0 5 0
3 10 5 0
4 10 -5 0
5 0.4999999999994974 -5 0
6 0.9999999999991893 -5 0
7 1.499999999998109 -5 0
8 1.999999999996827 -5 0
9 2.499999999995282 -5 0
10 2.99999999999391 -5 0
11 3.499999999992468 -5 0
12 3.999999999991027 -5 0
13 4.499999999991612 -5 0
14 4.999999999992411 -5 0
15 5.499999999992929 -5 0
16 5.999999999993932 -5 0
17 6.499999999994778 -5 0
18 6.999999999995455 -5 0
19 7.499999999996366 -5 0
20 7.999999999996978 -5 0
21 8.499999999997188 -5 0
22 8.99999999999849 -5 0
23 9.499999999998703 -5 0
24 10 -4.499999999999632 0
25 10 -3.999999999998766 0
26 10 -3.499999999999636 0
27 10 -3.000000000000863 0
28 10 -2.500000000002372 0
29 10 -2.00000000000407 0
30 10 -1.500000000005966 0
31 10 -1.00000000000724 0
32 10 -0.500000000007125 0
33 10 -6.145306485905166e-12 0
34 10 0.4999999999947038 0
35 10 0.9999999999950866 0
36 10 1.499999999995741 0
37 10 1.999999999996321 0
38 10 2.499999999997104 0
39 10 2.999999999997555 0
40 10 3.499999999998465 0
41 10 3.999999999998776 0
42 10 4.499999999999339 0
43 9.499999999999819 5 0
44 8.999999999999998 5 0
45 8.499999999999972 5 0
46 7.999999999999996 5 0
47 7.500000000000058 5 0
48 6.999999999999994 5 0
49 6.499999999999803 5 0
50 5.999999999999991 5 0
51 5.50000000000027 5 0
52 4.999999999999989 5 0
53 4.499999999999988 5 0
54 3.999999999999988 5 0
55 3.500000000000113 5 0
56 2.999999999999985 5 0
57 2.500000000000497 5 0
58 1.999999999999982 5 0
59 1.500000000000316 5 0
60 0.9999999999999911 5 0
61 0.4999999999996145 5 0
62 0 4.499999999999632 0
63 0 3.999999999998766 0
64 0 3.499999999999636 0
65 0 3.000000000000863 0
66 0 2.500000000002372 0
67 0 2.00000000000407 0
68 0 1.500000000005966 0
69 0 1.00000000000724 0
70 0 0.500000000007125 0
71 0 6.145306485905166e-12 0
72 0 -0.4999999999947038 0
73 0 -0.9999999999950866 0
74 0 -1.499999999995741 0
75 0 -1.999999999996321 0
76 0 -2.499999999997104 0
77 0 -2.999999999997555 0
78 0 -3.499999999998465 0
79 0 -3.999999999998776 0
80 0 -4.499999999999339 0
81 4.999349925534935 -0.0003204760416548579 0
82 2.926243628136524 2.136875852512904 0
83 7.126558595699644 -2.044808045253346 0
84 2.95519195474666 -2.126558595699668 0
85 7.106166284841011 2.101795235432704 0
86 5.000000000000075 2.803135888501744 0
87 5.002437811978837 -2.757600786545954 0
88 2.242399213454009 -0.002437811978922944 0
89 7.757559411787253 0.0009370966572844197 0
90 1.710187353630008 3.289812646369999 0
91 8.289812646370121 -3.289812646369777 0
92 1.690131600686541 -3.31997806133385 0
93 8.309868399313537 3.319978061333816 0
94 4.330139372822357 1.40156794425089 0
95 5.688539724860323 -1.45476407604521 0
96 3.545235923954789 -0.6885397248603061 0
97 6.451189912961607 0.6692473404608712 0
98 1.533440036129909 1.399219828941809 0
99 8.466559963870063 -1.399219828941801 0
100 3.6007801710581 -3.466559963870113 0
101 3.603074848216931 3.459852991288707 0
102 6.342100001396824 3.476283225790438 0
103 1.540147008711412 -1.396925151782946 0
104 6.3969251517829 -3.459852991288539 0
105 8.459852991288551 1.396925151782981 0
106 3.188737131587538 0.8145804490010023 0
107 4.18541955099893 -1.811262868412444 0
108 6.811262868412475 -0.8145804490010775 0
109 5.622591935319559 1.830288347454094 0
110 1.180622564844222 0.344550586875887 0
111 8.819377435155737 -0.3445505868758598 0
112 4.655449413124087 -3.819377435155832 0
113 4.653204604511568 3.87953758857665 0
114 1.175108092002479 2.387200710382654 0
115 8.824891907997541 -2.387200710382526 0
116 2.61920671318336 -3.843569308434408 0
117 2.595374329487442 3.915370932456498 0
118 1.11120001472615 -2.366182527351777 0
119 7.391667883334666 3.912496650005343 0
120 7.366816431421731 -3.888481598719623 0
121 8.912496650004954 2.391667883334636 0
122 4.029328612204657 2.345753851444456 0
123 6.039964651675755 -2.428389071535822 0
124 2.571610928464129 -1.039964651675714 0
125 7.401499277620526 1.027836034260427 0
126 3.957537750684307 0.2543802520364727 0
127 4.724915020909918 -1.054525630484018 0
128 6.093332417568069 -0.2312134121781675 0
129 6.148105573059413 2.462819454613331 0
130 0.9799095764520519 4.004503972088099 0
131 9.020090423547943 -4.004503972088092 0
132 0.9807684568291755 -4.008275852690113 0
133 9.019231543170818 4.008275852690117 0
134 5.640932600094783 4.02899020422596 0
135 0.9710097957734392 -0.6409326000947385 0
136 5.640932600094719 -4.028990204226716 0
137 9.028990204226561 0.6409326000947554 0
138 2.058941948330398 2.422990722618506 0
139 7.941058051669676 -2.422990722618358 0
140 2.577009277381706 -2.941058051669773 0
141 7.398280348099539 2.962960869698977 0
142 2.775758597725776 3.168603988679016 0
143 7.121366741295369 -2.808077246372521 0
144 2.191922753627457 -2.121366741295422 0
145 8.168364957284792 2.22361322002807 0
146 5.015935096489473 0.8792320356593473 0
147 2.431618958945651 1.347535863423571 0
148 7.56838104105433 -1.34753586342362 0
149 3.652464136576373 -2.568381041054352 0
150 3.046527757697542 -0.02342524780865975 0
151 5.023425247808622 -1.953472242302393 0
152 6.920655464100956 0.02940225795723312 0
153 6.365397838729334 1.51524041209573 0
154 0.8681303919344465 3.170957408684429 0
155 9.131869608065548 -3.170957408684372 0
156 1.817259028975779 -4.183880259387313 0
157 1.81725902897597 4.183880259387709 0
158 8.182740971023923 -4.183880259388173 0
159 0.8287507656975964 -3.211813651171108 0
160 8.18274097102406 4.183880259387738 0
161 9.171249234302389 3.211813651171093 0
162 3.482776480619329 1.551977213327363 0
163 4.8596983377551 1.94342992588164 0
164 6.517223519380636 -1.551977213327401 0
165 3.448022786672599 -1.517223519380619 0
166 0.7875852675736374 1.060858809821499 0
167 9.212414732426346 -1.060858809821469 0
168 3.939141190178467 -4.212414732426344 0
169 3.916036288952001 4.200417962335551 0
170 6.555224627177469 4.253959920566323 0
171 6.564393958692748 -4.261157453637531 0
172 0.7388425463625642 -1.564393958692859 0
173 9.261157453637432 1.564393958692816 0
174 5.691288274296348 3.215422551711429 0
175 1.804119514485384 -0.7127496845323466 0
176 5.712749684532248 -3.195880485514706 0
177 8.195748412421565 0.7124741952040102 0
178 1.900161103571254 0.6802872497368331 0
179 4.319712750263076 -3.099838896428761 0
180 8.099838896428665 -0.6802872497368458 0
181 4.324073600901073 3.179431903459024 0
182 5.627847765073467 0.4086830820958374 0
183 4.346617936458614 -0.4211910869132305 0
184 5.395815796062713 -0.8036027777358893 0
185 0.6856544512203879 1.822504797753385 0
186 9.314345548779647 -1.822504797753278 0
187 3.177495202246659 -4.314345548779875 0
188 3.1769994123265 4.314726431890261 0
189 6.72485582820775 2.863281008971462 0
190 5.479589581696557 2.312550186622611 0
191 3.858385948902145 0.9574750624546188 0
192 4.049431681052932 -1.119803166209931 0
193 6.119803166209955 -0.9505683189470635 0
194 2.578544227125521 0.5627287603497039 0
195 4.437271239650232 -2.421455772874463 0
196 7.421455772874419 -0.5627287603497068 0
197 7.644140809944016 1.700678365585668 0
198 3.29220188939353 2.559276640267589 0
199 6.677605877550838 -2.602174714552985 0
200 2.39782528544697 -1.677605877550826 0
201 5.856858173003891 1.065457930524279 0
202 4.521096433786468 0.7269428833581563 0
203 5.133022293956518 4.351066681963105 0
204 0.6489333180363857 -0.1330222939559401 0
205 5.133022293955769 -4.35106668196372 0
206 9.351066681963603 0.1330222939559639 0
207 2.000021968568555 1.830399841528689 0
208 7.999978031431441 -1.830399841528687 0
209 3.169600158471279 -2.999978031431482 0
210 5.030537710106273 3.404294016297114 0
211 1.504086658334158 0.005274929356737632 0
212 4.994725070643186 -3.495913341665889 0
213 8.495913341665794 -0.005274929356724754 0
214 7.008572832070133 3.435037902986934 0
215 2.306214135205224 3.414092521393899 0
216 1.590437782410002 -2.721439934955793 0
217 7.710469544796824 -3.398753423502908 0
218 8.416443249556332 2.693804005520307 0
219 2.573109742104557 -0.3071711292538623 0
220 5.307171129253795 -2.426890257895431 0
221 7.109681324420304 1.345232450575969 0
222 6.044857413132657 4.392516156561162 0
223 0.6062842545934188 -1.046385635051046 0
224 9.393715745406581 1.046385635051039 0
225 6.046385635050814 -4.393715745406667 0
226 7.421056666414545 0.3012771956014536 0
227 0.5843352511224247 4.415664748877701 0
228 0.5843352511224559 -4.41566474887774 0
229 9.415664748877656 -4.415664748877495 0
230 9.415664748877571 4.415664748877656 0
231 0.5800343797316501 2.674293563094055 0
232 9.419965620268359 -2.67429356309401 0
233 2.345658083763587 -4.435477712914684 0
234 2.345658083764451 4.435477712915194 0
235 7.677637366290007 -4.441836200431937 0
236 0.564522287084567 -2.654341916235119 0
237 7.702782385853915 4.447421857240508 0
238 9.442375567006486 2.679411622261434 0
239 1.590054708552501 2.764707081526802 0
240 8.409945291447599 -2.76470708152665 0
241 2.246587327508741 -3.44589943563603 0
242 7.729049994056211 3.440055228238216 0
243 4.469748387460963 4.480851971976171 0
244 0.5773806682897289 0.5488203523441066 0
245 9.422619331710255 -0.5488203523440738 0
246 4.451179647655807 -4.42261933171024 0
247 1.465412339735019 1.953746816400128 0
248 8.534587660264968 -1.953746816400098 0
249 3.046531167754205 -3.53539797369502 0
250 3.140489454528374 3.52199777968354 0
251 1.427767657503999 -1.914733775412662 0
252 6.914809240182815 -3.572194439334767 0
253 8.507975710060508 1.902063848517035 0
254 4.599169349692846 2.453254136083412 0
255 4.871451175350297 1.405836476298461 0
256 1.446964224895555 0.8470057948490535 0
257 8.553035775104391 -0.8470057948490426 0
258 4.152994205150864 -3.553035775104472 0
259 2.937393104071094 1.532350084367677 0
260 7.056840485710427 -1.518290345154421 0
261 3.481709654845585 -2.05684048571042 0
262 4.037630914253656 1.779540371520632 0
263 5.997490585351176 -1.863588182753816 0
264 3.136411817246152 -0.9974905853511534 0
265 0.5246903316685818 3.669641073437609 0
266 9.47530966833142 -3.669641073437564 0
267 1.38357444660816 -4.410040660811731 0
268 1.383472198944782 4.40959162740703 0
269 8.616527801054652 -4.409591627407342 0
270 0.5487269272668326 -3.658931436015658 0
271 8.616425553391329 4.410040660811999 0
272 9.45127307273315 3.658931436015629 0
273 3.402023484777157 0.3358753968455265 0
274 4.660673815312166 -1.599987078750891 0
275 6.600985413564669 -0.3310180885110748 0
276 1.994288087539813 -1.124017896543066 0
277 6.12401789654297 -3.005711912460215 0
278 8.114620514360483 1.136692068449298 0
279 6.149959401939018 1.929223935903896 0
280 6.887373215631725 0.9348162699190947 0
281 4.112191396869629 3.686579174428419 0
282 2.568511777920023 2.478524386492819 0
283 7.404281844993342 -2.45683863987995 0
284 2.543161360120055 -2.404281844993402 0
285 7.430448198624738 2.436786151092257 0
286 3.8334108564887 3.018761623209976 0
287 3.509265316580431 2.094952483341213 0
288 6.529193005705147 -2.133524359344667 0
289 2.86647564065532 -1.529193005705148 0
290 7.117103360880038 4.446966652280103 0
291 0.5480532110430602 -2.1115715451766 0
292 7.114990024336986 -4.452809660523029 0
293 9.456317434502953 2.118793696892167 0
294 1.229476596857159 3.517485358381185 0
295 8.77052340314285 -3.517485358381168 0
296 1.229476596856973 -3.517485358380962 0
297 8.770523403143047 3.517485358380953 0
298 6.227536291116836 3.005318175431665 0
299 3.591947390967148 -0.2133706201834733 0
300 5.223335479447853 -1.308711121345617 0
301 6.403635628341914 0.2061272648406293 0
302 6.551112980707991 2.138199699615648 0
303 2.021926770248573 2.947540515827064 0
304 7.981409965751891 -2.944472696248814 0
305 2.051613276152121 -2.996827955614154 0
306 7.939948319650381 2.994512491853324 0
307 6.185544921970871 3.912457863670739 0
308 1.091034571964436 -1.202823962013978 0
309 6.202823962013865 -3.908965428035645 0
310 8.908965428035561 1.202823962013963 0
311 5.557120573804555 -0.02828376165903649 0
312 4.468040177370601 -0.002790485491478518 0
313 4.745351172237799 -0.4831407733212419 0
314 3.322265266934723 3.000348336549223 0
315 6.694546295003441 -3.067585978261331 0
316 1.932408607001342 -1.69453551432203 0
317 8.027707738430911 1.675697019236648 0
318 2.530273842167107 1.80176506007421 0
319 7.480892283068471 -1.799437714288799 0
320 3.200562285711198 -2.480892283068461 0
321 5.499130276116419 -1.862210147410522 0
322 3.121232937974914 -0.4974694662390303 0
323 1.957433408109176 3.713648120735871 0
324 8.104100385959955 -3.765962840885251 0
325 5.598950793155256 4.56361259438253 0
326 0.4362445974209457 -0.5991327243339273 0
327 5.599132724333293 -4.563755402579226 0
328 9.56375540257905 0.5991327243339121 0
329 1.258845424044383 -3.110278162569208 0
330 8.742530782348895 3.104750976682093 0
331 5.150859976777894 -3.887928695208653 0
332 1.11207130479137 -0.1508599767779101 0
333 5.114214459318513 3.920645950938682 0
334 8.887928695208583 0.150859976777945 0
335 1.03353223565645 1.521729630485839 0
336 8.966467764343546 -1.521729630485789 0
337 3.478298735244141 -3.96655044938753 0
338 3.510845713747948 3.935239819493392 0
339 5.718610371191208 2.715688215101555 0
340 5.203485576333569 0.4359925292329205 0
341 1.965886947211726 1.193413539621675 0
342 8.034113052788225 -1.193413539621694 0
343 3.806586460378255 -3.034113052788289 0
344 0.3926722591607983 2.157863252335713 0
345 9.607327740839223 -2.157863252335631 0
346 2.845462022139905 -4.609913089613772 0
347 2.844957042787332 4.610102738169082 0
348 7.726321279145303 0.7874197541837314 0
349 2.281683952744324 -0.702988669231273 0
350 5.702988669231226 -2.718316047255679 0
351 1.891365407672322 -3.735188566085132 0
352 8.107366231309737 3.734884307057877 0
353 5.43596058001367 1.217999506302859 0
354 1.58285486712919 0.4166186438375818 0
355 8.417145132870766 -0.4166186438376144 0
356 4.583381356162264 -3.417145132870909 0
357 6.864630847047041 0.4783779699405523 0
358 0.4598782293911117 1.369849037519231 0
359 9.5401217706089 -1.369849037519185 0
360 3.630155014727423 -4.54013358275823 0
361 3.631433055780983 4.534001223204218 0
362 2.766342139975601 0.9736507809940711 0
363 4.023012722759146 -2.244879335203134 0
364 7.244879335203196 -0.9769872772407875 0
365 6.970318421601294 2.58432351789741 0
366 1.512956360494857 3.853153664061648 0
367 8.531170897194663 -3.896222499964421 0
368 1.484661078083905 -3.877744405929852 0
369 8.515187926556688 3.877708184617179 0
370 1.117666611787276 2.839554459415489 0
371 8.882333388212771 -2.839554459415363 0
372 1.809298311868492 -4.605879726622746 0
373 0.4449249060637515 3.256329999536841 0
374 9.555075093936241 -3.256329999536816 0
375 1.8092778623371 4.605789919941986 0
376 8.200389782053854 4.608268555488048 0
377 0.3883999960097992 -3.20501740068358 0
378 9.612979574808405 3.210031341888835 0
379 8.195381227672547 -4.60706161744549 0
380 4.412768892434695 2.044246959208413 0
381 6.959367601685678 3.88441498545849 0
382 2.610446590443463 0.1573252836022935 0
383 2.996839025922046 0.4160762159536465 0
384 4.842674716397647 -2.389553409556503 0
385 4.583923784046307 -2.003160974077938 0
386 7.003160974077871 -0.4160762159536625 0
387 7.388955165880454 -0.1761871832858048 0
388 4.768144018635732 0.3773224865002912 0
389 5.989871420996129 1.495644019140532 0
390 6.32268729428063 1.091219156766727 0
391 2.305451778467001 0.861258477958884 0
392 4.138185439333265 -2.696418467396124 0
393 7.696418467396086 -0.8618145606666806 0
394 4.621566298318109 1.096145347317764 0
395 5.087304316225891 2.364584280753428 0
396 5.269537286456318 1.987697606513347 0
397 3.519130138955227 1.089237223846308 0
398 3.909931343632826 1.315601380206707 0
399 3.911913900071571 -1.477234713563424 0
400 6.477234713563449 -1.088086099928433 0
401 6.091451359744135 -1.332037859967417 0
402 3.667962140032573 -1.091451359744104 0
403 6.711790612678926 -4.663880315895118 0
404 0.3362429514715316 -1.71130225851352 0
405 9.67533967965106 1.707529295265712 0
406 6.710782613398937 4.662017381421383 0
407 4.197468202009802 2.760203623929921 0
408 6.90953419780695 -3.998361139655175 0
409 1.001740176714981 -1.908708628206911 0
410 8.941206577376827 1.971736671472108 0
411 2.199804748384901 -4.010320686553448 0
412 7.811688231972511 3.976354856876142 0
413 5.246301047243636 -0.3975277465210749 0
414 4.601898183260435 3.441426293480322 0
415 1.029814992893021 1.976630980179417 0
416 3.024711774510723 -3.974099086889169 0
417 8.970185007106988 -1.976630980179309 0
418 4.086689298940993 -4.612291177132025 0
419 0.3877100281893899 0.9133111145531619 0
420 9.612289971810604 -0.913311114553141 0
421 4.068558182725444 4.588601226874142 0
422 5.464340823518457 3.557183782239259 0
423 1.468530682297295 -0.4600202645859669 0
424 5.460020264585904 -3.531469317702783 0
425 8.531447305520505 0.4599743496979269 0
426 5.966975525562884 3.503246736953141 0
427 5.960240755763155 -3.503445003545128 0
428 1.496554996454991 -0.960240755763232 0
429 8.539937475975536 0.9249703878738225 0
430 3.001418244718288 3.921223989746529 0
431 2.208661822904689 3.985859882187396 0
432 7.786886066890866 -4.041449437197659 0
433 6.748300650171625 1.748260691689418 0
434 5.51401269029528 0.790551961036414 0
435 3.965479443767458 -0.6666672306502639 0
436 5.725412894126901 -1.052757564097736 0
437 0.9854493458904954 -2.789039444096234 0
438 8.989696906661131 2.798845144141855 0
439 2.221627520119459 0.4086196150498839 0
440 4.591333099005501 -2.778531514392697 0
441 7.778477125069969 -0.4103984158758095 0
442 4.84932145350778 4.626597808640684 0
443 0.3831076314030944 0.1537733364630111 0
444 9.616892368596899 -0.1537733364629957 0
445 4.846226663536227 -4.616892368597008 0
446 1.174480653032553 -1.59061751545795 0
447 6.590683188516862 -3.825523968921495 0
448 8.817162546060883 1.58666133440055 0
449 4.62552450766175 3.006957643625256 0
450 0.4005845846937549 4.055421444207786 0
451 0.9445785557925701 -4.599415415305947 0
452 9.599415415306289 -4.055421444207632 0
453 0.9445785557923886 4.599415415306119 0
454 0.4005845846937132 -4.055421444207894 0
455 9.055421444207623 4.599415415306122 0
456 9.055421444207926 -4.599415415306381 0
457 9.599415415306302 4.055421444207828 0
458 0.9879063269008947 0.6995824909859822 0
459 9.012093673099072 -0.6995824909859559 0
460 4.300417509013933 -4.012093673099102 0
461 4.309260950107003 4.11631466458855 0
462 6.011582408547602 0.643815514366147 0
463 6.602542310386328 3.736804621278018 0
464 1.646269802515136 2.320915039993051 0
465 8.353730197484882 -2.320915039992955 0
466 2.680021018771871 -3.356616591594422 0
467 5.327895169310917 3.073873754340351 0
468 1.963994353383305 -0.2850159481431295 0
469 5.285015948143031 -3.036005646616707 0
470 8.036287958098782 0.295975238394845 0
471 2.371894102631519 2.154491520394523 0
472 7.630019785955775 -2.1484481582716 0
473 2.851551841728424 -2.630019785955839 0
474 4.354745876355092 -0.8663224641609528 0
475 5.810458639603681 -0.6053791839400646 0
476 4.571392248227202 1.699503655351344 0
477 3.213919632351844 1.829038908387289 0
478 6.798547628301513 -1.811429031283855 0
479 3.18857096871615 -1.798547628301508 0
480 4.228793454192692 1.018985493885202 0
481 5.938703758667121 0.199825737493082 0
482 7.639037893522206 2.06427922697524 0
483 3.247591792714745 -4.699023121839066 0
484 0.300976878161985 1.752408207285317 0
485 9.699023121838096 -1.752408207285205 0
486 3.247591792714887 4.699023121836182 0
487 2.808822659307952 -0.742896700090607 0
488 5.742983164578197 -2.190315360547569 0
489 2.901982046272853 2.680653910362195 0
490 6.971801213048869 -2.409084601080694 0
491 2.590915398919293 -1.971801213048893 0
492 3.968187675619083 3.336156423096531 0
493 5.25000000000013 4.705550928350896 0
494 0.294449071646971 -0.2499999999942792 0
495 9.705550928353043 0.2499999999942793 0
496 5.249999999992667 -4.705550928353491 0
497 6.537458199231089 2.546389016514316 0
498 1.333536106078958 3.139519424154573 0
499 8.666463893921172 -3.139519424154487 0
500 4.07896725709216 0.6716001020258636 0
501 5.067143703180384 -0.8095016098815681 0
502 2.438889212617141 2.852067674228917 0
503 7.567121249900477 -2.872716623114168 0
504 2.114883853663319 -2.574805505882684 0
505 7.846099607226281 2.555764294475303 0
506 6.686688064646724 1.326953796209388 0
507 4.059104142000752 -0.1709996349378661 0
508 2.68284739764378 3.551802090699179 0
509 1.703365025851134 -2.254285927758203 0
510 7.252150868636785 -3.293829019177142 0
511 8.552072703585441 2.317264034599896 0
512 5.842259753714469 2.252849283329162 0
513 3.667463618666422 0.6871914143682987 0
514 4.314516640783435 -1.321522653596944 0
515 6.318846203153716 -0.6701409254176467 0
516 7.338499965835013 3.515753857167502 0
517 6.667953166003207 3.255210516178257 0
518 7.024144853294775 3.091548257779584 0
519 1.894380645312328 0.1984882216185631 0
520 4.801506149102185 -3.105638287367684 0
521 8.097536977653537 -0.2026111506258108 0
522 6.362172930741772 4.661698691709773 0
523 0.336273950485503 -1.364416370449651 0
524 9.664094271274983 1.361032361500488 0
525 6.36451404128224 -4.663750702987863 0
526 9.676301429511824 -4.676301429512147 0
527 0.3236985704880531 4.676301429511679 0
528 0.3236985704879555 -4.676301429511635 0
529 9.676301429511993 4.676301429511827 0
530 5.322679887684929 2.653966465063938 0
531 3.164608293530837 1.187694467942736 0
532 3.810015723069566 -1.821488184454008 0
533 6.821488184454036 -1.189984276930424 0
534 7.260176257171828 0.7059454447810517 0
535 6.317541743524063 -2.666609522244182 0
536 2.333390477755883 -1.317541743524066 0
537 7.610615514603606 1.34702514218111 0
538 5.218921018367006 1.640730756922772 0
539 7.292708673503771 1.728661885664594 0
540 1.157002505356745 1.139417441654439 0
541 8.84299749464321 -1.139417441654417 0
542 3.86058255834528 -3.842997494643127 0
543 0.8704170611944354 3.538279950892274 0
544 9.129582938805564 -3.538279950892212 0
545 0.8968970219159365 -3.614861954134153 0
546 9.103102978084056 3.614861954134147 0
547 0.7726568350016674 2.203698660749045 0
548 9.22734316499835 -2.203698660748951 0
549 2.802506759168847 -4.235480949326382 0
550 4.358757127513853 0.4054910476858611 0
551 2.792881422616803 4.239380361035513 0
552 4.754795358143723 4.229169111113973 0
553 0.7914107571457244 0.2520917619810695 0
554 9.208589242854252 -0.2520917619810373 0
555 4.747908238018862 -4.208589242854343 0
556 3.69732335726864 2.629882759790396 0
$EndNodes
$Elements
1110
1 1 2 1 1 1 5
2 1 2 1 1 5 6
3 1 2 1 1 6 7
4 1 2 1 1 7 8
5 1 2 1 1 8 9
6 1 2 1 1 9 10
7 1 2 1 1 10 11
8 1 2 1 1 11 12
9 1 2 1 1 12 13
10 1 2 1 1 13 14
11 1 2 1 1 14 15
12 1 2 1 1 15 16
13 1 2 1 1 16 17
14 1 2 1 1 17 18
15 1 2 1 1 18 19
16 1 2 1 1 19 20
17 1 2 1 1 20 21
18 1 2 1 1 21 22
19 1 2 1 1 22 23
20 1 2 1 1 23 4
21 1 2 1 2 4 24
22 1 2 1 2 24 25
23 1 2 1 2 25 26
24 1 2 1 2 26 27
25 1 2 1 2 27 28
26 1 2 1 2 28 29
27 1 2 1 2 29 30
28 1 2 1 2 30 31
29 1 2 1 2 31 32
30 1 2 1 2 32 33
31 1 2 1 2 33 34
32 1 2 1 2 34 35
33 1 2 1 2 35 36
34 1 2 1 2 36 37
35 1 2 1 2 37 38
36 1 2 1 2 38 39
37 1 2 1 2 39 40
38 1 2 1 2 40 41
39 1 2 1 2 41 42
40 1 2 1 2 42 3
41 1 2 1 3 3 43
42 1 2 1 3 43 44
43 1 2 1 3 44 45
44 1 2 1 3 45 46
45 1 2 1 3 46 47
46 1 2 1 3 47 48
47 1 2 1 3 48 49
48 1 2 1 3 49 50
49 1 2 1 3 50 51
50 1 2 1 3 51 52
51 1 2 1 3 52 53
52 1 2 1 3 53 54
53 1 2 1 3 54 55
54 1 2 1 3 55 56
55 1 2 1 3 56 57
56 1 2 1 3 57 58
57 1 2 1 3 58 59
58 1 2 1 3 59 60
59 1 2 1 3 60 61
60 1 2 1 3 61 2
61 1 2 1 4 2 62
62 1 2 1 4 62 63
63 1 2 1 4 63 64
64 1 2 1 4 64 65
65 1 2 1 4 65 66
66 1 2 1 4 66 67
67 1 2 1 4 67 68
68 1 2 1 4 68 69
69 1 2 1 4 69 70
70 1 2 1 4 70 71
71 1 2 1 4 71 72
72 1 2 1 4 72 73
73 1 2 1 4 73 74
74 1 2 1 4 74 75
75 1 2 1 4 75 76
76 1 2 1 4 76 77
77 1 2 1 4 77 78
78 1 2 1 4 78 79
79 1 2 1 4 79 80
80 1 2 1 4 80 1
81 2 2 8 6 469 350 220
82 2 2 8 6 468 349 219
83 2 2 8 6 87 469 220
84 2 2 8 6 88 468 219
85 2 2 8 6 470 348 226
86 2 2 8 6 89 470 226
87 2 2 8 6 433 302 279
88 2 2 8 6 190 396 109
89 2 2 8 6 184 300 436
90 2 2 8 6 153 433 279
91 2 2 8 6 98 256 341
92 2 2 8 6 178 341 256
93 2 2 8 6 99 257 342
94 2 2 8 6 100 258 343
95 2 2 8 6 180 342 257
96 2 2 8 6 179 343 258
97 2 2 8 6 512 190 109
98 2 2 8 6 150 322 299
99 2 2 8 6 151 321 300
100 2 2 8 6 86 210 449
101 2 2 8 6 82 287 198
102 2 2 8 6 22 456 21
103 2 2 8 6 63 64 450
104 2 2 8 6 25 26 452
105 2 2 8 6 79 454 78
106 2 2 8 6 41 457 40
107 2 2 8 6 60 453 59
108 2 2 8 6 44 45 455
109 2 2 8 6 6 7 451
110 2 2 8 6 210 414 449
111 2 2 8 6 138 464 207
112 2 2 8 6 139 465 208
113 2 2 8 6 140 466 209
114 2 2 8 6 8 233 372
115 2 2 8 6 65 231 373
116 2 2 8 6 27 232 374
117 2 2 8 6 58 375 234
118 2 2 8 6 46 237 376
119 2 2 8 6 77 377 236
120 2 2 8 6 39 378 238
121 2 2 8 6 20 379 235
122 2 2 8 6 127 474 514
123 2 2 8 6 128 475 515
124 2 2 8 6 8 9 233
125 2 2 8 6 65 66 231
126 2 2 8 6 27 28 232
127 2 2 8 6 58 234 57
128 2 2 8 6 46 47 237
129 2 2 8 6 77 236 76
130 2 2 8 6 39 238 38
131 2 2 8 6 20 235 19
132 2 2 8 6 47 290 237
133 2 2 8 6 76 236 291
134 2 2 8 6 38 238 293
135 2 2 8 6 19 235 292
136 2 2 8 6 90 323 366
137 2 2 8 6 91 324 367
138 2 2 8 6 456 269 21
139 2 2 8 6 450 64 265
140 2 2 8 6 452 26 266
141 2 2 8 6 454 270 78
142 2 2 8 6 457 272 40
143 2 2 8 6 453 268 59
144 2 2 8 6 455 45 271
145 2 2 8 6 451 7 267
146 2 2 8 6 118 437 216
147 2 2 8 6 121 438 218
148 2 2 8 6 98 207 247
149 2 2 8 6 99 208 248
150 2 2 8 6 100 209 249
151 2 2 8 6 117 431 215
152 2 2 8 6 120 432 217
153 2 2 8 6 207 464 247
154 2 2 8 6 208 465 248
155 2 2 8 6 209 466 249
156 2 2 8 6 170 222 307
157 2 2 8 6 172 308 223
158 2 2 8 6 173 310 224
159 2 2 8 6 171 309 225
160 2 2 8 6 90 366 294
161 2 2 8 6 91 367 295
162 2 2 8 6 92 296 368
163 2 2 8 6 93 297 369
164 2 2 8 6 216 437 329
165 2 2 8 6 218 438 330
166 2 2 8 6 92 368 351
167 2 2 8 6 93 369 352
168 2 2 8 6 299 435 507
169 2 2 8 6 120 292 235
170 2 2 8 6 118 291 236
171 2 2 8 6 121 293 238
172 2 2 8 6 119 237 290
173 2 2 8 6 311 413 475
174 2 2 8 6 217 432 324
175 2 2 8 6 215 431 323
176 2 2 8 6 146 202 388
177 2 2 8 6 150 299 273
178 2 2 8 6 151 300 274
179 2 2 8 6 152 301 275
180 2 2 8 6 95 436 300
181 2 2 8 6 96 435 299
182 2 2 8 6 189 298 497
183 2 2 8 6 184 501 300
184 2 2 8 6 192 514 474
185 2 2 8 6 193 515 475
186 2 2 8 6 119 290 381
187 2 2 8 6 152 357 301
188 2 2 8 6 98 247 335
189 2 2 8 6 99 248 336
190 2 2 8 6 100 249 337
191 2 2 8 6 221 537 539
192 2 2 8 6 125 537 221
193 2 2 8 6 50 325 222
194 2 2 8 6 73 223 326
195 2 2 8 6 35 224 328
196 2 2 8 6 16 225 327
197 2 2 8 6 143 199 315
198 2 2 8 6 144 200 316
199 2 2 8 6 101 338 250
200 2 2 8 6 134 325 203
201 2 2 8 6 135 204 326
202 2 2 8 6 136 205 327
203 2 2 8 6 137 206 328
204 2 2 8 6 82 198 489
205 2 2 8 6 143 490 199
206 2 2 8 6 144 491 200
207 2 2 8 6 101 281 338
208 2 2 8 6 169 338 281
209 2 2 8 6 48 290 47
210 2 2 8 6 37 38 293
211 2 2 8 6 75 76 291
212 2 2 8 6 18 19 292
213 2 2 8 6 197 539 537
214 2 2 8 6 126 500 513
215 2 2 8 6 83 288 490
216 2 2 8 6 84 289 491
217 2 2 8 6 125 221 280
218 2 2 8 6 126 513 273
219 2 2 8 6 127 514 274
220 2 2 8 6 128 515 275
221 2 2 8 6 96 299 322
222 2 2 8 6 95 300 321
223 2 2 8 6 199 490 288
224 2 2 8 6 200 491 289
225 2 2 8 6 134 422 426
226 2 2 8 6 135 428 423
227 2 2 8 6 136 427 424
228 2 2 8 6 137 429 425
229 2 2 8 6 134 426 307
230 2 2 8 6 135 308 428
231 2 2 8 6 136 309 427
232 2 2 8 6 137 310 429
233 2 2 8 6 189 517 298
234 2 2 8 6 109 279 512
235 2 2 8 6 98 341 207
236 2 2 8 6 147 207 341
237 2 2 8 6 99 342 208
238 2 2 8 6 100 343 209
239 2 2 8 6 148 208 342
240 2 2 8 6 149 209 343
241 2 2 8 6 156 372 233
242 2 2 8 6 154 373 231
243 2 2 8 6 155 374 232
244 2 2 8 6 157 234 375
245 2 2 8 6 160 376 237
246 2 2 8 6 159 236 377
247 2 2 8 6 161 238 378
248 2 2 8 6 158 235 379
249 2 2 8 6 129 497 298
250 2 2 8 6 122 287 262
251 2 2 8 6 124 289 264
252 2 2 8 6 123 288 263
253 2 2 8 6 104 315 277
254 2 2 8 6 103 316 276
255 2 2 8 6 105 317 278
256 2 2 8 6 184 475 413
257 2 2 8 6 146 394 202
258 2 2 8 6 134 203 333
259 2 2 8 6 135 332 204
260 2 2 8 6 136 331 205
261 2 2 8 6 137 334 206
262 2 2 8 6 510 143 315
263 2 2 8 6 509 144 316
264 2 2 8 6 251 509 316
265 2 2 8 6 252 510 315
266 2 2 8 6 117 215 508
267 2 2 8 6 121 218 511
268 2 2 8 6 128 311 475
269 2 2 8 6 90 303 215
270 2 2 8 6 91 304 217
271 2 2 8 6 92 305 216
272 2 2 8 6 93 306 218
273 2 2 8 6 85 365 302
274 2 2 8 6 214 463 517
275 2 2 8 6 120 408 292
276 2 2 8 6 118 409 291
277 2 2 8 6 121 410 293
278 2 2 8 6 170 307 463
279 2 2 8 6 247 415 335
280 2 2 8 6 248 417 336
281 2 2 8 6 249 416 337
282 2 2 8 6 162 262 287
283 2 2 8 6 164 263 288
284 2 2 8 6 165 264 289
285 2 2 8 6 170 381 290
286 2 2 8 6 301 462 481
287 2 2 8 6 152 226 357
288 2 2 8 6 114 370 231
289 2 2 8 6 154 231 370
290 2 2 8 6 115 371 232
291 2 2 8 6 155 232 371
292 2 2 8 6 138 303 239
293 2 2 8 6 90 239 303
294 2 2 8 6 139 304 240
295 2 2 8 6 91 240 304
296 2 2 8 6 140 305 241
297 2 2 8 6 92 241 305
298 2 2 8 6 93 242 306
299 2 2 8 6 141 306 242
300 2 2 8 6 250 338 430
301 2 2 8 6 130 227 450
302 2 2 8 6 131 229 452
303 2 2 8 6 132 228 451
304 2 2 8 6 130 453 227
305 2 2 8 6 132 454 228
306 2 2 8 6 131 456 229
307 2 2 8 6 133 457 230
308 2 2 8 6 133 230 455
309 2 2 8 6 278 317 537
310 2 2 8 6 134 307 222
311 2 2 8 6 135 223 308
312 2 2 8 6 136 225 309
313 2 2 8 6 137 224 310
314 2 2 8 6 172 446 308
315 2 2 8 6 171 447 309
316 2 2 8 6 173 448 310
317 2 2 8 6 102 517 463
318 2 2 8 6 97 462 301
319 2 2 8 6 147 318 207
320 2 2 8 6 148 319 208
321 2 2 8 6 149 320 209
322 2 2 8 6 150 219 322
323 2 2 8 6 151 220 321
324 2 2 8 6 50 51 325
325 2 2 8 6 35 328 34
326 2 2 8 6 73 326 72
327 2 2 8 6 16 327 15
328 2 2 8 6 5 451 228
329 2 2 8 6 61 227 453
330 2 2 8 6 62 450 227
331 2 2 8 6 43 455 230
332 2 2 8 6 24 452 229
333 2 2 8 6 80 228 454
334 2 2 8 6 42 230 457
335 2 2 8 6 23 229 456
336 2 2 8 6 122 380 254
337 2 2 8 6 277 315 535
338 2 2 8 6 276 316 536
339 2 2 8 6 94 476 262
340 2 2 8 6 278 537 348
341 2 2 8 6 302 365 497
342 2 2 8 6 146 353 255
343 2 2 8 6 122 262 380
344 2 2 8 6 537 125 348
345 2 2 8 6 53 421 243
346 2 2 8 6 70 244 419
347 2 2 8 6 32 245 420
348 2 2 8 6 13 246 418
349 2 2 8 6 92 216 329
350 2 2 8 6 93 218 330
351 2 2 8 6 113 210 333
352 2 2 8 6 110 332 211
353 2 2 8 6 112 331 212
354 2 2 8 6 111 334 213
355 2 2 8 6 88 219 382
356 2 2 8 6 87 220 384
357 2 2 8 6 150 382 219
358 2 2 8 6 151 384 220
359 2 2 8 6 90 215 323
360 2 2 8 6 91 217 324
361 2 2 8 6 185 358 335
362 2 2 8 6 186 359 336
363 2 2 8 6 187 360 337
364 2 2 8 6 166 335 358
365 2 2 8 6 168 337 360
366 2 2 8 6 167 336 359
367 2 2 8 6 188 338 361
368 2 2 8 6 169 361 338
369 2 2 8 6 183 313 312
370 2 2 8 6 81 312 313
371 2 2 8 6 130 450 265
372 2 2 8 6 131 452 266
373 2 2 8 6 132 451 267
374 2 2 8 6 131 269 456
375 2 2 8 6 130 268 453
376 2 2 8 6 132 270 454
377 2 2 8 6 133 272 457
378 2 2 8 6 133 455 271
379 2 2 8 6 102 298 517
380 2 2 8 6 86 467 210
381 2 2 8 6 147 362 259
382 2 2 8 6 148 364 260
383 2 2 8 6 149 363 261
384 2 2 8 6 142 508 215
385 2 2 8 6 118 216 509
386 2 2 8 6 120 217 510
387 2 2 8 6 145 511 218
388 2 2 8 6 220 350 488
389 2 2 8 6 219 349 487
390 2 2 8 6 488 350 123
391 2 2 8 6 487 349 124
392 2 2 8 6 97 280 390
393 2 2 8 6 89 226 387
394 2 2 8 6 152 387 226
395 2 2 8 6 123 535 288
396 2 2 8 6 124 536 289
397 2 2 8 6 138 207 471
398 2 2 8 6 139 208 472
399 2 2 8 6 140 209 473
400 2 2 8 6 109 353 389
401 2 2 8 6 201 389 353
402 2 2 8 6 97 301 357
403 2 2 8 6 101 314 286
404 2 2 8 6 113 281 414
405 2 2 8 6 116 241 411
406 2 2 8 6 119 242 412
407 2 2 8 6 126 273 299
408 2 2 8 6 127 274 300
409 2 2 8 6 128 275 301
410 2 2 8 6 146 388 340
411 2 2 8 6 142 215 502
412 2 2 8 6 145 218 505
413 2 2 8 6 9 346 233
414 2 2 8 6 66 344 231
415 2 2 8 6 28 345 232
416 2 2 8 6 57 234 347
417 2 2 8 6 134 222 325
418 2 2 8 6 135 326 223
419 2 2 8 6 137 328 224
420 2 2 8 6 136 327 225
421 2 2 8 6 110 211 354
422 2 2 8 6 111 213 355
423 2 2 8 6 112 212 356
424 2 2 8 6 262 476 380
425 2 2 8 6 129 279 302
426 2 2 8 6 147 259 318
427 2 2 8 6 82 318 259
428 2 2 8 6 148 260 319
429 2 2 8 6 83 319 260
430 2 2 8 6 149 261 320
431 2 2 8 6 84 320 261
432 2 2 8 6 286 314 556
433 2 2 8 6 183 507 435
434 2 2 8 6 54 55 361
435 2 2 8 6 69 358 68
436 2 2 8 6 31 359 30
437 2 2 8 6 12 360 11
438 2 2 8 6 138 282 502
439 2 2 8 6 139 283 503
440 2 2 8 6 140 284 504
441 2 2 8 6 141 285 505
442 2 2 8 6 61 527 227
443 2 2 8 6 5 228 528
444 2 2 8 6 62 227 527
445 2 2 8 6 80 528 228
446 2 2 8 6 43 230 529
447 2 2 8 6 42 529 230
448 2 2 8 6 23 526 229
449 2 2 8 6 24 229 526
450 2 2 8 6 131 367 269
451 2 2 8 6 156 368 267
452 2 2 8 6 158 269 367
453 2 2 8 6 130 366 268
454 2 2 8 6 157 268 366
455 2 2 8 6 132 267 368
456 2 2 8 6 160 369 271
457 2 2 8 6 133 271 369
458 2 2 8 6 199 288 535
459 2 2 8 6 200 289 536
460 2 2 8 6 113 414 210
461 2 2 8 6 194 383 362
462 2 2 8 6 106 362 383
463 2 2 8 6 195 385 363
464 2 2 8 6 107 363 385
465 2 2 8 6 196 386 364
466 2 2 8 6 108 364 386
467 2 2 8 6 141 242 516
468 2 2 8 6 141 516 518
469 2 2 8 6 138 502 303
470 2 2 8 6 139 503 304
471 2 2 8 6 140 504 305
472 2 2 8 6 141 505 306
473 2 2 8 6 141 365 285
474 2 2 8 6 114 464 239
475 2 2 8 6 115 465 240
476 2 2 8 6 116 466 241
477 2 2 8 6 170 522 222
478 2 2 8 6 172 223 523
479 2 2 8 6 173 224 524
480 2 2 8 6 171 225 525
481 2 2 8 6 142 314 250
482 2 2 8 6 101 250 314
483 2 2 8 6 103 251 316
484 2 2 8 6 104 252 315
485 2 2 8 6 145 317 253
486 2 2 8 6 105 253 317
487 2 2 8 6 114 247 464
488 2 2 8 6 115 248 465
489 2 2 8 6 116 249 466
490 2 2 8 6 181 414 281
491 2 2 8 6 86 254 395
492 2 2 8 6 163 395 254
493 2 2 8 6 214 381 463
494 2 2 8 6 198 556 314
495 2 2 8 6 54 421 53
496 2 2 8 6 69 70 419
497 2 2 8 6 31 32 420
498 2 2 8 6 12 13 418
499 2 2 8 6 6 451 5
500 2 2 8 6 60 61 453
501 2 2 8 6 25 452 24
502 2 2 8 6 63 450 62
503 2 2 8 6 44 455 43
504 2 2 8 6 79 80 454
505 2 2 8 6 41 42 457
506 2 2 8 6 22 23 456
507 2 2 8 6 82 282 471
508 2 2 8 6 83 283 472
509 2 2 8 6 84 284 473
510 2 2 8 6 182 340 311
511 2 2 8 6 81 311 340
512 2 2 8 6 142 250 508
513 2 2 8 6 118 509 251
514 2 2 8 6 120 510 252
515 2 2 8 6 145 253 511
516 2 2 8 6 122 556 287
517 2 2 8 6 54 361 421
518 2 2 8 6 69 419 358
519 2 2 8 6 31 420 359
520 2 2 8 6 12 418 360
521 2 2 8 6 95 321 263
522 2 2 8 6 96 322 264
523 2 2 8 6 50 222 522
524 2 2 8 6 73 523 223
525 2 2 8 6 35 524 224
526 2 2 8 6 16 525 225
527 2 2 8 6 129 298 339
528 2 2 8 6 162 398 262
529 2 2 8 6 94 262 398
530 2 2 8 6 164 401 263
531 2 2 8 6 165 402 264
532 2 2 8 6 95 263 401
533 2 2 8 6 96 264 402
534 2 2 8 6 127 300 501
535 2 2 8 6 197 537 317
536 2 2 8 6 92 351 241
537 2 2 8 6 93 352 242
538 2 2 8 6 280 506 390
539 2 2 8 6 82 489 282
540 2 2 8 6 143 283 490
541 2 2 8 6 144 284 491
542 2 2 8 6 85 482 285
543 2 2 8 6 217 503 510
544 2 2 8 6 216 504 509
545 2 2 8 6 198 287 556
546 2 2 8 6 119 516 242
547 2 2 8 6 212 424 469
548 2 2 8 6 211 423 468
549 2 2 8 6 213 425 470
550 2 2 8 6 210 467 422
551 2 2 8 6 171 292 408
552 2 2 8 6 172 291 409
553 2 2 8 6 173 293 410
554 2 2 8 6 178 256 354
555 2 2 8 6 110 354 256
556 2 2 8 6 180 257 355
557 2 2 8 6 179 258 356
558 2 2 8 6 111 355 257
559 2 2 8 6 112 356 258
560 2 2 8 6 163 255 538
561 2 2 8 6 200 536 316
562 2 2 8 6 199 535 315
563 2 2 8 6 114 239 370
564 2 2 8 6 115 240 371
565 2 2 8 6 162 259 531
566 2 2 8 6 164 260 533
567 2 2 8 6 165 261 532
568 2 2 8 6 123 350 277
569 2 2 8 6 124 349 276
570 2 2 8 6 176 427 277
571 2 2 8 6 175 428 276
572 2 2 8 6 104 277 427
573 2 2 8 6 103 276 428
574 2 2 8 6 214 518 516
575 2 2 8 6 114 231 547
576 2 2 8 6 115 232 548
577 2 2 8 6 116 233 549
578 2 2 8 6 177 429 278
579 2 2 8 6 105 278 429
580 2 2 8 6 117 551 234
581 2 2 8 6 176 469 424
582 2 2 8 6 175 468 423
583 2 2 8 6 177 470 425
584 2 2 8 6 174 422 467
585 2 2 8 6 116 411 233
586 2 2 8 6 156 233 411
587 2 2 8 6 160 237 412
588 2 2 8 6 119 412 237
589 2 2 8 6 146 255 394
590 2 2 8 6 82 471 318
591 2 2 8 6 83 472 319
592 2 2 8 6 84 473 320
593 2 2 8 6 92 329 296
594 2 2 8 6 93 330 297
595 2 2 8 6 125 534 348
596 2 2 8 6 159 437 236
597 2 2 8 6 161 438 238
598 2 2 8 6 157 431 234
599 2 2 8 6 158 432 235
600 2 2 8 6 118 236 437
601 2 2 8 6 121 238 438
602 2 2 8 6 117 234 431
603 2 2 8 6 120 235 432
604 2 2 8 6 226 348 534
605 2 2 8 6 104 447 252
606 2 2 8 6 103 446 251
607 2 2 8 6 105 448 253
608 2 2 8 6 90 498 239
609 2 2 8 6 91 499 240
610 2 2 8 6 241 351 411
611 2 2 8 6 242 352 412
612 2 2 8 6 177 278 348
613 2 2 8 6 175 276 349
614 2 2 8 6 176 277 350
615 2 2 8 6 163 254 380
616 2 2 8 6 132 545 270
617 2 2 8 6 133 546 272
618 2 2 8 6 255 353 538
619 2 2 8 6 159 296 329
620 2 2 8 6 161 297 330
621 2 2 8 6 113 461 281
622 2 2 8 6 166 244 458
623 2 2 8 6 167 245 459
624 2 2 8 6 168 246 460
625 2 2 8 6 138 239 464
626 2 2 8 6 139 240 465
627 2 2 8 6 140 241 466
628 2 2 8 6 141 518 365
629 2 2 8 6 10 346 9
630 2 2 8 6 67 344 66
631 2 2 8 6 29 345 28
632 2 2 8 6 56 57 347
633 2 2 8 6 53 243 442
634 2 2 8 6 70 443 244
635 2 2 8 6 32 444 245
636 2 2 8 6 13 445 246
637 2 2 8 6 157 366 323
638 2 2 8 6 158 367 324
639 2 2 8 6 166 419 244
640 2 2 8 6 167 420 245
641 2 2 8 6 168 418 246
642 2 2 8 6 97 357 280
643 2 2 8 6 64 373 265
644 2 2 8 6 26 374 266
645 2 2 8 6 158 379 269
646 2 2 8 6 21 269 379
647 2 2 8 6 7 372 267
648 2 2 8 6 157 375 268
649 2 2 8 6 159 377 270
650 2 2 8 6 59 268 375
651 2 2 8 6 78 270 377
652 2 2 8 6 156 267 372
653 2 2 8 6 40 272 378
654 2 2 8 6 161 378 272
655 2 2 8 6 45 376 271
656 2 2 8 6 160 271 376
657 2 2 8 6 129 339 512
658 2 2 8 6 106 383 273
659 2 2 8 6 150 273 383
660 2 2 8 6 107 385 274
661 2 2 8 6 151 274 385
662 2 2 8 6 108 386 275
663 2 2 8 6 152 275 386
664 2 2 8 6 169 461 421
665 2 2 8 6 243 421 461
666 2 2 8 6 114 415 247
667 2 2 8 6 115 417 248
668 2 2 8 6 116 416 249
669 2 2 8 6 142 489 314
670 2 2 8 6 198 314 489
671 2 2 8 6 145 482 317
672 2 2 8 6 197 317 482
673 2 2 8 6 118 251 409
674 2 2 8 6 120 252 408
675 2 2 8 6 82 477 287
676 2 2 8 6 83 478 288
677 2 2 8 6 84 479 289
678 2 2 8 6 174 339 298
679 2 2 8 6 265 373 543
680 2 2 8 6 266 374 544
681 2 2 8 6 154 543 373
682 2 2 8 6 155 544 374
683 2 2 8 6 122 254 407
684 2 2 8 6 181 449 414
685 2 2 8 6 94 394 255
686 2 2 8 6 143 510 503
687 2 2 8 6 144 509 504
688 2 2 8 6 85 285 365
689 2 2 8 6 259 362 531
690 2 2 8 6 260 364 533
691 2 2 8 6 261 363 532
692 2 2 8 6 86 449 254
693 2 2 8 6 154 498 294
694 2 2 8 6 155 499 295
695 2 2 8 6 215 303 502
696 2 2 8 6 217 304 503
697 2 2 8 6 216 305 504
698 2 2 8 6 218 306 505
699 2 2 8 6 94 255 476
700 2 2 8 6 85 539 482
701 2 2 8 6 163 476 255
702 2 2 8 6 191 513 500
703 2 2 8 6 130 265 543
704 2 2 8 6 131 266 544
705 2 2 8 6 159 270 545
706 2 2 8 6 161 272 546
707 2 2 8 6 98 540 256
708 2 2 8 6 99 541 257
709 2 2 8 6 100 542 258
710 2 2 8 6 226 534 357
711 2 2 8 6 110 256 458
712 2 2 8 6 111 257 459
713 2 2 8 6 112 258 460
714 2 2 8 6 124 264 487
715 2 2 8 6 123 263 488
716 2 2 8 6 109 389 279
717 2 2 8 6 153 279 389
718 2 2 8 6 82 259 477
719 2 2 8 6 83 260 478
720 2 2 8 6 84 261 479
721 2 2 8 6 162 477 259
722 2 2 8 6 164 478 260
723 2 2 8 6 165 479 261
724 2 2 8 6 203 325 493
725 2 2 8 6 204 494 326
726 2 2 8 6 206 495 328
727 2 2 8 6 205 496 327
728 2 2 8 6 174 298 426
729 2 2 8 6 102 426 298
730 2 2 8 6 183 474 313
731 2 2 8 6 127 313 474
732 2 2 8 6 123 277 535
733 2 2 8 6 124 276 536
734 2 2 8 6 130 294 366
735 2 2 8 6 131 295 367
736 2 2 8 6 132 368 296
737 2 2 8 6 133 369 297
738 2 2 8 6 106 273 513
739 2 2 8 6 107 274 514
740 2 2 8 6 108 275 515
741 2 2 8 6 556 122 407
742 2 2 8 6 286 556 407
743 2 2 8 6 125 280 534
744 2 2 8 6 181 286 407
745 2 2 8 6 190 512 339
746 2 2 8 6 129 512 279
747 2 2 8 6 48 406 290
748 2 2 8 6 75 291 404
749 2 2 8 6 37 293 405
750 2 2 8 6 18 292 403
751 2 2 8 6 221 506 280
752 2 2 8 6 178 354 519
753 2 2 8 6 180 355 521
754 2 2 8 6 179 356 520
755 2 2 8 6 169 281 461
756 2 2 8 6 182 481 462
757 2 2 8 6 101 492 281
758 2 2 8 6 181 281 492
759 2 2 8 6 121 511 410
760 2 2 8 6 253 410 511
761 2 2 8 6 143 503 283
762 2 2 8 6 144 504 284
763 2 2 8 6 138 471 282
764 2 2 8 6 139 472 283
765 2 2 8 6 140 473 284
766 2 2 8 6 174 467 339
767 2 2 8 6 162 531 397
768 2 2 8 6 165 532 399
769 2 2 8 6 164 533 400
770 2 2 8 6 170 290 406
771 2 2 8 6 171 403 292
772 2 2 8 6 172 404 291
773 2 2 8 6 173 405 293
774 2 2 8 6 163 538 396
775 2 2 8 6 103 308 446
776 2 2 8 6 104 309 447
777 2 2 8 6 105 310 448
778 2 2 8 6 162 287 477
779 2 2 8 6 164 288 478
780 2 2 8 6 165 289 479
781 2 2 8 6 83 490 283
782 2 2 8 6 84 491 284
783 2 2 8 6 201 434 462
784 2 2 8 6 101 286 492
785 2 2 8 6 181 492 286
786 2 2 8 6 113 333 552
787 2 2 8 6 110 553 332
788 2 2 8 6 111 554 334
789 2 2 8 6 112 555 331
790 2 2 8 6 178 519 439
791 2 2 8 6 180 521 441
792 2 2 8 6 179 520 440
793 2 2 8 6 119 381 516
794 2 2 8 6 214 516 381
795 2 2 8 6 154 370 498
796 2 2 8 6 155 371 499
797 2 2 8 6 130 543 294
798 2 2 8 6 131 544 295
799 2 2 8 6 159 545 296
800 2 2 8 6 161 546 297
801 2 2 8 6 117 508 430
802 2 2 8 6 250 430 508
803 2 2 8 6 156 351 368
804 2 2 8 6 160 352 369
805 2 2 8 6 207 318 471
806 2 2 8 6 208 319 472
807 2 2 8 6 209 320 473
808 2 2 8 6 203 552 333
809 2 2 8 6 204 332 553
810 2 2 8 6 205 331 555
811 2 2 8 6 206 334 554
812 2 2 8 6 194 439 382
813 2 2 8 6 88 382 439
814 2 2 8 6 195 440 384
815 2 2 8 6 87 384 440
816 2 2 8 6 196 441 387
817 2 2 8 6 89 387 441
818 2 2 8 6 189 365 518
819 2 2 8 6 81 388 312
820 2 2 8 6 177 348 470
821 2 2 8 6 85 302 433
822 2 2 8 6 201 390 389
823 2 2 8 6 153 389 390
824 2 2 8 6 175 349 468
825 2 2 8 6 176 350 469
826 2 2 8 6 8 372 7
827 2 2 8 6 65 373 64
828 2 2 8 6 27 374 26
829 2 2 8 6 58 59 375
830 2 2 8 6 46 376 45
831 2 2 8 6 77 78 377
832 2 2 8 6 39 40 378
833 2 2 8 6 20 21 379
834 2 2 8 6 81 313 413
835 2 2 8 6 285 482 505
836 2 2 8 6 145 505 482
837 2 2 8 6 212 331 424
838 2 2 8 6 211 332 423
839 2 2 8 6 213 334 425
840 2 2 8 6 210 422 333
841 2 2 8 6 188 430 338
842 2 2 8 6 170 406 522
843 2 2 8 6 172 523 404
844 2 2 8 6 173 524 405
845 2 2 8 6 171 525 403
846 2 2 8 6 185 335 415
847 2 2 8 6 186 336 417
848 2 2 8 6 187 337 416
849 2 2 8 6 48 49 406
850 2 2 8 6 75 404 74
851 2 2 8 6 37 405 36
852 2 2 8 6 18 403 17
853 2 2 8 6 282 489 502
854 2 2 8 6 142 502 489
855 2 2 8 6 16 17 525
856 2 2 8 6 73 74 523
857 2 2 8 6 35 36 524
858 2 2 8 6 50 522 49
859 2 2 8 6 102 463 307
860 2 2 8 6 154 294 543
861 2 2 8 6 155 295 544
862 2 2 8 6 132 296 545
863 2 2 8 6 133 297 546
864 2 2 8 6 182 311 481
865 2 2 8 6 128 481 311
866 2 2 8 6 126 507 312
867 2 2 8 6 183 312 507
868 2 2 8 6 90 294 498
869 2 2 8 6 91 295 499
870 2 2 8 6 182 462 434
871 2 2 8 6 174 426 422
872 2 2 8 6 175 423 428
873 2 2 8 6 176 424 427
874 2 2 8 6 177 425 429
875 2 2 8 6 102 307 426
876 2 2 8 6 104 427 309
877 2 2 8 6 103 428 308
878 2 2 8 6 105 429 310
879 2 2 8 6 219 487 322
880 2 2 8 6 220 488 321
881 2 2 8 6 201 462 390
882 2 2 8 6 97 390 462
883 2 2 8 6 232 345 548
884 2 2 8 6 231 344 547
885 2 2 8 6 233 346 549
886 2 2 8 6 81 413 311
887 2 2 8 6 244 553 458
888 2 2 8 6 245 554 459
889 2 2 8 6 246 555 460
890 2 2 8 6 147 341 391
891 2 2 8 6 178 391 341
892 2 2 8 6 148 342 393
893 2 2 8 6 180 393 342
894 2 2 8 6 179 392 343
895 2 2 8 6 149 343 392
896 2 2 8 6 128 301 481
897 2 2 8 6 234 551 347
898 2 2 8 6 146 340 434
899 2 2 8 6 182 434 340
900 2 2 8 6 178 439 391
901 2 2 8 6 194 391 439
902 2 2 8 6 179 440 392
903 2 2 8 6 180 441 393
904 2 2 8 6 195 392 440
905 2 2 8 6 196 393 441
906 2 2 8 6 189 497 365
907 2 2 8 6 194 382 383
908 2 2 8 6 150 383 382
909 2 2 8 6 195 384 385
910 2 2 8 6 151 385 384
911 2 2 8 6 196 387 386
912 2 2 8 6 152 386 387
913 2 2 8 6 14 445 13
914 2 2 8 6 71 443 70
915 2 2 8 6 33 444 32
916 2 2 8 6 52 53 442
917 2 2 8 6 339 467 530
918 2 2 8 6 81 340 388
919 2 2 8 6 129 302 497
920 2 2 8 6 126 299 507
921 2 2 8 6 201 353 434
922 2 2 8 6 4 526 23
923 2 2 8 6 1 528 80
924 2 2 8 6 2 62 527
925 2 2 8 6 2 527 61
926 2 2 8 6 1 5 528
927 2 2 8 6 3 529 42
928 2 2 8 6 3 43 529
929 2 2 8 6 4 24 526
930 2 2 8 6 110 458 553
931 2 2 8 6 111 459 554
932 2 2 8 6 112 460 555
933 2 2 8 6 166 358 419
934 2 2 8 6 167 359 420
935 2 2 8 6 168 360 418
936 2 2 8 6 169 421 361
937 2 2 8 6 153 506 433
938 2 2 8 6 221 433 506
939 2 2 8 6 95 401 436
940 2 2 8 6 192 435 402
941 2 2 8 6 96 402 435
942 2 2 8 6 193 436 401
943 2 2 8 6 10 483 346
944 2 2 8 6 29 485 345
945 2 2 8 6 67 484 344
946 2 2 8 6 187 346 483
947 2 2 8 6 185 344 484
948 2 2 8 6 186 345 485
949 2 2 8 6 56 347 486
950 2 2 8 6 188 486 347
951 2 2 8 6 157 323 431
952 2 2 8 6 158 324 432
953 2 2 8 6 85 433 539
954 2 2 8 6 159 329 437
955 2 2 8 6 161 330 438
956 2 2 8 6 127 501 313
957 2 2 8 6 98 335 540
958 2 2 8 6 99 336 541
959 2 2 8 6 100 337 542
960 2 2 8 6 147 391 362
961 2 2 8 6 194 362 391
962 2 2 8 6 149 392 363
963 2 2 8 6 148 393 364
964 2 2 8 6 195 363 392
965 2 2 8 6 196 364 393
966 2 2 8 6 134 333 422
967 2 2 8 6 135 423 332
968 2 2 8 6 136 424 331
969 2 2 8 6 137 425 334
970 2 2 8 6 126 312 550
971 2 2 8 6 162 397 398
972 2 2 8 6 191 398 397
973 2 2 8 6 165 399 402
974 2 2 8 6 164 400 401
975 2 2 8 6 192 402 399
976 2 2 8 6 193 401 400
977 2 2 8 6 163 396 395
978 2 2 8 6 190 395 396
979 2 2 8 6 252 447 408
980 2 2 8 6 251 446 409
981 2 2 8 6 253 448 410
982 2 2 8 6 239 498 370
983 2 2 8 6 240 499 371
984 2 2 8 6 221 539 433
985 2 2 8 6 56 486 55
986 2 2 8 6 67 68 484
987 2 2 8 6 29 30 485
988 2 2 8 6 10 11 483
989 2 2 8 6 52 493 51
990 2 2 8 6 71 72 494
991 2 2 8 6 33 34 495
992 2 2 8 6 14 15 496
993 2 2 8 6 156 411 351
994 2 2 8 6 160 412 352
995 2 2 8 6 280 357 534
996 2 2 8 6 15 327 496
997 2 2 8 6 72 326 494
998 2 2 8 6 34 328 495
999 2 2 8 6 51 493 325
1000 2 2 8 6 263 321 488
1001 2 2 8 6 264 322 487
1002 2 2 8 6 146 434 353
1003 2 2 8 6 109 538 353
1004 2 2 8 6 197 482 539
1005 2 2 8 6 94 398 480
1006 2 2 8 6 191 480 398
1007 2 2 8 6 313 501 413
1008 2 2 8 6 188 347 551
1009 2 2 8 6 243 461 552
1010 2 2 8 6 113 552 461
1011 2 2 8 6 52 442 493
1012 2 2 8 6 203 493 442
1013 2 2 8 6 204 443 494
1014 2 2 8 6 206 444 495
1015 2 2 8 6 71 494 443
1016 2 2 8 6 33 495 444
1017 2 2 8 6 205 445 496
1018 2 2 8 6 14 496 445
1019 2 2 8 6 185 547 344
1020 2 2 8 6 186 548 345
1021 2 2 8 6 187 549 346
1022 2 2 8 6 106 531 362
1023 2 2 8 6 107 532 363
1024 2 2 8 6 108 533 364
1025 2 2 8 6 166 540 335
1026 2 2 8 6 168 542 337
1027 2 2 8 6 167 541 336
1028 2 2 8 6 190 339 530
1029 2 2 8 6 68 358 484
1030 2 2 8 6 30 359 485
1031 2 2 8 6 55 486 361
1032 2 2 8 6 11 360 483
1033 2 2 8 6 187 483 360
1034 2 2 8 6 185 484 358
1035 2 2 8 6 186 485 359
1036 2 2 8 6 188 361 486
1037 2 2 8 6 163 380 476
1038 2 2 8 6 192 474 435
1039 2 2 8 6 193 475 436
1040 2 2 8 6 87 520 469
1041 2 2 8 6 212 469 520
1042 2 2 8 6 211 468 519
1043 2 2 8 6 88 519 468
1044 2 2 8 6 213 470 521
1045 2 2 8 6 89 521 470
1046 2 2 8 6 170 463 381
1047 2 2 8 6 254 449 407
1048 2 2 8 6 153 390 506
1049 2 2 8 6 211 519 354
1050 2 2 8 6 212 520 356
1051 2 2 8 6 213 521 355
1052 2 2 8 6 184 413 501
1053 2 2 8 6 181 407 449
1054 2 2 8 6 172 409 446
1055 2 2 8 6 171 408 447
1056 2 2 8 6 173 410 448
1057 2 2 8 6 94 480 394
1058 2 2 8 6 202 394 480
1059 2 2 8 6 106 513 397
1060 2 2 8 6 191 397 513
1061 2 2 8 6 107 514 399
1062 2 2 8 6 192 399 514
1063 2 2 8 6 108 515 400
1064 2 2 8 6 193 400 515
1065 2 2 8 6 166 458 540
1066 2 2 8 6 168 460 542
1067 2 2 8 6 167 459 541
1068 2 2 8 6 256 540 458
1069 2 2 8 6 258 542 460
1070 2 2 8 6 257 541 459
1071 2 2 8 6 202 550 388
1072 2 2 8 6 312 388 550
1073 2 2 8 6 243 552 442
1074 2 2 8 6 203 442 552
1075 2 2 8 6 244 443 553
1076 2 2 8 6 245 444 554
1077 2 2 8 6 204 553 443
1078 2 2 8 6 206 554 444
1079 2 2 8 6 246 445 555
1080 2 2 8 6 205 555 445
1081 2 2 8 6 183 435 474
1082 2 2 8 6 184 436 475
1083 2 2 8 6 191 500 480
1084 2 2 8 6 202 480 500
1085 2 2 8 6 86 395 530
1086 2 2 8 6 190 530 395
1087 2 2 8 6 188 551 430
1088 2 2 8 6 185 415 547
1089 2 2 8 6 186 417 548
1090 2 2 8 6 187 416 549
1091 2 2 8 6 86 530 467
1092 2 2 8 6 49 522 406
1093 2 2 8 6 74 404 523
1094 2 2 8 6 36 405 524
1095 2 2 8 6 17 403 525
1096 2 2 8 6 88 439 519
1097 2 2 8 6 87 440 520
1098 2 2 8 6 89 441 521
1099 2 2 8 6 106 397 531
1100 2 2 8 6 107 399 532
1101 2 2 8 6 108 400 533
1102 2 2 8 6 109 396 538
1103 2 2 8 6 114 547 415
1104 2 2 8 6 115 548 417
1105 2 2 8 6 116 549 416
1106 2 2 8 6 117 430 551
1107 2 2 8 6 214 517 518
1108 2 2 8 6 189 518 517
1109 2 2 8 6 126 550 500
1110 2 2 8 6 202 500 550
$EndElements
