$MeshFormat
2.2 0 8
$EndMeshFormat
$Nodes
109
1 0 10 0
2 0 0 0
3 10 0 0
4 10 10 0
5 0 8.75 0
6 0 7.5 0
7 0 6.25 0
8 0 5 0
9 0 3.75 0
10 0 2.5 0
11 0 1.25 0
12 1.249999999998969 0 0
13 2.499999999995362 0 0
14 3.749999999991711 0 0
15 4.999999999992398 0 0
16 6.249999999994298 0 0
17 7.499999999996199 0 0
18 8.749999999998099 0 0
19 10 1.249999999998969 0
20 10 2.499999999995362 0
21 10 3.749999999991711 0
22 10 4.999999999992398 0
23 10 6.249999999994298 0
24 10 7.499999999996199 0
25 10 8.749999999998099 0
26 8.75 10 0
27 7.5 10 0
28 6.25 10 0
29 5 10 0
30 3.75 10 0
31 2.5 10 0
32 1.25 10 0
33 5.085045179576662 5.173787975656858 0
34 2.995765707965805 3.03136439497326 0
35 6.968635605026965 2.995765707966182 0
36 2.981299261368598 7.008787139054462 0
37 6.880804791167916 6.785255896460567 0
38 2.096535650707434 4.984442231378653 0
39 5.01320105670591 2.097343666220824 0
40 4.984442231378758 7.903464349292701 0
41 7.869392229780523 4.957440624148481 0
42 1.680679898365462 1.700961977199404 0
43 8.299038022800787 1.680679898365824 0
44 1.680679898365364 8.299038022800305 0
45 8.319320101634258 8.299038022800552 0
46 4.316109948871402 3.548812102952462 0
47 6.398809523809785 4.315476190476669 0
48 3.546679908285534 5.683270608328812 0
49 5.592929438878809 6.359523371713019 0
50 3.607654600302753 1.536710838181838 0
51 8.463289161818343 3.607654600302808 0
52 1.476553281976585 3.707210563238024 0
53 1.536710838181513 6.392345399698041 0
54 6.252574266267288 1.452624928746721 0
55 3.707392584507129 8.540771750810316 0
56 6.392345399697986 8.463289161818672 0
57 8.486407897092512 6.327028873276961 0
58 3.187148197740711 4.196514992706009 0
59 5.801083467659856 3.187248262461654 0
60 6.687021608343255 5.606304146112092 0
61 4.253657382326633 6.75251186372686 0
62 5.372059720513427 0.8759974756754675 0
63 0.9436412383540583 4.634210612263095 0
64 9.004088475281169 5.352792380308165 0
65 4.634236615301544 9.058833766329874 0
66 2.65288893525531 0.9937277967549699 0
67 9.006272203245087 2.652888935255442 0
68 1.09091076083179 2.606328333024964 0
69 0.9836094605874718 7.304090354364388 0
70 2.606328333025173 8.909089239168296 0
71 7.347111064742571 9.006272203244992 0
72 7.393671666975679 1.090910760831991 0
73 8.938023647432844 7.367519178338124 0
74 3.88639195726887 2.540450587740446 0
75 7.455090724357007 3.883455983146383 0
76 2.530804838191687 6.087361749816727 0
77 6.088377923603626 7.45005368428116 0
78 4.397641718771651 0.8487587908561256 0
79 9.13258061775128 4.413420597880401 0
80 0.8611262039801078 5.581396154894827 0
81 5.581398050159995 9.139054189947384 0
82 4.257139953805241 4.761983574842395 0
83 5.280986985902762 4.247705354472835 0
84 4.696649721425564 5.926235033294741 0
85 7.47981470952995 6.151704300182072 0
86 0.9711512445886178 0.9711512445888477 0
87 9.028848755410968 0.971151244588383 0
88 0.9711512445887437 9.028848755411257 0
89 9.028848755411492 9.028848755411071 0
90 2.803354162164834 2.101026448925905 0
91 7.89823043642387 2.802864833144628 0
92 2.773292598841395 7.920863709620024 0
93 7.171869234502563 7.86682764498345 0
94 2.055834512369695 2.802531761453043 0
95 7.190806392590656 2.075401154077066 0
96 2.056974070563049 7.176836064102226 0
97 7.87937339689334 7.13289565267362 0
98 5.900378956892553 5.068424493691746 0
99 2.42956079540703 3.667311641950784 0
100 6.300826768982583 2.404821709578857 0
101 3.667311641951444 7.570439204593125 0
102 1.810944015640744 0.7331682037086442 0
103 9.266831796291369 1.810944015640796 0
104 0.7485483807571739 1.805688310962643 0
105 0.727088120708316 8.176395426515191 0
106 1.801631895195856 9.247395203475973 0
107 8.189055984357664 9.266831796291322 0
108 8.194311689036345 0.7485483807572397 0
109 9.257238500895719 8.189081191308809 0
$EndNodes
$Elements
220
1 15 2 0 1 1
2 15 2 0 2 2
3 15 2 0 3 3
4 15 2 0 4 4
5 1 2 0 1 1 5
6 1 2 0 1 5 6
7 1 2 0 1 6 7
8 1 2 0 1 7 8
9 1 2 0 1 8 9
10 1 2 0 1 9 10
11 1 2 0 1 10 11
12 1 2 0 1 11 2
13 1 2 0 2 2 12
14 1 2 0 2 12 13
15 1 2 0 2 13 14
16 1 2 0 2 14 15
17 1 2 0 2 15 16
18 1 2 0 2 16 17
19 1 2 0 2 17 18
20 1 2 0 2 18 3
21 1 2 0 3 3 19
22 1 2 0 3 19 20
23 1 2 0 3 20 21
24 1 2 0 3 21 22
25 1 2 0 3 22 23
26 1 2 0 3 23 24
27 1 2 0 3 24 25
28 1 2 0 3 25 4
29 1 2 0 4 4 26
30 1 2 0 4 26 27
31 1 2 0 4 27 28
32 1 2 0 4 28 29
33 1 2 0 4 29 30
34 1 2 0 4 30 31
35 1 2 0 4 31 32
36 1 2 0 4 32 1
37 2 2 0 6 39 59 46
38 2 2 0 6 38 58 48
39 2 2 0 6 40 61 49
40 2 2 0 6 37 49 60
41 2 2 0 6 16 72 54
42 2 2 0 6 9 68 52
43 2 2 0 6 23 73 57
44 2 2 0 6 14 50 66
45 2 2 0 6 7 53 69
46 2 2 0 6 30 70 55
47 2 2 0 6 21 51 67
48 2 2 0 6 28 56 71
49 2 2 0 6 39 50 78
50 2 2 0 6 41 51 79
51 2 2 0 6 38 53 80
52 2 2 0 6 40 56 81
53 2 2 0 6 9 52 63
54 2 2 0 6 30 55 65
55 2 2 0 6 16 54 62
56 2 2 0 6 23 57 64
57 2 2 0 6 37 60 85
58 2 2 0 6 34 46 58
59 2 2 0 6 35 47 59
60 2 2 0 6 36 48 61
61 2 2 0 6 41 60 47
62 2 2 0 6 48 58 82
63 2 2 0 6 46 59 83
64 2 2 0 6 49 61 84
65 2 2 0 6 16 17 72
66 2 2 0 6 23 24 73
67 2 2 0 6 9 10 68
68 2 2 0 6 30 31 70
69 2 2 0 6 6 7 69
70 2 2 0 6 27 28 71
71 2 2 0 6 13 14 66
72 2 2 0 6 20 21 67
73 2 2 0 6 33 49 84
74 2 2 0 6 98 49 33
75 2 2 0 6 14 78 50
76 2 2 0 6 21 79 51
77 2 2 0 6 7 80 53
78 2 2 0 6 28 81 56
79 2 2 0 6 34 74 46
80 2 2 0 6 35 75 47
81 2 2 0 6 38 48 76
82 2 2 0 6 40 49 77
83 2 2 0 6 39 46 74
84 2 2 0 6 41 47 75
85 2 2 0 6 36 76 48
86 2 2 0 6 37 77 49
87 2 2 0 6 38 52 99
88 2 2 0 6 39 54 100
89 2 2 0 6 40 55 101
90 2 2 0 6 38 63 52
91 2 2 0 6 39 62 54
92 2 2 0 6 40 65 55
93 2 2 0 6 41 64 57
94 2 2 0 6 41 57 85
95 2 2 0 6 39 74 50
96 2 2 0 6 41 75 51
97 2 2 0 6 38 76 53
98 2 2 0 6 40 77 56
99 2 2 0 6 39 78 62
100 2 2 0 6 41 79 64
101 2 2 0 6 38 80 63
102 2 2 0 6 40 81 65
103 2 2 0 6 56 77 93
104 2 2 0 6 37 93 77
105 2 2 0 6 50 74 90
106 2 2 0 6 51 75 91
107 2 2 0 6 8 9 63
108 2 2 0 6 29 30 65
109 2 2 0 6 15 16 62
110 2 2 0 6 22 23 64
111 2 2 0 6 34 90 74
112 2 2 0 6 35 91 75
113 2 2 0 6 46 83 82
114 2 2 0 6 48 82 84
115 2 2 0 6 33 82 83
116 2 2 0 6 33 84 82
117 2 2 0 6 2 12 86
118 2 2 0 6 3 19 87
119 2 2 0 6 2 86 11
120 2 2 0 6 3 87 18
121 2 2 0 6 1 5 88
122 2 2 0 6 1 88 32
123 2 2 0 6 4 26 89
124 2 2 0 6 4 89 25
125 2 2 0 6 38 99 58
126 2 2 0 6 39 100 59
127 2 2 0 6 40 101 61
128 2 2 0 6 49 98 60
129 2 2 0 6 41 85 60
130 2 2 0 6 46 82 58
131 2 2 0 6 47 83 59
132 2 2 0 6 48 84 61
133 2 2 0 6 36 96 76
134 2 2 0 6 53 76 96
135 2 2 0 6 47 98 83
136 2 2 0 6 14 15 78
137 2 2 0 6 21 22 79
138 2 2 0 6 7 8 80
139 2 2 0 6 28 29 81
140 2 2 0 6 34 58 99
141 2 2 0 6 35 59 100
142 2 2 0 6 36 61 101
143 2 2 0 6 47 60 98
144 2 2 0 6 55 92 101
145 2 2 0 6 33 83 98
146 2 2 0 6 17 18 108
147 2 2 0 6 10 11 104
148 2 2 0 6 24 25 109
149 2 2 0 6 5 6 105
150 2 2 0 6 31 32 106
151 2 2 0 6 12 13 102
152 2 2 0 6 26 27 107
153 2 2 0 6 19 20 103
154 2 2 0 6 8 63 80
155 2 2 0 6 29 65 81
156 2 2 0 6 15 62 78
157 2 2 0 6 22 64 79
158 2 2 0 6 50 90 66
159 2 2 0 6 51 91 67
160 2 2 0 6 55 70 92
161 2 2 0 6 56 93 71
162 2 2 0 6 42 94 68
163 2 2 0 6 44 69 96
164 2 2 0 6 43 95 72
165 2 2 0 6 45 97 73
166 2 2 0 6 37 85 97
167 2 2 0 6 57 97 85
168 2 2 0 6 42 90 94
169 2 2 0 6 44 96 92
170 2 2 0 6 43 91 95
171 2 2 0 6 45 93 97
172 2 2 0 6 36 101 92
173 2 2 0 6 42 102 66
174 2 2 0 6 43 103 67
175 2 2 0 6 42 68 104
176 2 2 0 6 44 105 69
177 2 2 0 6 44 70 106
178 2 2 0 6 45 107 71
179 2 2 0 6 43 72 108
180 2 2 0 6 45 73 109
181 2 2 0 6 42 66 90
182 2 2 0 6 43 67 91
183 2 2 0 6 44 92 70
184 2 2 0 6 45 71 93
185 2 2 0 6 13 66 102
186 2 2 0 6 20 67 103
187 2 2 0 6 10 104 68
188 2 2 0 6 6 69 105
189 2 2 0 6 31 106 70
190 2 2 0 6 27 71 107
191 2 2 0 6 17 108 72
192 2 2 0 6 24 109 73
193 2 2 0 6 52 68 94
194 2 2 0 6 53 96 69
195 2 2 0 6 54 72 95
196 2 2 0 6 57 73 97
197 2 2 0 6 42 86 102
198 2 2 0 6 43 87 103
199 2 2 0 6 42 104 86
200 2 2 0 6 44 88 105
201 2 2 0 6 44 106 88
202 2 2 0 6 43 108 87
203 2 2 0 6 45 89 107
204 2 2 0 6 45 109 89
205 2 2 0 6 34 94 90
206 2 2 0 6 35 95 91
207 2 2 0 6 36 92 96
208 2 2 0 6 37 97 93
209 2 2 0 6 12 102 86
210 2 2 0 6 19 103 87
211 2 2 0 6 11 86 104
212 2 2 0 6 5 105 88
213 2 2 0 6 32 88 106
214 2 2 0 6 26 107 89
215 2 2 0 6 18 87 108
216 2 2 0 6 25 89 109
217 2 2 0 6 34 99 94
218 2 2 0 6 52 94 99
219 2 2 0 6 35 100 95
220 2 2 0 6 54 95 100
$EndElements
