$MeshFormat
2.2 0 8
$EndMeshFormat
$Nodes
189
1 0 0 0
2 0 40 0
3 65 40 0
4 65 -5.1525 0
5 10 0 0
6 0 35 0
7 0 30 0
8 0 25 0
9 0 20 0
10 0 15 0
11 0 10 0
12 0 5 0
13 4.999999999992398 0 0
14 14.5833333333226 -0.429374999998994 0
15 19.16666666664518 -0.8587499999979871 0
16 23.74999999996773 -1.288124999996977 0
17 28.33333333329029 -1.717499999995968 0
18 32.91666666660784 -2.146874999994488 0
19 37.49999999990241 -2.576249999990858 0
20 42.08333333325315 -3.005624999992488 0
21 46.66666666660529 -3.43499999999425 0
22 51.24999999995741 -3.86437499999601 0
23 55.83333333330953 -4.29374999999777 0
24 60.41666666666165 -4.723124999999531 0
25 65 -0.6372500000091801 0
26 65 3.877999999979179 0
27 65 8.393249999965036 0
28 65 12.90849999995201 0
29 65 17.42374999993746 0
30 65 21.9389999999476 0
31 65 26.45424999995802 0
32 65 30.96949999996387 0
33 65 35.48474999998332 0
34 59.99999999999295 40 0
35 54.99999999999424 40 0
36 49.99999999999552 40 0
37 44.9999999999968 40 0
38 39.99999999999808 40 0
39 34.99999999999936 40 0
40 30.00000000000064 40 0
41 25.00000000000193 40 0
42 20.0000000000032 40 0
43 15.00000000000449 40 0
44 10.00000000000577 40 0
45 5.000000000007049 40 0
46 43.32970190292463 18.50263348469426 0
47 22.78114904054425 18.6364588688876 0
48 52.28936138260712 9.019048687060303 0
49 33.2584838506607 10.70189581246524 0
50 33.54806461173204 27.00814493650947 0
51 12.74490571777438 26.43570491653686 0
52 52.55325934438098 27.43380900631507 0
53 11.95213556128613 12.90909758991301 0
54 22.37967166816617 8.761323958961109 0
55 23.27234243387561 29.41273893852196 0
56 42.43163793748307 6.91307475423627 0
57 55.27186224127109 18.22379810875532 0
58 42.87037012665321 30.33400721146291 0
59 32.64536998675612 18.62337282302616 0
60 8.31182218443076 19.78039565195976 0
61 56.9937629088139 3.373579509135279 0
62 57.70006334321255 32.62237765868157 0
63 8.320032380545786 32.62504651625803 0
64 16.42311266400381 20.11808011200456 0
65 7.684432271351556 6.877657578539907 0
66 28.55232104929382 6.189988990451139 0
67 35.93302369281113 4.201222970537941 0
68 58.53682370654525 24.14457552553818 0
69 48.28136527031172 3.266474076141156 0
70 58.32700160318431 12.15918842574119 0
71 15.67453659621999 6.902466497065555 0
72 15.80838032576777 32.63823008618867 0
73 29.51897388870439 32.74935456567191 0
74 49.28708908531715 15.17053787056332 0
75 39.58120888538584 13.01089124976884 0
76 36.57679193514628 33.2467221375986 0
77 39.25482223123412 24.60414305157754 0
78 27.44946556625997 13.48848954679301 0
79 27.40513255601358 23.98941091167339 0
80 49.36129268719898 21.54880752996418 0
81 49.49561185014593 33.97766148420559 0
82 5.388858497557648 25.65562277353252 0
83 20.25528845905857 24.57863146342329 0
84 6.095731727552667 13.15016886505063 0
85 18.46794947919183 13.48955354292589 0
86 36.8647473910184 18.64693074922179 0
87 46.05807482753334 9.666637734742178 0
88 46.09352354268323 27.55843246410645 0
89 22.56052818117903 36.20117334686235 0
90 40.20660136262918 1.629233360582469 0
91 21.89398958153381 3.576944577150364 0
92 60.27177744527158 19.49456483087237 0
93 52.50244582205559 1.071799703196481 0
94 59.46463040065693 7.853275205023481 0
95 60.92926931948371 28.3509549153131 0
96 12.259859744206 35.50159881819893 0
97 42.46330075463261 35.60932772465593 0
98 53.91626768004777 22.88119686383992 0
99 37.75922871066665 8.652392335218343 0
100 53.70384750306803 13.53677530232279 0
101 53.65628980302324 35.53260183359055 0
102 60.42725779777781 -0.1213893140619321 0
103 12.01848015838889 4.090317871135057 0
104 35.11665626697523 22.28871822858936 0
105 38.33725783627596 29.20101813171077 0
106 4.18693338911057 16.9917408208885 0
107 44.8058372402426 14.19178044704516 0
108 35.05757886582522 15.08446398947964 0
109 31.68464831493651 2.226667146846704 0
110 17.54892446876645 28.32964564618616 0
111 12.47843048839705 22.32041607609241 0
112 45.07138654200892 0.3057883815283935 0
113 61.30719327528264 15.16612499994473 0
114 44.83581636413988 22.86099050559783 0
115 23.33466117252105 14.18879774052051 0
116 28.53710663066735 28.17971514118371 0
117 4.487177624936964 21.81459591495896 0
118 12.0804146097257 17.72313012112157 0
119 32.70136840207245 35.79410436226507 0
120 26.63669112115637 9.163222704973247 0
121 55.92132465822259 7.206811849425029 0
122 27.34899971965866 18.71038122884945 0
123 60.75560723871545 35.81070702891914 0
124 26.00401159591336 2.34007186835887 0
125 56.52272816133912 27.82835151778001 0
126 4.344543898859866 35.65545610114106 0
127 32.5902258418709 6.781720605202684 0
128 52.57376564519988 5.166349351892645 0
129 17.11948396468494 3.224739473014972 0
130 27.58394990648607 36.18121816880635 0
131 4.205258120018758 4.205258120019966 0
132 4.101929869797909 29.99072727142476 0
133 11.72714719187686 30.83742458710885 0
134 18.20984645601558 9.120178740196076 0
135 4.227740283996563 8.913463170515186 0
136 61.1466746180342 3.720280092082428 0
137 12.13954449798142 8.512760923597529 0
138 53.56956358653426 31.22450736085715 0
139 19.45759453655715 17.13428108523771 0
140 48.88370325023355 -0.5227095275480773 0
141 56.59368260321179 -0.5157015728850034 0
142 23.81659007647765 22.14572767009695 0
143 61.81976505582478 11.29606772612529 0
144 51.39456874483247 18.38206428913773 0
145 33.14319069403614 31.05919203093729 0
146 46.12404137147109 6.305005581355715 0
147 47.16905100410928 18.44280235450041 0
148 30.57267825557291 15.19429913553157 0
149 25.09333700321271 6.006310419978946 0
150 35.47844081558468 0.5216808824672582 0
151 8.842979906260885 10.68448661056363 0
152 8.237278573328201 36.44136889548136 0
153 15.89013235960005 24.35649564284866 0
154 46.4669179013326 36.49210389721497 0
155 7.781634109950321 3.034646713938986 0
156 62.06050568588532 24.13542298687784 0
157 30.99905679697567 22.64982363940692 0
158 17.59641849118821 36.48275125066154 0
159 61.64778655141644 32.34685987380304 0
160 57.30999992094377 36.73126756333716 0
161 42.42275399194084 10.62404783078297 0
162 42.80102763228497 26.54457473046369 0
163 37.61530680814121 36.73381544002957 0
164 57.74819849315386 15.62646888127733 0
165 49.51235535071101 29.68874374597482 0
166 25.722828966958 32.34267673803875 0
167 15.08048041525116 15.03233889983972 0
168 40.54324130865115 20.67489333452758 0
169 8.480670548372792 15.48420302525061 0
170 19.26167886647617 6.1580492763152 0
171 39.4123996552074 5.190729393354064 0
172 40.25914865507735 16.58816314912322 0
173 29.71454428311442 10.9354777983419 0
174 20.41823714462251 32.5678693344099 0
175 49.26642397799277 11.4408603880219 0
176 56.99918276828392 21.18603383225145 0
177 39.8588151437119 32.8789104408923 0
178 8.833403332516685 23.98382235633205 0
179 43.58790535651856 3.935050924533011 0
180 46.1503465876931 32.27671275460344 0
181 55.28655961658299 10.48494316084913 0
182 49.3787524948603 25.32866335263304 0
183 36.4141250781346 11.86241084673301 0
184 20.54674695532829 20.52263583993003 0
185 24.66585519288278 25.82271183747419 0
186 9.043385694422479 28.07912019876574 0
187 2.713990574383934 12.68929731146986 0
188 15.25408216765768 10.99439936558963 0
189 49.3247802273897 7.212355203114586 0
$EndNodes
$Elements
376
1 1 2 1 1 2 6
2 1 2 1 1 6 7
3 1 2 1 1 7 8
4 1 2 1 1 8 9
5 1 2 1 1 9 10
6 1 2 1 1 10 11
7 1 2 1 1 11 12
8 1 2 1 1 12 1
9 1 2 2 2 1 13
10 1 2 2 2 13 5
11 1 2 2 3 5 14
12 1 2 2 3 14 15
13 1 2 2 3 15 16
14 1 2 2 3 16 17
15 1 2 2 3 17 18
16 1 2 2 3 18 19
17 1 2 2 3 19 20
18 1 2 2 3 20 21
19 1 2 2 3 21 22
20 1 2 2 3 22 23
21 1 2 2 3 23 24
22 1 2 2 3 24 4
23 1 2 3 4 4 25
24 1 2 3 4 25 26
25 1 2 3 4 26 27
26 1 2 3 4 27 28
27 1 2 3 4 28 29
28 1 2 3 4 29 30
29 1 2 3 4 30 31
30 1 2 3 4 31 32
31 1 2 3 4 32 33
32 1 2 3 4 33 3
33 1 2 4 5 3 34
34 1 2 4 5 34 35
35 1 2 4 5 35 36
36 1 2 4 5 36 37
37 1 2 4 5 37 38
38 1 2 4 5 38 39
39 1 2 4 5 39 40
40 1 2 4 5 40 41
41 1 2 4 5 41 42
42 1 2 4 5 42 43
43 1 2 4 5 43 44
44 1 2 4 5 44 45
45 1 2 4 5 45 2
46 2 2 12 7 50 104 77
47 2 2 12 7 79 142 122
48 2 2 12 7 50 77 105
49 2 2 12 7 36 81 101
50 2 2 12 7 54 120 115
51 2 2 12 7 72 133 110
52 2 2 12 7 8 82 132
53 2 2 12 7 6 132 126
54 2 2 12 7 78 115 120
55 2 2 12 7 22 23 141
56 2 2 12 7 47 122 142
57 2 2 12 7 93 22 141
58 2 2 12 7 36 154 81
59 2 2 12 7 51 110 133
60 2 2 12 7 6 7 132
61 2 2 12 7 79 122 157
62 2 2 12 7 87 175 107
63 2 2 12 7 4 25 24
64 2 2 12 7 55 110 83
65 2 2 12 7 24 25 102
66 2 2 12 7 54 115 85
67 2 2 12 7 17 109 124
68 2 2 12 7 26 27 136
69 2 2 12 7 8 117 82
70 2 2 12 7 14 129 103
71 2 2 12 7 27 94 136
72 2 2 12 7 175 74 107
73 2 2 12 7 184 83 64
74 2 2 12 7 88 165 180
75 2 2 12 7 75 172 108
76 2 2 12 7 58 88 180
77 2 2 12 7 54 85 134
78 2 2 12 7 86 108 172
79 2 2 12 7 83 153 64
80 2 2 12 7 55 83 185
81 2 2 12 7 3 123 33
82 2 2 12 7 40 130 119
83 2 2 12 7 88 114 182
84 2 2 12 7 19 20 90
85 2 2 12 7 25 26 136
86 2 2 12 7 66 124 109
87 2 2 12 7 182 114 80
88 2 2 12 7 29 30 92
89 2 2 12 7 25 136 102
90 2 2 12 7 5 14 103
91 2 2 12 7 7 8 132
92 2 2 12 7 3 34 123
93 2 2 12 7 71 103 129
94 2 2 12 7 59 157 122
95 2 2 12 7 73 119 130
96 2 2 12 7 59 86 104
97 2 2 12 7 50 116 157
98 2 2 12 7 75 108 183
99 2 2 12 7 41 42 89
100 2 2 12 7 15 16 91
101 2 2 12 7 61 128 93
102 2 2 12 7 49 127 99
103 2 2 12 7 59 108 86
104 2 2 12 7 66 127 173
105 2 2 12 7 77 104 168
106 2 2 12 7 19 90 150
107 2 2 12 7 181 121 94
108 2 2 12 7 12 131 135
109 2 2 12 7 70 181 94
110 2 2 12 7 24 102 141
111 2 2 12 7 86 168 104
112 2 2 12 7 2 126 45
113 2 2 12 7 2 6 126
114 2 2 12 7 72 96 133
115 2 2 12 7 23 24 141
116 2 2 12 7 67 99 127
117 2 2 12 7 55 116 166
118 2 2 12 7 43 44 96
119 2 2 12 7 30 156 92
120 2 2 12 7 53 169 151
121 2 2 12 7 35 36 101
122 2 2 12 7 61 121 128
123 2 2 12 7 68 125 98
124 2 2 12 7 11 12 135
125 2 2 12 7 55 185 116
126 2 2 12 7 79 157 116
127 2 2 12 7 52 98 125
128 2 2 12 7 74 147 107
129 2 2 12 7 31 32 95
130 2 2 12 7 57 144 100
131 2 2 12 7 43 96 158
132 2 2 12 7 158 72 174
133 2 2 12 7 89 158 174
134 2 2 12 7 80 114 147
135 2 2 12 7 67 150 90
136 2 2 12 7 78 122 115
137 2 2 12 7 1 13 131
138 2 2 12 7 1 131 12
139 2 2 12 7 66 173 120
140 2 2 12 7 47 115 122
141 2 2 12 7 17 18 109
142 2 2 12 7 50 105 145
143 2 2 12 7 68 92 156
144 2 2 12 7 63 126 132
145 2 2 12 7 74 100 144
146 2 2 12 7 72 158 96
147 2 2 12 7 20 112 90
148 2 2 12 7 63 132 186
149 2 2 12 7 37 38 97
150 2 2 12 7 62 125 95
151 2 2 12 7 42 158 89
152 2 2 12 7 15 91 129
153 2 2 12 7 55 174 110
154 2 2 12 7 29 92 113
155 2 2 12 7 76 145 105
156 2 2 12 7 46 147 114
157 2 2 12 7 56 87 161
158 2 2 12 7 56 146 87
159 2 2 12 7 64 111 118
160 2 2 12 7 46 107 147
161 2 2 12 7 84 151 169
162 2 2 12 7 60 118 111
163 2 2 12 7 81 138 101
164 2 2 12 7 81 165 138
165 2 2 12 7 53 118 169
166 2 2 12 7 57 98 144
167 2 2 12 7 16 124 91
168 2 2 12 7 31 95 156
169 2 2 12 7 80 144 98
170 2 2 12 7 9 10 106
171 2 2 12 7 41 89 130
172 2 2 12 7 68 156 95
173 2 2 12 7 49 108 148
174 2 2 12 7 82 186 132
175 2 2 12 7 61 94 121
176 2 2 12 7 58 162 88
177 2 2 12 7 57 164 92
178 2 2 12 7 67 90 171
179 2 2 12 7 16 17 124
180 2 2 12 7 38 163 97
181 2 2 12 7 20 21 112
182 2 2 12 7 56 161 99
183 2 2 12 7 40 41 130
184 2 2 12 7 39 40 119
185 2 2 12 7 8 9 117
186 2 2 12 7 60 117 106
187 2 2 12 7 57 100 164
188 2 2 12 7 69 93 128
189 2 2 12 7 65 103 137
190 2 2 12 7 61 93 141
191 2 2 12 7 75 99 161
192 2 2 12 7 28 29 113
193 2 2 12 7 27 143 94
194 2 2 12 7 64 153 111
195 2 2 12 7 54 91 149
196 2 2 12 7 54 170 91
197 2 2 12 7 49 148 173
198 2 2 12 7 68 176 92
199 2 2 12 7 22 93 140
200 2 2 12 7 97 163 177
201 2 2 12 7 68 95 125
202 2 2 12 7 57 92 176
203 2 2 12 7 62 138 125
204 2 2 12 7 36 37 154
205 2 2 12 7 69 140 93
206 2 2 12 7 61 136 94
207 2 2 12 7 83 142 185
208 2 2 12 7 51 178 111
209 2 2 12 7 70 94 143
210 2 2 12 7 32 33 159
211 2 2 12 7 73 166 116
212 2 2 12 7 50 157 104
213 2 2 12 7 63 133 96
214 2 2 12 7 60 178 117
215 2 2 12 7 49 173 127
216 2 2 12 7 77 162 105
217 2 2 12 7 49 99 183
218 2 2 12 7 70 164 100
219 2 2 12 7 58 105 162
220 2 2 12 7 10 187 106
221 2 2 12 7 9 106 117
222 2 2 12 7 84 106 187
223 2 2 12 7 65 135 131
224 2 2 12 7 51 186 178
225 2 2 12 7 67 127 109
226 2 2 12 7 66 109 127
227 2 2 12 7 21 140 112
228 2 2 12 7 32 159 95
229 2 2 12 7 63 96 152
230 2 2 12 7 69 112 140
231 2 2 12 7 5 155 13
232 2 2 12 7 62 95 159
233 2 2 12 7 90 179 171
234 2 2 12 7 52 182 98
235 2 2 12 7 44 152 96
236 2 2 12 7 64 167 139
237 2 2 12 7 44 45 152
238 2 2 12 7 56 171 179
239 2 2 12 7 82 117 178
240 2 2 12 7 89 174 166
241 2 2 12 7 48 128 121
242 2 2 12 7 85 139 167
243 2 2 12 7 28 113 143
244 2 2 12 7 76 119 145
245 2 2 12 7 73 145 119
246 2 2 12 7 34 35 160
247 2 2 12 7 33 123 159
248 2 2 12 7 55 166 174
249 2 2 12 7 70 143 113
250 2 2 12 7 80 98 182
251 2 2 12 7 65 137 151
252 2 2 12 7 50 145 116
253 2 2 12 7 14 15 129
254 2 2 12 7 27 28 143
255 2 2 12 7 62 101 138
256 2 2 12 7 79 116 185
257 2 2 12 7 73 116 145
258 2 2 12 7 91 170 129
259 2 2 12 7 52 138 165
260 2 2 12 7 58 180 97
261 2 2 12 7 61 102 136
262 2 2 12 7 92 164 113
263 2 2 12 7 58 97 177
264 2 2 12 7 37 97 154
265 2 2 12 7 21 22 140
266 2 2 12 7 87 107 161
267 2 2 12 7 85 167 188
268 2 2 12 7 71 137 103
269 2 2 12 7 61 141 102
270 2 2 12 7 63 186 133
271 2 2 12 7 84 135 151
272 2 2 12 7 65 151 135
273 2 2 12 7 48 100 175
274 2 2 12 7 68 98 176
275 2 2 12 7 81 180 165
276 2 2 12 7 85 115 139
277 2 2 12 7 47 139 115
278 2 2 12 7 57 176 98
279 2 2 12 7 74 175 100
280 2 2 12 7 75 183 99
281 2 2 12 7 75 107 172
282 2 2 12 7 76 163 119
283 2 2 12 7 83 110 153
284 2 2 12 7 72 110 174
285 2 2 12 7 62 160 101
286 2 2 12 7 46 172 107
287 2 2 12 7 87 189 175
288 2 2 12 7 56 99 171
289 2 2 12 7 18 150 109
290 2 2 12 7 39 119 163
291 2 2 12 7 76 177 163
292 2 2 12 7 5 103 155
293 2 2 12 7 51 153 110
294 2 2 12 7 67 171 99
295 2 2 12 7 69 179 112
296 2 2 12 7 45 126 152
297 2 2 12 7 67 109 150
298 2 2 12 7 18 19 150
299 2 2 12 7 35 101 160
300 2 2 12 7 42 43 158
301 2 2 12 7 30 31 156
302 2 2 12 7 58 177 105
303 2 2 12 7 60 106 169
304 2 2 12 7 84 169 106
305 2 2 12 7 64 139 184
306 2 2 12 7 70 100 181
307 2 2 12 7 46 114 168
308 2 2 12 7 38 39 163
309 2 2 12 7 76 105 177
310 2 2 12 7 48 181 100
311 2 2 12 7 77 168 114
312 2 2 12 7 52 125 138
313 2 2 12 7 59 104 157
314 2 2 12 7 88 162 114
315 2 2 12 7 59 148 108
316 2 2 12 7 65 155 103
317 2 2 12 7 10 11 187
318 2 2 12 7 34 160 123
319 2 2 12 7 75 161 107
320 2 2 12 7 48 175 189
321 2 2 12 7 51 111 153
322 2 2 12 7 90 112 179
323 2 2 12 7 64 118 167
324 2 2 12 7 85 188 134
325 2 2 12 7 13 155 131
326 2 2 12 7 78 148 122
327 2 2 12 7 70 113 164
328 2 2 12 7 77 114 162
329 2 2 12 7 59 122 148
330 2 2 12 7 66 120 149
331 2 2 12 7 49 183 108
332 2 2 12 7 52 165 182
333 2 2 12 7 53 188 167
334 2 2 12 7 88 182 165
335 2 2 12 7 54 149 120
336 2 2 12 7 69 146 179
337 2 2 12 7 60 111 178
338 2 2 12 7 66 149 124
339 2 2 12 7 53 167 118
340 2 2 12 7 91 124 149
341 2 2 12 7 62 159 123
342 2 2 12 7 78 173 148
343 2 2 12 7 71 129 170
344 2 2 12 7 74 144 147
345 2 2 12 7 80 147 144
346 2 2 12 7 63 152 126
347 2 2 12 7 60 169 118
348 2 2 12 7 89 166 130
349 2 2 12 7 62 123 160
350 2 2 12 7 54 134 170
351 2 2 12 7 53 151 137
352 2 2 12 7 69 128 189
353 2 2 12 7 65 131 155
354 2 2 12 7 78 120 173
355 2 2 12 7 71 134 188
356 2 2 12 7 87 146 189
357 2 2 12 7 71 188 137
358 2 2 12 7 73 130 166
359 2 2 12 7 48 121 181
360 2 2 12 7 82 178 186
361 2 2 12 7 86 172 168
362 2 2 12 7 46 168 172
363 2 2 12 7 69 189 146
364 2 2 12 7 47 142 184
365 2 2 12 7 71 170 134
366 2 2 12 7 83 184 142
367 2 2 12 7 48 189 128
368 2 2 12 7 51 133 186
369 2 2 12 7 97 180 154
370 2 2 12 7 11 135 187
371 2 2 12 7 84 187 135
372 2 2 12 7 47 184 139
373 2 2 12 7 79 185 142
374 2 2 12 7 56 179 146
375 2 2 12 7 53 137 188
376 2 2 12 7 81 154 180
$EndElements
