$MeshFormat
2.2 0 8
$EndMeshFormat
$Nodes
145
1 -1 -1 0
2 1 -1 0
3 1 1 0
4 -1 1 0
5 -0.8000000000005548 -1 0
6 -0.6000000000011096 -1 0
7 -0.4000000000016644 -1 0
8 -0.2000000000022192 -1 0
9 -2.752242878045763e-12 -1 0
10 0.1999999999977808 -1 0
11 0.3999999999983355 -1 0
12 0.5999999999988903 -1 0
13 0.7999999999994454 -1 0
14 1 -0.8000000000005548 0
15 1 -0.6000000000011096 0
16 1 -0.4000000000016644 0
17 1 -0.2000000000022192 0
18 1 -2.752242878045763e-12 0
19 1 0.1999999999977808 0
20 1 0.3999999999983355 0
21 1 0.5999999999988903 0
22 1 0.7999999999994454 0
23 0.8000000000005548 1 0
24 0.6000000000011096 1 0
25 0.4000000000016644 1 0
26 0.2000000000022192 1 0
27 2.752242878045763e-12 1 0
28 -0.1999999999977808 1 0
29 -0.3999999999983355 1 0
30 -0.5999999999988903 1 0
31 -0.7999999999994454 1 0
32 -1 0.8000000000005548 0
33 -1 0.6000000000011096 0
34 -1 0.4000000000016644 0
35 -1 0.2000000000022192 0
36 -1 2.752242878045763e-12 0
37 -1 -0.1999999999977808 0
38 -1 -0.3999999999983355 0
39 -1 -0.5999999999988903 0
40 -1 -0.7999999999994454 0
41 0 0 0
42 -0.4372788789595108 -0.4039390019937066 0
43 0.4039390019937064 -0.4372788789595107 0
44 0.4372788789595107 0.4039390019937064 0
45 -0.4039390019937064 0.4372788789595107 0
46 -0.5785278205370697 -0.01366608874962949 0
47 0.01366608874962949 -0.5785278205370697 0
48 0.5785278205370697 0.01366608874962949 0
49 -0.01366608874962949 0.5785278205370697 0
50 0.6589947089945454 -0.6589947089948727 0
51 0.6589947089948727 0.6589947089945454 0
52 -0.6589947089945454 0.6589947089948727 0
53 -0.6589947089948728 -0.6589947089945454 0
54 -0.2814202252786888 -0.6977321381678248 0
55 0.6977321381678248 -0.2814202252786888 0
56 0.2814202252786888 0.6977321381678248 0
57 -0.6977321381678248 0.2814202252786888 0
58 0.2814202252787869 -0.697732138168534 0
59 0.697732138168534 0.2814202252787869 0
60 -0.2814202252787869 0.697732138168534 0
61 -0.697732138168534 -0.2814202252787869 0
62 -0.2721278938901983 -0.1440217421688268 0
63 0.1440217421688268 -0.2721278938901983 0
64 0.2721278938901983 0.1440217421688268 0
65 -0.1440217421688268 0.2721278938901983 0
66 -0.1368255639726933 -0.3190557263976983 0
67 0.3190557263976983 -0.1368255639726933 0
68 0.1368255639726933 0.3190557263976983 0
69 -0.3190557263976983 0.1368255639726933 0
70 0.07612173295006534 -0.7811999013257276 0
71 0.7811999013257277 0.07612173295006534 0
72 -0.07612173295006534 0.7811999013257276 0
73 -0.7811999013257277 -0.07612173295006534 0
74 -0.4781472062882752 -0.8046697284260049 0
75 0.8046697284260049 -0.4781472062882752 0
76 0.4781472062882752 0.8046697284260049 0
77 -0.8046697284260049 0.4781472062882752 0
78 -0.8012188592892446 -0.4805971939633505 0
79 0.4805971939633505 -0.8012188592892444 0
80 0.8012188592892444 0.4805971939633505 0
81 -0.4805971939633505 0.8012188592892444 0
82 -0.4905659434367167 -0.2082412498478897 0
83 0.2082412498478897 -0.4905659434367167 0
84 0.4905659434367167 0.2082412498478897 0
85 -0.2082412498478897 0.4905659434367167 0
86 -0.2101231866876496 -0.4957114373761577 0
87 0.4957114373761576 -0.2101231866876496 0
88 0.2101231866876496 0.4957114373761577 0
89 -0.4957114373761576 0.2101231866876496 0
90 -0.8002437869891227 -0.8002437869891212 0
91 0.8002437869891211 -0.8002437869891224 0
92 0.8002437869891224 0.8002437869891211 0
93 -0.8002437869891211 0.8002437869891224 0
94 -0.1386504323299071 -0.8336503680977141 0
95 0.8336503680977141 -0.1386504323299071 0
96 0.1386504323299071 0.8336503680977141 0
97 -0.8336503680977141 0.1386504323299071 0
98 -0.5992331328740031 -0.4740472904063571 0
99 0.474047290406357 -0.599233132874003 0
100 0.599233132874003 0.474047290406357 0
101 -0.474047290406357 0.599233132874003 0
102 -0.4555876486765196 -0.6025305932435423 0
103 0.6025305932435422 -0.4555876486765197 0
104 0.4555876486765197 0.6025305932435422 0
105 -0.6025305932435422 0.4555876486765197 0
106 -0.1759060934628525 0.02192257839014307 0
107 -0.02174634031054202 -0.1757501569006574 0
108 0.1757567106461058 -0.02174054151531551 0
109 0.02191702330830415 0.1759128628474403 0
110 -0.293885538913917 -0.3076544818187764 0
111 0.3076544818187764 -0.293885538913917 0
112 0.293885538913917 0.3076544818187764 0
113 -0.3076544818187764 0.293885538913917 0
114 -0.2996435727801509 -0.8672104469383086 0
115 0.8672104469383086 -0.2996435727801509 0
116 0.2996435727801509 0.8672104469383088 0
117 -0.8672104469383086 0.2996435727801509 0
118 0.2876278304376638 -0.8560301797567013 0
119 0.8560301797567013 0.2876278304376638 0
120 -0.2876278304376638 0.8560301797567013 0
121 -0.8560301797567013 -0.2876278304376638 0
122 -0.6402034402194758 -0.8400571885548193 0
123 0.8400571885548195 -0.6402034402194757 0
124 0.6402034402194757 0.8400571885548195 0
125 -0.8400571885548195 0.6402034402194757 0
126 -0.8400571885554636 -0.6402034402196717 0
127 0.6402034402196715 -0.8400571885554636 0
128 0.8400571885554636 0.6402034402196715 0
129 -0.6402034402196715 0.8400571885554636 0
130 -0.3970505427317544 -0.01765755289708076 0
131 0.01766825734797975 -0.3970410713662178 0
132 0.3970414694314176 0.01766860955857417 0
133 -0.01765789030486981 0.3970509538945696 0
134 -0.6631394513061247 0.1217824395435844 0
135 -0.1217824395435844 -0.6631394513061247 0
136 0.6631394513061247 -0.1217824395435844 0
137 0.1217824395435844 0.6631394513061247 0
138 -0.6347929169419172 -0.1480040234640838 0
139 0.1480040234640838 -0.6347929169419171 0
140 0.6347929169419171 0.1480040234640838 0
141 -0.1480040234640838 0.6347929169419171 0
142 -0.5626976935840724 -0.3338680038558882 0
143 0.3338680038558882 -0.5626976935840723 0
144 0.5626976935840723 0.3338680038558882 0
145 -0.3338680038558882 0.5626976935840723 0
$EndNodes
$Elements
288
1 1 2 1 1 1 5
2 1 2 1 1 5 6
3 1 2 1 1 6 7
4 1 2 1 1 7 8
5 1 2 1 1 8 9
6 1 2 1 1 9 10
7 1 2 1 1 10 11
8 1 2 1 1 11 12
9 1 2 1 1 12 13
10 1 2 1 1 13 2
11 1 2 1 2 2 14
12 1 2 1 2 14 15
13 1 2 1 2 15 16
14 1 2 1 2 16 17
15 1 2 1 2 17 18
16 1 2 1 2 18 19
17 1 2 1 2 19 20
18 1 2 1 2 20 21
19 1 2 1 2 21 22
20 1 2 1 2 22 3
21 1 2 1 3 3 23
22 1 2 1 3 23 24
23 1 2 1 3 24 25
24 1 2 1 3 25 26
25 1 2 1 3 26 27
26 1 2 1 3 27 28
27 1 2 1 3 28 29
28 1 2 1 3 29 30
29 1 2 1 3 30 31
30 1 2 1 3 31 4
31 1 2 1 4 4 32
32 1 2 1 4 32 33
33 1 2 1 4 33 34
34 1 2 1 4 34 35
35 1 2 1 4 35 36
36 1 2 1 4 36 37
37 1 2 1 4 37 38
38 1 2 1 4 38 39
39 1 2 1 4 39 40
40 1 2 1 4 40 1
41 2 2 8 6 2 14 91
42 2 2 8 6 3 23 92
43 2 2 8 6 4 32 93
44 2 2 8 6 1 5 90
45 2 2 8 6 2 91 13
46 2 2 8 6 3 92 22
47 2 2 8 6 4 93 31
48 2 2 8 6 1 90 40
49 2 2 8 6 66 86 131
50 2 2 8 6 67 87 132
51 2 2 8 6 68 88 133
52 2 2 8 6 69 89 130
53 2 2 8 6 62 107 106
54 2 2 8 6 63 108 107
55 2 2 8 6 64 109 108
56 2 2 8 6 65 106 109
57 2 2 8 6 62 66 107
58 2 2 8 6 63 67 108
59 2 2 8 6 64 68 109
60 2 2 8 6 65 69 106
61 2 2 8 6 130 89 46
62 2 2 8 6 131 86 47
63 2 2 8 6 132 87 48
64 2 2 8 6 133 88 49
65 2 2 8 6 9 10 70
66 2 2 8 6 18 19 71
67 2 2 8 6 27 28 72
68 2 2 8 6 36 37 73
69 2 2 8 6 10 118 70
70 2 2 8 6 19 119 71
71 2 2 8 6 28 120 72
72 2 2 8 6 37 121 73
73 2 2 8 6 62 110 66
74 2 2 8 6 63 111 67
75 2 2 8 6 64 112 68
76 2 2 8 6 65 113 69
77 2 2 8 6 41 106 107
78 2 2 8 6 41 109 106
79 2 2 8 6 41 107 108
80 2 2 8 6 41 108 109
81 2 2 8 6 58 70 118
82 2 2 8 6 59 71 119
83 2 2 8 6 60 72 120
84 2 2 8 6 61 73 121
85 2 2 8 6 6 7 74
86 2 2 8 6 15 16 75
87 2 2 8 6 24 25 76
88 2 2 8 6 33 34 77
89 2 2 8 6 11 12 79
90 2 2 8 6 20 21 80
91 2 2 8 6 29 30 81
92 2 2 8 6 38 39 78
93 2 2 8 6 55 87 103
94 2 2 8 6 56 88 104
95 2 2 8 6 57 89 105
96 2 2 8 6 54 86 102
97 2 2 8 6 42 102 86
98 2 2 8 6 43 103 87
99 2 2 8 6 44 104 88
100 2 2 8 6 45 105 89
101 2 2 8 6 9 70 94
102 2 2 8 6 18 71 95
103 2 2 8 6 27 72 96
104 2 2 8 6 36 73 97
105 2 2 8 6 61 78 98
106 2 2 8 6 58 79 99
107 2 2 8 6 59 80 100
108 2 2 8 6 60 81 101
109 2 2 8 6 46 134 73
110 2 2 8 6 47 135 70
111 2 2 8 6 48 136 71
112 2 2 8 6 49 137 72
113 2 2 8 6 62 82 110
114 2 2 8 6 63 83 111
115 2 2 8 6 64 84 112
116 2 2 8 6 65 85 113
117 2 2 8 6 50 75 103
118 2 2 8 6 51 76 104
119 2 2 8 6 52 77 105
120 2 2 8 6 53 74 102
121 2 2 8 6 42 110 82
122 2 2 8 6 43 111 83
123 2 2 8 6 44 112 84
124 2 2 8 6 45 113 85
125 2 2 8 6 8 9 94
126 2 2 8 6 17 18 95
127 2 2 8 6 26 27 96
128 2 2 8 6 35 36 97
129 2 2 8 6 46 89 134
130 2 2 8 6 47 86 135
131 2 2 8 6 48 87 136
132 2 2 8 6 49 88 137
133 2 2 8 6 6 74 122
134 2 2 8 6 15 75 123
135 2 2 8 6 24 76 124
136 2 2 8 6 33 77 125
137 2 2 8 6 12 127 79
138 2 2 8 6 21 128 80
139 2 2 8 6 30 129 81
140 2 2 8 6 39 126 78
141 2 2 8 6 55 103 75
142 2 2 8 6 56 104 76
143 2 2 8 6 57 105 77
144 2 2 8 6 54 102 74
145 2 2 8 6 53 98 78
146 2 2 8 6 50 99 79
147 2 2 8 6 51 100 80
148 2 2 8 6 52 101 81
149 2 2 8 6 5 6 122
150 2 2 8 6 14 15 123
151 2 2 8 6 23 24 124
152 2 2 8 6 32 33 125
153 2 2 8 6 12 13 127
154 2 2 8 6 21 22 128
155 2 2 8 6 30 31 129
156 2 2 8 6 39 40 126
157 2 2 8 6 70 135 94
158 2 2 8 6 71 136 95
159 2 2 8 6 72 137 96
160 2 2 8 6 73 134 97
161 2 2 8 6 5 122 90
162 2 2 8 6 14 123 91
163 2 2 8 6 23 124 92
164 2 2 8 6 32 125 93
165 2 2 8 6 13 91 127
166 2 2 8 6 22 92 128
167 2 2 8 6 31 93 129
168 2 2 8 6 40 90 126
169 2 2 8 6 53 102 98
170 2 2 8 6 50 103 99
171 2 2 8 6 51 104 100
172 2 2 8 6 52 105 101
173 2 2 8 6 62 130 82
174 2 2 8 6 63 131 83
175 2 2 8 6 64 132 84
176 2 2 8 6 65 133 85
177 2 2 8 6 46 73 138
178 2 2 8 6 47 70 139
179 2 2 8 6 48 71 140
180 2 2 8 6 49 72 141
181 2 2 8 6 58 139 70
182 2 2 8 6 59 140 71
183 2 2 8 6 60 141 72
184 2 2 8 6 61 138 73
185 2 2 8 6 58 118 79
186 2 2 8 6 59 119 80
187 2 2 8 6 60 120 81
188 2 2 8 6 61 121 78
189 2 2 8 6 11 79 118
190 2 2 8 6 20 80 119
191 2 2 8 6 29 81 120
192 2 2 8 6 38 78 121
193 2 2 8 6 16 115 75
194 2 2 8 6 25 116 76
195 2 2 8 6 34 117 77
196 2 2 8 6 7 114 74
197 2 2 8 6 54 74 114
198 2 2 8 6 55 75 115
199 2 2 8 6 56 76 116
200 2 2 8 6 57 77 117
201 2 2 8 6 46 82 130
202 2 2 8 6 47 83 131
203 2 2 8 6 48 84 132
204 2 2 8 6 49 85 133
205 2 2 8 6 62 106 130
206 2 2 8 6 63 107 131
207 2 2 8 6 64 108 132
208 2 2 8 6 65 109 133
209 2 2 8 6 66 131 107
210 2 2 8 6 67 132 108
211 2 2 8 6 68 133 109
212 2 2 8 6 69 130 106
213 2 2 8 6 50 123 75
214 2 2 8 6 51 124 76
215 2 2 8 6 52 125 77
216 2 2 8 6 53 122 74
217 2 2 8 6 53 78 126
218 2 2 8 6 50 79 127
219 2 2 8 6 51 80 128
220 2 2 8 6 52 81 129
221 2 2 8 6 66 110 86
222 2 2 8 6 67 111 87
223 2 2 8 6 68 112 88
224 2 2 8 6 69 113 89
225 2 2 8 6 42 86 110
226 2 2 8 6 43 87 111
227 2 2 8 6 44 88 112
228 2 2 8 6 45 89 113
229 2 2 8 6 42 98 102
230 2 2 8 6 43 99 103
231 2 2 8 6 44 100 104
232 2 2 8 6 45 101 105
233 2 2 8 6 46 138 82
234 2 2 8 6 47 139 83
235 2 2 8 6 48 140 84
236 2 2 8 6 49 141 85
237 2 2 8 6 42 82 142
238 2 2 8 6 43 83 143
239 2 2 8 6 44 84 144
240 2 2 8 6 45 85 145
241 2 2 8 6 58 99 143
242 2 2 8 6 59 100 144
243 2 2 8 6 60 101 145
244 2 2 8 6 61 98 142
245 2 2 8 6 54 135 86
246 2 2 8 6 55 136 87
247 2 2 8 6 56 137 88
248 2 2 8 6 57 134 89
249 2 2 8 6 82 138 142
250 2 2 8 6 83 139 143
251 2 2 8 6 84 140 144
252 2 2 8 6 85 141 145
253 2 2 8 6 53 90 122
254 2 2 8 6 50 91 123
255 2 2 8 6 51 92 124
256 2 2 8 6 52 93 125
257 2 2 8 6 50 127 91
258 2 2 8 6 51 128 92
259 2 2 8 6 52 129 93
260 2 2 8 6 53 126 90
261 2 2 8 6 58 143 139
262 2 2 8 6 59 144 140
263 2 2 8 6 60 145 141
264 2 2 8 6 61 142 138
265 2 2 8 6 8 94 114
266 2 2 8 6 17 95 115
267 2 2 8 6 26 96 116
268 2 2 8 6 35 97 117
269 2 2 8 6 54 114 94
270 2 2 8 6 55 115 95
271 2 2 8 6 56 116 96
272 2 2 8 6 57 117 97
273 2 2 8 6 7 8 114
274 2 2 8 6 16 17 115
275 2 2 8 6 25 26 116
276 2 2 8 6 34 35 117
277 2 2 8 6 10 11 118
278 2 2 8 6 19 20 119
279 2 2 8 6 28 29 120
280 2 2 8 6 37 38 121
281 2 2 8 6 54 94 135
282 2 2 8 6 55 95 136
283 2 2 8 6 56 96 137
284 2 2 8 6 57 97 134
285 2 2 8 6 42 142 98
286 2 2 8 6 43 143 99
287 2 2 8 6 44 144 100
288 2 2 8 6 45 145 101
$EndElements
