$MeshFormat
2.2 0 8
$EndMeshFormat
$Nodes
537
1 0.8999999999997227 -1 0
2 0.6999999999991678 -1 0
3 0.4999999999986129 -1 0
4 0.2999999999980582 -1 0
5 0.09999999999751427 -1 0
6 -0.1000000000024857 -1 0
7 -0.3000000000019418 -1 0
8 -0.500000000001387 -1 0
9 -0.7000000000008322 -1 0
10 -0.9000000000002775 -1 0
11 0.7999999999994454 -1 0
12 0.5999999999988903 -1 0
13 0.3999999999983355 -1 0
14 0.1999999999977808 -1 0
15 -2.752242878045763e-12 -1 0
16 -0.2000000000022192 -1 0
17 -0.4000000000016644 -1 0
18 -0.6000000000011096 -1 0
19 -0.8000000000005548 -1 0
20 1 -1 0
21 -1 -1 0
22 1 0.8999999999997227 0
23 1 0.6999999999991678 0
24 1 0.4999999999986129 0
25 1 0.2999999999980582 0
26 1 0.09999999999751427 0
27 1 -0.1000000000024857 0
28 1 -0.3000000000019418 0
29 1 -0.500000000001387 0
30 1 -0.7000000000008322 0
31 1 -0.9000000000002775 0
32 1 0.7999999999994454 0
33 1 0.5999999999988903 0
34 1 0.3999999999983355 0
35 1 0.1999999999977808 0
36 1 -2.752242878045763e-12 0
37 1 -0.2000000000022192 0
38 1 -0.4000000000016644 0
39 1 -0.6000000000011096 0
40 1 -0.8000000000005548 0
41 1 1 0
42 -0.8999999999997227 1 0
43 -0.6999999999991678 1 0
44 -0.4999999999986129 1 0
45 -0.2999999999980582 1 0
46 -0.09999999999751427 1 0
47 0.1000000000024857 1 0
48 0.3000000000019418 1 0
49 0.500000000001387 1 0
50 0.7000000000008322 1 0
51 0.9000000000002775 1 0
52 -0.7999999999994454 1 0
53 -0.5999999999988903 1 0
54 -0.3999999999983355 1 0
55 -0.1999999999977808 1 0
56 2.752242878045763e-12 1 0
57 0.2000000000022192 1 0
58 0.4000000000016644 1 0
59 0.6000000000011096 1 0
60 0.8000000000005548 1 0
61 -1 1 0
62 -1 -0.8999999999997227 0
63 -1 -0.6999999999991678 0
64 -1 -0.4999999999986129 0
65 -1 -0.2999999999980582 0
66 -1 -0.09999999999751427 0
67 -1 0.1000000000024857 0
68 -1 0.3000000000019418 0
69 -1 0.500000000001387 0
70 -1 0.7000000000008322 0
71 -1 0.9000000000002775 0
72 -1 -0.7999999999994454 0
73 -1 -0.5999999999988903 0
74 -1 -0.3999999999983355 0
75 -1 -0.1999999999977808 0
76 -1 2.752242878045763e-12 0
77 -1 0.2000000000022192 0
78 -1 0.4000000000016644 0
79 -1 0.6000000000011096 0
80 -1 0.8000000000005548 0
81 0 0 0
82 -0.4372788789595108 -0.4039390019937066 0
83 0.4039390019937064 -0.4372788789595107 0
84 0.4372788789595107 0.4039390019937064 0
85 -0.4039390019937064 0.4372788789595107 0
86 -0.5785278205370697 -0.01366608874962949 0
87 0.01366608874962949 -0.5785278205370697 0
88 0.5785278205370697 0.01366608874962949 0
89 -0.01366608874962949 0.5785278205370697 0
90 0.6589947089945454 -0.6589947089948727 0
91 0.6589947089948727 0.6589947089945454 0
92 -0.6589947089945454 0.6589947089948727 0
93 -0.6589947089948728 -0.6589947089945454 0
94 -0.2814202252786888 -0.6977321381678248 0
95 0.6977321381678248 -0.2814202252786888 0
96 0.2814202252786888 0.6977321381678248 0
97 -0.6977321381678248 0.2814202252786888 0
98 0.2814202252787869 -0.697732138168534 0
99 0.697732138168534 0.2814202252787869 0
100 -0.2814202252787869 0.697732138168534 0
101 -0.697732138168534 -0.2814202252787869 0
102 -0.2721278938901983 -0.1440217421688268 0
103 0.1440217421688268 -0.2721278938901983 0
104 0.2721278938901983 0.1440217421688268 0
105 -0.1440217421688268 0.2721278938901983 0
106 -0.1368255639726933 -0.3190557263976983 0
107 0.3190557263976983 -0.1368255639726933 0
108 0.1368255639726933 0.3190557263976983 0
109 -0.3190557263976983 0.1368255639726933 0
110 0.07612173295006534 -0.7811999013257276 0
111 0.7811999013257277 0.07612173295006534 0
112 -0.07612173295006534 0.7811999013257276 0
113 -0.7811999013257277 -0.07612173295006534 0
114 -0.4781472062882752 -0.8046697284260049 0
115 0.8046697284260049 -0.4781472062882752 0
116 0.4781472062882752 0.8046697284260049 0
117 -0.8046697284260049 0.4781472062882752 0
118 -0.8012188592892446 -0.4805971939633505 0
119 0.4805971939633505 -0.8012188592892444 0
120 0.8012188592892444 0.4805971939633505 0
121 -0.4805971939633505 0.8012188592892444 0
122 -0.4905659434367167 -0.2082412498478897 0
123 0.2082412498478897 -0.4905659434367167 0
124 0.4905659434367167 0.2082412498478897 0
125 -0.2082412498478897 0.4905659434367167 0
126 -0.2101231866876496 -0.4957114373761577 0
127 0.4957114373761576 -0.2101231866876496 0
128 0.2101231866876496 0.4957114373761577 0
129 -0.4957114373761576 0.2101231866876496 0
130 -0.8002437869891227 -0.8002437869891212 0
131 0.8002437869891211 -0.8002437869891224 0
132 0.8002437869891224 0.8002437869891211 0
133 -0.8002437869891211 0.8002437869891224 0
134 -0.1386504323299071 -0.8336503680977141 0
135 0.8336503680977141 -0.1386504323299071 0
136 0.1386504323299071 0.8336503680977141 0
137 -0.8336503680977141 0.1386504323299071 0
138 -0.5992331328740031 -0.4740472904063571 0
139 0.474047290406357 -0.599233132874003 0
140 0.599233132874003 0.474047290406357 0
141 -0.474047290406357 0.599233132874003 0
142 -0.4555876486765196 -0.6025305932435423 0
143 0.6025305932435422 -0.4555876486765197 0
144 0.4555876486765197 0.6025305932435422 0
145 -0.6025305932435422 0.4555876486765197 0
146 -0.1759060934628525 0.02192257839014307 0
147 -0.02174634031054202 -0.1757501569006574 0
148 0.1757567106461058 -0.02174054151531551 0
149 0.02191702330830415 0.1759128628474403 0
150 -0.293885538913917 -0.3076544818187764 0
151 0.3076544818187764 -0.293885538913917 0
152 0.293885538913917 0.3076544818187764 0
153 -0.3076544818187764 0.293885538913917 0
154 -0.2996435727801509 -0.8672104469383086 0
155 0.8672104469383086 -0.2996435727801509 0
156 0.2996435727801509 0.8672104469383088 0
157 -0.8672104469383086 0.2996435727801509 0
158 0.2876278304376638 -0.8560301797567013 0
159 0.8560301797567013 0.2876278304376638 0
160 -0.2876278304376638 0.8560301797567013 0
161 -0.8560301797567013 -0.2876278304376638 0
162 -0.6402034402194758 -0.8400571885548193 0
163 0.8400571885548195 -0.6402034402194757 0
164 0.6402034402194757 0.8400571885548195 0
165 -0.8400571885548195 0.6402034402194757 0
166 -0.8400571885554636 -0.6402034402196717 0
167 0.6402034402196715 -0.8400571885554636 0
168 0.8400571885554636 0.6402034402196715 0
169 -0.6402034402196715 0.8400571885554636 0
170 -0.3970505427317544 -0.01765755289708076 0
171 0.01766825734797975 -0.3970410713662178 0
172 0.3970414694314176 0.01766860955857417 0
173 -0.01765789030486981 0.3970509538945696 0
174 -0.6631394513061247 0.1217824395435844 0
175 -0.1217824395435844 -0.6631394513061247 0
176 0.6631394513061247 -0.1217824395435844 0
177 0.1217824395435844 0.6631394513061247 0
178 -0.6347929169419172 -0.1480040234640838 0
179 0.1480040234640838 -0.6347929169419171 0
180 0.6347929169419171 0.1480040234640838 0
181 -0.1480040234640838 0.6347929169419171 0
182 -0.5626976935840724 -0.3338680038558882 0
183 0.3338680038558882 -0.5626976935840723 0
184 0.5626976935840723 0.3338680038558882 0
185 -0.3338680038558882 0.5626976935840723 0
186 0.9001218934945605 -0.8001218934948386 0
187 0.9001218934945605 -0.9001218934945612 0
188 0.8001218934948386 0.9001218934945605 0
189 0.9001218934945612 0.9001218934945605 0
190 -0.9001218934945605 0.8001218934948386 0
191 -0.9001218934945605 0.9001218934945612 0
192 -0.8001218934948388 -0.9001218934945606 0
193 -0.9001218934945614 -0.9001218934945606 0
194 0.8001218934942833 -0.9001218934945612 0
195 0.9001218934945612 0.8001218934942833 0
196 -0.8001218934942833 0.9001218934945612 0
197 -0.9001218934945614 -0.8001218934942833 0
198 -0.1734743753301715 -0.407383581886928 0
199 -0.09622746466983492 -0.4463762543711878 0
200 -0.05957865331235677 -0.3580483988819581 0
201 0.4073835818869279 -0.1734743753301715 0
202 0.4463764534037876 -0.09622728856453772 0
203 0.358048597914558 -0.05957847720705956 0
204 0.1734743753301715 0.407383581886928 0
205 0.09623264819138989 0.4463811956353637 0
206 0.05958383683391175 0.358053340146134 0
207 -0.4073835818869279 0.1734743753301715 0
208 -0.446380990053956 0.09623281689528441 0
209 -0.3580531345647263 0.05958400553780627 0
210 -0.1469371171003702 -0.1598859495347421 0
211 -0.09882621688669725 -0.07691378925525716 0
212 -0.2240169936765254 -0.06104958188934186 0
213 0.1598892264074663 -0.1469342177027569 0
214 0.07700518516778189 -0.09874534920798646 0
215 0.06113770092914239 -0.2239390253954279 0
216 0.1470224585992512 0.1599673025081335 0
217 0.09883686697720497 0.07708616066606239 0
218 0.223942302268152 0.06114060032675564 0
219 -0.1599639178158396 0.1470252361401707 0
220 -0.07699453507727418 0.09891772061879167 0
221 -0.06105235943026132 0.2240203783688193 0
222 -0.2044767289314458 -0.2315387342832625 0
223 -0.07928595214161765 -0.2474029416491779 0
224 0.2315387342832625 -0.2044767289314458 0
225 0.247406218521902 -0.07928305274400441 0
226 0.2044767289314458 0.2315387342832625 0
227 0.07937129364049872 0.2474842946225693 0
228 -0.2315387342832625 0.2044767289314458 0
229 -0.2474809099302754 0.07937407118141818 0
230 -0.5371196289566137 0.09822854896901005 0
231 -0.4877891816344121 -0.01566182082335513 0
232 -0.09822854896901005 -0.5371196289566137 0
233 0.01566717304880462 -0.4877844459516438 0
234 0.5371196289566137 -0.09822854896901005 0
235 0.4877846449842437 0.01566734915410183 0
236 0.09822854896901005 0.5371196289566137 0
237 -0.01566198952724965 0.4877893872158197 0
238 0.1380608664739231 -0.8905999506628638 0
239 0.03806086647365655 -0.8905999506628638 0
240 0.8905999506628639 0.1380608664739231 0
241 0.8905999506628639 0.03806086647365655 0
242 -0.1380608664739231 0.8905999506628638 0
243 -0.03806086647365655 0.8905999506628638 0
244 -0.8905999506628639 -0.1380608664739231 0
245 -0.8905999506628639 -0.03806086647365655 0
246 0.2438139152177223 -0.9280150898783506 0
247 0.1818747816938646 -0.8186150405412145 0
248 0.9280150898783506 0.2438139152177223 0
249 0.8186150405412145 0.1818747816938646 0
250 -0.2438139152177223 0.9280150898783506 0
251 -0.1818747816938646 0.8186150405412145 0
252 -0.9280150898783506 -0.2438139152177223 0
253 -0.8186150405412145 -0.1818747816938646 0
254 -0.2830067164020577 -0.2258381119938016 0
255 -0.2153555514433051 -0.3133551041082374 0
256 0.2258381119938016 -0.2830067164020577 0
257 0.3133551041082374 -0.2153555514433051 0
258 0.2830067164020577 0.2258381119938016 0
259 0.2153555514433051 0.3133551041082374 0
260 -0.2258381119938016 0.2830067164020577 0
261 -0.3133551041082374 0.2153555514433051 0
262 -0.08795304673142625 0.01096128919507153 0
263 -0.01087317015527101 -0.0878750784503287 0
264 0.01095851165415208 0.08795643142372014 0
265 0.0878783553230529 -0.01087027075765776 0
266 0.1787709791144261 -0.7394660197471308 0
267 0.2845240278582254 -0.7768811589626177 0
268 0.7394660197471308 0.1787709791144261 0
269 0.7768811589626177 0.2845240278582254 0
270 -0.1787709791144261 0.7394660197471308 0
271 -0.2845240278582254 0.7768811589626177 0
272 -0.7394660197471308 -0.1787709791144261 0
273 -0.7768811589626177 -0.2845240278582254 0
274 -0.4390736031449698 -0.9023348642130025 0
275 -0.5390736031446924 -0.9023348642130025 0
276 0.9023348642130025 -0.4390736031449698 0
277 0.9023348642130025 -0.5390736031446924 0
278 0.4390736031449698 0.9023348642130025 0
279 0.5390736031446924 0.9023348642130025 0
280 -0.9023348642130025 0.4390736031449698 0
281 -0.9023348642130025 0.5390736031446924 0
282 0.5402985969811204 -0.9006094296446222 0
283 0.440298596980843 -0.9006094296446222 0
284 0.9006094296446222 0.5402985969811204 0
285 0.9006094296446222 0.440298596980843 0
286 -0.5402985969811204 0.9006094296446222 0
287 -0.440298596980843 0.9006094296446222 0
288 -0.9006094296446223 -0.5402985969811204 0
289 -0.9006094296446223 -0.440298596980843 0
290 0.5967217877719911 -0.2457717059831692 0
291 0.5491210153098499 -0.3328554176820847 0
292 0.6501313657056835 -0.3685039369776043 0
293 0.2457717059831692 0.5967217877719913 0
294 0.3328554176820847 0.5491210153098499 0
295 0.3685039369776043 0.6501313657056835 0
296 -0.5967217877719911 0.2457717059831692 0
297 -0.5491210153098499 0.3328554176820847 0
298 -0.6501313657056835 0.3685039369776043 0
299 -0.2457717059831692 -0.5967217877719913 0
300 -0.3328554176820846 -0.54912101530985 0
301 -0.3685039369776042 -0.6501313657056835 0
302 -0.4464332638180152 -0.5032347976186244 0
303 -0.3237010328235802 -0.4498252196849322 0
304 0.5032347976186243 -0.4464332638180152 0
305 0.449825219684932 -0.3237010328235801 0
306 0.4464332638180152 0.5032347976186243 0
307 0.3237010328235801 0.4498252196849321 0
308 -0.5032347976186243 0.4464332638180152 0
309 -0.449825219684932 0.3237010328235801 0
310 -0.03126434968992087 -0.8074251347117208 0
311 -0.06932521616632967 -0.916825184048857 0
312 0.8074251347117209 -0.03126434968992087 0
313 0.916825184048857 -0.06932521616632967 0
314 0.03126434968992087 0.8074251347117208 0
315 0.06932521616632967 0.916825184048857 0
316 -0.8074251347117209 0.03126434968992087 0
317 -0.916825184048857 0.06932521616632967 0
318 -0.7494754987288893 -0.3810087096210687 0
319 -0.7002259960816239 -0.4773222421848538 0
320 -0.6484826355212685 -0.377733757842572 0
321 0.3810087096210687 -0.7494754987288892 0
322 0.4773222421848538 -0.7002259960816237 0
323 0.377733757842572 -0.6484826355212685 0
324 0.7494754987288892 0.3810087096210687 0
325 0.7002259960816237 0.4773222421848538 0
326 0.6484826355212685 0.377733757842572 0
327 -0.3810087096210687 0.7494754987288892 0
328 -0.4773222421848538 0.7002259960816237 0
329 -0.377733757842572 0.6484826355212685 0
330 -0.6208336359215972 0.05405817539697746 0
331 -0.7221696763159262 0.02283035329675953 0
332 -0.6798638609313987 -0.04489391084984742 0
333 -0.05405817539697746 -0.6208336359215972 0
334 -0.02283035329675953 -0.7221696763159262 0
335 0.04489391084984742 -0.6798638609313987 0
336 0.6208336359215972 -0.05405817539697746 0
337 0.7221696763159262 -0.02283035329675953 0
338 0.6798638609313987 0.04489391084984742 0
339 0.05405817539697746 0.6208336359215972 0
340 0.02283035329675953 0.7221696763159262 0
341 -0.04489391084984742 0.6798638609313987 0
342 -0.3813469186634575 -0.1761314960083583 0
343 -0.3922257411753168 -0.2579478658333331 0
344 0.1761314960083583 -0.3813469186634575 0
345 0.2579478658333331 -0.3922257411753168 0
346 0.3813469186634575 0.1761314960083583 0
347 0.3922257411753168 0.2579478658333331 0
348 -0.1761314960083583 0.3813469186634575 0
349 -0.2579478658333331 0.3922257411753168 0
350 0.7318322187102752 -0.5685709576415739 0
351 0.7036001608347735 -0.4668674274823974 0
352 0.6307626511190438 -0.5572911788356962 0
353 0.5685709576415739 0.7318322187102752 0
354 0.4668674274823974 0.7036001608347735 0
355 0.5572911788356962 0.6307626511190438 0
356 -0.7318322187102752 0.5685709576415739 0
357 -0.7036001608347735 0.4668674274823974 0
358 -0.6307626511190438 0.5572911788356962 0
359 -0.5685709576415739 -0.7318322187102752 0
360 -0.4668674274823974 -0.7036001608347736 0
361 -0.5572911788356962 -0.6307626511190438 0
362 -0.3655822089367139 -0.3557967419062415 0
363 -0.4639224111981137 -0.3060901259207982 0
364 0.3557967419062414 -0.3655822089367138 0
365 0.306090125920798 -0.4639224111981137 0
366 0.3655822089367138 0.3557967419062414 0
367 0.4639224111981137 0.306090125920798 0
368 -0.3557967419062414 0.3655822089367138 0
369 -0.306090125920798 0.4639224111981137 0
370 -0.1693252161660632 -0.916825184048857 0
371 0.916825184048857 -0.1693252161660632 0
372 0.1693252161660632 0.916825184048857 0
373 -0.916825184048857 0.1693252161660632 0
374 -0.5794254443411412 0.165952813115617 0
375 -0.165952813115617 -0.5794254443411412 0
376 0.5794254443411412 -0.165952813115617 0
377 0.165952813115617 0.5794254443411412 0
378 -0.5591753232538755 -0.822363458490412 0
379 -0.6201017201102927 -0.9200285942774096 0
380 0.8223634584904123 -0.5591753232538754 0
381 0.9200285942774098 -0.6201017201102927 0
382 0.5591753232538754 0.8223634584904123 0
383 0.6201017201102927 0.9200285942774098 0
384 -0.8223634584904123 0.5591753232538754 0
385 -0.9200285942774098 0.6201017201102927 0
386 0.6201017201092809 -0.9200285942777318 0
387 0.5604003170915109 -0.8206380239223541 0
388 0.9200285942777318 0.6201017201092809 0
389 0.8206380239223541 0.5604003170915109 0
390 -0.6201017201092809 0.9200285942777318 0
391 -0.5604003170915109 0.8206380239223541 0
392 -0.9200285942777318 -0.620101720109281 0
393 -0.8206380239223541 -0.5604003170915111 0
394 0.7512009332969148 -0.379783715783482 0
395 0.379783715783482 0.7512009332969148 0
396 -0.7512009332969148 0.379783715783482 0
397 -0.379783715783482 -0.7512009332969148 0
398 -0.629113920934438 -0.5665209997004512 0
399 -0.7301067841420588 -0.5697959514789479 0
400 0.5665209997004512 -0.6291139209344379 0
401 0.5697959514789479 -0.7301067841420585 0
402 0.6291139209344379 0.5665209997004512 0
403 0.7301067841420585 0.5697959514789479 0
404 -0.5665209997004512 0.6291139209344379 0
405 -0.5697959514789479 0.7301067841420585 0
406 -0.7201017201100153 -0.9200285942774096 0
407 0.9200285942774098 -0.7201017201100153 0
408 0.7201017201100153 0.9200285942774098 0
409 -0.9200285942774098 0.7201017201100153 0
410 0.7201017201095584 -0.9200285942777318 0
411 0.9200285942777318 0.7201017201095584 0
412 -0.7201017201095584 0.9200285942777318 0
413 -0.9200285942777318 -0.7201017201095585 0
414 -0.1302164359367458 -0.7483949097019194 0
415 0.7483949097019194 -0.1302164359367458 0
416 0.1302164359367458 0.7483949097019194 0
417 -0.7483949097019194 0.1302164359367458 0
418 -0.7202236136042992 -0.8201504877719703 0
419 0.8201504877719703 -0.720223613604299 0
420 0.720223613604299 0.8201504877719703 0
421 -0.8201504877719703 0.720223613604299 0
422 0.7202236136043962 -0.8201504877722929 0
423 0.8201504877722929 0.7202236136043962 0
424 -0.7202236136043962 0.8201504877722929 0
425 -0.8201504877722932 -0.7202236136043965 0
426 -0.5274103907752614 -0.5382889418249497 0
427 0.5382889418249496 -0.5274103907752614 0
428 0.5274103907752614 0.5382889418249496 0
429 -0.5382889418249496 0.5274103907752614 0
430 -0.3345892183109763 -0.08083964753295378 0
431 -0.4438082430842356 -0.1129494013724852 0
432 0.08084499975840327 -0.3345844826282081 0
433 0.1129547535979347 -0.4438035074014672 0
434 0.334584681660808 0.08084517586370048 0
435 0.4438037064340672 0.1129549297032319 0
436 -0.0808398162368483 0.334589423892384 0
437 -0.1129495700763797 0.4438084486656432 0
438 -0.7079964091338224 -0.1120628782070746 0
439 -0.6066603687394935 -0.08083505610685665 0
440 0.1120628782070746 -0.7079964091338223 0
441 0.08083505610685665 -0.6066603687394934 0
442 0.7079964091338224 0.1120628782070746 0
443 0.6066603687394934 0.08083505610685665 0
444 -0.1120628782070746 0.7079964091338223 0
445 -0.08083505610685665 0.6066603687394934 0
446 0.2147121243714354 -0.6662625275552255 0
447 0.6662625275552255 0.2147121243714354 0
448 -0.2147121243714354 0.6662625275552255 0
449 -0.6662625275552256 -0.2147121243714354 0
450 0.3841125122005071 -0.8286245195229729 0
451 0.8286245195229729 0.3841125122005071 0
452 -0.3841125122005071 0.8286245195229729 0
453 -0.8286245195229729 -0.3841125122005071 0
454 0.3438139152179996 -0.9280150898783506 0
455 0.9280150898783506 0.3438139152179996 0
456 -0.3438139152179996 0.9280150898783506 0
457 -0.9280150898783506 -0.3438139152179996 0
458 0.9336052234691543 -0.3498217863909077 0
459 0.8359400876821568 -0.388895389534213 0
460 0.3498217863909077 0.9336052234691544 0
461 0.388895389534213 0.8359400876821569 0
462 -0.9336052234691543 0.3498217863909077 0
463 -0.8359400876821568 0.388895389534213 0
464 -0.3498217863909077 -0.9336052234691543 0
465 -0.388895389534213 -0.8359400876821568 0
466 -0.2905318990294199 -0.7824712925530667 0
467 0.7824712925530667 -0.2905318990294199 0
468 0.2905318990294199 0.7824712925530668 0
469 -0.7824712925530667 0.2905318990294199 0
470 -0.5345468819868933 -0.1109536692987596 0
471 0.1109536692987596 -0.5345468819868933 0
472 0.5345468819868933 0.1109536692987596 0
473 -0.1109536692987596 0.5345468819868933 0
474 -0.2864783180973035 0.002132512746531154 0
475 -0.002039041481281135 -0.2863956141334376 0
476 0.2863990900387617 -0.00203596597837067 0
477 0.002129566501717171 0.286481908371005 0
478 0.7495259487746824 -0.6495990746071743 0
479 0.6495990746071743 0.7495259487746824 0
480 -0.7495259487746824 0.6495990746071743 0
481 -0.6495990746071743 -0.7495259487746824 0
482 -0.7495259487751682 -0.6495990746071085 0
483 0.6495990746071084 -0.7495259487751682 0
484 0.7495259487751682 0.6495990746071084 0
485 -0.6495990746071084 0.7495259487751682 0
486 -0.2520043628007833 -0.401682959597467 0
487 0.401682959597467 -0.2520043628007833 0
488 0.2520043628007833 0.401682959597467 0
489 -0.401682959597467 0.2520043628007833 0
490 -0.5182560059167569 -0.4389931462000318 0
491 0.4389931462000317 -0.5182560059167569 0
492 0.5182560059167569 0.4389931462000317 0
493 -0.4389931462000317 0.5182560059167569 0
494 -0.562679430189317 -0.1781226366559868 0
495 0.1781226366559868 -0.5626794301893169 0
496 0.5626794301893169 0.1781226366559868 0
497 -0.1781226366559868 0.5626794301893169 0
498 -0.5266318185103945 -0.271054626851889 0
499 -0.4999882862717916 -0.3689035029247974 0
500 0.271054626851889 -0.5266318185103945 0
501 0.3689035029247973 -0.4999882862717915 0
502 0.5266318185103945 0.271054626851889 0
503 0.4999882862717915 0.3689035029247973 0
504 -0.271054626851889 0.5266318185103945 0
505 -0.3689035029247973 0.4999882862717915 0
506 0.4039576471311226 -0.5809654132290376 0
507 0.3076441145673375 -0.6302149158763031 0
508 0.5809654132290376 0.4039576471311226 0
509 0.6302149158763031 0.3076441145673375 0
510 -0.4039576471311226 0.5809654132290376 0
511 -0.3076441145673375 0.6302149158763031 0
512 -0.5809654132290378 -0.4039576471311227 0
513 -0.6302149158763032 -0.3076441145673375 0
514 -0.2016013324111366 -0.6804357947369748 0
515 0.6804357947369748 -0.2016013324111366 0
516 0.2016013324111366 0.6804357947369748 0
517 -0.6804357947369748 0.2016013324111366 0
518 -0.5987453052629947 -0.240936013659986 0
519 0.240936013659986 -0.5987453052629947 0
520 0.5987453052629947 0.240936013659986 0
521 -0.240936013659986 0.5987453052629947 0
522 -0.7296192479919977 -0.7296192479918333 0
523 0.7296192479918333 -0.7296192479919975 0
524 0.7296192479919975 0.7296192479918333 0
525 -0.7296192479918333 0.7296192479919975 0
526 -0.219147002555029 -0.8504304075180114 0
527 -0.2498217863911851 -0.9336052234691543 0
528 0.8504304075180114 -0.219147002555029 0
529 0.9336052234691543 -0.2498217863911851 0
530 0.219147002555029 0.8504304075180115 0
531 0.2498217863911851 0.9336052234691544 0
532 -0.8504304075180114 0.219147002555029 0
533 -0.9336052234691543 0.2498217863911851 0
534 -0.210035328804298 -0.7656912531327694 0
535 0.7656912531327694 -0.210035328804298 0
536 0.210035328804298 0.7656912531327694 0
537 -0.7656912531327694 0.210035328804298 0
$EndNodes
$Elements
1072
1 1 2 1 1 21 10
2 1 2 1 1 10 19
3 1 2 1 1 19 9
4 1 2 1 1 9 18
5 1 2 1 1 18 8
6 1 2 1 1 8 17
7 1 2 1 1 17 7
8 1 2 1 1 7 16
9 1 2 1 1 16 6
10 1 2 1 1 6 15
11 1 2 1 1 15 5
12 1 2 1 1 5 14
13 1 2 1 1 14 4
14 1 2 1 1 4 13
15 1 2 1 1 13 3
16 1 2 1 1 3 12
17 1 2 1 1 12 2
18 1 2 1 1 2 11
19 1 2 1 1 11 1
20 1 2 1 1 1 20
21 1 2 1 2 20 31
22 1 2 1 2 31 40
23 1 2 1 2 40 30
24 1 2 1 2 30 39
25 1 2 1 2 39 29
26 1 2 1 2 29 38
27 1 2 1 2 38 28
28 1 2 1 2 28 37
29 1 2 1 2 37 27
30 1 2 1 2 27 36
31 1 2 1 2 36 26
32 1 2 1 2 26 35
33 1 2 1 2 35 25
34 1 2 1 2 25 34
35 1 2 1 2 34 24
36 1 2 1 2 24 33
37 1 2 1 2 33 23
38 1 2 1 2 23 32
39 1 2 1 2 32 22
40 1 2 1 2 22 41
41 1 2 1 3 41 51
42 1 2 1 3 51 60
43 1 2 1 3 60 50
44 1 2 1 3 50 59
45 1 2 1 3 59 49
46 1 2 1 3 49 58
47 1 2 1 3 58 48
48 1 2 1 3 48 57
49 1 2 1 3 57 47
50 1 2 1 3 47 56
51 1 2 1 3 56 46
52 1 2 1 3 46 55
53 1 2 1 3 55 45
54 1 2 1 3 45 54
55 1 2 1 3 54 44
56 1 2 1 3 44 53
57 1 2 1 3 53 43
58 1 2 1 3 43 52
59 1 2 1 3 52 42
60 1 2 1 3 42 61
61 1 2 1 4 61 71
62 1 2 1 4 71 80
63 1 2 1 4 80 70
64 1 2 1 4 70 79
65 1 2 1 4 79 69
66 1 2 1 4 69 78
67 1 2 1 4 78 68
68 1 2 1 4 68 77
69 1 2 1 4 77 67
70 1 2 1 4 67 76
71 1 2 1 4 76 66
72 1 2 1 4 66 75
73 1 2 1 4 75 65
74 1 2 1 4 65 74
75 1 2 1 4 74 64
76 1 2 1 4 64 73
77 1 2 1 4 73 63
78 1 2 1 4 63 72
79 1 2 1 4 72 62
80 1 2 1 4 62 21
81 2 2 8 6 20 31 187
82 2 2 8 6 31 186 187
83 2 2 8 6 31 40 186
84 2 2 8 6 187 186 131
85 2 2 8 6 41 51 189
86 2 2 8 6 51 188 189
87 2 2 8 6 51 60 188
88 2 2 8 6 189 188 132
89 2 2 8 6 61 71 191
90 2 2 8 6 71 190 191
91 2 2 8 6 71 80 190
92 2 2 8 6 191 190 133
93 2 2 8 6 21 10 193
94 2 2 8 6 10 192 193
95 2 2 8 6 10 19 192
96 2 2 8 6 193 192 130
97 2 2 8 6 20 187 1
98 2 2 8 6 187 194 1
99 2 2 8 6 187 131 194
100 2 2 8 6 1 194 11
101 2 2 8 6 41 189 22
102 2 2 8 6 189 195 22
103 2 2 8 6 189 132 195
104 2 2 8 6 22 195 32
105 2 2 8 6 61 191 42
106 2 2 8 6 191 196 42
107 2 2 8 6 191 133 196
108 2 2 8 6 42 196 52
109 2 2 8 6 21 193 62
110 2 2 8 6 193 197 62
111 2 2 8 6 193 130 197
112 2 2 8 6 62 197 72
113 2 2 8 6 106 198 200
114 2 2 8 6 198 199 200
115 2 2 8 6 198 126 199
116 2 2 8 6 200 199 171
117 2 2 8 6 107 201 203
118 2 2 8 6 201 202 203
119 2 2 8 6 201 127 202
120 2 2 8 6 203 202 172
121 2 2 8 6 108 204 206
122 2 2 8 6 204 205 206
123 2 2 8 6 204 128 205
124 2 2 8 6 206 205 173
125 2 2 8 6 109 207 209
126 2 2 8 6 207 208 209
127 2 2 8 6 207 129 208
128 2 2 8 6 209 208 170
129 2 2 8 6 102 210 212
130 2 2 8 6 210 211 212
131 2 2 8 6 210 147 211
132 2 2 8 6 212 211 146
133 2 2 8 6 103 213 215
134 2 2 8 6 213 214 215
135 2 2 8 6 213 148 214
136 2 2 8 6 215 214 147
137 2 2 8 6 104 216 218
138 2 2 8 6 216 217 218
139 2 2 8 6 216 149 217
140 2 2 8 6 218 217 148
141 2 2 8 6 105 219 221
142 2 2 8 6 219 220 221
143 2 2 8 6 219 146 220
144 2 2 8 6 221 220 149
145 2 2 8 6 102 222 210
146 2 2 8 6 222 223 210
147 2 2 8 6 222 106 223
148 2 2 8 6 210 223 147
149 2 2 8 6 103 224 213
150 2 2 8 6 224 225 213
151 2 2 8 6 224 107 225
152 2 2 8 6 213 225 148
153 2 2 8 6 104 226 216
154 2 2 8 6 226 227 216
155 2 2 8 6 226 108 227
156 2 2 8 6 216 227 149
157 2 2 8 6 105 228 219
158 2 2 8 6 228 229 219
159 2 2 8 6 228 109 229
160 2 2 8 6 219 229 146
161 2 2 8 6 170 208 231
162 2 2 8 6 208 230 231
163 2 2 8 6 208 129 230
164 2 2 8 6 231 230 86
165 2 2 8 6 171 199 233
166 2 2 8 6 199 232 233
167 2 2 8 6 199 126 232
168 2 2 8 6 233 232 87
169 2 2 8 6 172 202 235
170 2 2 8 6 202 234 235
171 2 2 8 6 202 127 234
172 2 2 8 6 235 234 88
173 2 2 8 6 173 205 237
174 2 2 8 6 205 236 237
175 2 2 8 6 205 128 236
176 2 2 8 6 237 236 89
177 2 2 8 6 15 5 239
178 2 2 8 6 5 238 239
179 2 2 8 6 5 14 238
180 2 2 8 6 239 238 110
181 2 2 8 6 36 26 241
182 2 2 8 6 26 240 241
183 2 2 8 6 26 35 240
184 2 2 8 6 241 240 111
185 2 2 8 6 56 46 243
186 2 2 8 6 46 242 243
187 2 2 8 6 46 55 242
188 2 2 8 6 243 242 112
189 2 2 8 6 76 66 245
190 2 2 8 6 66 244 245
191 2 2 8 6 66 75 244
192 2 2 8 6 245 244 113
193 2 2 8 6 14 246 238
194 2 2 8 6 246 247 238
195 2 2 8 6 246 158 247
196 2 2 8 6 238 247 110
197 2 2 8 6 35 248 240
198 2 2 8 6 248 249 240
199 2 2 8 6 248 159 249
200 2 2 8 6 240 249 111
201 2 2 8 6 55 250 242
202 2 2 8 6 250 251 242
203 2 2 8 6 250 160 251
204 2 2 8 6 242 251 112
205 2 2 8 6 75 252 244
206 2 2 8 6 252 253 244
207 2 2 8 6 252 161 253
208 2 2 8 6 244 253 113
209 2 2 8 6 102 254 222
210 2 2 8 6 254 255 222
211 2 2 8 6 254 150 255
212 2 2 8 6 222 255 106
213 2 2 8 6 103 256 224
214 2 2 8 6 256 257 224
215 2 2 8 6 256 151 257
216 2 2 8 6 224 257 107
217 2 2 8 6 104 258 226
218 2 2 8 6 258 259 226
219 2 2 8 6 258 152 259
220 2 2 8 6 226 259 108
221 2 2 8 6 105 260 228
222 2 2 8 6 260 261 228
223 2 2 8 6 260 153 261
224 2 2 8 6 228 261 109
225 2 2 8 6 81 262 263
226 2 2 8 6 262 211 263
227 2 2 8 6 262 146 211
228 2 2 8 6 263 211 147
229 2 2 8 6 81 264 262
230 2 2 8 6 264 220 262
231 2 2 8 6 264 149 220
232 2 2 8 6 262 220 146
233 2 2 8 6 81 263 265
234 2 2 8 6 263 214 265
235 2 2 8 6 263 147 214
236 2 2 8 6 265 214 148
237 2 2 8 6 81 265 264
238 2 2 8 6 265 217 264
239 2 2 8 6 265 148 217
240 2 2 8 6 264 217 149
241 2 2 8 6 98 266 267
242 2 2 8 6 266 247 267
243 2 2 8 6 266 110 247
244 2 2 8 6 267 247 158
245 2 2 8 6 99 268 269
246 2 2 8 6 268 249 269
247 2 2 8 6 268 111 249
248 2 2 8 6 269 249 159
249 2 2 8 6 100 270 271
250 2 2 8 6 270 251 271
251 2 2 8 6 270 112 251
252 2 2 8 6 271 251 160
253 2 2 8 6 101 272 273
254 2 2 8 6 272 253 273
255 2 2 8 6 272 113 253
256 2 2 8 6 273 253 161
257 2 2 8 6 18 8 275
258 2 2 8 6 8 274 275
259 2 2 8 6 8 17 274
260 2 2 8 6 275 274 114
261 2 2 8 6 39 29 277
262 2 2 8 6 29 276 277
263 2 2 8 6 29 38 276
264 2 2 8 6 277 276 115
265 2 2 8 6 59 49 279
266 2 2 8 6 49 278 279
267 2 2 8 6 49 58 278
268 2 2 8 6 279 278 116
269 2 2 8 6 79 69 281
270 2 2 8 6 69 280 281
271 2 2 8 6 69 78 280
272 2 2 8 6 281 280 117
273 2 2 8 6 13 3 283
274 2 2 8 6 3 282 283
275 2 2 8 6 3 12 282
276 2 2 8 6 283 282 119
277 2 2 8 6 34 24 285
278 2 2 8 6 24 284 285
279 2 2 8 6 24 33 284
280 2 2 8 6 285 284 120
281 2 2 8 6 54 44 287
282 2 2 8 6 44 286 287
283 2 2 8 6 44 53 286
284 2 2 8 6 287 286 121
285 2 2 8 6 74 64 289
286 2 2 8 6 64 288 289
287 2 2 8 6 64 73 288
288 2 2 8 6 289 288 118
289 2 2 8 6 95 290 292
290 2 2 8 6 290 291 292
291 2 2 8 6 290 127 291
292 2 2 8 6 292 291 143
293 2 2 8 6 96 293 295
294 2 2 8 6 293 294 295
295 2 2 8 6 293 128 294
296 2 2 8 6 295 294 144
297 2 2 8 6 97 296 298
298 2 2 8 6 296 297 298
299 2 2 8 6 296 129 297
300 2 2 8 6 298 297 145
301 2 2 8 6 94 299 301
302 2 2 8 6 299 300 301
303 2 2 8 6 299 126 300
304 2 2 8 6 301 300 142
305 2 2 8 6 82 302 303
306 2 2 8 6 302 300 303
307 2 2 8 6 302 142 300
308 2 2 8 6 303 300 126
309 2 2 8 6 83 304 305
310 2 2 8 6 304 291 305
311 2 2 8 6 304 143 291
312 2 2 8 6 305 291 127
313 2 2 8 6 84 306 307
314 2 2 8 6 306 294 307
315 2 2 8 6 306 144 294
316 2 2 8 6 307 294 128
317 2 2 8 6 85 308 309
318 2 2 8 6 308 297 309
319 2 2 8 6 308 145 297
320 2 2 8 6 309 297 129
321 2 2 8 6 15 239 311
322 2 2 8 6 239 310 311
323 2 2 8 6 239 110 310
324 2 2 8 6 311 310 134
325 2 2 8 6 36 241 313
326 2 2 8 6 241 312 313
327 2 2 8 6 241 111 312
328 2 2 8 6 313 312 135
329 2 2 8 6 56 243 315
330 2 2 8 6 243 314 315
331 2 2 8 6 243 112 314
332 2 2 8 6 315 314 136
333 2 2 8 6 76 245 317
334 2 2 8 6 245 316 317
335 2 2 8 6 245 113 316
336 2 2 8 6 317 316 137
337 2 2 8 6 101 318 320
338 2 2 8 6 318 319 320
339 2 2 8 6 318 118 319
340 2 2 8 6 320 319 138
341 2 2 8 6 98 321 323
342 2 2 8 6 321 322 323
343 2 2 8 6 321 119 322
344 2 2 8 6 323 322 139
345 2 2 8 6 99 324 326
346 2 2 8 6 324 325 326
347 2 2 8 6 324 120 325
348 2 2 8 6 326 325 140
349 2 2 8 6 100 327 329
350 2 2 8 6 327 328 329
351 2 2 8 6 327 121 328
352 2 2 8 6 329 328 141
353 2 2 8 6 86 330 332
354 2 2 8 6 330 331 332
355 2 2 8 6 330 174 331
356 2 2 8 6 332 331 113
357 2 2 8 6 87 333 335
358 2 2 8 6 333 334 335
359 2 2 8 6 333 175 334
360 2 2 8 6 335 334 110
361 2 2 8 6 88 336 338
362 2 2 8 6 336 337 338
363 2 2 8 6 336 176 337
364 2 2 8 6 338 337 111
365 2 2 8 6 89 339 341
366 2 2 8 6 339 340 341
367 2 2 8 6 339 177 340
368 2 2 8 6 341 340 112
369 2 2 8 6 102 342 254
370 2 2 8 6 342 343 254
371 2 2 8 6 342 122 343
372 2 2 8 6 254 343 150
373 2 2 8 6 103 344 256
374 2 2 8 6 344 345 256
375 2 2 8 6 344 123 345
376 2 2 8 6 256 345 151
377 2 2 8 6 104 346 258
378 2 2 8 6 346 347 258
379 2 2 8 6 346 124 347
380 2 2 8 6 258 347 152
381 2 2 8 6 105 348 260
382 2 2 8 6 348 349 260
383 2 2 8 6 348 125 349
384 2 2 8 6 260 349 153
385 2 2 8 6 90 350 352
386 2 2 8 6 350 351 352
387 2 2 8 6 350 115 351
388 2 2 8 6 352 351 143
389 2 2 8 6 91 353 355
390 2 2 8 6 353 354 355
391 2 2 8 6 353 116 354
392 2 2 8 6 355 354 144
393 2 2 8 6 92 356 358
394 2 2 8 6 356 357 358
395 2 2 8 6 356 117 357
396 2 2 8 6 358 357 145
397 2 2 8 6 93 359 361
398 2 2 8 6 359 360 361
399 2 2 8 6 359 114 360
400 2 2 8 6 361 360 142
401 2 2 8 6 82 362 363
402 2 2 8 6 362 343 363
403 2 2 8 6 362 150 343
404 2 2 8 6 363 343 122
405 2 2 8 6 83 364 365
406 2 2 8 6 364 345 365
407 2 2 8 6 364 151 345
408 2 2 8 6 365 345 123
409 2 2 8 6 84 366 367
410 2 2 8 6 366 347 367
411 2 2 8 6 366 152 347
412 2 2 8 6 367 347 124
413 2 2 8 6 85 368 369
414 2 2 8 6 368 349 369
415 2 2 8 6 368 153 349
416 2 2 8 6 369 349 125
417 2 2 8 6 16 6 370
418 2 2 8 6 6 311 370
419 2 2 8 6 6 15 311
420 2 2 8 6 370 311 134
421 2 2 8 6 37 27 371
422 2 2 8 6 27 313 371
423 2 2 8 6 27 36 313
424 2 2 8 6 371 313 135
425 2 2 8 6 57 47 372
426 2 2 8 6 47 315 372
427 2 2 8 6 47 56 315
428 2 2 8 6 372 315 136
429 2 2 8 6 77 67 373
430 2 2 8 6 67 317 373
431 2 2 8 6 67 76 317
432 2 2 8 6 373 317 137
433 2 2 8 6 86 230 330
434 2 2 8 6 230 374 330
435 2 2 8 6 230 129 374
436 2 2 8 6 330 374 174
437 2 2 8 6 87 232 333
438 2 2 8 6 232 375 333
439 2 2 8 6 232 126 375
440 2 2 8 6 333 375 175
441 2 2 8 6 88 234 336
442 2 2 8 6 234 376 336
443 2 2 8 6 234 127 376
444 2 2 8 6 336 376 176
445 2 2 8 6 89 236 339
446 2 2 8 6 236 377 339
447 2 2 8 6 236 128 377
448 2 2 8 6 339 377 177
449 2 2 8 6 18 275 379
450 2 2 8 6 275 378 379
451 2 2 8 6 275 114 378
452 2 2 8 6 379 378 162
453 2 2 8 6 39 277 381
454 2 2 8 6 277 380 381
455 2 2 8 6 277 115 380
456 2 2 8 6 381 380 163
457 2 2 8 6 59 279 383
458 2 2 8 6 279 382 383
459 2 2 8 6 279 116 382
460 2 2 8 6 383 382 164
461 2 2 8 6 79 281 385
462 2 2 8 6 281 384 385
463 2 2 8 6 281 117 384
464 2 2 8 6 385 384 165
465 2 2 8 6 12 386 282
466 2 2 8 6 386 387 282
467 2 2 8 6 386 167 387
468 2 2 8 6 282 387 119
469 2 2 8 6 33 388 284
470 2 2 8 6 388 389 284
471 2 2 8 6 388 168 389
472 2 2 8 6 284 389 120
473 2 2 8 6 53 390 286
474 2 2 8 6 390 391 286
475 2 2 8 6 390 169 391
476 2 2 8 6 286 391 121
477 2 2 8 6 73 392 288
478 2 2 8 6 392 393 288
479 2 2 8 6 392 166 393
480 2 2 8 6 288 393 118
481 2 2 8 6 95 292 394
482 2 2 8 6 292 351 394
483 2 2 8 6 292 143 351
484 2 2 8 6 394 351 115
485 2 2 8 6 96 295 395
486 2 2 8 6 295 354 395
487 2 2 8 6 295 144 354
488 2 2 8 6 395 354 116
489 2 2 8 6 97 298 396
490 2 2 8 6 298 357 396
491 2 2 8 6 298 145 357
492 2 2 8 6 396 357 117
493 2 2 8 6 94 301 397
494 2 2 8 6 301 360 397
495 2 2 8 6 301 142 360
496 2 2 8 6 397 360 114
497 2 2 8 6 93 398 399
498 2 2 8 6 398 319 399
499 2 2 8 6 398 138 319
500 2 2 8 6 399 319 118
501 2 2 8 6 90 400 401
502 2 2 8 6 400 322 401
503 2 2 8 6 400 139 322
504 2 2 8 6 401 322 119
505 2 2 8 6 91 402 403
506 2 2 8 6 402 325 403
507 2 2 8 6 402 140 325
508 2 2 8 6 403 325 120
509 2 2 8 6 92 404 405
510 2 2 8 6 404 328 405
511 2 2 8 6 404 141 328
512 2 2 8 6 405 328 121
513 2 2 8 6 19 9 406
514 2 2 8 6 9 379 406
515 2 2 8 6 9 18 379
516 2 2 8 6 406 379 162
517 2 2 8 6 40 30 407
518 2 2 8 6 30 381 407
519 2 2 8 6 30 39 381
520 2 2 8 6 407 381 163
521 2 2 8 6 60 50 408
522 2 2 8 6 50 383 408
523 2 2 8 6 50 59 383
524 2 2 8 6 408 383 164
525 2 2 8 6 80 70 409
526 2 2 8 6 70 385 409
527 2 2 8 6 70 79 385
528 2 2 8 6 409 385 165
529 2 2 8 6 12 2 386
530 2 2 8 6 2 410 386
531 2 2 8 6 2 11 410
532 2 2 8 6 386 410 167
533 2 2 8 6 33 23 388
534 2 2 8 6 23 411 388
535 2 2 8 6 23 32 411
536 2 2 8 6 388 411 168
537 2 2 8 6 53 43 390
538 2 2 8 6 43 412 390
539 2 2 8 6 43 52 412
540 2 2 8 6 390 412 169
541 2 2 8 6 73 63 392
542 2 2 8 6 63 413 392
543 2 2 8 6 63 72 413
544 2 2 8 6 392 413 166
545 2 2 8 6 110 334 310
546 2 2 8 6 334 414 310
547 2 2 8 6 334 175 414
548 2 2 8 6 310 414 134
549 2 2 8 6 111 337 312
550 2 2 8 6 337 415 312
551 2 2 8 6 337 176 415
552 2 2 8 6 312 415 135
553 2 2 8 6 112 340 314
554 2 2 8 6 340 416 314
555 2 2 8 6 340 177 416
556 2 2 8 6 314 416 136
557 2 2 8 6 113 331 316
558 2 2 8 6 331 417 316
559 2 2 8 6 331 174 417
560 2 2 8 6 316 417 137
561 2 2 8 6 19 406 192
562 2 2 8 6 406 418 192
563 2 2 8 6 406 162 418
564 2 2 8 6 192 418 130
565 2 2 8 6 40 407 186
566 2 2 8 6 407 419 186
567 2 2 8 6 407 163 419
568 2 2 8 6 186 419 131
569 2 2 8 6 60 408 188
570 2 2 8 6 408 420 188
571 2 2 8 6 408 164 420
572 2 2 8 6 188 420 132
573 2 2 8 6 80 409 190
574 2 2 8 6 409 421 190
575 2 2 8 6 409 165 421
576 2 2 8 6 190 421 133
577 2 2 8 6 11 194 410
578 2 2 8 6 194 422 410
579 2 2 8 6 194 131 422
580 2 2 8 6 410 422 167
581 2 2 8 6 32 195 411
582 2 2 8 6 195 423 411
583 2 2 8 6 195 132 423
584 2 2 8 6 411 423 168
585 2 2 8 6 52 196 412
586 2 2 8 6 196 424 412
587 2 2 8 6 196 133 424
588 2 2 8 6 412 424 169
589 2 2 8 6 72 197 413
590 2 2 8 6 197 425 413
591 2 2 8 6 197 130 425
592 2 2 8 6 413 425 166
593 2 2 8 6 93 361 398
594 2 2 8 6 361 426 398
595 2 2 8 6 361 142 426
596 2 2 8 6 398 426 138
597 2 2 8 6 90 352 400
598 2 2 8 6 352 427 400
599 2 2 8 6 352 143 427
600 2 2 8 6 400 427 139
601 2 2 8 6 91 355 402
602 2 2 8 6 355 428 402
603 2 2 8 6 355 144 428
604 2 2 8 6 402 428 140
605 2 2 8 6 92 358 404
606 2 2 8 6 358 429 404
607 2 2 8 6 358 145 429
608 2 2 8 6 404 429 141
609 2 2 8 6 102 430 342
610 2 2 8 6 430 431 342
611 2 2 8 6 430 170 431
612 2 2 8 6 342 431 122
613 2 2 8 6 103 432 344
614 2 2 8 6 432 433 344
615 2 2 8 6 432 171 433
616 2 2 8 6 344 433 123
617 2 2 8 6 104 434 346
618 2 2 8 6 434 435 346
619 2 2 8 6 434 172 435
620 2 2 8 6 346 435 124
621 2 2 8 6 105 436 348
622 2 2 8 6 436 437 348
623 2 2 8 6 436 173 437
624 2 2 8 6 348 437 125
625 2 2 8 6 86 332 439
626 2 2 8 6 332 438 439
627 2 2 8 6 332 113 438
628 2 2 8 6 439 438 178
629 2 2 8 6 87 335 441
630 2 2 8 6 335 440 441
631 2 2 8 6 335 110 440
632 2 2 8 6 441 440 179
633 2 2 8 6 88 338 443
634 2 2 8 6 338 442 443
635 2 2 8 6 338 111 442
636 2 2 8 6 443 442 180
637 2 2 8 6 89 341 445
638 2 2 8 6 341 444 445
639 2 2 8 6 341 112 444
640 2 2 8 6 445 444 181
641 2 2 8 6 98 446 266
642 2 2 8 6 446 440 266
643 2 2 8 6 446 179 440
644 2 2 8 6 266 440 110
645 2 2 8 6 99 447 268
646 2 2 8 6 447 442 268
647 2 2 8 6 447 180 442
648 2 2 8 6 268 442 111
649 2 2 8 6 100 448 270
650 2 2 8 6 448 444 270
651 2 2 8 6 448 181 444
652 2 2 8 6 270 444 112
653 2 2 8 6 101 449 272
654 2 2 8 6 449 438 272
655 2 2 8 6 449 178 438
656 2 2 8 6 272 438 113
657 2 2 8 6 98 267 321
658 2 2 8 6 267 450 321
659 2 2 8 6 267 158 450
660 2 2 8 6 321 450 119
661 2 2 8 6 99 269 324
662 2 2 8 6 269 451 324
663 2 2 8 6 269 159 451
664 2 2 8 6 324 451 120
665 2 2 8 6 100 271 327
666 2 2 8 6 271 452 327
667 2 2 8 6 271 160 452
668 2 2 8 6 327 452 121
669 2 2 8 6 101 273 318
670 2 2 8 6 273 453 318
671 2 2 8 6 273 161 453
672 2 2 8 6 318 453 118
673 2 2 8 6 13 283 454
674 2 2 8 6 283 450 454
675 2 2 8 6 283 119 450
676 2 2 8 6 454 450 158
677 2 2 8 6 34 285 455
678 2 2 8 6 285 451 455
679 2 2 8 6 285 120 451
680 2 2 8 6 455 451 159
681 2 2 8 6 54 287 456
682 2 2 8 6 287 452 456
683 2 2 8 6 287 121 452
684 2 2 8 6 456 452 160
685 2 2 8 6 74 289 457
686 2 2 8 6 289 453 457
687 2 2 8 6 289 118 453
688 2 2 8 6 457 453 161
689 2 2 8 6 38 458 276
690 2 2 8 6 458 459 276
691 2 2 8 6 458 155 459
692 2 2 8 6 276 459 115
693 2 2 8 6 58 460 278
694 2 2 8 6 460 461 278
695 2 2 8 6 460 156 461
696 2 2 8 6 278 461 116
697 2 2 8 6 78 462 280
698 2 2 8 6 462 463 280
699 2 2 8 6 462 157 463
700 2 2 8 6 280 463 117
701 2 2 8 6 17 464 274
702 2 2 8 6 464 465 274
703 2 2 8 6 464 154 465
704 2 2 8 6 274 465 114
705 2 2 8 6 94 397 466
706 2 2 8 6 397 465 466
707 2 2 8 6 397 114 465
708 2 2 8 6 466 465 154
709 2 2 8 6 95 394 467
710 2 2 8 6 394 459 467
711 2 2 8 6 394 115 459
712 2 2 8 6 467 459 155
713 2 2 8 6 96 395 468
714 2 2 8 6 395 461 468
715 2 2 8 6 395 116 461
716 2 2 8 6 468 461 156
717 2 2 8 6 97 396 469
718 2 2 8 6 396 463 469
719 2 2 8 6 396 117 463
720 2 2 8 6 469 463 157
721 2 2 8 6 86 470 231
722 2 2 8 6 470 431 231
723 2 2 8 6 470 122 431
724 2 2 8 6 231 431 170
725 2 2 8 6 87 471 233
726 2 2 8 6 471 433 233
727 2 2 8 6 471 123 433
728 2 2 8 6 233 433 171
729 2 2 8 6 88 472 235
730 2 2 8 6 472 435 235
731 2 2 8 6 472 124 435
732 2 2 8 6 235 435 172
733 2 2 8 6 89 473 237
734 2 2 8 6 473 437 237
735 2 2 8 6 473 125 437
736 2 2 8 6 237 437 173
737 2 2 8 6 102 212 430
738 2 2 8 6 212 474 430
739 2 2 8 6 212 146 474
740 2 2 8 6 430 474 170
741 2 2 8 6 103 215 432
742 2 2 8 6 215 475 432
743 2 2 8 6 215 147 475
744 2 2 8 6 432 475 171
745 2 2 8 6 104 218 434
746 2 2 8 6 218 476 434
747 2 2 8 6 218 148 476
748 2 2 8 6 434 476 172
749 2 2 8 6 105 221 436
750 2 2 8 6 221 477 436
751 2 2 8 6 221 149 477
752 2 2 8 6 436 477 173
753 2 2 8 6 106 200 223
754 2 2 8 6 200 475 223
755 2 2 8 6 200 171 475
756 2 2 8 6 223 475 147
757 2 2 8 6 107 203 225
758 2 2 8 6 203 476 225
759 2 2 8 6 203 172 476
760 2 2 8 6 225 476 148
761 2 2 8 6 108 206 227
762 2 2 8 6 206 477 227
763 2 2 8 6 206 173 477
764 2 2 8 6 227 477 149
765 2 2 8 6 109 209 229
766 2 2 8 6 209 474 229
767 2 2 8 6 209 170 474
768 2 2 8 6 229 474 146
769 2 2 8 6 90 478 350
770 2 2 8 6 478 380 350
771 2 2 8 6 478 163 380
772 2 2 8 6 350 380 115
773 2 2 8 6 91 479 353
774 2 2 8 6 479 382 353
775 2 2 8 6 479 164 382
776 2 2 8 6 353 382 116
777 2 2 8 6 92 480 356
778 2 2 8 6 480 384 356
779 2 2 8 6 480 165 384
780 2 2 8 6 356 384 117
781 2 2 8 6 93 481 359
782 2 2 8 6 481 378 359
783 2 2 8 6 481 162 378
784 2 2 8 6 359 378 114
785 2 2 8 6 93 399 482
786 2 2 8 6 399 393 482
787 2 2 8 6 399 118 393
788 2 2 8 6 482 393 166
789 2 2 8 6 90 401 483
790 2 2 8 6 401 387 483
791 2 2 8 6 401 119 387
792 2 2 8 6 483 387 167
793 2 2 8 6 91 403 484
794 2 2 8 6 403 389 484
795 2 2 8 6 403 120 389
796 2 2 8 6 484 389 168
797 2 2 8 6 92 405 485
798 2 2 8 6 405 391 485
799 2 2 8 6 405 121 391
800 2 2 8 6 485 391 169
801 2 2 8 6 106 255 198
802 2 2 8 6 255 486 198
803 2 2 8 6 255 150 486
804 2 2 8 6 198 486 126
805 2 2 8 6 107 257 201
806 2 2 8 6 257 487 201
807 2 2 8 6 257 151 487
808 2 2 8 6 201 487 127
809 2 2 8 6 108 259 204
810 2 2 8 6 259 488 204
811 2 2 8 6 259 152 488
812 2 2 8 6 204 488 128
813 2 2 8 6 109 261 207
814 2 2 8 6 261 489 207
815 2 2 8 6 261 153 489
816 2 2 8 6 207 489 129
817 2 2 8 6 82 303 362
818 2 2 8 6 303 486 362
819 2 2 8 6 303 126 486
820 2 2 8 6 362 486 150
821 2 2 8 6 83 305 364
822 2 2 8 6 305 487 364
823 2 2 8 6 305 127 487
824 2 2 8 6 364 487 151
825 2 2 8 6 84 307 366
826 2 2 8 6 307 488 366
827 2 2 8 6 307 128 488
828 2 2 8 6 366 488 152
829 2 2 8 6 85 309 368
830 2 2 8 6 309 489 368
831 2 2 8 6 309 129 489
832 2 2 8 6 368 489 153
833 2 2 8 6 82 490 302
834 2 2 8 6 490 426 302
835 2 2 8 6 490 138 426
836 2 2 8 6 302 426 142
837 2 2 8 6 83 491 304
838 2 2 8 6 491 427 304
839 2 2 8 6 491 139 427
840 2 2 8 6 304 427 143
841 2 2 8 6 84 492 306
842 2 2 8 6 492 428 306
843 2 2 8 6 492 140 428
844 2 2 8 6 306 428 144
845 2 2 8 6 85 493 308
846 2 2 8 6 493 429 308
847 2 2 8 6 493 141 429
848 2 2 8 6 308 429 145
849 2 2 8 6 86 439 470
850 2 2 8 6 439 494 470
851 2 2 8 6 439 178 494
852 2 2 8 6 470 494 122
853 2 2 8 6 87 441 471
854 2 2 8 6 441 495 471
855 2 2 8 6 441 179 495
856 2 2 8 6 471 495 123
857 2 2 8 6 88 443 472
858 2 2 8 6 443 496 472
859 2 2 8 6 443 180 496
860 2 2 8 6 472 496 124
861 2 2 8 6 89 445 473
862 2 2 8 6 445 497 473
863 2 2 8 6 445 181 497
864 2 2 8 6 473 497 125
865 2 2 8 6 82 363 499
866 2 2 8 6 363 498 499
867 2 2 8 6 363 122 498
868 2 2 8 6 499 498 182
869 2 2 8 6 83 365 501
870 2 2 8 6 365 500 501
871 2 2 8 6 365 123 500
872 2 2 8 6 501 500 183
873 2 2 8 6 84 367 503
874 2 2 8 6 367 502 503
875 2 2 8 6 367 124 502
876 2 2 8 6 503 502 184
877 2 2 8 6 85 369 505
878 2 2 8 6 369 504 505
879 2 2 8 6 369 125 504
880 2 2 8 6 505 504 185
881 2 2 8 6 98 323 507
882 2 2 8 6 323 506 507
883 2 2 8 6 323 139 506
884 2 2 8 6 507 506 183
885 2 2 8 6 99 326 509
886 2 2 8 6 326 508 509
887 2 2 8 6 326 140 508
888 2 2 8 6 509 508 184
889 2 2 8 6 100 329 511
890 2 2 8 6 329 510 511
891 2 2 8 6 329 141 510
892 2 2 8 6 511 510 185
893 2 2 8 6 101 320 513
894 2 2 8 6 320 512 513
895 2 2 8 6 320 138 512
896 2 2 8 6 513 512 182
897 2 2 8 6 94 514 299
898 2 2 8 6 514 375 299
899 2 2 8 6 514 175 375
900 2 2 8 6 299 375 126
901 2 2 8 6 95 515 290
902 2 2 8 6 515 376 290
903 2 2 8 6 515 176 376
904 2 2 8 6 290 376 127
905 2 2 8 6 96 516 293
906 2 2 8 6 516 377 293
907 2 2 8 6 516 177 377
908 2 2 8 6 293 377 128
909 2 2 8 6 97 517 296
910 2 2 8 6 517 374 296
911 2 2 8 6 517 174 374
912 2 2 8 6 296 374 129
913 2 2 8 6 122 494 498
914 2 2 8 6 494 518 498
915 2 2 8 6 494 178 518
916 2 2 8 6 498 518 182
917 2 2 8 6 123 495 500
918 2 2 8 6 495 519 500
919 2 2 8 6 495 179 519
920 2 2 8 6 500 519 183
921 2 2 8 6 124 496 502
922 2 2 8 6 496 520 502
923 2 2 8 6 496 180 520
924 2 2 8 6 502 520 184
925 2 2 8 6 125 497 504
926 2 2 8 6 497 521 504
927 2 2 8 6 497 181 521
928 2 2 8 6 504 521 185
929 2 2 8 6 93 522 481
930 2 2 8 6 522 418 481
931 2 2 8 6 522 130 418
932 2 2 8 6 481 418 162
933 2 2 8 6 90 523 478
934 2 2 8 6 523 419 478
935 2 2 8 6 523 131 419
936 2 2 8 6 478 419 163
937 2 2 8 6 91 524 479
938 2 2 8 6 524 420 479
939 2 2 8 6 524 132 420
940 2 2 8 6 479 420 164
941 2 2 8 6 92 525 480
942 2 2 8 6 525 421 480
943 2 2 8 6 525 133 421
944 2 2 8 6 480 421 165
945 2 2 8 6 90 483 523
946 2 2 8 6 483 422 523
947 2 2 8 6 483 167 422
948 2 2 8 6 523 422 131
949 2 2 8 6 91 484 524
950 2 2 8 6 484 423 524
951 2 2 8 6 484 168 423
952 2 2 8 6 524 423 132
953 2 2 8 6 92 485 525
954 2 2 8 6 485 424 525
955 2 2 8 6 485 169 424
956 2 2 8 6 525 424 133
957 2 2 8 6 93 482 522
958 2 2 8 6 482 425 522
959 2 2 8 6 482 166 425
960 2 2 8 6 522 425 130
961 2 2 8 6 98 507 446
962 2 2 8 6 507 519 446
963 2 2 8 6 507 183 519
964 2 2 8 6 446 519 179
965 2 2 8 6 99 509 447
966 2 2 8 6 509 520 447
967 2 2 8 6 509 184 520
968 2 2 8 6 447 520 180
969 2 2 8 6 100 511 448
970 2 2 8 6 511 521 448
971 2 2 8 6 511 185 521
972 2 2 8 6 448 521 181
973 2 2 8 6 101 513 449
974 2 2 8 6 513 518 449
975 2 2 8 6 513 182 518
976 2 2 8 6 449 518 178
977 2 2 8 6 16 370 527
978 2 2 8 6 370 526 527
979 2 2 8 6 370 134 526
980 2 2 8 6 527 526 154
981 2 2 8 6 37 371 529
982 2 2 8 6 371 528 529
983 2 2 8 6 371 135 528
984 2 2 8 6 529 528 155
985 2 2 8 6 57 372 531
986 2 2 8 6 372 530 531
987 2 2 8 6 372 136 530
988 2 2 8 6 531 530 156
989 2 2 8 6 77 373 533
990 2 2 8 6 373 532 533
991 2 2 8 6 373 137 532
992 2 2 8 6 533 532 157
993 2 2 8 6 94 466 534
994 2 2 8 6 466 526 534
995 2 2 8 6 466 154 526
996 2 2 8 6 534 526 134
997 2 2 8 6 95 467 535
998 2 2 8 6 467 528 535
999 2 2 8 6 467 155 528
1000 2 2 8 6 535 528 135
1001 2 2 8 6 96 468 536
1002 2 2 8 6 468 530 536
1003 2 2 8 6 468 156 530
1004 2 2 8 6 536 530 136
1005 2 2 8 6 97 469 537
1006 2 2 8 6 469 532 537
1007 2 2 8 6 469 157 532
1008 2 2 8 6 537 532 137
1009 2 2 8 6 17 7 464
1010 2 2 8 6 7 527 464
1011 2 2 8 6 7 16 527
1012 2 2 8 6 464 527 154
1013 2 2 8 6 38 28 458
1014 2 2 8 6 28 529 458
1015 2 2 8 6 28 37 529
1016 2 2 8 6 458 529 155
1017 2 2 8 6 58 48 460
1018 2 2 8 6 48 531 460
1019 2 2 8 6 48 57 531
1020 2 2 8 6 460 531 156
1021 2 2 8 6 78 68 462
1022 2 2 8 6 68 533 462
1023 2 2 8 6 68 77 533
1024 2 2 8 6 462 533 157
1025 2 2 8 6 14 4 246
1026 2 2 8 6 4 454 246
1027 2 2 8 6 4 13 454
1028 2 2 8 6 246 454 158
1029 2 2 8 6 35 25 248
1030 2 2 8 6 25 455 248
1031 2 2 8 6 25 34 455
1032 2 2 8 6 248 455 159
1033 2 2 8 6 55 45 250
1034 2 2 8 6 45 456 250
1035 2 2 8 6 45 54 456
1036 2 2 8 6 250 456 160
1037 2 2 8 6 75 65 252
1038 2 2 8 6 65 457 252
1039 2 2 8 6 65 74 457
1040 2 2 8 6 252 457 161
1041 2 2 8 6 94 534 514
1042 2 2 8 6 534 414 514
1043 2 2 8 6 534 134 414
1044 2 2 8 6 514 414 175
1045 2 2 8 6 95 535 515
1046 2 2 8 6 535 415 515
1047 2 2 8 6 535 135 415
1048 2 2 8 6 515 415 176
1049 2 2 8 6 96 536 516
1050 2 2 8 6 536 416 516
1051 2 2 8 6 536 136 416
1052 2 2 8 6 516 416 177
1053 2 2 8 6 97 537 517
1054 2 2 8 6 537 417 517
1055 2 2 8 6 537 137 417
1056 2 2 8 6 517 417 174
1057 2 2 8 6 82 499 490
1058 2 2 8 6 499 512 490
1059 2 2 8 6 499 182 512
1060 2 2 8 6 490 512 138
1061 2 2 8 6 83 501 491
1062 2 2 8 6 501 506 491
1063 2 2 8 6 501 183 506
1064 2 2 8 6 491 506 139
1065 2 2 8 6 84 503 492
1066 2 2 8 6 503 508 492
1067 2 2 8 6 503 184 508
1068 2 2 8 6 492 508 140
1069 2 2 8 6 85 505 493
1070 2 2 8 6 505 510 493
1071 2 2 8 6 505 185 510
1072 2 2 8 6 493 510 141
$EndElements
