$MeshFormat
2.2 0 8
$EndMeshFormat
$Nodes
129
1 1 0 0
2 0 1 0
3 -1 0 0
4 0 -1 0
5 0.9807852804033356 0.1950903220155996 0
6 0.9238795325116899 0.3826834323641164 0
7 0.8314696123033888 0.5555702330183399 0
8 0.7071067811878894 0.7071067811852056 0
9 0.5555702330207417 0.8314696123017838 0
10 0.382683432365871 0.9238795325109631 0
11 0.1950903220164424 0.9807852804031679 0
12 -0.1950903220155996 0.9807852804033356 0
13 -0.3826834323641164 0.9238795325116899 0
14 -0.5555702330183399 0.8314696123033888 0
15 -0.7071067811852056 0.7071067811878894 0
16 -0.8314696123017838 0.5555702330207417 0
17 -0.9238795325109631 0.382683432365871 0
18 -0.9807852804031679 0.1950903220164424 0
19 -0.9807852804033356 -0.1950903220155996 0
20 -0.9238795325116899 -0.3826834323641164 0
21 -0.8314696123033888 -0.5555702330183399 0
22 -0.7071067811878894 -0.7071067811852056 0
23 -0.5555702330207417 -0.8314696123017838 0
24 -0.382683432365871 -0.9238795325109631 0
25 -0.1950903220164424 -0.9807852804031679 0
26 0.1950903220155996 -0.9807852804033356 0
27 0.3826834323641164 -0.9238795325116899 0
28 0.5555702330183399 -0.8314696123033888 0
29 0.7071067811852056 -0.7071067811878894 0
30 0.8314696123017838 -0.5555702330207417 0
31 0.9238795325109631 -0.382683432365871 0
32 0.9807852804031679 -0.1950903220164424 0
33 -0.000836281018042535 -0.003665739011858846 0
34 0.04918157291756836 -0.4993488897640271 0
35 0.4999999999999998 0.04924570167844584 0
36 -0.5000000000000002 -0.04924570167844588 0
37 -0.04924570167844592 0.5000000000000006 0
38 -0.4515272237073706 0.3705588159785909 0
39 0.3705588159785908 0.4515272237073708 0
40 -0.3741850490768994 -0.4552167526446628 0
41 0.455803571141957 -0.3734700086690725 0
42 0.1794071614778661 -0.2249506693328067 0
43 -0.1374861471249474 -0.2414125612291357 0
44 0.2463704295181276 0.1896295092855392 0
45 -0.2706725856578303 0.1228927057197268 0
46 0.3144730321301945 -0.6344497330272675 0
47 0.6344497330272673 0.3144730321301948 0
48 -0.3144730321301951 0.6344497330272676 0
49 -0.6344497330272677 -0.3144730321301947 0
50 -0.1846555182780909 -0.6836096044123932 0
51 -0.6836096044123933 0.184655518278091 0
52 0.6836096044123933 -0.184655518278091 0
53 0.1846555182780911 0.6836096044123933 0
54 0.07435094268399726 -0.754897789552052 0
55 0.7548977895520521 0.07435094268399728 0
56 -0.7548977895520523 -0.07435094268399731 0
57 -0.07435094268399732 0.7548977895520526 0
58 -0.003342423815379658 0.2526460523842443 0
59 -0.2838271838355521 -0.09513872896715747 0
60 0.288826872443789 -0.03213330804383599 0
61 -0.2258006190468326 0.3588707234034639 0
62 0.1104409498077842 0.3782599238287301 0
63 0.5255765433819048 -0.5880352565785507 0
64 0.5878495937794127 0.5253038171424544 0
65 -0.5880808586453764 -0.5255391187328428 0
66 -0.5213124693168514 0.5857766503236119 0
67 0.6764567113088961 -0.4024385609125918 0
68 0.4000246515255004 0.6744288899090594 0
69 -0.4024732111710946 -0.6764282745766459 0
70 -0.6760676614956834 0.4022030562230228 0
71 0.4792597804931034 -0.1595903594476085 0
72 -0.4394134105913313 -0.2505531064885149 0
73 0.2490842334179544 -0.4346112012877587 0
74 0.4346112012877593 0.2490842334179539 0
75 -0.1595097105060196 -0.4748541922279277 0
76 -0.4748541922279286 0.1595097105060188 0
77 0.795711601474081 0.23134963722355 0
78 0.2313496372235499 -0.795711601474081 0
79 -0.23134963722355 0.7957116014740812 0
80 -0.7957116014740813 -0.23134963722355 0
81 -0.07166868625265382 -0.825556301395998 0
82 0.8255563013959981 -0.07166868625265389 0
83 -0.8255563013959982 0.07166868625265387 0
84 0.07166868625265388 0.8255563013959982 0
85 0.03182555587889735 -0.3231302915197058 0
86 0.01358672894182951 -0.1584905968398375 0
87 -0.08972182530315276 0.1643019896882548 0
88 0.7597081135735523 0.4053048113538414 0
89 0.4053326405619485 -0.7597270587571379 0
90 -0.4033059600664474 0.7573136042298255 0
91 -0.759731712029263 -0.4053288217202075 0
92 -0.2495039380613809 -0.8239154951392372 0
93 -0.8238786978860779 0.249476371229945 0
94 0.8239183968466098 -0.2495004023207174 0
95 0.2482417671410668 0.8211866618917353 0
96 0.1205665032840764 -0.06483222784407185 0
97 -0.1708083186159536 0.5938761028857598 0
98 0.1560354719554756 -0.6181673456464057 0
99 0.6181673456464061 0.1560354719554759 0
100 -0.6181673456464062 -0.1560354719554759 0
101 0.6367304439056438 -0.03243882759301294 0
102 -0.6367304439056443 0.03243882759301284 0
103 0.04443333695661054 0.6103687301960125 0
104 -0.03243882759301281 -0.6367304439056438 0
105 -0.3328771251416669 0.4764724288378093 0
106 -0.2831428029970573 -0.3212992303803238 0
107 0.3403846637499163 -0.2598871351488471 0
108 0.2386731673361414 0.5363813892971536 0
109 0.09604346070245746 0.1263151714695716 0
110 -0.5633077710062755 -0.6851359466991196 0
111 0.6851524120444475 -0.5632877079249434 0
112 0.562637814878386 0.6845772751346257 0
113 -0.683989131074881 0.5626641801888164 0
114 0.2817453823561046 0.3404585089811827 0
115 0.3674521258124189 0.1139565340845257 0
116 -0.3823384904303278 0.03450449639503556 0
117 -0.3438120864388225 0.2652906923965653 0
118 -0.1281595489996159 -0.03525215510666799 0
119 -0.5090322628352186 -0.3864455024990537 0
120 0.3862343450180027 -0.5076415498906623 0
121 0.5068673360182575 0.3850970765994935 0
122 -0.5715146704608439 0.2792317752464308 0
123 -0.2802058722580261 -0.5725272059654074 0
124 0.574515169454301 -0.2824751372225878 0
125 -0.07412428217278083 0.3533855896391762 0
126 0.08738767676249574 -0.8872619719494983 0
127 0.8872619719494985 0.08738767676249574 0
128 -0.8872619719494985 -0.08738767676249574 0
129 -0.08738767676249574 0.8872619719494985 0
$EndNodes
$Elements
256
1 1 2 1 1 1 5
2 1 2 1 1 5 6
3 1 2 1 1 6 7
4 1 2 1 1 7 8
5 1 2 1 1 8 9
6 1 2 1 1 9 10
7 1 2 1 1 10 11
8 1 2 1 1 11 2
9 1 2 1 2 2 12
10 1 2 1 2 12 13
11 1 2 1 2 13 14
12 1 2 1 2 14 15
13 1 2 1 2 15 16
14 1 2 1 2 16 17
15 1 2 1 2 17 18
16 1 2 1 2 18 3
17 1 2 1 3 3 19
18 1 2 1 3 19 20
19 1 2 1 3 20 21
20 1 2 1 3 21 22
21 1 2 1 3 22 23
22 1 2 1 3 23 24
23 1 2 1 3 24 25
24 1 2 1 3 25 4
25 1 2 1 4 4 26
26 1 2 1 4 26 27
27 1 2 1 4 27 28
28 1 2 1 4 28 29
29 1 2 1 4 29 30
30 1 2 1 4 30 31
31 1 2 1 4 31 32
32 1 2 1 4 32 1
33 2 2 7 6 58 109 62
34 2 2 7 6 109 44 62
35 2 2 7 6 61 97 105
36 2 2 7 6 37 97 61
37 2 2 7 6 61 87 125
38 2 2 7 6 45 87 61
39 2 2 7 6 14 15 66
40 2 2 7 6 7 8 64
41 2 2 7 6 28 29 63
42 2 2 7 6 21 22 65
43 2 2 7 6 16 17 70
44 2 2 7 6 30 31 67
45 2 2 7 6 9 10 68
46 2 2 7 6 23 24 69
47 2 2 7 6 62 108 103
48 2 2 7 6 37 62 103
49 2 2 7 6 44 109 60
50 2 2 7 6 60 109 96
51 2 2 7 6 58 125 87
52 2 2 7 6 14 66 90
53 2 2 7 6 7 64 88
54 2 2 7 6 21 65 91
55 2 2 7 6 28 63 89
56 2 2 7 6 17 93 70
57 2 2 7 6 10 95 68
58 2 2 7 6 24 92 69
59 2 2 7 6 31 94 67
60 2 2 7 6 40 65 69
61 2 2 7 6 41 63 67
62 2 2 7 6 39 64 68
63 2 2 7 6 38 66 70
64 2 2 7 6 45 59 118
65 2 2 7 6 45 118 87
66 2 2 7 6 36 72 59
67 2 2 7 6 35 60 71
68 2 2 7 6 34 73 85
69 2 2 7 6 42 85 73
70 2 2 7 6 34 85 75
71 2 2 7 6 43 75 85
72 2 2 7 6 37 125 62
73 2 2 7 6 58 62 125
74 2 2 7 6 42 107 60
75 2 2 7 6 43 59 106
76 2 2 7 6 44 114 62
77 2 2 7 6 37 61 125
78 2 2 7 6 60 107 71
79 2 2 7 6 59 72 106
80 2 2 7 6 48 90 66
81 2 2 7 6 46 89 63
82 2 2 7 6 47 88 64
83 2 2 7 6 49 91 65
84 2 2 7 6 53 68 95
85 2 2 7 6 51 70 93
86 2 2 7 6 52 67 94
87 2 2 7 6 50 69 92
88 2 2 7 6 49 72 100
89 2 2 7 6 52 101 71
90 2 2 7 6 48 66 105
91 2 2 7 6 38 105 66
92 2 2 7 6 39 68 108
93 2 2 7 6 53 108 68
94 2 2 7 6 36 100 72
95 2 2 7 6 35 71 101
96 2 2 7 6 53 103 108
97 2 2 7 6 43 118 59
98 2 2 7 6 35 115 60
99 2 2 7 6 36 59 116
100 2 2 7 6 45 116 59
101 2 2 7 6 44 60 115
102 2 2 7 6 45 61 117
103 2 2 7 6 48 105 97
104 2 2 7 6 42 60 96
105 2 2 7 6 34 98 73
106 2 2 7 6 35 99 74
107 2 2 7 6 46 73 98
108 2 2 7 6 47 74 99
109 2 2 7 6 34 75 104
110 2 2 7 6 36 76 102
111 2 2 7 6 50 104 75
112 2 2 7 6 51 102 76
113 2 2 7 6 49 119 72
114 2 2 7 6 52 71 124
115 2 2 7 6 65 110 69
116 2 2 7 6 63 111 67
117 2 2 7 6 64 112 68
118 2 2 7 6 66 113 70
119 2 2 7 6 41 107 73
120 2 2 7 6 40 75 106
121 2 2 7 6 46 63 120
122 2 2 7 6 49 65 119
123 2 2 7 6 47 64 121
124 2 2 7 6 41 120 63
125 2 2 7 6 39 121 64
126 2 2 7 6 40 119 65
127 2 2 7 6 41 67 124
128 2 2 7 6 40 69 123
129 2 2 7 6 38 70 122
130 2 2 7 6 50 123 69
131 2 2 7 6 51 122 70
132 2 2 7 6 52 124 67
133 2 2 7 6 42 73 107
134 2 2 7 6 43 106 75
135 2 2 7 6 29 111 63
136 2 2 7 6 8 112 64
137 2 2 7 6 15 113 66
138 2 2 7 6 22 110 65
139 2 2 7 6 16 70 113
140 2 2 7 6 30 67 111
141 2 2 7 6 23 69 110
142 2 2 7 6 9 68 112
143 2 2 7 6 12 13 79
144 2 2 7 6 26 27 78
145 2 2 7 6 5 6 77
146 2 2 7 6 19 20 80
147 2 2 7 6 2 84 11
148 2 2 7 6 3 83 18
149 2 2 7 6 4 81 25
150 2 2 7 6 1 82 32
151 2 2 7 6 33 96 109
152 2 2 7 6 39 114 74
153 2 2 7 6 54 78 98
154 2 2 7 6 55 77 99
155 2 2 7 6 57 79 97
156 2 2 7 6 56 80 100
157 2 2 7 6 55 101 82
158 2 2 7 6 54 104 81
159 2 2 7 6 56 102 83
160 2 2 7 6 57 103 84
161 2 2 7 6 46 98 78
162 2 2 7 6 47 99 77
163 2 2 7 6 49 100 80
164 2 2 7 6 48 97 79
165 2 2 7 6 52 82 101
166 2 2 7 6 50 81 104
167 2 2 7 6 51 83 102
168 2 2 7 6 53 84 103
169 2 2 7 6 42 86 85
170 2 2 7 6 40 72 119
171 2 2 7 6 41 124 71
172 2 2 7 6 38 76 117
173 2 2 7 6 39 74 121
174 2 2 7 6 41 73 120
175 2 2 7 6 38 122 76
176 2 2 7 6 40 123 75
177 2 2 7 6 44 74 114
178 2 2 7 6 40 106 72
179 2 2 7 6 41 71 107
180 2 2 7 6 62 114 108
181 2 2 7 6 39 108 114
182 2 2 7 6 45 117 76
183 2 2 7 6 35 74 115
184 2 2 7 6 44 115 74
185 2 2 7 6 36 116 76
186 2 2 7 6 61 105 117
187 2 2 7 6 45 76 116
188 2 2 7 6 38 117 105
189 2 2 7 6 46 120 73
190 2 2 7 6 47 121 74
191 2 2 7 6 50 75 123
192 2 2 7 6 51 76 122
193 2 2 7 6 42 96 86
194 2 2 7 6 6 7 88
195 2 2 7 6 13 14 90
196 2 2 7 6 20 21 91
197 2 2 7 6 27 28 89
198 2 2 7 6 10 11 95
199 2 2 7 6 17 18 93
200 2 2 7 6 24 25 92
201 2 2 7 6 31 32 94
202 2 2 7 6 33 87 118
203 2 2 7 6 58 87 109
204 2 2 7 6 33 109 87
205 2 2 7 6 5 77 127
206 2 2 7 6 12 79 129
207 2 2 7 6 19 80 128
208 2 2 7 6 26 78 126
209 2 2 7 6 2 129 84
210 2 2 7 6 3 128 83
211 2 2 7 6 4 126 81
212 2 2 7 6 1 127 82
213 2 2 7 6 29 30 111
214 2 2 7 6 15 16 113
215 2 2 7 6 22 23 110
216 2 2 7 6 8 9 112
217 2 2 7 6 57 97 103
218 2 2 7 6 55 99 101
219 2 2 7 6 56 100 102
220 2 2 7 6 54 98 104
221 2 2 7 6 37 103 97
222 2 2 7 6 35 101 99
223 2 2 7 6 34 104 98
224 2 2 7 6 36 102 100
225 2 2 7 6 55 127 77
226 2 2 7 6 57 129 79
227 2 2 7 6 56 128 80
228 2 2 7 6 54 126 78
229 2 2 7 6 55 82 127
230 2 2 7 6 56 83 128
231 2 2 7 6 54 81 126
232 2 2 7 6 57 84 129
233 2 2 7 6 43 86 118
234 2 2 7 6 4 26 126
235 2 2 7 6 1 5 127
236 2 2 7 6 2 12 129
237 2 2 7 6 3 19 128
238 2 2 7 6 27 89 78
239 2 2 7 6 6 88 77
240 2 2 7 6 20 91 80
241 2 2 7 6 13 90 79
242 2 2 7 6 51 93 83
243 2 2 7 6 52 94 82
244 2 2 7 6 50 92 81
245 2 2 7 6 53 95 84
246 2 2 7 6 46 78 89
247 2 2 7 6 47 77 88
248 2 2 7 6 49 80 91
249 2 2 7 6 48 79 90
250 2 2 7 6 11 84 95
251 2 2 7 6 25 81 92
252 2 2 7 6 32 82 94
253 2 2 7 6 18 83 93
254 2 2 7 6 43 85 86
255 2 2 7 6 33 86 96
256 2 2 7 6 33 118 86
$EndElements
