$MeshFormat
2.2 0 8
$EndMeshFormat
$Nodes
470
1 0.03 0 0
2 0 0.03 0
3 -0.03 0 0
4 0 -0.03 0
5 0.02985554180016661 0.00294051420987971 0
6 0.02942355841209942 0.005852709660471257 0
7 0.02870821007197251 0.008708540317613284 0
8 0.02771638597535001 0.01148050297092515 0
9 0.02645763793046752 0.01414190210474838 0
10 0.02494408836910022 0.01666710699055235 0
11 0.02319031360091463 0.01903179852486973 0
12 0.02121320343563626 0.02121320343555659 0
13 0.01903179852494792 0.02319031360085046 0
14 0.01666710699062273 0.0249440883690532 0
15 0.01414190210481002 0.02645763793043457 0
16 0.01148050297097652 0.02771638597532873 0
17 0.008708540317651992 0.02870821007196077 0
18 0.005852709660494166 0.02942355841209486 0
19 0.002940514209893784 0.02985554180016522 0
20 -0.00294051420987971 0.02985554180016661 0
21 -0.005852709660471257 0.02942355841209942 0
22 -0.008708540317613284 0.02870821007197251 0
23 -0.01148050297092515 0.02771638597535001 0
24 -0.01414190210474838 0.02645763793046752 0
25 -0.01666710699055235 0.02494408836910022 0
26 -0.01903179852486973 0.02319031360091463 0
27 -0.02121320343555659 0.02121320343563626 0
28 -0.02319031360085046 0.01903179852494792 0
29 -0.0249440883690532 0.01666710699062273 0
30 -0.02645763793043457 0.01414190210481002 0
31 -0.02771638597532873 0.01148050297097652 0
32 -0.02870821007196077 0.008708540317651992 0
33 -0.02942355841209486 0.005852709660494166 0
34 -0.02985554180016522 0.002940514209893784 0
35 -0.02985554180016661 -0.00294051420987971 0
36 -0.02942355841209942 -0.005852709660471257 0
37 -0.02870821007197251 -0.008708540317613284 0
38 -0.02771638597535001 -0.01148050297092515 0
39 -0.02645763793046752 -0.01414190210474838 0
40 -0.02494408836910022 -0.01666710699055235 0
41 -0.02319031360091463 -0.01903179852486973 0
42 -0.02121320343563626 -0.02121320343555659 0
43 -0.01903179852494792 -0.02319031360085046 0
44 -0.01666710699062273 -0.0249440883690532 0
45 -0.01414190210481002 -0.02645763793043457 0
46 -0.01148050297097652 -0.02771638597532873 0
47 -0.008708540317651992 -0.02870821007196077 0
48 -0.005852709660494166 -0.02942355841209486 0
49 -0.002940514209893784 -0.02985554180016522 0
50 0.00294051420987971 -0.02985554180016661 0
51 0.005852709660471257 -0.02942355841209942 0
52 0.008708540317613284 -0.02870821007197251 0
53 0.01148050297092515 -0.02771638597535001 0
54 0.01414190210474838 -0.02645763793046752 0
55 0.01666710699055235 -0.02494408836910022 0
56 0.01903179852486973 -0.02319031360091463 0
57 0.02121320343555659 -0.02121320343563626 0
58 0.02319031360085046 -0.01903179852494792 0
59 0.0249440883690532 -0.01666710699062273 0
60 0.02645763793043457 -0.01414190210481002 0
61 0.02771638597532873 -0.01148050297097652 0
62 0.02870821007196077 -0.008708540317651992 0
63 0.02942355841209486 -0.005852709660494166 0
64 0.02985554180016522 -0.002940514209893784 0
65 -0.0003556349588476261 3.919708317400183e-05 0
66 -0.003649098197130662 0.01456801661193299 0
67 -0.01468897975782349 -0.003927584106548866 0
68 0.01465163813281228 0.003839445658919536 0
69 0.003583772677067889 -0.01478103983829379 0
70 0.008851880020149566 0.01487601724282046 0
71 -0.01481916720445281 0.008946728578999405 0
72 -0.009089065010175059 -0.01503604158790477 0
73 0.01495262030507066 -0.008962255708974971 0
74 -0.006402948919141985 0.006170926344072889 0
75 0.002666925095074004 0.008535180976143709 0
76 -0.005881548430356527 -0.006439670156004542 0
77 0.008454641505449024 -0.002848880602490982 0
78 -0.01207259461604385 0.01735409589622548 0
79 -0.01731847938758231 -0.01213503845980652 0
80 0.01735409589622548 0.01207259461604385 0
81 0.01236887484491098 -0.01746289793669237 0
82 -0.02099592790144472 0.002466413731724486 0
83 0.002466413731724489 0.02099592790144471 0
84 0.02099395276929498 -0.002538273791317953 0
85 -0.002346820025336384 -0.02104232834955672 0
86 -0.02159428289879654 -0.005401290065478064 0
87 -0.005401290065478066 0.02159428289879653 0
88 0.02159428289879654 0.005401290065478068 0
89 0.005622916867227543 -0.02171836547988006 0
90 0.002144308803532969 -0.007240091356412916 0
91 0.008129142973458113 0.003924177472448115 0
92 -0.008832171653301654 5.061727463998662e-05 0
93 -0.003176559535164323 -0.01303764665735776 0
94 0.008917053636699781 -0.009874942087793499 0
95 0.01475004250640646 0.01815100045428822 0
96 -0.01815100045428822 0.01475004250640646 0
97 -0.01475004250640646 -0.01815100045428822 0
98 0.01813098675491003 -0.01498057067394407 0
99 0.02170174202536184 -0.008945749746316199 0
100 0.008945749746316191 0.02170174202536184 0
101 -0.02170174202536184 0.008945749746316182 0
102 -0.008888365273945667 -0.02159594226058694 0
103 0.01146702243188349 0.009070809373834237 0
104 -0.01438896086063074 0.002594222716150878 0
105 -0.009233472253330419 0.0118367318326507 0
106 -0.01174930804462264 -0.009253886048733492 0
107 0.002563398763403517 0.01479169419339398 0
108 0.01472421629226129 -0.002622613412052765 0
109 -0.002362092180004339 0.009539767548905197 0
110 -0.02300781608640678 -0.0107338490851672 0
111 0.02300781608640678 0.0107338490851672 0
112 0.01072235481747494 -0.02244797217848034 0
113 -0.0107338490851672 0.02300781608640677 0
114 -0.001106203703738228 0.02534011830748585 0
115 0.02534011830748585 0.001106203703738232 0
116 0.0008028844732849202 -0.02510735543313732 0
117 -0.02534011830748585 -0.001106203703738229 0
118 -0.0005137837202499439 0.00488042577374303 0
119 -0.001725059065076891 -0.0045018011897027 0
120 -0.004437425428265922 0.002237233475297194 0
121 0.004900834835966867 0.0002246960931131895 0
122 -0.01919287980071568 -0.01645735403563633 0
123 -0.01645735403563633 0.01919287980071568 0
124 0.01919287980071568 0.01645735403563633 0
125 0.01686638172998624 -0.01917822387969926 0
126 0.005466629570614131 0.02468455180951412 0
127 -0.02468455180951413 0.005466629570614126 0
128 -0.0056982797351619 -0.02483483306560355 0
129 0.02468455180951412 -0.005466629570614149 0
130 -0.0007490763325011519 -0.01628210721361049 0
131 -0.007361328136622752 0.01729455235473977 0
132 -0.01725373780143454 -0.007492277851325165 0
133 0.01722664856373024 0.007355723904257365 0
134 0.007341102317114595 -0.01753246253139058 0
135 -0.01870593412841892 -0.001606927007171729 0
136 -0.001678116787474801 0.01880670130174745 0
137 0.01870490798843167 0.001424035985901958 0
138 0.006747134522282431 0.01073929827199518 0
139 -0.01101291156983213 0.006290638313534755 0
140 0.01235049712943362 -0.01256206304338747 0
141 -0.005107895537010466 -0.01732242359904899 0
142 0.01123875862614969 -0.006399686406547615 0
143 -0.01022399023214776 -0.004515454936623731 0
144 0.01112573855877278 0.0008664725375575824 0
145 -0.006992568791969381 -0.01090902614870293 0
146 -0.01393397582428662 0.01330278672046869 0
147 0.01331406899040022 0.01390947490832704 0
148 -0.01330278672046869 -0.01393397582428662 0
149 -0.01829884164037627 0.005990853021643489 0
150 0.01830044121844613 -0.006017779325654006 0
151 0.006017779325653999 0.01830044121844612 0
152 -0.02206567208531884 0.01322425425976932 0
153 0.01322425425976932 0.02206567208531884 0
154 -0.01322425425976932 -0.02206567208531884 0
155 0.02206567208531885 -0.01322425425976932 0
156 0.001894716417822191 -0.01994043619016504 0
157 0.003692467424850006 0.004105037606862969 0
158 0.001251805632712019 -0.01118252332685884 0
159 0.006304798204746545 -0.00633693585298265 0
160 -0.005091957695871377 -0.002147748531920752 0
161 0.002597928490694911 -0.003151404102157663 0
162 -0.001864101998203611 -0.008341189413725837 0
163 0.008308440490885003 -0.01387329342699617 0
164 -0.00737973974965286 0.02485605520306669 0
165 0.007878495425607597 -0.02484622587661934 0
166 -0.0248560552030667 -0.007379739749652857 0
167 0.0248560552030667 0.007379739749652861 0
168 -0.01822014688076336 0.01105099337950286 0
169 0.01105099337950286 0.01822014688076336 0
170 -0.0111372073426575 -0.0180249503510499 0
171 0.01823184530711705 -0.01092774753555726 0
172 0.01078904799605173 0.005461638399082726 0
173 -0.01217000847926597 -0.0003041603388639383 0
174 -0.005246589327342672 0.01143515649892644 0
175 -0.0008436246106161322 0.01255696522147452 0
176 0.004956465955412043 -0.01065227196699553 0
177 0.01434414715638739 -0.02214938004491135 0
178 -0.01440893232253983 0.02187202038947396 0
179 0.02187202038947396 0.01440893232253982 0
180 -0.02187202038947396 -0.01440893232253983 0
181 -0.002209262920300658 -0.02629579341581172 0
182 0.026142094434317 -0.002363376485562259 0
183 -0.026142094434317 0.002363376485562258 0
184 0.002363376485562259 0.026142094434317 0
185 -0.009374515243271746 0.003463770493459037 0
186 0.00647317415860435 0.007655435880676137 0
187 0.009336343507554331 0.02511048933262105 0
188 -0.02511048933262105 0.009336343507554325 0
189 -0.008927112691282669 -0.02498295370947321 0
190 0.02511048933262105 -0.009336343507554336 0
191 -0.0178034773652359 -0.01998672059472134 0
192 0.0178034773652359 0.01998672059472134 0
193 0.01966989674123031 -0.017872904966282 0
194 -0.01998672059472134 0.0178034773652359 0
195 -0.02665356018293486 -0.00425921167217103 0
196 0.02665356018293486 0.004259211672171031 0
197 -0.004259211672171031 0.02665356018293486 0
198 0.003931626539079478 -0.02644642370843768 0
199 0.01511854158124234 0.009761595811023706 0
200 -0.01793963365685401 0.001484830771786347 0
201 0.01478993603895778 -0.01494049518371722 0
202 -0.005723596184927852 -0.02053432703202073 0
203 -0.005661454991197773 -0.01400147685692159 0
204 -0.01423715739049898 -0.006790381855710149 0
205 -0.0097932754142216 0.01527015990467081 0
206 0.01582881551756417 0.0004396691575464084 0
207 0.001436794993718667 0.01809218473776454 0
208 -0.01166254519756609 0.009454658626703994 0
209 0.005828551381741077 0.01383595023925658 0
210 0.004047203202845347 -0.01785349118594068 0
211 -0.008547648835409101 0.008514745058566468 0
212 0.00352686602914956 0.01157600193366401 0
213 -0.01611211880755483 -0.01512201325705336 0
214 -0.01513387368538435 0.01612560640792043 0
215 0.01612011678475374 0.01511579337540338 0
216 -0.0213593398860294 0.005718358953455259 0
217 0.005731716572846342 0.02137270430055921 0
218 0.02135521833177916 -0.005727614619696901 0
219 0.01422702215094937 -0.005753019157218245 0
220 0.01071070893754104 0.01238598703760409 0
221 -0.01528471584015217 0.005874472106173757 0
222 -0.01513561652715729 -0.009965344019851994 0
223 0.01804895416803201 -0.001693035779640937 0
224 -0.009758864596210665 -0.01166544615577878 0
225 -0.003098794201651146 0.006494391349925427 0
226 0.007913313179454949 0.000697417844201474 0
227 0.01158099445022709 -0.003548911493282561 0
228 0.0115220957095608 -0.009559907585654144 0
229 -0.009197426984139733 -0.008837453989888989 0
230 -0.008280085901580719 0.02050725298812311 0
231 -0.02050725298812313 -0.008280085901580712 0
232 0.02050725298812313 0.008280085901580719 0
233 0.008060558118870114 -0.02046078064296555 0
234 -0.002364668312606121 0.02198898795824399 0
235 -0.02198898795824399 -0.002364668312606124 0
236 0.021988987958244 0.002364668312606127 0
237 0.01538971536138013 -0.01184597832409827 0
238 0.01400315924547058 0.006354018704304444 0
239 -0.01544133884915052 -0.0008233934778301276 0
240 -0.006839484745280505 0.01392243556174844 0
241 -0.0004680002377671173 0.01549227284681117 0
242 -0.008237647953741019 -0.01839881871824485 0
243 0.005508688134478269 -0.003439708315146926 0
244 -0.004379804621949381 -0.008973836281069795 0
245 -0.004760532578243613 0.01900511138232247 0
246 -0.01905404617211363 -0.004707919411430214 0
247 0.01902692152251171 0.00470961301265231 0
248 0.0009605189127706206 -0.01368291521371594 0
249 -5.213173654290274e-05 0.007671700465518135 0
250 0.00125532585188345 0.002599410645002287 0
251 0.008949513565619805 0.007153307525964596 0
252 -0.01155694404437166 0.002091385898079939 0
253 0.01229400893374116 0.02468598933825657 0
254 -0.02468598933825657 0.01229400893374115 0
255 -0.0118574587574084 -0.02470351846481356 0
256 0.02468598933825657 -0.01229400893374116 0
257 -0.01603366831810197 -0.02244768668444354 0
258 -0.02244768668444353 0.01603366831810197 0
259 0.01603366831810197 0.02244768668444354 0
260 0.0223948827088617 -0.01604523958494299 0
261 -0.002404709060888956 -0.002078526092984312 0
262 -0.007375088608825588 -0.003952750551489794 0
263 -0.003114698180148016 -0.01548855040191617 0
264 -0.005528471428531715 0.008773340916653797 0
265 -0.001640525023313749 0.002294551785360865 0
266 -0.02000559008585273 -0.01179787427921937 0
267 -0.01179044048829524 0.02000983014640548 0
268 0.02000983014640549 0.01179044048829524 0
269 0.01235654047917474 -0.02015525473100604 0
270 0.0009941748421659383 0.0232109633862891 0
271 0.02321072825150938 -0.001002729611165152 0
272 -0.02321096338628911 0.0009941748421659368 0
273 -0.001396374492300295 -0.02360018059597211 0
274 0.002818413908117615 -0.0226558328445479 0
275 0.02551834045656044 0.01200956321838139 0
276 -0.01200956321838139 0.02551834045656044 0
277 -0.02551834045656044 -0.01200956321838139 0
278 0.01181445725992467 -0.02497957112703225 0
279 0.02785905751716636 0.001459821787915561 0
280 -0.001459821787915561 0.02785905751716636 0
281 -0.02785905751716636 -0.001459821787915563 0
282 0.001355867232300068 -0.02759931155093219 0
283 0.009409611209353012 -0.01624549974940336 0
284 0.0008257685609161711 0.01037365166298355 0
285 0.004494128368459036 -0.007936934678951096 0
286 -0.002654310598533646 -0.01834458927843294 0
287 -0.003306951746037324 -0.006538662531734636 0
288 0.008783355438302241 -0.005458031151106326 0
289 -0.003025351078773451 0.01202497647030979 0
290 -0.02024796530443281 -0.01855331592239961 0
291 0.02024796530443281 0.01855331592239962 0
292 -0.01855331592239962 0.02024796530443281 0
293 0.01866795730841128 -0.0205969168841572 0
294 -0.02645629285352618 0.006860116839027892 0
295 0.006860116839027893 0.02645629285352617 0
296 0.02645629285352617 -0.0068601168390279 0
297 -0.006754349104427893 -0.026964873138527 0
298 0.00622252498198805 -0.01529597398829249 0
299 -0.01149846994626647 -0.006681452316784477 0
300 0.01287897834825027 -0.0007571866234667823 0
301 0.0009681817064411939 -0.004951968296606006 0
302 -0.01568679949287535 0.0112464156867555 0
303 0.01127420787314492 0.01563199150877296 0
304 -0.01155806001462798 -0.01552759125996362 0
305 -0.01723290841374761 0.008476305574737341 0
306 0.008607628265636172 0.01712079027212512 0
307 0.01748123107124294 -0.008461797622928246 0
308 -0.006997368266328499 0.001785835049741522 0
309 -0.01176652745495499 0.01267034034976099 0
310 0.004404093792755432 0.01672237654947514 0
311 0.001660475372298123 -0.01678094428524302 0
312 -0.01822324125577172 -0.009840651645572244 0
313 0.01840980989925268 0.009743284503088371 0
314 -0.009785653456537516 0.01829223277052828 0
315 0.02074169254596946 -5.099476913848494e-05 0
316 7.938179044622814e-06 0.02075242389800864 0
317 -0.02076110186128099 -1.255551509548769e-05 0
318 0.005642959763039407 0.002644410502141361 0
319 0.01302745799324205 0.01139660912886138 0
320 -0.01686151657886693 0.003909810745076498 0
321 0.0001453199346609166 -0.002598276123558959 0
322 0.00193555007504159 0.006101789253710311 0
323 -0.004717384742481271 0.004426811967431708 0
324 0.01493367113175851 -0.0176418393150933 0
325 0.002304256988367669 -0.0003874516720102905 0
326 0.01004317363114973 -0.0190508112949897 0
327 -0.0121534696018961 -0.003039993433892352 0
328 0.01236515467276523 0.003494078585967986 0
329 -0.01287245110522376 -0.01977793392687596 0
330 0.01293800361062834 0.01980934889065432 0
331 0.01940014641842497 -0.01295807299861839 0
332 -0.01980934889065432 0.01293800361062834 0
333 -0.0127079101501161 -0.01181091858446772 0
334 0.01678993176734372 -0.004441320859030384 0
335 0.00376986622231445 -0.005480125455680621 0
336 -0.01656737302979204 -0.00507987478067437 0
337 0.01639838212809213 0.00501971192839663 0
338 -0.005079819842620827 0.01644442549466781 0
339 -0.02731240786192348 0.004696669353118445 0
340 0.02731240786192347 -0.004696669353118452 0
341 0.004696669353118446 0.02731240786192348 0
342 -0.004356686237511522 -0.02748027707420534 0
343 0.02188945349292746 0.01702370155919957 0
344 -0.02188945349292746 -0.01702370155919957 0
345 -0.01702370155919957 0.02188945349292746 0
346 0.01679636717477322 -0.02218171302622773 0
347 0.005784852033226171 -0.01959118107421909 0
348 0.02712812342252215 0.006679023226246777 0
349 -0.006679023226246768 0.02712812342252214 0
350 -0.02712812342252215 -0.006679023226246775 0
351 0.006826925354224352 -0.02686979920748556 0
352 0.009830870184250884 -0.01182382154962882 0
353 -0.004336670950171979 -0.02253917153913733 0
354 -0.006828805799371286 -0.02283236519245133 0
355 0.01687817447936858 -0.01692280680374717 0
356 -0.0238537883383822 -0.004688100477196222 0
357 -0.004688100477196225 0.02385378833838219 0
358 0.0238537883383822 0.004688100477196225 0
359 0.01890978860351487 0.01396902296758372 0
360 -0.0189002176942359 -0.01398424247085108 0
361 -0.01397263902957992 0.01891088652814821 0
362 0.02327730911928293 -0.003419724815671283 0
363 -0.02327857548351887 0.003401790716704413 0
364 0.003404462240582632 0.02328124836642483 0
365 -0.01721256086024039 -0.01758398143720823 0
366 0.0172129772480579 0.01758365761996281 0
367 -0.0175845989105699 0.01721326304684834 0
368 0.007395101899371466 0.02346980141918749 0
369 -0.02346910564583631 0.007394406479786335 0
370 0.02346889107095863 -0.007394888344959286 0
371 0.006402046967545373 -0.001376817387458904 0
372 0.004899536982611774 0.009105995114125163 0
373 -0.008698040996367978 0.005723677539847991 0
374 0.0003984498417238588 -0.008925038160457472 0
375 0.009154089343491562 0.0101640344872141 0
376 -0.01301906398538818 0.00465247934501373 0
377 0.008274182199683183 0.01257784544525073 0
378 -0.01323759967248718 0.007192524496169443 0
379 0.01661861463902386 0.002768279894506567 0
380 0.0115883933919462 -0.01487530348167896 0
381 0.0003648971284073475 -0.02203802832448811 0
382 -0.004532660852448203 -0.004412256250067127 0
383 -0.01685416867675302 -0.003086617529429425 0
384 -0.0003789778326979709 -0.01895120469714372 0
385 0.009038087986666679 -0.007693461411599189 0
386 -0.01357380303482717 0.01112418599253771 0
387 0.006706839688732672 0.01613328332180484 0
388 -0.001450459964139547 -0.01105223297524045 0
389 0.01031761654083178 -0.001239618472502638 0
390 0.01006447947610056 0.002888756967851576 0
391 -0.009755696279591488 -0.002248203704693982 0
392 -0.01500774723799272 -0.01248357170619381 0
393 0.01912704527614714 -0.003914056578967302 0
394 0.007240941417406152 -0.01156599096763441 0
395 0.009804111496605143 -0.02612304522885097 0
396 -0.009804111496605143 0.02612304522885097 0
397 -0.02612304522885098 -0.009804111496605138 0
398 0.02612304522885098 0.00980411149660515 0
399 0.0150313970969439 0.01245441469386457 0
400 -0.01912970533933542 0.00389694863423783 0
401 -0.003127113528647404 0.01686330552749638 0
402 0.005782644575631269 -0.02420439543278929 0
403 -0.02412021488150135 0.01447218812140904 0
404 0.01447218812140904 0.02412021488150135 0
405 -0.01441754207723617 -0.02414278827344854 0
406 0.02410965408638498 -0.01447450237477724 0
407 -0.008451547321089631 -0.006352604438892974 0
408 -0.007617489359531044 0.02268972547976524 0
409 -0.02268972547976525 -0.007617489359531028 0
410 0.007617489359531031 -0.02268972547976525 0
411 0.02268972547976525 0.007617489359531032 0
412 -0.01256410017903679 0.0150643359211052 0
413 0.00397812332140186 0.01921021284842082 0
414 -0.00689774412226398 -0.01591415950332411 0
415 0.01347657840243243 -0.01056246286002842 0
416 0.006171338239334599 0.005314587522746144 0
417 -0.004609433810774548 -0.01143999021153861 0
418 -0.007721485539064803 -0.01305548843206757 0
419 -0.01622515926751958 0.01329516894021079 0
420 0.01330188590684164 0.01620568142551099 0
421 -0.01344984958409426 -0.01615810582758708 0
422 -0.01959215350511961 0.008172948723878732 0
423 0.008187541123053936 0.01958389209788977 0
424 0.01961404968774448 -0.008164311663887031 0
425 -0.02257529351579821 0.01108184870436636 0
426 0.01108184870436637 0.0225752935157982 0
427 -0.01108184870436637 -0.0225752935157982 0
428 0.02257529351579823 -0.01108184870436637 0
429 0.01298901219502128 -0.007835575511532239 0
430 0.003520174986934097 0.001882203491115366 0
431 0.004259148059114586 0.006689333465522057 0
432 0.003120638524095698 -0.01229508777779413 0
433 0.003981865964197912 -0.02036298826236999 0
434 0.00274111746352046 -0.009599718946018687 0
435 -0.005889649675227875 9.046637600070485e-05 0
436 0.01370915616474499 -0.02424034403533479 0
437 0.02430586214311876 0.01381061273918222 0
438 -0.01381061273918222 0.02430586214311875 0
439 -0.02430586214311875 -0.01381061273918223 0
440 -0.0007989115349801765 -0.02796555922771279 0
441 0.02783936241182688 -0.00054757304076045 0
442 -0.02783936241182689 0.00054757304076045 0
443 0.0005475730407604508 0.02783936241182688 0
444 -0.0007440189211106666 -0.006584831385582683 0
445 -0.003144677055922526 0.0001740957524543068 0
446 0.02033231694174917 -0.01501620849671135 0
447 0.0149498892120284 0.02049208574188525 0
448 -0.01493677871094749 -0.02048580274912958 0
449 -0.02049208574188525 0.0149498892120284 0
450 -0.002734133387333034 0.004152825925900935 0
451 -0.007291519500670557 0.0106949685332931 0
452 0.001396222595326722 0.01287503176547778 0
453 -0.007343765629319926 -0.00168998890700643 0
454 0.006825245928231705 -0.009010089494326062 0
455 0.005501043655701763 -0.01312134662277603 0
456 0.01457579723406867 -0.01985879825809939 0
457 -0.003525439939790475 -0.02481698324947398 0
458 -0.02057591487715293 0.01087868901392353 0
459 0.01088042620430154 0.02057493137629223 0
460 -0.0109069624399506 -0.02040643514297912 0
461 0.0205981248399609 -0.01088366415141909 0
462 -0.006848464455297115 0.00401621064038819 0
463 -0.001424179297376527 -0.01392552395216754 0
464 -0.01274744671078906 -0.00499705949252467 0
465 0.01380879260959431 0.001710932071061115 0
466 0.01635024930261057 -0.006727234534761171 0
467 0.01725913346011189 -0.01293320328165275 0
468 0.004254873691699064 -0.001721308760452181 0
469 -0.006737745645890962 -0.008472252634661169 0
470 -0.0112833372983197 -0.0135947946824803 0
$EndNodes
$Elements
938
1 1 2 1 1 1 5
2 1 2 1 1 5 6
3 1 2 1 1 6 7
4 1 2 1 1 7 8
5 1 2 1 1 8 9
6 1 2 1 1 9 10
7 1 2 1 1 10 11
8 1 2 1 1 11 12
9 1 2 1 1 12 13
10 1 2 1 1 13 14
11 1 2 1 1 14 15
12 1 2 1 1 15 16
13 1 2 1 1 16 17
14 1 2 1 1 17 18
15 1 2 1 1 18 19
16 1 2 1 1 19 2
17 1 2 1 2 2 20
18 1 2 1 2 20 21
19 1 2 1 2 21 22
20 1 2 1 2 22 23
21 1 2 1 2 23 24
22 1 2 1 2 24 25
23 1 2 1 2 25 26
24 1 2 1 2 26 27
25 1 2 1 2 27 28
26 1 2 1 2 28 29
27 1 2 1 2 29 30
28 1 2 1 2 30 31
29 1 2 1 2 31 32
30 1 2 1 2 32 33
31 1 2 1 2 33 34
32 1 2 1 2 34 3
33 1 2 1 3 3 35
34 1 2 1 3 35 36
35 1 2 1 3 36 37
36 1 2 1 3 37 38
37 1 2 1 3 38 39
38 1 2 1 3 39 40
39 1 2 1 3 40 41
40 1 2 1 3 41 42
41 1 2 1 3 42 43
42 1 2 1 3 43 44
43 1 2 1 3 44 45
44 1 2 1 3 45 46
45 1 2 1 3 46 47
46 1 2 1 3 47 48
47 1 2 1 3 48 49
48 1 2 1 3 49 4
49 1 2 1 4 4 50
50 1 2 1 4 50 51
51 1 2 1 4 51 52
52 1 2 1 4 52 53
53 1 2 1 4 53 54
54 1 2 1 4 54 55
55 1 2 1 4 55 56
56 1 2 1 4 56 57
57 1 2 1 4 57 58
58 1 2 1 4 58 59
59 1 2 1 4 59 60
60 1 2 1 4 60 61
61 1 2 1 4 61 62
62 1 2 1 4 62 63
63 1 2 1 4 63 64
64 1 2 1 4 64 1
65 2 2 8 7 375 186 251
66 2 2 8 7 376 252 185
67 2 2 8 7 138 186 375
68 2 2 8 7 139 376 185
69 2 2 8 7 186 416 251
70 2 2 8 7 307 73 237
71 2 2 8 7 171 307 237
72 2 2 8 7 21 197 20
73 2 2 8 7 36 195 35
74 2 2 8 7 6 196 5
75 2 2 8 7 51 198 50
76 2 2 8 7 416 91 251
77 2 2 8 7 110 266 231
78 2 2 8 7 113 267 230
79 2 2 8 7 111 268 232
80 2 2 8 7 114 234 270
81 2 2 8 7 117 235 272
82 2 2 8 7 115 236 271
83 2 2 8 7 231 266 312
84 2 2 8 7 230 267 314
85 2 2 8 7 232 268 313
86 2 2 8 7 234 316 270
87 2 2 8 7 235 317 272
88 2 2 8 7 236 315 271
89 2 2 8 7 164 408 357
90 2 2 8 7 166 409 356
91 2 2 8 7 167 411 358
92 2 2 8 7 72 170 242
93 2 2 8 7 328 68 238
94 2 2 8 7 327 239 67
95 2 2 8 7 172 328 238
96 2 2 8 7 173 239 327
97 2 2 8 7 132 222 204
98 2 2 8 7 137 206 223
99 2 2 8 7 20 197 280
100 2 2 8 7 50 198 282
101 2 2 8 7 5 196 279
102 2 2 8 7 35 195 281
103 2 2 8 7 244 417 388
104 2 2 8 7 164 357 197
105 2 2 8 7 166 356 195
106 2 2 8 7 167 358 196
107 2 2 8 7 103 172 238
108 2 2 8 7 104 239 173
109 2 2 8 7 93 388 417
110 2 2 8 7 91 172 251
111 2 2 8 7 92 252 173
112 2 2 8 7 106 224 229
113 2 2 8 7 145 229 224
114 2 2 8 7 116 198 274
115 2 2 8 7 110 166 397
116 2 2 8 7 113 164 396
117 2 2 8 7 111 167 398
118 2 2 8 7 112 165 395
119 2 2 8 7 132 312 222
120 2 2 8 7 137 223 315
121 2 2 8 7 87 357 408
122 2 2 8 7 86 356 409
123 2 2 8 7 88 358 411
124 2 2 8 7 92 185 252
125 2 2 8 7 141 202 286
126 2 2 8 7 85 286 202
127 2 2 8 7 142 219 227
128 2 2 8 7 108 227 219
129 2 2 8 7 162 244 388
130 2 2 8 7 103 238 199
131 2 2 8 7 104 200 239
132 2 2 8 7 133 199 238
133 2 2 8 7 135 239 200
134 2 2 8 7 27 28 194
135 2 2 8 7 12 13 192
136 2 2 8 7 42 43 191
137 2 2 8 7 57 58 193
138 2 2 8 7 61 62 190
139 2 2 8 7 46 47 189
140 2 2 8 7 31 32 188
141 2 2 8 7 16 17 187
142 2 2 8 7 139 211 208
143 2 2 8 7 138 209 212
144 2 2 8 7 88 232 247
145 2 2 8 7 87 230 245
146 2 2 8 7 86 231 246
147 2 2 8 7 131 245 230
148 2 2 8 7 132 246 231
149 2 2 8 7 133 247 232
150 2 2 8 7 87 245 234
151 2 2 8 7 88 247 236
152 2 2 8 7 86 246 235
153 2 2 8 7 136 234 245
154 2 2 8 7 137 236 247
155 2 2 8 7 135 235 246
156 2 2 8 7 112 269 326
157 2 2 8 7 112 326 233
158 2 2 8 7 96 332 168
159 2 2 8 7 95 330 169
160 2 2 8 7 97 329 170
161 2 2 8 7 163 380 352
162 2 2 8 7 105 451 240
163 2 2 8 7 107 241 452
164 2 2 8 7 419 96 168
165 2 2 8 7 421 97 170
166 2 2 8 7 420 95 169
167 2 2 8 7 198 402 274
168 2 2 8 7 66 240 174
169 2 2 8 7 66 175 241
170 2 2 8 7 109 284 175
171 2 2 8 7 159 288 243
172 2 2 8 7 77 243 288
173 2 2 8 7 105 240 205
174 2 2 8 7 107 207 241
175 2 2 8 7 113 408 164
176 2 2 8 7 110 409 166
177 2 2 8 7 112 410 165
178 2 2 8 7 111 411 167
179 2 2 8 7 119 261 382
180 2 2 8 7 72 304 170
181 2 2 8 7 105 309 208
182 2 2 8 7 107 209 310
183 2 2 8 7 122 360 180
184 2 2 8 7 123 361 178
185 2 2 8 7 124 359 179
186 2 2 8 7 126 184 364
187 2 2 8 7 127 183 363
188 2 2 8 7 129 182 362
189 2 2 8 7 110 439 180
190 2 2 8 7 111 437 179
191 2 2 8 7 112 436 177
192 2 2 8 7 113 438 178
193 2 2 8 7 115 182 441
194 2 2 8 7 116 181 440
195 2 2 8 7 114 184 443
196 2 2 8 7 117 183 442
197 2 2 8 7 140 201 237
198 2 2 8 7 110 397 277
199 2 2 8 7 113 396 276
200 2 2 8 7 111 398 275
201 2 2 8 7 112 395 278
202 2 2 8 7 174 240 451
203 2 2 8 7 175 452 241
204 2 2 8 7 114 280 197
205 2 2 8 7 117 281 195
206 2 2 8 7 116 282 198
207 2 2 8 7 115 279 196
208 2 2 8 7 156 210 311
209 2 2 8 7 133 313 199
210 2 2 8 7 80 199 313
211 2 2 8 7 135 200 317
212 2 2 8 7 82 317 200
213 2 2 8 7 248 388 463
214 2 2 8 7 158 388 248
215 2 2 8 7 103 251 172
216 2 2 8 7 104 173 252
217 2 2 8 7 156 311 384
218 2 2 8 7 118 249 225
219 2 2 8 7 109 225 249
220 2 2 8 7 140 352 380
221 2 2 8 7 131 205 240
222 2 2 8 7 136 241 207
223 2 2 8 7 160 382 261
224 2 2 8 7 109 174 264
225 2 2 8 7 105 208 211
226 2 2 8 7 107 212 209
227 2 2 8 7 208 309 386
228 2 2 8 7 209 387 310
229 2 2 8 7 106 204 222
230 2 2 8 7 108 223 206
231 2 2 8 7 102 202 242
232 2 2 8 7 92 173 391
233 2 2 8 7 91 390 172
234 2 2 8 7 66 174 289
235 2 2 8 7 66 289 175
236 2 2 8 7 109 289 174
237 2 2 8 7 109 175 289
238 2 2 8 7 366 124 291
239 2 2 8 7 367 123 292
240 2 2 8 7 365 122 290
241 2 2 8 7 370 296 129
242 2 2 8 7 368 295 126
243 2 2 8 7 369 294 127
244 2 2 8 7 43 257 191
245 2 2 8 7 28 258 194
246 2 2 8 7 13 259 192
247 2 2 8 7 58 260 193
248 2 2 8 7 31 188 254
249 2 2 8 7 16 187 253
250 2 2 8 7 61 190 256
251 2 2 8 7 46 189 255
252 2 2 8 7 77 288 227
253 2 2 8 7 142 227 288
254 2 2 8 7 79 222 312
255 2 2 8 7 84 315 223
256 2 2 8 7 192 366 291
257 2 2 8 7 194 367 292
258 2 2 8 7 191 365 290
259 2 2 8 7 187 295 368
260 2 2 8 7 190 296 370
261 2 2 8 7 188 294 369
262 2 2 8 7 147 303 220
263 2 2 8 7 70 220 303
264 2 2 8 7 71 305 221
265 2 2 8 7 149 221 305
266 2 2 8 7 74 264 211
267 2 2 8 7 110 180 266
268 2 2 8 7 112 177 269
269 2 2 8 7 113 178 267
270 2 2 8 7 111 179 268
271 2 2 8 7 114 270 184
272 2 2 8 7 117 272 183
273 2 2 8 7 116 273 181
274 2 2 8 7 115 271 182
275 2 2 8 7 139 185 373
276 2 2 8 7 138 372 186
277 2 2 8 7 111 275 437
278 2 2 8 7 112 278 436
279 2 2 8 7 110 277 439
280 2 2 8 7 113 276 438
281 2 2 8 7 115 441 279
282 2 2 8 7 114 443 280
283 2 2 8 7 116 440 282
284 2 2 8 7 117 442 281
285 2 2 8 7 85 381 384
286 2 2 8 7 124 179 343
287 2 2 8 7 123 178 345
288 2 2 8 7 122 180 344
289 2 2 8 7 129 340 182
290 2 2 8 7 126 341 184
291 2 2 8 7 127 339 183
292 2 2 8 7 100 426 187
293 2 2 8 7 101 425 188
294 2 2 8 7 102 427 189
295 2 2 8 7 99 428 190
296 2 2 8 7 72 242 414
297 2 2 8 7 69 210 298
298 2 2 8 7 134 298 210
299 2 2 8 7 128 354 189
300 2 2 8 7 102 189 354
301 2 2 8 7 141 242 202
302 2 2 8 7 118 250 322
303 2 2 8 7 125 193 355
304 2 2 8 7 98 355 193
305 2 2 8 7 55 346 177
306 2 2 8 7 25 345 178
307 2 2 8 7 40 344 180
308 2 2 8 7 10 343 179
309 2 2 8 7 64 182 340
310 2 2 8 7 49 181 342
311 2 2 8 7 19 184 341
312 2 2 8 7 34 183 339
313 2 2 8 7 55 177 436
314 2 2 8 7 10 179 437
315 2 2 8 7 25 178 438
316 2 2 8 7 40 180 439
317 2 2 8 7 49 440 181
318 2 2 8 7 64 441 182
319 2 2 8 7 19 443 184
320 2 2 8 7 34 442 183
321 2 2 8 7 98 467 201
322 2 2 8 7 92 308 185
323 2 2 8 7 27 194 292
324 2 2 8 7 57 193 293
325 2 2 8 7 12 192 291
326 2 2 8 7 42 191 290
327 2 2 8 7 47 297 189
328 2 2 8 7 62 296 190
329 2 2 8 7 17 295 187
330 2 2 8 7 32 294 188
331 2 2 8 7 77 389 226
332 2 2 8 7 125 293 193
333 2 2 8 7 128 189 297
334 2 2 8 7 133 238 337
335 2 2 8 7 135 383 239
336 2 2 8 7 77 226 371
337 2 2 8 7 131 314 205
338 2 2 8 7 78 205 314
339 2 2 8 7 136 207 316
340 2 2 8 7 83 316 207
341 2 2 8 7 134 283 298
342 2 2 8 7 163 298 283
343 2 2 8 7 117 195 356
344 2 2 8 7 114 197 357
345 2 2 8 7 115 196 358
346 2 2 8 7 139 373 211
347 2 2 8 7 138 212 372
348 2 2 8 7 178 361 267
349 2 2 8 7 180 360 266
350 2 2 8 7 179 359 268
351 2 2 8 7 184 270 364
352 2 2 8 7 183 272 363
353 2 2 8 7 182 271 362
354 2 2 8 7 157 322 250
355 2 2 8 7 324 81 456
356 2 2 8 7 456 81 269
357 2 2 8 7 97 365 191
358 2 2 8 7 95 366 192
359 2 2 8 7 96 367 194
360 2 2 8 7 100 187 368
361 2 2 8 7 101 188 369
362 2 2 8 7 99 190 370
363 2 2 8 7 102 242 460
364 2 2 8 7 163 283 380
365 2 2 8 7 449 96 194
366 2 2 8 7 448 97 191
367 2 2 8 7 447 95 192
368 2 2 8 7 98 193 446
369 2 2 8 7 176 394 454
370 2 2 8 7 6 348 196
371 2 2 8 7 21 349 197
372 2 2 8 7 36 350 195
373 2 2 8 7 51 351 198
374 2 2 8 7 167 196 348
375 2 2 8 7 166 195 350
376 2 2 8 7 164 197 349
377 2 2 8 7 108 300 227
378 2 2 8 7 141 263 203
379 2 2 8 7 160 445 435
380 2 2 8 7 160 261 445
381 2 2 8 7 227 300 389
382 2 2 8 7 103 199 319
383 2 2 8 7 104 320 200
384 2 2 8 7 106 229 299
385 2 2 8 7 80 399 199
386 2 2 8 7 82 200 400
387 2 2 8 7 81 201 380
388 2 2 8 7 140 380 201
389 2 2 8 7 93 203 263
390 2 2 8 7 229 407 299
391 2 2 8 7 98 201 355
392 2 2 8 7 170 460 242
393 2 2 8 7 65 325 250
394 2 2 8 7 109 249 284
395 2 2 8 7 211 264 451
396 2 2 8 7 81 324 201
397 2 2 8 7 201 467 237
398 2 2 8 7 94 454 394
399 2 2 8 7 67 336 204
400 2 2 8 7 132 204 336
401 2 2 8 7 70 303 306
402 2 2 8 7 71 302 305
403 2 2 8 7 168 305 302
404 2 2 8 7 169 306 303
405 2 2 8 7 169 459 423
406 2 2 8 7 168 458 422
407 2 2 8 7 171 461 424
408 2 2 8 7 250 325 430
409 2 2 8 7 131 240 338
410 2 2 8 7 96 419 214
411 2 2 8 7 95 420 215
412 2 2 8 7 97 421 213
413 2 2 8 7 99 218 424
414 2 2 8 7 100 217 423
415 2 2 8 7 101 216 422
416 2 2 8 7 109 264 225
417 2 2 8 7 141 286 263
418 2 2 8 7 75 212 284
419 2 2 8 7 96 214 367
420 2 2 8 7 95 215 366
421 2 2 8 7 97 213 365
422 2 2 8 7 99 370 218
423 2 2 8 7 100 368 217
424 2 2 8 7 101 369 216
425 2 2 8 7 74 225 264
426 2 2 8 7 78 412 205
427 2 2 8 7 83 207 413
428 2 2 8 7 29 258 28
429 2 2 8 7 14 259 13
430 2 2 8 7 44 257 43
431 2 2 8 7 59 260 58
432 2 2 8 7 16 253 15
433 2 2 8 7 31 254 30
434 2 2 8 7 46 255 45
435 2 2 8 7 61 256 60
436 2 2 8 7 168 302 419
437 2 2 8 7 170 304 421
438 2 2 8 7 169 303 420
439 2 2 8 7 169 423 306
440 2 2 8 7 168 422 305
441 2 2 8 7 171 424 307
442 2 2 8 7 136 401 241
443 2 2 8 7 130 384 311
444 2 2 8 7 121 226 318
445 2 2 8 7 91 318 226
446 2 2 8 7 22 396 349
447 2 2 8 7 7 398 348
448 2 2 8 7 52 395 351
449 2 2 8 7 37 397 350
450 2 2 8 7 106 299 204
451 2 2 8 7 108 206 300
452 2 2 8 7 93 417 203
453 2 2 8 7 145 203 417
454 2 2 8 7 130 263 286
455 2 2 8 7 105 205 309
456 2 2 8 7 107 310 207
457 2 2 8 7 144 226 389
458 2 2 8 7 145 418 203
459 2 2 8 7 141 203 414
460 2 2 8 7 67 204 464
461 2 2 8 7 85 202 353
462 2 2 8 7 102 354 202
463 2 2 8 7 156 384 381
464 2 2 8 7 139 208 378
465 2 2 8 7 138 377 209
466 2 2 8 7 71 378 208
467 2 2 8 7 70 209 377
468 2 2 8 7 188 425 254
469 2 2 8 7 187 426 253
470 2 2 8 7 189 427 255
471 2 2 8 7 190 428 256
472 2 2 8 7 69 311 210
473 2 2 8 7 114 357 234
474 2 2 8 7 117 356 235
475 2 2 8 7 115 358 236
476 2 2 8 7 161 301 335
477 2 2 8 7 110 231 409
478 2 2 8 7 112 233 410
479 2 2 8 7 111 232 411
480 2 2 8 7 113 230 408
481 2 2 8 7 103 319 220
482 2 2 8 7 104 221 320
483 2 2 8 7 137 379 206
484 2 2 8 7 108 219 334
485 2 2 8 7 159 385 288
486 2 2 8 7 71 208 386
487 2 2 8 7 70 387 209
488 2 2 8 7 74 211 373
489 2 2 8 7 75 372 212
490 2 2 8 7 79 213 392
491 2 2 8 7 148 392 213
492 2 2 8 7 150 218 393
493 2 2 8 7 84 393 218
494 2 2 8 7 159 454 385
495 2 2 8 7 134 210 347
496 2 2 8 7 80 215 399
497 2 2 8 7 147 399 215
498 2 2 8 7 149 216 400
499 2 2 8 7 82 400 216
500 2 2 8 7 144 389 300
501 2 2 8 7 106 333 224
502 2 2 8 7 65 250 265
503 2 2 8 7 118 265 250
504 2 2 8 7 78 314 267
505 2 2 8 7 79 312 266
506 2 2 8 7 80 313 268
507 2 2 8 7 83 270 316
508 2 2 8 7 82 272 317
509 2 2 8 7 84 271 315
510 2 2 8 7 68 337 238
511 2 2 8 7 90 444 374
512 2 2 8 7 156 433 210
513 2 2 8 7 143 299 407
514 2 2 8 7 120 462 308
515 2 2 8 7 94 352 228
516 2 2 8 7 140 228 352
517 2 2 8 7 85 273 381
518 2 2 8 7 176 454 285
519 2 2 8 7 140 237 415
520 2 2 8 7 147 215 420
521 2 2 8 7 146 214 419
522 2 2 8 7 148 213 421
523 2 2 8 7 150 424 218
524 2 2 8 7 149 422 216
525 2 2 8 7 151 423 217
526 2 2 8 7 125 456 346
527 2 2 8 7 128 342 457
528 2 2 8 7 90 335 301
529 2 2 8 7 94 228 385
530 2 2 8 7 142 385 228
531 2 2 8 7 164 349 396
532 2 2 8 7 167 348 398
533 2 2 8 7 165 351 395
534 2 2 8 7 166 350 397
535 2 2 8 7 134 233 326
536 2 2 8 7 144 390 226
537 2 2 8 7 91 226 390
538 2 2 8 7 89 274 402
539 2 2 8 7 120 323 462
540 2 2 8 7 78 214 412
541 2 2 8 7 146 412 214
542 2 2 8 7 151 217 413
543 2 2 8 7 83 413 217
544 2 2 8 7 147 220 319
545 2 2 8 7 149 320 221
546 2 2 8 7 137 247 379
547 2 2 8 7 85 353 273
548 2 2 8 7 162 287 244
549 2 2 8 7 76 244 287
550 2 2 8 7 135 246 383
551 2 2 8 7 143 262 391
552 2 2 8 7 66 338 240
553 2 2 8 7 8 9 275
554 2 2 8 7 23 24 276
555 2 2 8 7 53 54 278
556 2 2 8 7 38 39 277
557 2 2 8 7 1 5 279
558 2 2 8 7 3 35 281
559 2 2 8 7 2 20 280
560 2 2 8 7 4 50 282
561 2 2 8 7 122 365 213
562 2 2 8 7 123 367 214
563 2 2 8 7 124 366 215
564 2 2 8 7 127 216 369
565 2 2 8 7 126 217 368
566 2 2 8 7 129 218 370
567 2 2 8 7 74 323 225
568 2 2 8 7 105 211 451
569 2 2 8 7 107 452 212
570 2 2 8 7 106 222 333
571 2 2 8 7 108 334 223
572 2 2 8 7 90 285 335
573 2 2 8 7 159 335 285
574 2 2 8 7 65 321 325
575 2 2 8 7 80 359 215
576 2 2 8 7 79 360 213
577 2 2 8 7 78 361 214
578 2 2 8 7 122 213 360
579 2 2 8 7 124 215 359
580 2 2 8 7 123 214 361
581 2 2 8 7 84 218 362
582 2 2 8 7 83 217 364
583 2 2 8 7 82 216 363
584 2 2 8 7 126 364 217
585 2 2 8 7 127 363 216
586 2 2 8 7 129 362 218
587 2 2 8 7 132 231 312
588 2 2 8 7 131 230 314
589 2 2 8 7 133 232 313
590 2 2 8 7 136 316 234
591 2 2 8 7 135 317 235
592 2 2 8 7 137 315 236
593 2 2 8 7 93 463 388
594 2 2 8 7 90 301 444
595 2 2 8 7 73 466 219
596 2 2 8 7 145 224 418
597 2 2 8 7 72 418 224
598 2 2 8 7 89 233 347
599 2 2 8 7 134 347 233
600 2 2 8 7 142 429 219
601 2 2 8 7 73 219 429
602 2 2 8 7 103 220 375
603 2 2 8 7 104 376 221
604 2 2 8 7 70 377 220
605 2 2 8 7 71 221 378
606 2 2 8 7 72 224 470
607 2 2 8 7 262 453 391
608 2 2 8 7 136 245 401
609 2 2 8 7 75 284 249
610 2 2 8 7 161 325 321
611 2 2 8 7 121 371 226
612 2 2 8 7 79 392 222
613 2 2 8 7 84 223 393
614 2 2 8 7 118 225 450
615 2 2 8 7 103 375 251
616 2 2 8 7 104 252 376
617 2 2 8 7 92 435 308
618 2 2 8 7 77 227 389
619 2 2 8 7 161 335 243
620 2 2 8 7 140 415 228
621 2 2 8 7 174 451 264
622 2 2 8 7 142 228 429
623 2 2 8 7 120 265 450
624 2 2 8 7 177 346 456
625 2 2 8 7 181 457 342
626 2 2 8 7 145 469 229
627 2 2 8 7 63 64 340
628 2 2 8 7 48 49 342
629 2 2 8 7 18 19 341
630 2 2 8 7 33 34 339
631 2 2 8 7 55 56 346
632 2 2 8 7 40 41 344
633 2 2 8 7 10 11 343
634 2 2 8 7 25 26 345
635 2 2 8 7 12 291 11
636 2 2 8 7 27 292 26
637 2 2 8 7 42 290 41
638 2 2 8 7 57 293 56
639 2 2 8 7 18 295 17
640 2 2 8 7 33 294 32
641 2 2 8 7 48 297 47
642 2 2 8 7 63 296 62
643 2 2 8 7 206 379 465
644 2 2 8 7 81 326 269
645 2 2 8 7 119 382 287
646 2 2 8 7 118 322 249
647 2 2 8 7 87 234 357
648 2 2 8 7 86 235 356
649 2 2 8 7 88 236 358
650 2 2 8 7 191 257 448
651 2 2 8 7 192 259 447
652 2 2 8 7 193 260 446
653 2 2 8 7 194 258 449
654 2 2 8 7 92 453 435
655 2 2 8 7 165 402 351
656 2 2 8 7 198 351 402
657 2 2 8 7 123 345 292
658 2 2 8 7 124 343 291
659 2 2 8 7 122 344 290
660 2 2 8 7 125 346 293
661 2 2 8 7 126 295 341
662 2 2 8 7 128 297 342
663 2 2 8 7 127 294 339
664 2 2 8 7 129 296 340
665 2 2 8 7 141 414 242
666 2 2 8 7 68 465 379
667 2 2 8 7 23 396 22
668 2 2 8 7 53 395 52
669 2 2 8 7 8 398 7
670 2 2 8 7 38 397 37
671 2 2 8 7 69 248 311
672 2 2 8 7 130 311 248
673 2 2 8 7 163 455 298
674 2 2 8 7 3 442 34
675 2 2 8 7 2 443 19
676 2 2 8 7 4 440 49
677 2 2 8 7 1 441 64
678 2 2 8 7 25 438 24
679 2 2 8 7 55 436 54
680 2 2 8 7 10 437 9
681 2 2 8 7 40 439 39
682 2 2 8 7 273 353 457
683 2 2 8 7 155 461 331
684 2 2 8 7 154 460 329
685 2 2 8 7 153 459 330
686 2 2 8 7 152 458 332
687 2 2 8 7 69 432 248
688 2 2 8 7 158 248 432
689 2 2 8 7 87 408 230
690 2 2 8 7 88 411 232
691 2 2 8 7 86 409 231
692 2 2 8 7 89 410 233
693 2 2 8 7 155 428 461
694 2 2 8 7 154 427 460
695 2 2 8 7 153 426 459
696 2 2 8 7 152 425 458
697 2 2 8 7 163 394 455
698 2 2 8 7 247 337 379
699 2 2 8 7 65 261 321
700 2 2 8 7 159 243 335
701 2 2 8 7 67 239 383
702 2 2 8 7 66 241 401
703 2 2 8 7 21 22 349
704 2 2 8 7 6 7 348
705 2 2 8 7 51 52 351
706 2 2 8 7 36 37 350
707 2 2 8 7 73 415 237
708 2 2 8 7 246 336 383
709 2 2 8 7 171 237 467
710 2 2 8 7 75 249 322
711 2 2 8 7 134 326 283
712 2 2 8 7 85 384 286
713 2 2 8 7 146 386 309
714 2 2 8 7 151 310 387
715 2 2 8 7 120 450 323
716 2 2 8 7 132 336 246
717 2 2 8 7 133 337 247
718 2 2 8 7 131 338 245
719 2 2 8 7 76 407 469
720 2 2 8 7 119 321 261
721 2 2 8 7 229 469 407
722 2 2 8 7 77 371 243
723 2 2 8 7 100 423 459
724 2 2 8 7 101 422 458
725 2 2 8 7 99 424 461
726 2 2 8 7 75 431 372
727 2 2 8 7 130 248 463
728 2 2 8 7 155 406 256
729 2 2 8 7 153 404 253
730 2 2 8 7 152 403 254
731 2 2 8 7 154 405 255
732 2 2 8 7 30 254 403
733 2 2 8 7 60 256 406
734 2 2 8 7 15 253 404
735 2 2 8 7 45 255 405
736 2 2 8 7 155 260 406
737 2 2 8 7 152 258 403
738 2 2 8 7 153 259 404
739 2 2 8 7 154 257 405
740 2 2 8 7 29 403 258
741 2 2 8 7 44 405 257
742 2 2 8 7 14 404 259
743 2 2 8 7 59 406 260
744 2 2 8 7 205 412 309
745 2 2 8 7 207 310 413
746 2 2 8 7 116 381 273
747 2 2 8 7 65 445 261
748 2 2 8 7 173 327 391
749 2 2 8 7 172 390 328
750 2 2 8 7 160 262 382
751 2 2 8 7 76 382 262
752 2 2 8 7 116 274 381
753 2 2 8 7 65 265 445
754 2 2 8 7 176 434 432
755 2 2 8 7 186 372 431
756 2 2 8 7 212 452 284
757 2 2 8 7 130 463 263
758 2 2 8 7 245 338 401
759 2 2 8 7 145 417 244
760 2 2 8 7 145 244 469
761 2 2 8 7 199 399 319
762 2 2 8 7 200 320 400
763 2 2 8 7 201 324 355
764 2 2 8 7 203 418 414
765 2 2 8 7 72 414 418
766 2 2 8 7 161 243 468
767 2 2 8 7 29 30 403
768 2 2 8 7 14 15 404
769 2 2 8 7 44 45 405
770 2 2 8 7 59 60 406
771 2 2 8 7 76 469 244
772 2 2 8 7 152 449 258
773 2 2 8 7 155 446 260
774 2 2 8 7 154 448 257
775 2 2 8 7 153 447 259
776 2 2 8 7 219 466 334
777 2 2 8 7 81 283 326
778 2 2 8 7 80 268 359
779 2 2 8 7 78 267 361
780 2 2 8 7 79 266 360
781 2 2 8 7 83 364 270
782 2 2 8 7 84 362 271
783 2 2 8 7 82 363 272
784 2 2 8 7 228 415 429
785 2 2 8 7 73 429 415
786 2 2 8 7 121 430 325
787 2 2 8 7 143 464 299
788 2 2 8 7 144 300 465
789 2 2 8 7 119 301 321
790 2 2 8 7 161 321 301
791 2 2 8 7 176 285 434
792 2 2 8 7 224 333 470
793 2 2 8 7 155 256 428
794 2 2 8 7 153 253 426
795 2 2 8 7 152 254 425
796 2 2 8 7 154 255 427
797 2 2 8 7 157 250 430
798 2 2 8 7 76 262 407
799 2 2 8 7 143 327 464
800 2 2 8 7 144 465 328
801 2 2 8 7 143 407 262
802 2 2 8 7 156 381 274
803 2 2 8 7 89 433 274
804 2 2 8 7 156 274 433
805 2 2 8 7 158 432 434
806 2 2 8 7 175 284 452
807 2 2 8 7 162 374 444
808 2 2 8 7 18 341 295
809 2 2 8 7 63 340 296
810 2 2 8 7 33 339 294
811 2 2 8 7 48 342 297
812 2 2 8 7 11 291 343
813 2 2 8 7 56 293 346
814 2 2 8 7 26 292 345
815 2 2 8 7 41 290 344
816 2 2 8 7 71 386 302
817 2 2 8 7 70 306 387
818 2 2 8 7 120 435 445
819 2 2 8 7 163 352 394
820 2 2 8 7 94 394 352
821 2 2 8 7 119 287 444
822 2 2 8 7 162 444 287
823 2 2 8 7 202 354 353
824 2 2 8 7 128 353 354
825 2 2 8 7 23 276 396
826 2 2 8 7 53 278 395
827 2 2 8 7 38 277 397
828 2 2 8 7 8 275 398
829 2 2 8 7 81 380 283
830 2 2 8 7 160 453 262
831 2 2 8 7 92 391 453
832 2 2 8 7 120 445 265
833 2 2 8 7 139 378 376
834 2 2 8 7 138 375 377
835 2 2 8 7 220 377 375
836 2 2 8 7 221 376 378
837 2 2 8 7 76 287 382
838 2 2 8 7 118 450 265
839 2 2 8 7 130 286 384
840 2 2 8 7 93 263 463
841 2 2 8 7 90 434 285
842 2 2 8 7 73 307 466
843 2 2 8 7 72 470 304
844 2 2 8 7 177 456 269
845 2 2 8 7 181 273 457
846 2 2 8 7 142 288 385
847 2 2 8 7 125 355 324
848 2 2 8 7 54 436 278
849 2 2 8 7 24 438 276
850 2 2 8 7 9 437 275
851 2 2 8 7 39 439 277
852 2 2 8 7 2 280 443
853 2 2 8 7 3 281 442
854 2 2 8 7 1 279 441
855 2 2 8 7 4 282 440
856 2 2 8 7 146 302 386
857 2 2 8 7 151 387 306
858 2 2 8 7 150 334 466
859 2 2 8 7 148 470 333
860 2 2 8 7 222 392 333
861 2 2 8 7 148 333 392
862 2 2 8 7 223 334 393
863 2 2 8 7 150 393 334
864 2 2 8 7 74 373 462
865 2 2 8 7 185 462 373
866 2 2 8 7 210 433 347
867 2 2 8 7 158 374 388
868 2 2 8 7 162 388 374
869 2 2 8 7 152 332 449
870 2 2 8 7 153 330 447
871 2 2 8 7 154 329 448
872 2 2 8 7 155 331 446
873 2 2 8 7 66 401 338
874 2 2 8 7 75 322 431
875 2 2 8 7 147 319 399
876 2 2 8 7 149 400 320
877 2 2 8 7 67 383 336
878 2 2 8 7 68 379 337
879 2 2 8 7 94 385 454
880 2 2 8 7 157 318 416
881 2 2 8 7 91 416 318
882 2 2 8 7 125 324 456
883 2 2 8 7 146 309 412
884 2 2 8 7 151 413 310
885 2 2 8 7 146 419 302
886 2 2 8 7 147 420 303
887 2 2 8 7 148 421 304
888 2 2 8 7 149 305 422
889 2 2 8 7 150 307 424
890 2 2 8 7 151 306 423
891 2 2 8 7 185 308 462
892 2 2 8 7 143 391 327
893 2 2 8 7 144 328 390
894 2 2 8 7 159 285 454
895 2 2 8 7 204 299 464
896 2 2 8 7 206 465 300
897 2 2 8 7 171 467 331
898 2 2 8 7 98 331 467
899 2 2 8 7 121 318 430
900 2 2 8 7 157 430 318
901 2 2 8 7 89 402 410
902 2 2 8 7 165 410 402
903 2 2 8 7 243 371 468
904 2 2 8 7 121 468 371
905 2 2 8 7 120 308 435
906 2 2 8 7 90 374 434
907 2 2 8 7 157 431 322
908 2 2 8 7 119 444 301
909 2 2 8 7 69 298 455
910 2 2 8 7 225 323 450
911 2 2 8 7 150 466 307
912 2 2 8 7 148 304 470
913 2 2 8 7 89 347 433
914 2 2 8 7 97 448 329
915 2 2 8 7 98 446 331
916 2 2 8 7 96 449 332
917 2 2 8 7 95 447 330
918 2 2 8 7 74 462 323
919 2 2 8 7 168 332 458
920 2 2 8 7 170 329 460
921 2 2 8 7 171 331 461
922 2 2 8 7 169 330 459
923 2 2 8 7 161 468 325
924 2 2 8 7 121 325 468
925 2 2 8 7 67 464 327
926 2 2 8 7 68 328 465
927 2 2 8 7 158 434 374
928 2 2 8 7 160 435 453
929 2 2 8 7 128 457 353
930 2 2 8 7 69 455 432
931 2 2 8 7 176 432 455
932 2 2 8 7 176 455 394
933 2 2 8 7 157 416 431
934 2 2 8 7 186 431 416
935 2 2 8 7 99 461 428
936 2 2 8 7 101 458 425
937 2 2 8 7 100 459 426
938 2 2 8 7 102 460 427
$EndElements
