$MeshFormat
2.2 0 8
$EndMeshFormat
$Nodes
943
1 0 0 0
2 0.6 0 0
3 0.1199999999997404 0 0
4 0.2399999999994016 0 0
5 0.3599999999993833 0 0
6 0.4799999999997011 0 0
7 0.0599999999998702 0 0
8 0.179999999999571 0 0
9 0.2999999999993925 0 0
10 0.4199999999995422 0 0
11 0.5399999999998506 0 0
12 0.6 0.2 0
13 0.6 0.09999999999973698 0
14 0.6 0.04999999999986849 0
15 0.6 0.1499999999998685 0
16 0.6599999999998807 0.2 0
17 0.7799999999996334 0.2 0
18 0.8999999999993926 0.2 0
19 1.019999999999102 0.2 0
20 1.139999999998746 0.2 0
21 1.259999999998391 0.2 0
22 1.379999999998036 0.2 0
23 1.499999999997724 0.2 0
24 1.619999999997412 0.2 0
25 1.739999999997099 0.2 0
26 1.859999999997108 0.2 0
27 1.979999999997394 0.2 0
28 2.099999999997689 0.2 0
29 2.219999999998017 0.2 0
30 2.339999999998338 0.2 0
31 2.459999999998623 0.2 0
32 2.579999999998909 0.2 0
33 2.699999999999205 0.2 0
34 2.819999999999535 0.2 0
35 2.939999999999857 0.2 0
36 3 0.2 0
37 0.7199999999997614 0.2 0
38 0.8399999999995054 0.2 0
39 0.9599999999992799 0.2 0
40 1.079999999998924 0.2 0
41 1.199999999998569 0.2 0
42 1.319999999998213 0.2 0
43 1.439999999997858 0.2 0
44 1.559999999997589 0.2 0
45 1.679999999997234 0.2 0
46 1.799999999996965 0.2 0
47 1.919999999997251 0.2 0
48 2.039999999997537 0.2 0
49 2.15999999999784 0.2 0
50 2.279999999998195 0.2 0
51 2.399999999998481 0.2 0
52 2.519999999998766 0.2 0
53 2.639999999999053 0.2 0
54 2.759999999999357 0.2 0
55 2.879999999999713 0.2 0
56 3 1 0
57 3 0.3142857142854975 0
58 3 0.428571428570854 0
59 3 0.5428571428562321 0
60 3 0.6571428571419604 0
61 3 0.7714285714279612 0
62 3 0.885714285713959 0
63 3 0.2571428571427488 0
64 3 0.3714285714281758 0
65 3 0.485714285713543 0
66 3 0.5999999999990963 0
67 3 0.7142857142849608 0
68 3 0.8285714285709601 0
69 3 0.9428571428569795 0
70 2.93750000000075 1 0
71 2.812500000001787 1 0
72 2.687500000001943 1 0
73 2.56250000000249 1 0
74 2.43750000000305 1 0
75 2.312500000002758 1 0
76 2.187500000002408 1 0
77 2.062500000002087 1 0
78 1.937500000002214 1 0
79 1.812500000002774 1 0
80 1.687500000003348 1 0
81 1.562500000003902 1 0
82 1.437500000004015 1 0
83 1.312500000003686 1 0
84 1.187500000003336 1 0
85 1.062500000002986 1 0
86 0.9375000000026344 1 0
87 0.8125000000022833 1 0
88 0.687500000001932 1 0
89 0.5625000000015807 1 0
90 0.4375000000012295 1 0
91 0.3125000000008782 1 0
92 0.1875000000005266 1 0
93 0.0625000000001754 1 0
94 0 1 0
95 2.8750000000015 1 0
96 2.750000000002075 1 0
97 2.625000000001812 1 0
98 2.500000000003167 1 0
99 2.375000000002933 1 0
100 2.250000000002583 1 0
101 2.125000000002233 1 0
102 2.000000000001941 1 0
103 1.875000000002486 1 0
104 1.750000000003061 1 0
105 1.625000000003636 1 0
106 1.500000000004168 1 0
107 1.375000000003861 1 0
108 1.250000000003511 1 0
109 1.125000000003161 1 0
110 1.00000000000281 1 0
111 0.8750000000024589 1 0
112 0.7500000000021076 1 0
113 0.6250000000017564 1 0
114 0.5000000000014051 1 0
115 0.3750000000010538 1 0
116 0.2500000000007025 1 0
117 0.1250000000003508 1 0
118 0 0.8749999999995011 0
119 0 0.7500000000003465 0
120 0 0.6250000000012137 0
121 0 0.5000000000020591 0
122 0 0.3750000000015605 0
123 0 0.2500000000010404 0
124 0 0.1250000000005203 0
125 0 0.9374999999997505 0
126 0 0.8124999999999238 0
127 0 0.68750000000078 0
128 0 0.5625000000016365 0
129 0 0.4375000000018098 0
130 0 0.3125000000013004 0
131 0 0.1875000000007803 0
132 0 0.06250000000026015 0
133 0.413170877007616 0.5784660359946197 0
134 2.614771457911321 0.6118927348947492 0
135 0.8032333977038877 0.5966198853183021 0
136 2.076524300948503 0.5933205784370402 0
137 1.259999999998391 0.5978124999999492 0
138 1.698128502727749 0.6014762560114576 0
139 0.319064087582793 0.2985723446857207 0
140 2.352214343004329 0.4760890867131818 0
141 0.6274812376201937 0.4463622376977183 0
142 2.324171033000417 0.7397596790838591 0
143 1.041047682599019 0.4433484975611494 0
144 1.476143986230382 0.4428109178002573 0
145 1.046755517820656 0.7814329262282041 0
146 0.6124099257041369 0.7440625674092132 0
147 1.465218568045776 0.7421330300135827 0
148 1.902710439381582 0.4312019106778527 0
149 1.9017371473629 0.7753726137479702 0
150 0.2424190353179199 0.7641716297516776 0
151 2.781662343919729 0.4248413205581151 0
152 2.779582977968246 0.7868312063527986 0
153 0.2024402672203851 0.4807486482749209 0
154 0.8266872438658628 0.3934924727043217 0
155 2.555840328264973 0.3869499224910313 0
156 2.52495992892688 0.8118516195638869 0
157 2.102624797667892 0.4191023306462021 0
158 1.257974183970384 0.402187036977139 0
159 0.8068823338468496 0.8046240468717207 0
160 1.674009024009419 0.3898091138902435 0
161 1.669736902433024 0.7886617447920541 0
162 1.282435700120389 0.8152032942769171 0
163 2.13495597066932 0.8069470201003073 0
164 0.4957981904342963 0.3317073270986049 0
165 0.4301570139062577 0.814024755952382 0
166 0.4230135073858169 0.1672481212880329 0
167 2.830749350581919 0.5999999999990965 0
168 0.1852402076149881 0.164122845771262 0
169 0.5787886248174834 0.6000896663675258 0
170 2.441816930502127 0.6197576070397837 0
171 0.1552845337312996 0.3568365239030604 0
172 0.379247167336105 0.452794780388418 0
173 2.252147058332047 0.35477406210034 0
174 1.952481337918325 0.5996012918509528 0
175 2.257445800129507 0.6094213916455352 0
176 0.9523288863907803 0.5949288448322677 0
177 1.412950650953805 0.5739019524055926 0
178 0.1575038070560876 0.64354929102295 0
179 2.42203853933171 0.3595874157811885 0
180 0.9281989561067409 0.8739304064723091 0
181 1.148262489353036 0.3268076468048927 0
182 1.376173518032823 0.3320473072045563 0
183 1.143219355134161 0.851525883770593 0
184 0.6569043312593071 0.3091749926782044 0
185 0.9510510928415278 0.3451747595688529 0
186 1.800155223518526 0.3447173245850034 0
187 1.128866845634786 0.5653060444104372 0
188 1.558815099713277 0.8676075009504841 0
189 2.646800302298429 0.8530202682374439 0
190 1.560932463122604 0.5713914737348238 0
191 0.1442931572729751 0.8382544537592903 0
192 1.975051974591547 0.3205735086714744 0
193 2.861064748558394 0.3306213091385925 0
194 1.99852968673883 0.8558188944055618 0
195 1.817300268902381 0.8679963020426956 0
196 0.4988567942454489 0.4699175828224118 0
197 0.2886454502491559 0.6343447760296548 0
198 0.6811468302780538 0.8699207539245273 0
199 2.388449304685383 0.8309070387646957 0
200 1.555692149773716 0.3405115959379419 0
201 2.859586476176422 0.8693004617230482 0
202 0.4897912100152735 0.6844471153250825 0
203 1.418282410318982 0.8561195167835371 0
204 1.179292160177012 0.7073517393304378 0
205 0.2971080847914475 0.1200570297799715 0
206 2.664936973496098 0.3426104502645705 0
207 2.255000424250398 0.8607352749036854 0
208 0.6889579443269082 0.5413604759783114 0
209 0.3147469952848463 0.879379809858184 0
210 2.89168541014112 0.49761024724154 0
211 2.885147801220436 0.7047591124793282 0
212 0.935595106928738 0.7326278976943789 0
213 2.225812733940352 0.4717624249219691 0
214 1.777746254246237 0.4882292926771999 0
215 2.017811361823702 0.7119182516929246 0
216 2.639745141452428 0.7295914110986712 0
217 0.5481120272657906 0.8758291469269316 0
218 1.591017069404158 0.6881711397124769 0
219 0.7330484143250166 0.706132888669335 0
220 1.775717397188779 0.7078056274375705 0
221 1.353282287396105 0.4845676274360248 0
222 2.459533887324152 0.5000085372064059 0
223 2.00997512205681 0.497678862841354 0
224 0.9154048150725087 0.4885704597355859 0
225 2.714340500181709 0.5389211609336129 0
226 1.161957188115244 0.4596950350800071 0
227 0.3652866197476957 0.7107766903790483 0
228 1.346028942399485 0.6924159466871349 0
229 1.825104653230367 0.5987190410430736 0
230 0.08936533106039275 0.4528523632518908 0
231 2.157540723370504 0.6788546487112319 0
232 0.7730652958316201 0.2945397986866911 0
233 0.1015709398245424 0.7393806085394747 0
234 2.74405620488601 0.6619992709597093 0
235 0.5011316331331295 0.2250530931255015 0
236 0.2774969018105868 0.3960132361842087 0
237 2.65906442666891 0.4472862029536159 0
238 1.589180346083299 0.4570540071058935 0
239 0.7327326398068217 0.4546731529087542 0
240 2.528636341527989 0.6808567191255683 0
241 2.577486769171355 0.2891805380832216 0
242 2.551971192773285 0.9054232750549005 0
243 0.2965792746397313 0.520203930680639 0
244 2.758910967217546 0.8910365494311074 0
245 0.5005736613823358 0.09731160634112843 0
246 2.429707826981794 0.7270768321973409 0
247 2.098469800835535 0.2983616318054501 0
248 1.308032839635773 0.9139715598641824 0
249 1.260482038270605 0.2922083981973176 0
250 0.4146447692786644 0.2645543091723942 0
251 2.327479754677792 0.2923173590983658 0
252 1.047015203106731 0.9020389092952357 0
253 1.712227673442194 0.2873325502125085 0
254 0.1034487521013994 0.2462871510738108 0
255 0.8082456240472422 0.9096950414537114 0
256 1.685801252150148 0.9087407049994826 0
257 0.1024174294703892 0.1032207322917008 0
258 2.093305165828826 0.9053392664448441 0
259 0.5781514713532051 0.3655728046866378 0
260 0.0971906094188973 0.5499119784618383 0
261 0.4364856328861318 0.9164524853259319 0
262 0.2346433043652388 0.2581602402730863 0
263 2.773989277968119 0.2974746030406102 0
264 1.038317443896902 0.2900795720077952 0
265 0.8004845712735673 0.4973346603627314 0
266 1.24865170621709 0.4991143691667963 0
267 0.8701607265075592 0.2866414061919731 0
268 0.3376947506807921 0.2217184090398411 0
269 2.923233014463258 0.6002417713993694 0
270 1.91085845527052 0.905713695593814 0
271 1.88338907169748 0.2938072279313999 0
272 2.350862130453686 0.574068404977203 0
273 2.583918597884161 0.5092339114940234 0
274 0.6671836547130315 0.6390063431826271 0
275 0.5201175442228647 0.7795908964034024 0
276 0.4113541653250571 0.07653950069802369 0
277 0.5663971252359875 0.2863016435177897 0
278 1.668866325208014 0.5049441211645069 0
279 2.225822790284029 0.7391436028889237 0
280 1.627247552605911 0.2786183802583839 0
281 0.1889531443751933 0.07748012156858686 0
282 2.118683399095695 0.5085482950847567 0
283 1.472516697278885 0.2872153772628761 0
284 2.334152132665104 0.3856296172566576 0
285 1.385498091335571 0.7723759661374749 0
286 1.050890450181028 0.6685431337920096 0
287 2.178967911798549 0.9207651660385601 0
288 1.475229538785165 0.6536027085107221 0
289 0.2132625755279837 0.9079419974425796 0
290 2.217061635804299 0.2752321571742385 0
291 2.802092221593841 0.5153271379573134 0
292 1.219615033279074 0.9152526935388856 0
293 2.327803724659297 0.9193352954787021 0
294 0.7048156962118299 0.7809776914612816 0
295 0.4025516678056456 0.3617855704978781 0
296 2.495073127353057 0.2871435752710883 0
297 2.916972417214775 0.4049833930284646 0
298 0.8462176278390544 0.6869867126772008 0
299 0.3275361319899516 0.7892058292208741 0
300 2.917079052127988 0.7948046831750338 0
301 0.08771626388078459 0.9104111289768573 0
302 2.92378109454157 0.2741727078740205 0
303 0.576541206589908 0.5155406331197401 0
304 2.52573544302995 0.5843499019521061 0
305 2.92346236943922 0.927503484430536 0
306 0.5026624956530027 0.5624008038520354 0
307 0.7246965653125577 0.3740658717423101 0
308 2.015912179604306 0.4005196532229718 0
309 1.891260133710139 0.6744435655943016 0
310 0.06520963930027211 0.8153082767013711 0
311 1.887667006229603 0.531143611911014 0
312 1.558010281039404 0.7767965951802991 0
313 2.360800744213506 0.6540167829887443 0
314 2.167348223228566 0.3412858957722341 0
315 2.17272562792206 0.5667467628542019 0
316 1.685671562849119 0.694192304955803 0
317 2.450637054259877 0.913456146596638 0
318 0.2133713604912292 0.572170197866088 0
319 1.481216853471965 0.9139299969302207 0
320 0.8992732571149173 0.6409577787547343 0
321 0.9439619966597592 0.6637783712633233 0
322 0.8909063673838962 0.7098073051857898 0
323 0.877781142047334 0.5957743650752849 0
324 0.824725512771471 0.6418032989977515 0
325 2.241629267034929 0.5405919082837521 0
326 2.288337432197019 0.522915414949586 0
327 2.304153965291596 0.5917448983113691 0
328 2.28901353847234 0.4739257558175755 0
329 2.351538236729008 0.5250787458451924 0
330 2.207493261750005 0.6441380201783835 0
331 2.241634295206768 0.6742824972672294 0
332 2.191681756827267 0.7089991258000778 0
333 0.5505658165665648 0.2125265465627508 0
334 0.5008526472577326 0.161182349733315 0
335 0.5502868306911679 0.1486558031705642 0
336 1.515918068002049 0.3916612568690996 0
337 1.474330341754634 0.3650131475315667 0
338 1.5141044235263 0.313863486600409 0
339 1.426158752131602 0.3874291125024067 0
340 1.424345107655854 0.3096313422337162 0
341 0.6780707995199698 0.5901834095804692 0
342 0.7460956710153979 0.5689901806483068 0
343 0.7352085262084596 0.6178131142504646 0
344 2.63590015115012 0.926510134118722 0
345 2.702855634757988 0.8720284088342757 0
346 2.691955483609679 0.9455182747155537 0
347 0.3962090221718605 0.5156304081915188 0
348 0.4390519807907769 0.4613561816054149 0
349 0.4560138356265324 0.5241918094085157 0
350 0.0517243760506997 0.3106435755376856 0
351 0.1293666429163495 0.3015618374884356 0
352 0.0776422668656498 0.3659182619523105 0
353 2.507687107794562 0.4434792298487186 0
354 2.440786213327931 0.4297979764937973 0
355 2.488939433798341 0.3732686691361099 0
356 1.084957264116902 0.5043272709857933 0
357 1.040597866012783 0.5801174446213524 0
358 0.9966882844948997 0.5191386711967085 0
359 2.38712644116802 0.4178382512471852 0
360 2.405874115164241 0.4880488119597939 0
361 0.5511005678597052 0.7142548413671479 0
362 0.5342899174163784 0.6422683908463042 0
363 0.5955992752608101 0.6720761168883695 0
364 2.706994638983586 0.2487373015203051 0
365 2.766994638983738 0.2487373015203051 0
366 1.03968256324796 0.3667140347844723 0
367 1.093289966624969 0.308443609406344 0
368 1.094655085976028 0.385078072183021 0
369 2.290808416564962 0.6745905353646972 0
370 2.274996911642223 0.7394516409863914 0
371 1.441750489182379 0.7991262733985599 0
372 1.51161442454259 0.7594648125969409 0
373 1.488146345679193 0.8164580559819181 0
374 0.0787519035280438 0.6342746455120818 0
375 0.129537373440315 0.6914649497812124 0
376 0.0507854699122712 0.6821903042703442 0
377 2.75445548360981 0.9455182747155537 0
378 1.859518708132641 0.8216844578953328 0
379 1.79650883304558 0.787900964740133 0
380 1.838727272275839 0.7415891205927703 0
381 0.9960493877202734 0.3942616285650011 0
382 0.994684268369215 0.3176271657883241 0
383 1.722727149810901 0.7482336861148122 0
384 1.743518585667702 0.8283290234173748 0
385 1.518538224676493 0.5071011957675405 0
386 1.486941557038205 0.5726467130702082 0
387 1.444547318592094 0.5083564351029249 0
388 0.3174014177361198 0.1708877194099063 0
389 0.2861690275230154 0.2399393246564637 0
390 0.2658756945783431 0.1891086350265289 0
391 0.700116034519024 0.6725696159259811 0
392 0.7681409060144522 0.6513763869938185 0
393 1.488548755016129 0.8618635088670106 0
394 1.558412690376341 0.8222020480653915 0
395 2.652468486747575 0.2713052251322853 0
396 2.719463125732108 0.3200425266525904 0
397 1.174131244675803 0.2634038234024464 0
398 1.11413124467598 0.2634038234024464 0
399 1.408086759015341 0.2660236536022781 0
400 1.348086759015518 0.2660236536022781 0
401 0.2411741462032178 0.1420899377756167 0
402 0.2099417559901134 0.2111415430221741 0
403 2.279982433302728 0.4286960210893134 0
404 2.343183237834716 0.4308593519849197 0
405 0.1999614211870037 0.7038604603873138 0
406 0.2230746286526217 0.6389470335263023 0
407 0.2655322427835379 0.6992582028906662 0
408 0.5502868306911679 0.09865580317043271 0
409 2.293149595498575 0.3702018396784988 0
410 2.2389798961362 0.4132682435111545 0
411 1.553108426737801 0.9569649984651103 0
412 1.490608426738067 0.9569649984651103 0
413 0.8593191063881982 0.542595172526944 0
414 0.9338668507316445 0.5417496522839268 0
415 1.306641143697248 0.5411900637179869 0
416 1.383116469174955 0.5292347899208087 0
417 1.336475325476098 0.5858572262027709 0
418 2.857948575901178 0.6523795562392123 0
419 2.814602003053223 0.6833791917195188 0
420 2.787402777733964 0.630999635479403 0
421 1.317073851001604 0.3671171720908476 0
422 1.364727902714464 0.4083074673202906 0
423 1.305628235683244 0.4433773322065819 0
424 1.414713136813244 0.463689272618141 0
425 2.047167831386103 0.6526194150649824 0
426 1.985146349871014 0.6557597717719387 0
427 2.014502819433414 0.5964609351439965 0
428 1.737082123763972 0.3672632192376235 0
429 1.788950738882382 0.4164733086311017 0
430 1.725877639127828 0.4390192032837217 0
431 2.761819591427128 0.7244152386562539 0
432 2.832365389594341 0.7457951594160634 0
433 1.840228346813909 0.4597156016775263 0
434 1.851432831450054 0.3879596176314281 0
435 0.0512087147351946 0.1141103661461106 0
436 0.1029330907858943 0.1747539416827558 0
437 0.0517243760506997 0.1856435755371655 0
438 1.113023838998834 0.7443923327793209 0
439 1.161255757655586 0.7794388115505154 0
440 1.094987436477409 0.8164794049993986 0
441 0.9015994780545999 0.9369652032361546 0
442 0.9640994780547754 0.9369652032361546 0
443 0.4973274923398726 0.4008124549605083 0
444 0.4507042310255472 0.4158515766601449 0
445 0.4491749291199709 0.3467464487982415 0
446 0.1788624004758423 0.4187925860889907 0
447 0.2163907177709432 0.3764248800436346 0
448 0.2399685845154859 0.4383809422295648 0
449 1.212827527627275 0.8333645890237551 0
450 1.230863930148701 0.7612775168036774 0
451 1.591907549858457 0.9338037504752421 0
452 1.520015976592621 0.8907687489403524 0
453 1.230241019134587 0.2461041990986588 0
454 1.204372263811821 0.3095080225011052 0
455 0.9874772369636984 0.8276816663502566 0
456 0.9318970315177395 0.803279152083344 0
457 0.991175312374697 0.7570304119612915 0
458 0.8712387203877938 0.7686259722830497 0
459 0.8675406449767953 0.839277226672015 0
460 0.8888691683536953 0.3693336161365873 0
461 0.9332279539570183 0.4168726096522194 0
462 0.8710460294691857 0.4410314662199538 0
463 1.318327778151714 0.3121278527009369 0
464 1.290241019134409 0.2461041990986588 0
465 1.303014471198938 0.6451142233435421 0
466 1.262660551288249 0.6998838430087864 0
467 1.219646080087702 0.6525821196651935 0
468 0.9782262488357638 0.4659594786483676 0
469 1.314232321259937 0.7538096204820259 0
470 1.046885360463694 0.8417359177617199 0
471 0.987607079606736 0.8879846578837725 0
472 0.1459027991403889 0.4668005057634059 0
473 0.1223249323958462 0.4048444435774756 0
474 1.154079502905899 0.6363288918704375 0
475 1.194433422816588 0.5815592722051932 0
476 1.40562375522263 0.7172744883503588 0
477 1.410629240592325 0.6730093275989285 0
478 1.470224053415471 0.6978678692621524 0
479 1.095117279120446 0.8767823965329143 0
480 1.444090094869485 0.6137523304581574 0
481 1.379489796676645 0.6331589495463638 0
482 0.5502868306911679 0.04865580317056421 0
483 0.04468266553019638 0.4139261816267257 0
484 0.0507854699122712 0.7446903042699107 0
485 0.6884521656295343 0.2545874963391022 0
486 0.6284521656296536 0.2545874963391022 0
487 1.841772147608003 0.3192622762582017 0
488 1.893049755539531 0.3625045693046263 0
489 0.6229861397652574 0.6195480047750764 0
490 0.6397967902085842 0.6915344552959202 0
491 1.981228229987567 0.5486400773461534 0
492 2.043249711502656 0.5454997206391972 0
493 1.929220523144513 0.3071903683014371 0
494 1.938881206986564 0.3758877096746636 0
495 1.959774254593301 0.7436454327204474 0
496 2.008170524281266 0.7838685730492432 0
497 1.950133417050865 0.815595754076766 0
498 0.3908994175708753 0.4072901754431481 0
499 2.066742828704075 0.8313829572529345 0
500 2.076383666246511 0.7594326358966159 0
501 0.0517243760506997 0.2481435755374256 0
502 2.3563101688429 0.7853333589242775 0
503 2.321724864467891 0.8458211568341906 0
504 2.289585728625407 0.8002474769937722 0
505 1.001609668285904 0.6317359893121386 0
506 0.993242778554883 0.7005855157431942 0
507 2.816955483609523 0.9455182747155537 0
508 2.809248721696984 0.8801685055770778 0
509 2.867293238088961 0.9346502308615241 0
510 0.6467783779910954 0.8069916606668702 0
511 0.6146294287719222 0.8728749504257294 0
512 0.5802609764849638 0.8099458571680724 0
513 1.048822984000842 0.7249880300101068 0
514 1.188759275925938 0.5322102067886167 0
515 1.254325853107741 0.5484634345833728 0
516 2.007525987294542 0.2602867543357372 0
517 1.947525987294399 0.2602867543357372 0
518 0.2278408054229518 0.8360568135971287 0
519 0.1787778664004794 0.873098225600935 0
520 0.1933560962954475 0.8012130417554839 0
521 0.5865560136337735 0.9379145734634657 0
522 0.6530734151399051 0.9349603769622636 0
523 0.8416228120248506 0.9548475207268556 0
524 0.8682222900769916 0.8918127239630103 0
525 0.3548750758236737 0.5493349833376293 0
526 0.3379132209879182 0.4864993555345285 0
527 0.3892287483776559 0.6446213631868341 0
528 0.3269660349984258 0.6725607332043515 0
529 0.3509081636283859 0.6064054060121372 0
530 2.821363546239062 0.3777313148483538 0
531 2.889018582886584 0.3678023510835285 0
532 2.849317380567252 0.4149123567932899 0
533 0.5369748308937508 0.3486400658926213 0
534 0.538504132799327 0.4177451937545248 0
535 2.904328913677948 0.4512968201350023 0
536 2.836673877030425 0.4612257838998275 0
537 0.2785830153013831 0.8217757198049308 0
538 0.264004785406415 0.8936609036503818 0
539 1.644572786065954 0.6448236978619672 0
540 1.575974766263381 0.6297813067236504 0
541 1.629530482925177 0.5864338648731406 0
542 1.145412016875015 0.5125005397452221 0
543 1.205304447166167 0.4794047021234017 0
544 1.783650134452721 0.9339981510213478 0
545 1.846150134452433 0.9339981510213478 0
546 1.20311833666171 0.3644973418910158 0
547 1.259228111120494 0.3471977175872283 0
548 2.901113426674212 0.7497818978271811 0
549 2.848331015048117 0.7908179447639162 0
550 2.713191640133338 0.8199257372951212 0
551 2.643272721875428 0.7913058396680576 0
552 2.709664059710337 0.7582113087257349 0
553 0.1719949875712312 0.7517761191455762 0
554 0.4514810435114447 0.6314565756598511 0
555 0.4275389148814846 0.6976119028520654 0
556 2.888332764152205 0.8320525724490411 0
557 2.819584727072334 0.8280658340379234 0
558 1.954694071004675 0.8807662949996879 0
559 1.90629780131671 0.8405431546708921 0
560 1.86407936208645 0.8868549988182548 0
561 0.7155734151400808 0.9349603769622636 0
562 0.4902868306910185 0.04865580317056421 0
563 2.582352535189654 0.770721515331279 0
564 2.585880115612655 0.8324359439006654 0
565 2.117032512159503 0.636087613574136 0
566 2.087676042597103 0.6953864502020782 0
567 0.8075639789470459 0.857159544162716 0
568 2.378095335998407 0.3726085165189231 0
569 2.146248347019912 0.7429008344057696 0
570 1.209965686042814 0.430941036028573 0
571 1.15510983873414 0.3932513409424499 0
572 1.101502435357131 0.4515217663205783 0
573 2.309123272171506 0.6317190873171398 0
574 2.342485888606961 0.6968882310363017 0
575 0.5631690159328213 0.4581399102600651 0
576 0.6028163544866993 0.405967521192178 0
577 1.622308175931713 0.8881741029749833 0
578 1.655400626076892 0.9543703524997413 0
579 2.870532374279054 0.2653106545692963 0
580 2.817527013263256 0.3140479560896013 0
581 2.826994638983916 0.2487373015203051 0
582 1.954535747766921 0.6931809086436131 0
583 1.921870735814232 0.6370224287226272 0
584 2.069234900416536 0.2491808159027251 0
585 2.036760887713541 0.3094675702384623 0
586 0.3285540423954154 0.06002851488998575 0
587 0.2685540423954246 0.06002851488998575 0
588 0.5240560136335979 0.9379145734634657 0
589 0.3038528275328078 0.7374741600653629 0
590 1.800077611757745 0.2723586622925017 0
591 1.75619144848036 0.3160249373987559 0
592 1.756113836719579 0.2436662751062542 0
593 2.458555833342384 0.3233654955261384 0
594 2.525456727809015 0.3370467488810598 0
595 2.679413831398666 0.6369460029272292 0
596 2.691900673169219 0.6957953410291903 0
597 2.627258299681874 0.6707420729967102 0
598 1.631594685046359 0.4234315604980685 0
599 1.572436247928507 0.3987828015219177 0
600 1.614850586891567 0.3651603549140927 0
601 1.53266216615684 0.4499324624530754 0
602 0.2823734976427744 0.939689904929092 0
603 0.3448734976429501 0.939689904929092 0
604 1.449749631895473 0.885024756856879 0
605 0.6116507282476473 0.2977383180979971 0
606 0.5831985626179937 0.2431508217588949 0
607 1.677769077291586 0.8487012248957684 0
608 1.614276001073151 0.8281346228712692 0
609 1.896498640536519 0.724908089671136 0
610 2.405198008888919 0.5370384710918045 0
611 0.1229320485487587 0.7888175311493826 0
612 1.456258348638372 0.2436076886314381 0
613 1.425358329690674 0.7572544980755288 0
614 1.365763516867528 0.7323959564123049 0
615 2.396339530477906 0.5969130060084933 0
616 2.450675408913139 0.5598830721230947 0
617 0.7446962271626481 0.8898078976891193 0
618 0.7791228120246749 0.9548475207268556 0
619 0.04859530470944865 0.587455989231526 0
620 0.1273472082374925 0.5967306347423942 0
621 1.717900626076605 0.9543703524997413 0
622 1.751550760526265 0.8883685035210891 0
623 0.4617935843840764 0.1322798638145807 0
624 0.4620725702594732 0.1961506072067672 0
625 2.411019269665096 0.2797937078905943 0
626 2.374759147004751 0.3259523874397772 0
627 2.363739877338137 0.2461586795491829 0
628 2.447536563675769 0.2435717876355442 0
629 2.94584270507056 0.5202336950488861 0
630 2.94584270507056 0.463090837906197 0
631 2.057190990219921 0.3494406425142109 0
632 1.995482077097926 0.3605465809472231 0
633 0.2870380882251591 0.4581085834324238 0
634 0.2495097709300582 0.5004762894777799 0
635 2.942573900610218 0.7380938419536447 0
636 2.942573900610218 0.6809509848106443 0
637 2.100547299251713 0.3587319812258261 0
638 2.059268488636099 0.4098109919345869 0
639 2.664555979046515 0.575406947914181 0
640 2.729198352533859 0.6004602159466611 0
641 2.777825810943924 0.3611579617993627 0
642 1.999264843370386 0.9279094472027809 0
643 2.045917426283828 0.8805790804252029 0
644 2.046652582915383 0.952669633222422 0
645 1.614899394165309 0.5381677974496654 0
646 1.683497413967882 0.5532101885879823 0
647 0.8018589844887275 0.5469772728405168 0
648 0.857944693173038 0.4929525600491587 0
649 0.3283720345733459 0.4244040082863133 0
650 0.7440145820624517 0.837272400398124 0
651 0.9555255464204038 0.2725873797844265 0
652 0.9106059096745435 0.315908082880413 0
653 0.9150803632534195 0.2433207030959866 0
654 1.086007601554946 0.9510194546476178 0
655 1.134109677568661 0.9257629418852965 0
656 0.1112087147350648 0.0516103661458504 0
657 0.0512087147351946 0.0516103661458504 0
658 1.251025366699732 0.8652279939079013 0
659 1.181417194206618 0.8833892886547393 0
660 0.4579166863303094 0.5704334199233275 0
661 0.4962268528341381 0.6234239595885589 0
662 1.591469851189813 0.3095649880981629 0
663 1.650628288307665 0.3342137470743137 0
664 2.769246972592896 0.8389338778919531 0
665 0.1949639190482692 0.3074983820880733 0
666 0.2560701030879128 0.3270867382286475 0
667 2.599345027897741 0.5605633231943863 0
668 2.649129549032935 0.5240775362138181 0
669 1.059158721947913 0.2450397860038976 0
670 2.723299658707913 0.3837258854113428 0
671 0.540725560235243 0.5812452351097805 0
672 1.11509130517902 0.6879474365612237 0
673 1.089878647907907 0.6169245891012234 0
674 0.1443444798581938 0.2052049984225364 0
675 0.1438288185426886 0.1336717890314814 0
676 2.621491512276536 0.4782600572238196 0
677 2.686702463425309 0.4931036819436144 0
678 0.3608078776942193 0.3301789575917994 0
679 0.3400242848081162 0.3788994033410434 0
680 0.2982804946966899 0.3472927904349647 0
681 1.02350760155477 0.9510194546476178 0
682 0.6582195909735509 0.4938613568380149 0
683 0.632749575458408 0.5284505545490257 0
684 0.6020112221050509 0.4809514354087292 0
685 2.720363385294319 0.4360637617558655 0
686 2.662000700082504 0.3949483266090932 0
687 0.2768536959740159 0.2783662924794035 0
688 1.300966996806598 0.4918409983014105 0
689 0.375616314085489 0.897916147592058 0
690 0.4057428164435928 0.958226242662966 0
691 1.172307516641117 0.9576263467694428 0
692 1.841694535847223 0.2469036139657 0
693 2.901890547270642 0.2370863539370102 0
694 2.892422921549982 0.3023970085063065 0
695 2.376939429991106 0.7334182556405999 0
696 2.409078565833589 0.7789919354810183 0
697 0.5376990004176785 0.4927291079710759 0
698 2.456704616806132 0.8213793291642912 0
699 2.477333877954337 0.7694642258806139 0
700 0.999158721948091 0.2450397860038976 0
701 0.5341147857443276 0.8277100216651669 0
702 0.5662637349635008 0.7618267319063078 0
703 0.4333213233961948 0.8652386206391569 0
704 0.372452004595552 0.846702282905283 0
705 2.610388650880536 0.3647801863778009 0
706 2.607452377466942 0.4171180627223235 0
707 0.1854375837736584 0.6078597444445191 0
708 0.2510084053701925 0.6032574869478714 0
709 2.588485596387549 0.9527116375274503 0
710 2.599385747535857 0.8792217716461722 0
711 2.194978197459859 0.8338411475019963 0
712 2.216984168024474 0.8907502204711227 0
713 2.156961941233935 0.8638560930694337 0
714 0.2079058138558071 0.5264594230705044 0
715 0.1552809849550633 0.5610410881639631 0
716 0.1498154383196412 0.5153303133683795 0
717 0.3977218168269767 0.7624007231657152 0
718 0.4599741119607656 0.7492359356387323 0
719 0.5776649157036957 0.557815149743633 0
720 0.6338732845721957 0.5707250711729186 0
721 1.613873591736214 0.7827291699861766 0
722 0.848423985186711 0.3400669394481474 0
723 0.6421927844397504 0.3777686151879613 0
724 0.6908004482859325 0.3416204322102573 0
725 0.6760889014663757 0.4102140547200142 0
726 2.487798491593378 0.8626538830802624 0
727 2.41954317947263 0.8721815926806669 0
728 0.5007596449492258 0.5161591933372236 0
729 2.196580478584459 0.4065241603471016 0
730 2.209747640780306 0.3480299789362871 0
731 1.737937378486993 0.5448527743443288 0
732 1.801425453738302 0.5434741668601367 0
733 1.761616577979058 0.6000976485272655 0
734 2.134986510448229 0.3801941132092181 0
735 2.164218765804122 0.4454323777840856 0
736 2.35812651467234 0.875121167121699 0
737 2.291402074454847 0.8900352851911937 0
738 1.95542922763623 0.952856847796907 0
739 0.6586128109579834 0.7625201294352474 0
740 0.6929812632449419 0.8254492226929044 0
741 1.575056404602952 0.5142227404203586 0
742 0.2926123624444436 0.5772743533551469 0
743 1.696113836719714 0.2436662751062542 0
744 0.09327797023964503 0.5013821708568645 0
745 1.800411025209573 0.6532623342403221 0
746 1.736922949958264 0.654640941724514 0
747 1.518081000953885 0.612497091122773 0
748 2.538465560850082 0.8586374473093936 0
749 1.693118348725807 0.3385708320513759 0
750 0.7465326479156907 0.2472698993433456 0
751 0.7149848135454636 0.3018573956824477 0
752 0.6175279013062561 0.3373738986824211 0
753 1.956342780719196 0.4644403867596033 0
754 1.948821064143206 0.514411237376184 0
755 1.895188722805592 0.4811727612944333 0
756 1.959311309492944 0.4158607819504122 0
757 1.396641205161421 0.9280597583917686 0
758 1.428108426737913 0.9569649984651103 0
759 1.901694535847366 0.2469036139657 0
760 1.557846074885652 0.2702557979689709 0
761 1.516258348638237 0.2436076886314381 0
762 1.920074172073964 0.5653724518809834 0
763 0.7447212578002378 0.5193475681705214 0
764 0.1063581319405677 0.9552055644884286 0
765 0.1504894197043841 0.9091765632097184 0
766 0.1691312877641672 0.9539709987212899 0
767 2.96173118471961 0.9066088850722476 0
768 2.920270710783604 0.8611540838027849 0
769 2.958539526063994 0.8402594844444964 0
770 0.04468266553019638 0.476426181626975 0
771 0.1160047105768798 0.8743327913680738 0
772 2.958486208607388 0.359634553656981 0
773 2.920376755878173 0.3395780504512426 0
774 2.961890547270785 0.294229211079759 0
775 2.10915258291553 0.952669633222422 0
776 2.114130568249073 0.8561431432725757 0
777 0.3600607960886322 0.1436525755340022 0
778 0.3542311250582523 0.0982982652389976 0
779 0.417183836355437 0.1218938109930283 0
780 0.6801069387135077 0.4505176953032363 0
781 0.7108452920668649 0.4980168144435328 0
782 2.891524422807821 0.898401973076792 0
783 2.89923118472036 0.9637517422152679 0
784 2.961616507231629 0.5715494571278008 0
785 2.907459212302189 0.5489260093204547 0
786 2.621211871333727 0.3158954941738961 0
787 2.608743384585204 0.2445902690416108 0
788 2.904190407841847 0.6525004419393488 0
789 2.961616507231629 0.6286923142706649 0
790 1.341516419819817 0.9569857799320912 0
791 1.363157624977378 0.8850455383238598 0
792 0.2430306145833204 0.09876857567427919 0
793 0.2144765721872975 0.03874006078429343 0
794 1.892929227636503 0.952856847796907 0
795 1.59362377630175 0.239309190129192 0
796 1.669737613024052 0.2829754652354462 0
797 0.7558490150293398 0.7928008691665012 0
798 1.350359055219685 0.8356614055302272 0
799 1.295234269878081 0.8645874270705498 0
800 1.691900032788434 0.6478342804836303 0
801 1.638344316126639 0.6911817223341399 0
802 1.629023335645656 0.4809990641352002 0
803 2.566663548718164 0.3380652302871264 0
804 0.3856770826622202 0.03826975034901185 0
805 2.584190741490208 0.7052240651121198 0
806 2.571703899719655 0.6463747270101587 0
807 2.526798135227434 0.7463541693447275 0
808 0.2849775836539357 0.7766887294862759 0
809 0.3211415636373989 0.8342928195395291 0
810 2.86121738036152 0.5488051236203182 0
811 2.876991182522588 0.6001208856992329 0
812 1.401890250827277 0.814247741460506 0
813 0.3283794191317925 0.2601453768627809 0
814 2.536279948262206 0.2881620566771549 0
815 0.3803541290333045 0.194483265163937 0
816 0.1870966759950907 0.1208014836699244 0
817 1.33396689572798 0.7937896302071961 0
818 0.8065326479155628 0.2472698993433456 0
819 1.574513675221781 0.732483867446388 0
820 1.630376985918591 0.7384164422522654 0
821 0.8550803632535322 0.2433207030959866 0
822 2.136136538813687 0.9130522162417021 0
823 0.4891345205860241 0.8449269514396568 0
824 0.4922988300759612 0.8961408161264317 0
825 2.772544925381814 0.5694605804663546 0
826 2.240411607267213 0.7999394388963046 0
827 2.351401862331115 0.9596676477393511 0
828 2.389220389459587 0.9163957210376701 0
829 2.412818527131405 0.956728073298319 0
830 2.180389380476675 0.7730453114946154 0
831 0.3788465729481046 0.801615292586628 0
832 2.501304123516581 0.9094397108257692 0
833 2.25250021212649 0.9303676374518427 0
834 2.28890186233094 0.9596676477393511 0
835 0.5049543771190691 0.7320190058642424 0
836 0.4682428164437684 0.958226242662966 0
837 1.533123304094662 0.6708869241115996 0
838 2.214483955900566 0.96038258301928 0
839 0.7666086055401945 0.4760039066357428 0
840 0.6727291700145768 0.7250977280392741 0
841 1.528117818724967 0.7151520848630297 0
842 1.83270663023792 0.5096864522941069 0
843 2.525985596388226 0.9527116375274503 0
844 2.958486208607388 0.4167774107996593 0
845 2.748001422050719 0.481881240745864 0
846 0.4751372790645612 0.7968078261778921 0
847 2.958539526063994 0.7831166273014976 0
848 2.012943650830558 0.4490992580321629 0
849 0.8265499808429519 0.7458053797744608 0
850 0.2316312877643431 0.9539709987212899 0
851 0.3464113758688236 0.7499912597999612 0
852 2.846888815867481 0.5064686925994267 0
853 2.791877282756785 0.4700842292577143 0
854 2.172248066518024 0.4901553600033629 0
855 2.110654098381794 0.4638253128654795 0
856 1.723306289727125 0.4965867069208534 0
857 1.671437674608717 0.4473766175273752 0
858 2.215085714025784 0.5880840772498686 0
859 2.199269180931206 0.5192545938880855 0
860 1.677704232641072 0.7414270248739285 0
861 2.548743384585061 0.2445902690416108 0
862 0.7287146025596897 0.4143695123255322 0
863 1.833488765449459 0.6911245965159361 0
864 1.730694480018949 0.7009989661966867 0
865 2.569879463074567 0.4480919169925274 0
866 2.521726242604156 0.5046212243502146 0
867 2.507536563675911 0.2435717876355442 0
868 0.7699653740859331 0.7553784677705279 0
869 0.7896330210820355 0.6965598006732678 0
870 0.7189320552684233 0.7435552900653083 0
871 2.064329260576252 0.5031135789630554 0
872 2.056299959862351 0.458390596743778 0
873 1.253312945093737 0.4506507030719676 0
874 1.279016419819642 0.9569857799320912 0
875 1.263823936457424 0.914612126701534 0
876 2.303739877337994 0.2461586795491829 0
877 1.234807516641292 0.9576263467694428 0
878 0.813585907569715 0.4454135665335265 0
879 2.124624964435282 0.5800336706456211 0
880 2.165133175646282 0.622800705782717 0
881 2.81642078608788 0.557663568978205 0
882 2.097603850022099 0.5509344367608985 0
883 0.2549753175654803 0.5461870642733635 0
884 0.04859530470944865 0.5249559892319486 0
885 2.129234900416687 0.2491808159027251 0
886 2.96173118471961 0.9637517422152679 0
887 2.492634665177051 0.5421792195792561 0
888 2.483776186766039 0.6020537544959449 0
889 2.475318527131522 0.956728073298319 0
890 0.4578882012058969 0.2448037011489478 0
891 0.4188291383322407 0.2159012152302136 0
892 1.856385829729985 0.5649313264770438 0
893 2.485226636015058 0.650307163082676 0
894 2.479172084254892 0.7039667756614546 0
895 2.435762378741961 0.6734172196185623 0
896 2.961890547270785 0.2370863539370102 0
897 0.7998762698487414 0.3440161356955064 0
898 0.8216130111695896 0.2905906024393321 0
899 2.758216360887775 0.5271241494454632 0
900 0.1544765721874669 0.03874006078429343 0
901 2.18853081790107 0.2376160785871193 0
902 2.157765718319917 0.2867968944898443 0
903 0.4456770826623791 0.03826975034901185 0
904 0.4552214798564803 0.2981308181354996 0
905 0.4984649117837129 0.2783802101120532 0
906 0.04385813194039229 0.8927055644881792 0
907 0.04385813194039229 0.9552055644884286 0
908 0.5337643791845585 0.2556773683216456 0
909 0.5310976578351418 0.3090044853081973 0
910 1.858182393470253 0.6365813033186876 0
911 0.1690460282333191 0.2522236956734485 0
912 2.272270695241046 0.2837747581363022 0
913 2.248530817901247 0.2376160785871193 0
914 2.234604347068173 0.3150031096372893 0
915 2.28981340650492 0.3235457105993529 0
916 1.653623776301572 0.239309190129192 0
917 2.151983955900391 0.96038258301928 0
918 2.192204929516433 0.3082590264732363 0
919 2.132909012032051 0.3198237637888421 0
920 2.355831437333596 0.6140425939829737 0
921 0.03260481965013606 0.7826541383508587 0
922 0.03260481965013606 0.8451541383504361 0
923 0.5722742982945963 0.3259372241022137 0
924 0.3761697599797282 0.2431363591061176 0
925 0.7797099418363422 0.4240828128065379 0
926 0.3668544284307287 0.2815633269290574 0
927 0.408598218542155 0.3131699398351361 0
928 0.1456852869227913 0.09035042693014383 0
929 0.7756919045892102 0.3837791722233159 0
930 0.7488809305720889 0.3343028352145006 0
931 2.39525428559765 0.6905468075930425 0
932 2.401308837357817 0.6368871950142641 0
933 1.888792995574346 0.5991601664470132 0
934 0.4559639133536965 0.08692555351957607 0
935 2.52718589227897 0.6326033105388372 0
936 2.570253450470636 0.5981213184234276 0
937 0.08339028956240727 0.7773444426204229 0
938 0.1047513982866236 0.8267813652303306 0
939 2.330815943671448 0.3389734881775117 0
940 0.07646295159052835 0.8628597028391142 0
941 2.554827020457056 0.5467919067230648 0
942 0.5396018511214553 0.5389707184858877 0
943 2.145704513508877 0.5376475289694793 0
$EndNodes
$Elements
1884
1 1 2 2 1 1 7
2 1 2 2 1 7 3
3 1 2 2 1 3 8
4 1 2 2 1 8 4
5 1 2 2 1 4 9
6 1 2 2 1 9 5
7 1 2 2 1 5 10
8 1 2 2 1 10 6
9 1 2 2 1 6 11
10 1 2 2 1 11 2
11 1 2 2 2 2 14
12 1 2 2 2 14 13
13 1 2 2 2 13 15
14 1 2 2 2 15 12
15 1 2 2 3 12 16
16 1 2 2 3 16 37
17 1 2 2 3 37 17
18 1 2 2 3 17 38
19 1 2 2 3 38 18
20 1 2 2 3 18 39
21 1 2 2 3 39 19
22 1 2 2 3 19 40
23 1 2 2 3 40 20
24 1 2 2 3 20 41
25 1 2 2 3 41 21
26 1 2 2 3 21 42
27 1 2 2 3 42 22
28 1 2 2 3 22 43
29 1 2 2 3 43 23
30 1 2 2 3 23 44
31 1 2 2 3 44 24
32 1 2 2 3 24 45
33 1 2 2 3 45 25
34 1 2 2 3 25 46
35 1 2 2 3 46 26
36 1 2 2 3 26 47
37 1 2 2 3 47 27
38 1 2 2 3 27 48
39 1 2 2 3 48 28
40 1 2 2 3 28 49
41 1 2 2 3 49 29
42 1 2 2 3 29 50
43 1 2 2 3 50 30
44 1 2 2 3 30 51
45 1 2 2 3 51 31
46 1 2 2 3 31 52
47 1 2 2 3 52 32
48 1 2 2 3 32 53
49 1 2 2 3 53 33
50 1 2 2 3 33 54
51 1 2 2 3 54 34
52 1 2 2 3 34 55
53 1 2 2 3 55 35
54 1 2 2 3 35 36
55 1 2 4 4 36 63
56 1 2 4 4 63 57
57 1 2 4 4 57 64
58 1 2 4 4 64 58
59 1 2 4 4 58 65
60 1 2 4 4 65 59
61 1 2 4 4 59 66
62 1 2 4 4 66 60
63 1 2 4 4 60 67
64 1 2 4 4 67 61
65 1 2 4 4 61 68
66 1 2 4 4 68 62
67 1 2 4 4 62 69
68 1 2 4 4 69 56
69 1 2 3 5 56 70
70 1 2 3 5 70 95
71 1 2 3 5 95 71
72 1 2 3 5 71 96
73 1 2 3 5 96 72
74 1 2 3 5 72 97
75 1 2 3 5 97 73
76 1 2 3 5 73 98
77 1 2 3 5 98 74
78 1 2 3 5 74 99
79 1 2 3 5 99 75
80 1 2 3 5 75 100
81 1 2 3 5 100 76
82 1 2 3 5 76 101
83 1 2 3 5 101 77
84 1 2 3 5 77 102
85 1 2 3 5 102 78
86 1 2 3 5 78 103
87 1 2 3 5 103 79
88 1 2 3 5 79 104
89 1 2 3 5 104 80
90 1 2 3 5 80 105
91 1 2 3 5 105 81
92 1 2 3 5 81 106
93 1 2 3 5 106 82
94 1 2 3 5 82 107
95 1 2 3 5 107 83
96 1 2 3 5 83 108
97 1 2 3 5 108 84
98 1 2 3 5 84 109
99 1 2 3 5 109 85
100 1 2 3 5 85 110
101 1 2 3 5 110 86
102 1 2 3 5 86 111
103 1 2 3 5 111 87
104 1 2 3 5 87 112
105 1 2 3 5 112 88
106 1 2 3 5 88 113
107 1 2 3 5 113 89
108 1 2 3 5 89 114
109 1 2 3 5 114 90
110 1 2 3 5 90 115
111 1 2 3 5 115 91
112 1 2 3 5 91 116
113 1 2 3 5 116 92
114 1 2 3 5 92 117
115 1 2 3 5 117 93
116 1 2 3 5 93 94
117 1 2 1 6 94 125
118 1 2 1 6 125 118
119 1 2 1 6 118 126
120 1 2 1 6 126 119
121 1 2 1 6 119 127
122 1 2 1 6 127 120
123 1 2 1 6 120 128
124 1 2 1 6 128 121
125 1 2 1 6 121 129
126 1 2 1 6 129 122
127 1 2 1 6 122 130
128 1 2 1 6 130 123
129 1 2 1 6 123 131
130 1 2 1 6 131 124
131 1 2 1 6 124 132
132 1 2 1 6 132 1
133 2 2 13 12 298 320 322
134 2 2 13 12 320 321 322
135 2 2 13 12 320 176 321
136 2 2 13 12 322 321 212
137 2 2 13 12 135 323 324
138 2 2 13 12 323 320 324
139 2 2 13 12 323 176 320
140 2 2 13 12 324 320 298
141 2 2 13 12 175 325 327
142 2 2 13 12 325 326 327
143 2 2 13 12 325 213 326
144 2 2 13 12 327 326 272
145 2 2 13 12 213 328 326
146 2 2 13 12 328 329 326
147 2 2 13 12 328 140 329
148 2 2 13 12 326 329 272
149 2 2 13 12 231 330 332
150 2 2 13 12 330 331 332
151 2 2 13 12 330 175 331
152 2 2 13 12 332 331 279
153 2 2 13 12 12 333 335
154 2 2 13 12 333 334 335
155 2 2 13 12 333 235 334
156 2 2 13 12 335 334 245
157 2 2 13 12 200 336 338
158 2 2 13 12 336 337 338
159 2 2 13 12 336 144 337
160 2 2 13 12 338 337 283
161 2 2 13 12 144 339 337
162 2 2 13 12 339 340 337
163 2 2 13 12 339 182 340
164 2 2 13 12 337 340 283
165 2 2 13 12 274 341 343
166 2 2 13 12 341 342 343
167 2 2 13 12 341 208 342
168 2 2 13 12 343 342 135
169 2 2 13 12 97 344 346
170 2 2 13 12 344 345 346
171 2 2 13 12 344 189 345
172 2 2 13 12 346 345 244
173 2 2 13 12 133 347 349
174 2 2 13 12 347 348 349
175 2 2 13 12 347 172 348
176 2 2 13 12 349 348 196
177 2 2 13 12 122 350 352
178 2 2 13 12 350 351 352
179 2 2 13 12 350 254 351
180 2 2 13 12 352 351 171
181 2 2 13 12 155 353 355
182 2 2 13 12 353 354 355
183 2 2 13 12 353 222 354
184 2 2 13 12 355 354 179
185 2 2 13 12 143 356 358
186 2 2 13 12 356 357 358
187 2 2 13 12 356 187 357
188 2 2 13 12 358 357 176
189 2 2 13 12 140 359 360
190 2 2 13 12 359 354 360
191 2 2 13 12 359 179 354
192 2 2 13 12 360 354 222
193 2 2 13 12 146 361 363
194 2 2 13 12 361 362 363
195 2 2 13 12 361 202 362
196 2 2 13 12 363 362 169
197 2 2 13 12 263 364 365
198 2 2 13 12 364 33 365
199 2 2 13 12 364 53 33
200 2 2 13 12 365 33 54
201 2 2 13 12 143 366 368
202 2 2 13 12 366 367 368
203 2 2 13 12 366 264 367
204 2 2 13 12 368 367 181
205 2 2 13 12 175 369 331
206 2 2 13 12 369 370 331
207 2 2 13 12 369 142 370
208 2 2 13 12 331 370 279
209 2 2 13 12 203 371 373
210 2 2 13 12 371 372 373
211 2 2 13 12 371 147 372
212 2 2 13 12 373 372 312
213 2 2 13 12 120 374 376
214 2 2 13 12 374 375 376
215 2 2 13 12 374 178 375
216 2 2 13 12 376 375 233
217 2 2 13 12 96 72 377
218 2 2 13 12 72 346 377
219 2 2 13 12 72 97 346
220 2 2 13 12 377 346 244
221 2 2 13 12 149 378 380
222 2 2 13 12 378 379 380
223 2 2 13 12 378 195 379
224 2 2 13 12 380 379 220
225 2 2 13 12 143 381 366
226 2 2 13 12 381 382 366
227 2 2 13 12 381 185 382
228 2 2 13 12 366 382 264
229 2 2 13 12 161 383 384
230 2 2 13 12 383 379 384
231 2 2 13 12 383 220 379
232 2 2 13 12 384 379 195
233 2 2 13 12 144 385 387
234 2 2 13 12 385 386 387
235 2 2 13 12 385 190 386
236 2 2 13 12 387 386 177
237 2 2 13 12 205 388 390
238 2 2 13 12 388 389 390
239 2 2 13 12 388 268 389
240 2 2 13 12 390 389 262
241 2 2 13 12 219 391 392
242 2 2 13 12 391 343 392
243 2 2 13 12 391 274 343
244 2 2 13 12 392 343 135
245 2 2 13 12 188 393 394
246 2 2 13 12 393 373 394
247 2 2 13 12 393 203 373
248 2 2 13 12 394 373 312
249 2 2 13 12 206 395 396
250 2 2 13 12 395 364 396
251 2 2 13 12 395 53 364
252 2 2 13 12 396 364 263
253 2 2 13 12 40 20 398
254 2 2 13 12 20 397 398
255 2 2 13 12 20 41 397
256 2 2 13 12 398 397 181
257 2 2 13 12 42 22 400
258 2 2 13 12 22 399 400
259 2 2 13 12 22 43 399
260 2 2 13 12 400 399 182
261 2 2 13 12 168 401 402
262 2 2 13 12 401 390 402
263 2 2 13 12 401 205 390
264 2 2 13 12 402 390 262
265 2 2 13 12 140 328 404
266 2 2 13 12 328 403 404
267 2 2 13 12 328 213 403
268 2 2 13 12 404 403 284
269 2 2 13 12 150 405 407
270 2 2 13 12 405 406 407
271 2 2 13 12 405 178 406
272 2 2 13 12 407 406 197
273 2 2 13 12 12 335 15
274 2 2 13 12 335 408 15
275 2 2 13 12 335 245 408
276 2 2 13 12 15 408 13
277 2 2 13 12 173 409 410
278 2 2 13 12 409 403 410
279 2 2 13 12 409 284 403
280 2 2 13 12 410 403 213
281 2 2 13 12 319 411 412
282 2 2 13 12 411 81 412
283 2 2 13 12 411 105 81
284 2 2 13 12 412 81 106
285 2 2 13 12 135 413 323
286 2 2 13 12 413 414 323
287 2 2 13 12 413 224 414
288 2 2 13 12 323 414 176
289 2 2 13 12 137 415 417
290 2 2 13 12 415 416 417
291 2 2 13 12 415 221 416
292 2 2 13 12 417 416 177
293 2 2 13 12 167 418 420
294 2 2 13 12 418 419 420
295 2 2 13 12 418 211 419
296 2 2 13 12 420 419 234
297 2 2 13 12 158 421 423
298 2 2 13 12 421 422 423
299 2 2 13 12 421 182 422
300 2 2 13 12 423 422 221
301 2 2 13 12 144 424 339
302 2 2 13 12 424 422 339
303 2 2 13 12 424 221 422
304 2 2 13 12 339 422 182
305 2 2 13 12 136 425 427
306 2 2 13 12 425 426 427
307 2 2 13 12 425 215 426
308 2 2 13 12 427 426 174
309 2 2 13 12 160 428 430
310 2 2 13 12 428 429 430
311 2 2 13 12 428 186 429
312 2 2 13 12 430 429 214
313 2 2 13 12 152 431 432
314 2 2 13 12 431 419 432
315 2 2 13 12 431 234 419
316 2 2 13 12 432 419 211
317 2 2 13 12 148 433 434
318 2 2 13 12 433 429 434
319 2 2 13 12 433 214 429
320 2 2 13 12 434 429 186
321 2 2 13 12 124 435 437
322 2 2 13 12 435 436 437
323 2 2 13 12 435 257 436
324 2 2 13 12 437 436 254
325 2 2 13 12 145 438 440
326 2 2 13 12 438 439 440
327 2 2 13 12 438 204 439
328 2 2 13 12 440 439 183
329 2 2 13 12 110 86 442
330 2 2 13 12 86 441 442
331 2 2 13 12 86 111 441
332 2 2 13 12 442 441 180
333 2 2 13 12 164 443 445
334 2 2 13 12 443 444 445
335 2 2 13 12 443 196 444
336 2 2 13 12 445 444 295
337 2 2 13 12 153 446 448
338 2 2 13 12 446 447 448
339 2 2 13 12 446 171 447
340 2 2 13 12 448 447 236
341 2 2 13 12 162 449 450
342 2 2 13 12 449 439 450
343 2 2 13 12 449 183 439
344 2 2 13 12 450 439 204
345 2 2 13 12 188 451 452
346 2 2 13 12 451 411 452
347 2 2 13 12 451 105 411
348 2 2 13 12 452 411 319
349 2 2 13 12 41 453 397
350 2 2 13 12 453 454 397
351 2 2 13 12 453 249 454
352 2 2 13 12 397 454 181
353 2 2 13 12 145 455 457
354 2 2 13 12 455 456 457
355 2 2 13 12 455 180 456
356 2 2 13 12 457 456 212
357 2 2 13 12 159 458 459
358 2 2 13 12 458 456 459
359 2 2 13 12 458 212 456
360 2 2 13 12 459 456 180
361 2 2 13 12 154 460 462
362 2 2 13 12 460 461 462
363 2 2 13 12 460 185 461
364 2 2 13 12 462 461 224
365 2 2 13 12 42 400 464
366 2 2 13 12 400 463 464
367 2 2 13 12 400 182 463
368 2 2 13 12 464 463 249
369 2 2 13 12 137 465 467
370 2 2 13 12 465 466 467
371 2 2 13 12 465 228 466
372 2 2 13 12 467 466 204
373 2 2 13 12 143 468 381
374 2 2 13 12 468 461 381
375 2 2 13 12 468 224 461
376 2 2 13 12 381 461 185
377 2 2 13 12 162 450 469
378 2 2 13 12 450 466 469
379 2 2 13 12 450 204 466
380 2 2 13 12 469 466 228
381 2 2 13 12 145 470 455
382 2 2 13 12 470 471 455
383 2 2 13 12 470 252 471
384 2 2 13 12 455 471 180
385 2 2 13 12 153 472 446
386 2 2 13 12 472 473 446
387 2 2 13 12 472 230 473
388 2 2 13 12 446 473 171
389 2 2 13 12 137 467 475
390 2 2 13 12 467 474 475
391 2 2 13 12 467 204 474
392 2 2 13 12 475 474 187
393 2 2 13 12 147 476 478
394 2 2 13 12 476 477 478
395 2 2 13 12 476 228 477
396 2 2 13 12 478 477 288
397 2 2 13 12 145 440 470
398 2 2 13 12 440 479 470
399 2 2 13 12 440 183 479
400 2 2 13 12 470 479 252
401 2 2 13 12 177 480 481
402 2 2 13 12 480 477 481
403 2 2 13 12 480 288 477
404 2 2 13 12 481 477 228
405 2 2 13 12 2 14 482
406 2 2 13 12 14 408 482
407 2 2 13 12 14 13 408
408 2 2 13 12 482 408 245
409 2 2 13 12 122 352 483
410 2 2 13 12 352 473 483
411 2 2 13 12 352 171 473
412 2 2 13 12 483 473 230
413 2 2 13 12 119 127 484
414 2 2 13 12 127 376 484
415 2 2 13 12 127 120 376
416 2 2 13 12 484 376 233
417 2 2 13 12 12 16 486
418 2 2 13 12 16 485 486
419 2 2 13 12 16 37 485
420 2 2 13 12 486 485 184
421 2 2 13 12 148 434 488
422 2 2 13 12 434 487 488
423 2 2 13 12 434 186 487
424 2 2 13 12 488 487 271
425 2 2 13 12 146 363 490
426 2 2 13 12 363 489 490
427 2 2 13 12 363 169 489
428 2 2 13 12 490 489 274
429 2 2 13 12 136 427 492
430 2 2 13 12 427 491 492
431 2 2 13 12 427 174 491
432 2 2 13 12 492 491 223
433 2 2 13 12 148 488 494
434 2 2 13 12 488 493 494
435 2 2 13 12 488 271 493
436 2 2 13 12 494 493 192
437 2 2 13 12 149 495 497
438 2 2 13 12 495 496 497
439 2 2 13 12 495 215 496
440 2 2 13 12 497 496 194
441 2 2 13 12 172 498 348
442 2 2 13 12 498 444 348
443 2 2 13 12 498 295 444
444 2 2 13 12 348 444 196
445 2 2 13 12 163 499 500
446 2 2 13 12 499 496 500
447 2 2 13 12 499 194 496
448 2 2 13 12 500 496 215
449 2 2 13 12 144 387 424
450 2 2 13 12 387 416 424
451 2 2 13 12 387 177 416
452 2 2 13 12 424 416 221
453 2 2 13 12 123 131 501
454 2 2 13 12 131 437 501
455 2 2 13 12 131 124 437
456 2 2 13 12 501 437 254
457 2 2 13 12 142 502 504
458 2 2 13 12 502 503 504
459 2 2 13 12 502 199 503
460 2 2 13 12 504 503 207
461 2 2 13 12 176 505 321
462 2 2 13 12 505 506 321
463 2 2 13 12 505 286 506
464 2 2 13 12 321 506 212
465 2 2 13 12 143 358 468
466 2 2 13 12 358 414 468
467 2 2 13 12 358 176 414
468 2 2 13 12 468 414 224
469 2 2 13 12 95 507 509
470 2 2 13 12 507 508 509
471 2 2 13 12 507 244 508
472 2 2 13 12 509 508 201
473 2 2 13 12 146 510 512
474 2 2 13 12 510 511 512
475 2 2 13 12 510 198 511
476 2 2 13 12 512 511 217
477 2 2 13 12 145 457 513
478 2 2 13 12 457 506 513
479 2 2 13 12 457 212 506
480 2 2 13 12 513 506 286
481 2 2 13 12 122 130 350
482 2 2 13 12 130 501 350
483 2 2 13 12 130 123 501
484 2 2 13 12 350 501 254
485 2 2 13 12 137 475 515
486 2 2 13 12 475 514 515
487 2 2 13 12 475 187 514
488 2 2 13 12 515 514 266
489 2 2 13 12 47 27 517
490 2 2 13 12 27 516 517
491 2 2 13 12 27 48 516
492 2 2 13 12 517 516 192
493 2 2 13 12 150 518 520
494 2 2 13 12 518 519 520
495 2 2 13 12 518 289 519
496 2 2 13 12 520 519 191
497 2 2 13 12 113 521 522
498 2 2 13 12 521 511 522
499 2 2 13 12 521 217 511
500 2 2 13 12 522 511 198
501 2 2 13 12 111 523 441
502 2 2 13 12 523 524 441
503 2 2 13 12 523 255 524
504 2 2 13 12 441 524 180
505 2 2 13 12 133 525 347
506 2 2 13 12 525 526 347
507 2 2 13 12 525 243 526
508 2 2 13 12 347 526 172
509 2 2 13 12 133 527 529
510 2 2 13 12 527 528 529
511 2 2 13 12 527 227 528
512 2 2 13 12 529 528 197
513 2 2 13 12 151 530 532
514 2 2 13 12 530 531 532
515 2 2 13 12 530 193 531
516 2 2 13 12 532 531 297
517 2 2 13 12 164 533 443
518 2 2 13 12 533 534 443
519 2 2 13 12 533 259 534
520 2 2 13 12 443 534 196
521 2 2 13 12 151 532 536
522 2 2 13 12 532 535 536
523 2 2 13 12 532 297 535
524 2 2 13 12 536 535 210
525 2 2 13 12 150 537 518
526 2 2 13 12 537 538 518
527 2 2 13 12 537 209 538
528 2 2 13 12 518 538 289
529 2 2 13 12 138 539 541
530 2 2 13 12 539 540 541
531 2 2 13 12 539 218 540
532 2 2 13 12 541 540 190
533 2 2 13 12 187 542 514
534 2 2 13 12 542 543 514
535 2 2 13 12 542 226 543
536 2 2 13 12 514 543 266
537 2 2 13 12 103 79 545
538 2 2 13 12 79 544 545
539 2 2 13 12 79 104 544
540 2 2 13 12 545 544 195
541 2 2 13 12 158 546 547
542 2 2 13 12 546 454 547
543 2 2 13 12 546 181 454
544 2 2 13 12 547 454 249
545 2 2 13 12 152 432 549
546 2 2 13 12 432 548 549
547 2 2 13 12 432 211 548
548 2 2 13 12 549 548 300
549 2 2 13 12 152 550 552
550 2 2 13 12 550 551 552
551 2 2 13 12 550 189 551
552 2 2 13 12 552 551 216
553 2 2 13 12 150 553 405
554 2 2 13 12 553 375 405
555 2 2 13 12 553 233 375
556 2 2 13 12 405 375 178
557 2 2 13 12 133 554 527
558 2 2 13 12 554 555 527
559 2 2 13 12 554 202 555
560 2 2 13 12 527 555 227
561 2 2 13 12 152 549 557
562 2 2 13 12 549 556 557
563 2 2 13 12 549 300 556
564 2 2 13 12 557 556 201
565 2 2 13 12 158 547 421
566 2 2 13 12 547 463 421
567 2 2 13 12 547 249 463
568 2 2 13 12 421 463 182
569 2 2 13 12 149 497 559
570 2 2 13 12 497 558 559
571 2 2 13 12 497 194 558
572 2 2 13 12 559 558 270
573 2 2 13 12 149 559 378
574 2 2 13 12 559 560 378
575 2 2 13 12 559 270 560
576 2 2 13 12 378 560 195
577 2 2 13 12 112 88 561
578 2 2 13 12 88 522 561
579 2 2 13 12 88 113 522
580 2 2 13 12 561 522 198
581 2 2 13 12 95 71 507
582 2 2 13 12 71 377 507
583 2 2 13 12 71 96 377
584 2 2 13 12 507 377 244
585 2 2 13 12 2 482 11
586 2 2 13 12 482 562 11
587 2 2 13 12 482 245 562
588 2 2 13 12 11 562 6
589 2 2 13 12 137 417 465
590 2 2 13 12 417 481 465
591 2 2 13 12 417 177 481
592 2 2 13 12 465 481 228
593 2 2 13 12 156 563 564
594 2 2 13 12 563 551 564
595 2 2 13 12 563 216 551
596 2 2 13 12 564 551 189
597 2 2 13 12 136 565 425
598 2 2 13 12 565 566 425
599 2 2 13 12 565 231 566
600 2 2 13 12 425 566 215
601 2 2 13 12 159 459 567
602 2 2 13 12 459 524 567
603 2 2 13 12 459 180 524
604 2 2 13 12 567 524 255
605 2 2 13 12 140 404 359
606 2 2 13 12 404 568 359
607 2 2 13 12 404 284 568
608 2 2 13 12 359 568 179
609 2 2 13 12 163 500 569
610 2 2 13 12 500 566 569
611 2 2 13 12 500 215 566
612 2 2 13 12 569 566 231
613 2 2 13 12 158 570 546
614 2 2 13 12 570 571 546
615 2 2 13 12 570 226 571
616 2 2 13 12 546 571 181
617 2 2 13 12 143 368 572
618 2 2 13 12 368 571 572
619 2 2 13 12 368 181 571
620 2 2 13 12 572 571 226
621 2 2 13 12 142 369 574
622 2 2 13 12 369 573 574
623 2 2 13 12 369 175 573
624 2 2 13 12 574 573 313
625 2 2 13 12 141 575 576
626 2 2 13 12 575 534 576
627 2 2 13 12 575 196 534
628 2 2 13 12 576 534 259
629 2 2 13 12 105 451 578
630 2 2 13 12 451 577 578
631 2 2 13 12 451 188 577
632 2 2 13 12 578 577 256
633 2 2 13 12 55 579 581
634 2 2 13 12 579 580 581
635 2 2 13 12 579 193 580
636 2 2 13 12 581 580 263
637 2 2 13 12 174 426 583
638 2 2 13 12 426 582 583
639 2 2 13 12 426 215 582
640 2 2 13 12 583 582 309
641 2 2 13 12 48 584 516
642 2 2 13 12 584 585 516
643 2 2 13 12 584 247 585
644 2 2 13 12 516 585 192
645 2 2 13 12 4 9 587
646 2 2 13 12 9 586 587
647 2 2 13 12 9 5 586
648 2 2 13 12 587 586 205
649 2 2 13 12 113 89 521
650 2 2 13 12 89 588 521
651 2 2 13 12 89 114 588
652 2 2 13 12 521 588 217
653 2 2 13 12 150 407 589
654 2 2 13 12 407 528 589
655 2 2 13 12 407 197 528
656 2 2 13 12 589 528 227
657 2 2 13 12 46 590 592
658 2 2 13 12 590 591 592
659 2 2 13 12 590 186 591
660 2 2 13 12 592 591 253
661 2 2 13 12 155 355 594
662 2 2 13 12 355 593 594
663 2 2 13 12 355 179 593
664 2 2 13 12 594 593 296
665 2 2 13 12 134 595 597
666 2 2 13 12 595 596 597
667 2 2 13 12 595 234 596
668 2 2 13 12 597 596 216
669 2 2 13 12 160 598 600
670 2 2 13 12 598 599 600
671 2 2 13 12 598 238 599
672 2 2 13 12 600 599 200
673 2 2 13 12 144 336 601
674 2 2 13 12 336 599 601
675 2 2 13 12 336 200 599
676 2 2 13 12 601 599 238
677 2 2 13 12 115 91 603
678 2 2 13 12 91 602 603
679 2 2 13 12 91 116 602
680 2 2 13 12 603 602 209
681 2 2 13 12 188 452 393
682 2 2 13 12 452 604 393
683 2 2 13 12 452 319 604
684 2 2 13 12 393 604 203
685 2 2 13 12 12 486 606
686 2 2 13 12 486 605 606
687 2 2 13 12 486 184 605
688 2 2 13 12 606 605 277
689 2 2 13 12 161 607 608
690 2 2 13 12 607 577 608
691 2 2 13 12 607 256 577
692 2 2 13 12 608 577 188
693 2 2 13 12 149 609 495
694 2 2 13 12 609 582 495
695 2 2 13 12 609 309 582
696 2 2 13 12 495 582 215
697 2 2 13 12 140 360 329
698 2 2 13 12 360 610 329
699 2 2 13 12 360 222 610
700 2 2 13 12 329 610 272
701 2 2 13 12 150 520 553
702 2 2 13 12 520 611 553
703 2 2 13 12 520 191 611
704 2 2 13 12 553 611 233
705 2 2 13 12 43 612 399
706 2 2 13 12 612 340 399
707 2 2 13 12 612 283 340
708 2 2 13 12 399 340 182
709 2 2 13 12 147 613 476
710 2 2 13 12 613 614 476
711 2 2 13 12 613 285 614
712 2 2 13 12 476 614 228
713 2 2 13 12 170 615 616
714 2 2 13 12 615 610 616
715 2 2 13 12 615 272 610
716 2 2 13 12 616 610 222
717 2 2 13 12 112 561 618
718 2 2 13 12 561 617 618
719 2 2 13 12 561 198 617
720 2 2 13 12 618 617 255
721 2 2 13 12 120 619 374
722 2 2 13 12 619 620 374
723 2 2 13 12 619 260 620
724 2 2 13 12 374 620 178
725 2 2 13 12 104 621 544
726 2 2 13 12 621 622 544
727 2 2 13 12 621 256 622
728 2 2 13 12 544 622 195
729 2 2 13 12 166 623 624
730 2 2 13 12 623 334 624
731 2 2 13 12 623 245 334
732 2 2 13 12 624 334 235
733 2 2 13 12 51 625 627
734 2 2 13 12 625 626 627
735 2 2 13 12 625 179 626
736 2 2 13 12 627 626 251
737 2 2 13 12 51 628 625
738 2 2 13 12 628 593 625
739 2 2 13 12 628 296 593
740 2 2 13 12 625 593 179
741 2 2 13 12 143 572 356
742 2 2 13 12 572 542 356
743 2 2 13 12 572 226 542
744 2 2 13 12 356 542 187
745 2 2 13 12 58 65 630
746 2 2 13 12 65 629 630
747 2 2 13 12 65 59 629
748 2 2 13 12 630 629 210
749 2 2 13 12 192 585 632
750 2 2 13 12 585 631 632
751 2 2 13 12 585 247 631
752 2 2 13 12 632 631 308
753 2 2 13 12 153 448 634
754 2 2 13 12 448 633 634
755 2 2 13 12 448 236 633
756 2 2 13 12 634 633 243
757 2 2 13 12 60 67 636
758 2 2 13 12 67 635 636
759 2 2 13 12 67 61 635
760 2 2 13 12 636 635 211
761 2 2 13 12 308 631 638
762 2 2 13 12 631 637 638
763 2 2 13 12 631 247 637
764 2 2 13 12 638 637 157
765 2 2 13 12 134 639 595
766 2 2 13 12 639 640 595
767 2 2 13 12 639 225 640
768 2 2 13 12 595 640 234
769 2 2 13 12 151 641 530
770 2 2 13 12 641 580 530
771 2 2 13 12 641 263 580
772 2 2 13 12 530 580 193
773 2 2 13 12 102 642 644
774 2 2 13 12 642 643 644
775 2 2 13 12 642 194 643
776 2 2 13 12 644 643 258
777 2 2 13 12 138 541 646
778 2 2 13 12 541 645 646
779 2 2 13 12 541 190 645
780 2 2 13 12 646 645 278
781 2 2 13 12 135 647 413
782 2 2 13 12 647 648 413
783 2 2 13 12 647 265 648
784 2 2 13 12 413 648 224
785 2 2 13 12 172 526 649
786 2 2 13 12 526 633 649
787 2 2 13 12 526 243 633
788 2 2 13 12 649 633 236
789 2 2 13 12 161 384 607
790 2 2 13 12 384 622 607
791 2 2 13 12 384 195 622
792 2 2 13 12 607 622 256
793 2 2 13 12 159 567 650
794 2 2 13 12 567 617 650
795 2 2 13 12 567 255 617
796 2 2 13 12 650 617 198
797 2 2 13 12 39 651 653
798 2 2 13 12 651 652 653
799 2 2 13 12 651 185 652
800 2 2 13 12 653 652 267
801 2 2 13 12 109 654 655
802 2 2 13 12 654 479 655
803 2 2 13 12 654 252 479
804 2 2 13 12 655 479 183
805 2 2 13 12 1 7 657
806 2 2 13 12 7 656 657
807 2 2 13 12 7 3 656
808 2 2 13 12 657 656 257
809 2 2 13 12 162 658 449
810 2 2 13 12 658 659 449
811 2 2 13 12 658 292 659
812 2 2 13 12 449 659 183
813 2 2 13 12 133 660 554
814 2 2 13 12 660 661 554
815 2 2 13 12 660 306 661
816 2 2 13 12 554 661 202
817 2 2 13 12 160 600 663
818 2 2 13 12 600 662 663
819 2 2 13 12 600 200 662
820 2 2 13 12 663 662 280
821 2 2 13 12 152 664 550
822 2 2 13 12 664 345 550
823 2 2 13 12 664 244 345
824 2 2 13 12 550 345 189
825 2 2 13 12 171 665 447
826 2 2 13 12 665 666 447
827 2 2 13 12 665 262 666
828 2 2 13 12 447 666 236
829 2 2 13 12 134 667 639
830 2 2 13 12 667 668 639
831 2 2 13 12 667 273 668
832 2 2 13 12 639 668 225
833 2 2 13 12 40 398 669
834 2 2 13 12 398 367 669
835 2 2 13 12 398 181 367
836 2 2 13 12 669 367 264
837 2 2 13 12 151 670 641
838 2 2 13 12 670 396 641
839 2 2 13 12 670 206 396
840 2 2 13 12 641 396 263
841 2 2 13 12 169 362 671
842 2 2 13 12 362 661 671
843 2 2 13 12 362 202 661
844 2 2 13 12 671 661 306
845 2 2 13 12 1 657 132
846 2 2 13 12 657 435 132
847 2 2 13 12 657 257 435
848 2 2 13 12 132 435 124
849 2 2 13 12 54 34 365
850 2 2 13 12 34 581 365
851 2 2 13 12 34 55 581
852 2 2 13 12 365 581 263
853 2 2 13 12 187 474 673
854 2 2 13 12 474 672 673
855 2 2 13 12 474 204 672
856 2 2 13 12 673 672 286
857 2 2 13 12 168 674 675
858 2 2 13 12 674 436 675
859 2 2 13 12 674 254 436
860 2 2 13 12 675 436 257
861 2 2 13 12 225 668 677
862 2 2 13 12 668 676 677
863 2 2 13 12 668 273 676
864 2 2 13 12 677 676 237
865 2 2 13 12 139 678 680
866 2 2 13 12 678 679 680
867 2 2 13 12 678 295 679
868 2 2 13 12 680 679 236
869 2 2 13 12 110 442 681
870 2 2 13 12 442 471 681
871 2 2 13 12 442 180 471
872 2 2 13 12 681 471 252
873 2 2 13 12 141 682 684
874 2 2 13 12 682 683 684
875 2 2 13 12 682 208 683
876 2 2 13 12 684 683 303
877 2 2 13 12 151 685 670
878 2 2 13 12 685 686 670
879 2 2 13 12 685 237 686
880 2 2 13 12 670 686 206
881 2 2 13 12 139 680 687
882 2 2 13 12 680 666 687
883 2 2 13 12 680 236 666
884 2 2 13 12 687 666 262
885 2 2 13 12 137 515 415
886 2 2 13 12 515 688 415
887 2 2 13 12 515 266 688
888 2 2 13 12 415 688 221
889 2 2 13 12 115 603 690
890 2 2 13 12 603 689 690
891 2 2 13 12 603 209 689
892 2 2 13 12 690 689 261
893 2 2 13 12 109 655 691
894 2 2 13 12 655 659 691
895 2 2 13 12 655 183 659
896 2 2 13 12 691 659 292
897 2 2 13 12 46 692 590
898 2 2 13 12 692 487 590
899 2 2 13 12 692 271 487
900 2 2 13 12 590 487 186
901 2 2 13 12 55 693 579
902 2 2 13 12 693 694 579
903 2 2 13 12 693 302 694
904 2 2 13 12 579 694 193
905 2 2 13 12 142 695 502
906 2 2 13 12 695 696 502
907 2 2 13 12 695 246 696
908 2 2 13 12 502 696 199
909 2 2 13 12 141 684 575
910 2 2 13 12 684 697 575
911 2 2 13 12 684 303 697
912 2 2 13 12 575 697 196
913 2 2 13 12 156 698 699
914 2 2 13 12 698 696 699
915 2 2 13 12 698 199 696
916 2 2 13 12 699 696 246
917 2 2 13 12 39 700 651
918 2 2 13 12 700 382 651
919 2 2 13 12 700 264 382
920 2 2 13 12 651 382 185
921 2 2 13 12 146 512 702
922 2 2 13 12 512 701 702
923 2 2 13 12 512 217 701
924 2 2 13 12 702 701 275
925 2 2 13 12 165 703 704
926 2 2 13 12 703 689 704
927 2 2 13 12 703 261 689
928 2 2 13 12 704 689 209
929 2 2 13 12 172 649 498
930 2 2 13 12 649 679 498
931 2 2 13 12 649 236 679
932 2 2 13 12 498 679 295
933 2 2 13 12 155 705 706
934 2 2 13 12 705 686 706
935 2 2 13 12 705 206 686
936 2 2 13 12 706 686 237
937 2 2 13 12 178 707 406
938 2 2 13 12 707 708 406
939 2 2 13 12 707 318 708
940 2 2 13 12 406 708 197
941 2 2 13 12 97 709 344
942 2 2 13 12 709 710 344
943 2 2 13 12 709 242 710
944 2 2 13 12 344 710 189
945 2 2 13 12 163 711 713
946 2 2 13 12 711 712 713
947 2 2 13 12 711 207 712
948 2 2 13 12 713 712 287
949 2 2 13 12 153 714 716
950 2 2 13 12 714 715 716
951 2 2 13 12 714 318 715
952 2 2 13 12 716 715 260
953 2 2 13 12 165 717 718
954 2 2 13 12 717 555 718
955 2 2 13 12 717 227 555
956 2 2 13 12 718 555 202
957 2 2 13 12 169 719 720
958 2 2 13 12 719 683 720
959 2 2 13 12 719 303 683
960 2 2 13 12 720 683 208
961 2 2 13 12 161 608 721
962 2 2 13 12 608 394 721
963 2 2 13 12 608 188 394
964 2 2 13 12 721 394 312
965 2 2 13 12 154 722 460
966 2 2 13 12 722 652 460
967 2 2 13 12 722 267 652
968 2 2 13 12 460 652 185
969 2 2 13 12 152 557 664
970 2 2 13 12 557 508 664
971 2 2 13 12 557 201 508
972 2 2 13 12 664 508 244
973 2 2 13 12 141 723 725
974 2 2 13 12 723 724 725
975 2 2 13 12 723 184 724
976 2 2 13 12 725 724 307
977 2 2 13 12 156 726 698
978 2 2 13 12 726 727 698
979 2 2 13 12 726 317 727
980 2 2 13 12 698 727 199
981 2 2 13 12 133 349 660
982 2 2 13 12 349 728 660
983 2 2 13 12 349 196 728
984 2 2 13 12 660 728 306
985 2 2 13 12 173 410 730
986 2 2 13 12 410 729 730
987 2 2 13 12 410 213 729
988 2 2 13 12 730 729 314
989 2 2 13 12 138 731 733
990 2 2 13 12 731 732 733
991 2 2 13 12 731 214 732
992 2 2 13 12 733 732 229
993 2 2 13 12 157 734 735
994 2 2 13 12 734 729 735
995 2 2 13 12 734 314 729
996 2 2 13 12 735 729 213
997 2 2 13 12 199 736 503
998 2 2 13 12 736 737 503
999 2 2 13 12 736 293 737
1000 2 2 13 12 503 737 207
1001 2 2 13 12 102 738 642
1002 2 2 13 12 738 558 642
1003 2 2 13 12 738 270 558
1004 2 2 13 12 642 558 194
1005 2 2 13 12 146 739 510
1006 2 2 13 12 739 740 510
1007 2 2 13 12 739 294 740
1008 2 2 13 12 510 740 198
1009 2 2 13 12 144 601 385
1010 2 2 13 12 601 741 385
1011 2 2 13 12 601 238 741
1012 2 2 13 12 385 741 190
1013 2 2 13 12 176 357 505
1014 2 2 13 12 357 673 505
1015 2 2 13 12 357 187 673
1016 2 2 13 12 505 673 286
1017 2 2 13 12 133 529 525
1018 2 2 13 12 529 742 525
1019 2 2 13 12 529 197 742
1020 2 2 13 12 525 742 243
1021 2 2 13 12 145 513 438
1022 2 2 13 12 513 672 438
1023 2 2 13 12 513 286 672
1024 2 2 13 12 438 672 204
1025 2 2 13 12 45 25 743
1026 2 2 13 12 25 592 743
1027 2 2 13 12 25 46 592
1028 2 2 13 12 743 592 253
1029 2 2 13 12 153 716 472
1030 2 2 13 12 716 744 472
1031 2 2 13 12 716 260 744
1032 2 2 13 12 472 744 230
1033 2 2 13 12 138 733 746
1034 2 2 13 12 733 745 746
1035 2 2 13 12 733 229 745
1036 2 2 13 12 746 745 220
1037 2 2 13 12 177 386 480
1038 2 2 13 12 386 747 480
1039 2 2 13 12 386 190 747
1040 2 2 13 12 480 747 288
1041 2 2 13 12 156 564 748
1042 2 2 13 12 564 710 748
1043 2 2 13 12 564 189 710
1044 2 2 13 12 748 710 242
1045 2 2 13 12 160 749 428
1046 2 2 13 12 749 591 428
1047 2 2 13 12 749 253 591
1048 2 2 13 12 428 591 186
1049 2 2 13 12 37 750 485
1050 2 2 13 12 750 751 485
1051 2 2 13 12 750 232 751
1052 2 2 13 12 485 751 184
1053 2 2 13 12 141 576 723
1054 2 2 13 12 576 752 723
1055 2 2 13 12 576 259 752
1056 2 2 13 12 723 752 184
1057 2 2 13 12 148 753 755
1058 2 2 13 12 753 754 755
1059 2 2 13 12 753 223 754
1060 2 2 13 12 755 754 311
1061 2 2 13 12 148 494 756
1062 2 2 13 12 494 632 756
1063 2 2 13 12 494 192 632
1064 2 2 13 12 756 632 308
1065 2 2 13 12 107 757 758
1066 2 2 13 12 757 604 758
1067 2 2 13 12 757 203 604
1068 2 2 13 12 758 604 319
1069 2 2 13 12 47 517 759
1070 2 2 13 12 517 493 759
1071 2 2 13 12 517 192 493
1072 2 2 13 12 759 493 271
1073 2 2 13 12 44 760 761
1074 2 2 13 12 760 338 761
1075 2 2 13 12 760 200 338
1076 2 2 13 12 761 338 283
1077 2 2 13 12 174 762 491
1078 2 2 13 12 762 754 491
1079 2 2 13 12 762 311 754
1080 2 2 13 12 491 754 223
1081 2 2 13 12 135 342 647
1082 2 2 13 12 342 763 647
1083 2 2 13 12 342 208 763
1084 2 2 13 12 647 763 265
1085 2 2 13 12 117 764 766
1086 2 2 13 12 764 765 766
1087 2 2 13 12 764 301 765
1088 2 2 13 12 766 765 289
1089 2 2 13 12 62 767 769
1090 2 2 13 12 767 768 769
1091 2 2 13 12 767 305 768
1092 2 2 13 12 769 768 300
1093 2 2 13 12 121 129 770
1094 2 2 13 12 129 483 770
1095 2 2 13 12 129 122 483
1096 2 2 13 12 770 483 230
1097 2 2 13 12 191 519 771
1098 2 2 13 12 519 765 771
1099 2 2 13 12 519 289 765
1100 2 2 13 12 771 765 301
1101 2 2 13 12 57 772 774
1102 2 2 13 12 772 773 774
1103 2 2 13 12 772 297 773
1104 2 2 13 12 774 773 302
1105 2 2 13 12 101 77 775
1106 2 2 13 12 77 644 775
1107 2 2 13 12 77 102 644
1108 2 2 13 12 775 644 258
1109 2 2 13 12 163 776 499
1110 2 2 13 12 776 643 499
1111 2 2 13 12 776 258 643
1112 2 2 13 12 499 643 194
1113 2 2 13 12 166 777 779
1114 2 2 13 12 777 778 779
1115 2 2 13 12 777 205 778
1116 2 2 13 12 779 778 276
1117 2 2 13 12 141 780 682
1118 2 2 13 12 780 781 682
1119 2 2 13 12 780 239 781
1120 2 2 13 12 682 781 208
1121 2 2 13 12 95 509 783
1122 2 2 13 12 509 782 783
1123 2 2 13 12 509 201 782
1124 2 2 13 12 783 782 305
1125 2 2 13 12 59 784 629
1126 2 2 13 12 784 785 629
1127 2 2 13 12 784 269 785
1128 2 2 13 12 629 785 210
1129 2 2 13 12 53 395 787
1130 2 2 13 12 395 786 787
1131 2 2 13 12 395 206 786
1132 2 2 13 12 787 786 241
1133 2 2 13 12 60 636 789
1134 2 2 13 12 636 788 789
1135 2 2 13 12 636 211 788
1136 2 2 13 12 789 788 269
1137 2 2 13 12 107 790 757
1138 2 2 13 12 790 791 757
1139 2 2 13 12 790 248 791
1140 2 2 13 12 757 791 203
1141 2 2 13 12 4 587 793
1142 2 2 13 12 587 792 793
1143 2 2 13 12 587 205 792
1144 2 2 13 12 793 792 281
1145 2 2 13 12 103 545 794
1146 2 2 13 12 545 560 794
1147 2 2 13 12 545 195 560
1148 2 2 13 12 794 560 270
1149 2 2 13 12 44 795 760
1150 2 2 13 12 795 662 760
1151 2 2 13 12 795 280 662
1152 2 2 13 12 760 662 200
1153 2 2 13 12 160 663 749
1154 2 2 13 12 663 796 749
1155 2 2 13 12 663 280 796
1156 2 2 13 12 749 796 253
1157 2 2 13 12 152 552 431
1158 2 2 13 12 552 596 431
1159 2 2 13 12 552 216 596
1160 2 2 13 12 431 596 234
1161 2 2 13 12 159 650 797
1162 2 2 13 12 650 740 797
1163 2 2 13 12 650 198 740
1164 2 2 13 12 797 740 294
1165 2 2 13 12 162 798 799
1166 2 2 13 12 798 791 799
1167 2 2 13 12 798 203 791
1168 2 2 13 12 799 791 248
1169 2 2 13 12 138 800 539
1170 2 2 13 12 800 801 539
1171 2 2 13 12 800 316 801
1172 2 2 13 12 539 801 218
1173 2 2 13 12 190 741 645
1174 2 2 13 12 741 802 645
1175 2 2 13 12 741 238 802
1176 2 2 13 12 645 802 278
1177 2 2 13 12 155 803 705
1178 2 2 13 12 803 786 705
1179 2 2 13 12 803 241 786
1180 2 2 13 12 705 786 206
1181 2 2 13 12 5 804 586
1182 2 2 13 12 804 778 586
1183 2 2 13 12 804 276 778
1184 2 2 13 12 586 778 205
1185 2 2 13 12 134 597 806
1186 2 2 13 12 597 805 806
1187 2 2 13 12 597 216 805
1188 2 2 13 12 806 805 240
1189 2 2 13 12 156 807 563
1190 2 2 13 12 807 805 563
1191 2 2 13 12 807 240 805
1192 2 2 13 12 563 805 216
1193 2 2 13 12 150 808 537
1194 2 2 13 12 808 809 537
1195 2 2 13 12 808 299 809
1196 2 2 13 12 537 809 209
1197 2 2 13 12 167 810 811
1198 2 2 13 12 810 785 811
1199 2 2 13 12 810 210 785
1200 2 2 13 12 811 785 269
1201 2 2 13 12 147 371 613
1202 2 2 13 12 371 812 613
1203 2 2 13 12 371 203 812
1204 2 2 13 12 613 812 285
1205 2 2 13 12 167 811 418
1206 2 2 13 12 811 788 418
1207 2 2 13 12 811 269 788
1208 2 2 13 12 418 788 211
1209 2 2 13 12 139 687 813
1210 2 2 13 12 687 389 813
1211 2 2 13 12 687 262 389
1212 2 2 13 12 813 389 268
1213 2 2 13 12 155 594 803
1214 2 2 13 12 594 814 803
1215 2 2 13 12 594 296 814
1216 2 2 13 12 803 814 241
1217 2 2 13 12 166 815 777
1218 2 2 13 12 815 388 777
1219 2 2 13 12 815 268 388
1220 2 2 13 12 777 388 205
1221 2 2 13 12 168 816 401
1222 2 2 13 12 816 792 401
1223 2 2 13 12 816 281 792
1224 2 2 13 12 401 792 205
1225 2 2 13 12 162 817 798
1226 2 2 13 12 817 812 798
1227 2 2 13 12 817 285 812
1228 2 2 13 12 798 812 203
1229 2 2 13 12 37 17 750
1230 2 2 13 12 17 818 750
1231 2 2 13 12 17 38 818
1232 2 2 13 12 750 818 232
1233 2 2 13 12 161 721 820
1234 2 2 13 12 721 819 820
1235 2 2 13 12 721 312 819
1236 2 2 13 12 820 819 218
1237 2 2 13 12 38 18 821
1238 2 2 13 12 18 653 821
1239 2 2 13 12 18 39 653
1240 2 2 13 12 821 653 267
1241 2 2 13 12 163 713 776
1242 2 2 13 12 713 822 776
1243 2 2 13 12 713 287 822
1244 2 2 13 12 776 822 258
1245 2 2 13 12 201 556 782
1246 2 2 13 12 556 768 782
1247 2 2 13 12 556 300 768
1248 2 2 13 12 782 768 305
1249 2 2 13 12 165 823 703
1250 2 2 13 12 823 824 703
1251 2 2 13 12 823 217 824
1252 2 2 13 12 703 824 261
1253 2 2 13 12 193 694 531
1254 2 2 13 12 694 773 531
1255 2 2 13 12 694 302 773
1256 2 2 13 12 531 773 297
1257 2 2 13 12 167 420 825
1258 2 2 13 12 420 640 825
1259 2 2 13 12 420 234 640
1260 2 2 13 12 825 640 225
1261 2 2 13 12 142 504 370
1262 2 2 13 12 504 826 370
1263 2 2 13 12 504 207 826
1264 2 2 13 12 370 826 279
1265 2 2 13 12 99 827 829
1266 2 2 13 12 827 828 829
1267 2 2 13 12 827 293 828
1268 2 2 13 12 829 828 317
1269 2 2 13 12 163 830 711
1270 2 2 13 12 830 826 711
1271 2 2 13 12 830 279 826
1272 2 2 13 12 711 826 207
1273 2 2 13 12 165 704 831
1274 2 2 13 12 704 809 831
1275 2 2 13 12 704 209 809
1276 2 2 13 12 831 809 299
1277 2 2 13 12 156 748 726
1278 2 2 13 12 748 832 726
1279 2 2 13 12 748 242 832
1280 2 2 13 12 726 832 317
1281 2 2 13 12 100 833 834
1282 2 2 13 12 833 737 834
1283 2 2 13 12 833 207 737
1284 2 2 13 12 834 737 293
1285 2 2 13 12 146 702 361
1286 2 2 13 12 702 835 361
1287 2 2 13 12 702 275 835
1288 2 2 13 12 361 835 202
1289 2 2 13 12 114 836 588
1290 2 2 13 12 836 824 588
1291 2 2 13 12 836 261 824
1292 2 2 13 12 588 824 217
1293 2 2 13 12 190 540 747
1294 2 2 13 12 540 837 747
1295 2 2 13 12 540 218 837
1296 2 2 13 12 747 837 288
1297 2 2 13 12 106 82 412
1298 2 2 13 12 82 758 412
1299 2 2 13 12 82 107 758
1300 2 2 13 12 412 758 319
1301 2 2 13 12 100 838 833
1302 2 2 13 12 838 712 833
1303 2 2 13 12 838 287 712
1304 2 2 13 12 833 712 207
1305 2 2 13 12 208 781 763
1306 2 2 13 12 781 839 763
1307 2 2 13 12 781 239 839
1308 2 2 13 12 763 839 265
1309 2 2 13 12 199 727 736
1310 2 2 13 12 727 828 736
1311 2 2 13 12 727 317 828
1312 2 2 13 12 736 828 293
1313 2 2 13 12 146 490 840
1314 2 2 13 12 490 391 840
1315 2 2 13 12 490 274 391
1316 2 2 13 12 840 391 219
1317 2 2 13 12 147 478 841
1318 2 2 13 12 478 837 841
1319 2 2 13 12 478 288 837
1320 2 2 13 12 841 837 218
1321 2 2 13 12 148 755 433
1322 2 2 13 12 755 842 433
1323 2 2 13 12 755 311 842
1324 2 2 13 12 433 842 214
1325 2 2 13 12 169 720 489
1326 2 2 13 12 720 341 489
1327 2 2 13 12 720 208 341
1328 2 2 13 12 489 341 274
1329 2 2 13 12 109 85 654
1330 2 2 13 12 85 681 654
1331 2 2 13 12 85 110 681
1332 2 2 13 12 654 681 252
1333 2 2 13 12 97 73 709
1334 2 2 13 12 73 843 709
1335 2 2 13 12 73 98 843
1336 2 2 13 12 709 843 242
1337 2 2 13 12 102 78 738
1338 2 2 13 12 78 794 738
1339 2 2 13 12 78 103 794
1340 2 2 13 12 738 794 270
1341 2 2 13 12 57 64 772
1342 2 2 13 12 64 844 772
1343 2 2 13 12 64 58 844
1344 2 2 13 12 772 844 297
1345 2 2 13 12 151 845 685
1346 2 2 13 12 845 677 685
1347 2 2 13 12 845 225 677
1348 2 2 13 12 685 677 237
1349 2 2 13 12 165 718 846
1350 2 2 13 12 718 835 846
1351 2 2 13 12 718 202 835
1352 2 2 13 12 846 835 275
1353 2 2 13 12 46 26 692
1354 2 2 13 12 26 759 692
1355 2 2 13 12 26 47 759
1356 2 2 13 12 692 759 271
1357 2 2 13 12 61 68 847
1358 2 2 13 12 68 769 847
1359 2 2 13 12 68 62 769
1360 2 2 13 12 847 769 300
1361 2 2 13 12 148 756 753
1362 2 2 13 12 756 848 753
1363 2 2 13 12 756 308 848
1364 2 2 13 12 753 848 223
1365 2 2 13 12 159 849 458
1366 2 2 13 12 849 322 458
1367 2 2 13 12 849 298 322
1368 2 2 13 12 458 322 212
1369 2 2 13 12 116 850 602
1370 2 2 13 12 850 538 602
1371 2 2 13 12 850 289 538
1372 2 2 13 12 602 538 209
1373 2 2 13 12 150 589 808
1374 2 2 13 12 589 851 808
1375 2 2 13 12 589 227 851
1376 2 2 13 12 808 851 299
1377 2 2 13 12 151 536 853
1378 2 2 13 12 536 852 853
1379 2 2 13 12 536 210 852
1380 2 2 13 12 853 852 291
1381 2 2 13 12 116 92 850
1382 2 2 13 12 92 766 850
1383 2 2 13 12 92 117 766
1384 2 2 13 12 850 766 289
1385 2 2 13 12 157 735 855
1386 2 2 13 12 735 854 855
1387 2 2 13 12 735 213 854
1388 2 2 13 12 855 854 282
1389 2 2 13 12 160 430 857
1390 2 2 13 12 430 856 857
1391 2 2 13 12 430 214 856
1392 2 2 13 12 857 856 278
1393 2 2 13 12 58 630 844
1394 2 2 13 12 630 535 844
1395 2 2 13 12 630 210 535
1396 2 2 13 12 844 535 297
1397 2 2 13 12 175 858 325
1398 2 2 13 12 858 859 325
1399 2 2 13 12 858 315 859
1400 2 2 13 12 325 859 213
1401 2 2 13 12 61 847 635
1402 2 2 13 12 847 548 635
1403 2 2 13 12 847 300 548
1404 2 2 13 12 635 548 211
1405 2 2 13 12 43 23 612
1406 2 2 13 12 23 761 612
1407 2 2 13 12 23 44 761
1408 2 2 13 12 612 761 283
1409 2 2 13 12 165 846 823
1410 2 2 13 12 846 701 823
1411 2 2 13 12 846 275 701
1412 2 2 13 12 823 701 217
1413 2 2 13 12 39 19 700
1414 2 2 13 12 19 669 700
1415 2 2 13 12 19 40 669
1416 2 2 13 12 700 669 264
1417 2 2 13 12 161 820 860
1418 2 2 13 12 820 801 860
1419 2 2 13 12 820 218 801
1420 2 2 13 12 860 801 316
1421 2 2 13 12 52 32 861
1422 2 2 13 12 32 787 861
1423 2 2 13 12 32 53 787
1424 2 2 13 12 861 787 241
1425 2 2 13 12 141 725 780
1426 2 2 13 12 725 862 780
1427 2 2 13 12 725 307 862
1428 2 2 13 12 780 862 239
1429 2 2 13 12 178 620 707
1430 2 2 13 12 620 715 707
1431 2 2 13 12 620 260 715
1432 2 2 13 12 707 715 318
1433 2 2 13 12 149 380 609
1434 2 2 13 12 380 863 609
1435 2 2 13 12 380 220 863
1436 2 2 13 12 609 863 309
1437 2 2 13 12 161 860 383
1438 2 2 13 12 860 864 383
1439 2 2 13 12 860 316 864
1440 2 2 13 12 383 864 220
1441 2 2 13 12 138 646 731
1442 2 2 13 12 646 856 731
1443 2 2 13 12 646 278 856
1444 2 2 13 12 731 856 214
1445 2 2 13 12 155 865 353
1446 2 2 13 12 865 866 353
1447 2 2 13 12 865 273 866
1448 2 2 13 12 353 866 222
1449 2 2 13 12 51 31 628
1450 2 2 13 12 31 867 628
1451 2 2 13 12 31 52 867
1452 2 2 13 12 628 867 296
1453 2 2 13 12 159 868 849
1454 2 2 13 12 868 869 849
1455 2 2 13 12 868 219 869
1456 2 2 13 12 849 869 298
1457 2 2 13 12 159 797 868
1458 2 2 13 12 797 870 868
1459 2 2 13 12 797 294 870
1460 2 2 13 12 868 870 219
1461 2 2 13 12 157 855 872
1462 2 2 13 12 855 871 872
1463 2 2 13 12 855 282 871
1464 2 2 13 12 872 871 223
1465 2 2 13 12 158 423 873
1466 2 2 13 12 423 688 873
1467 2 2 13 12 423 221 688
1468 2 2 13 12 873 688 266
1469 2 2 13 12 107 83 790
1470 2 2 13 12 83 874 790
1471 2 2 13 12 83 108 874
1472 2 2 13 12 790 874 248
1473 2 2 13 12 162 799 658
1474 2 2 13 12 799 875 658
1475 2 2 13 12 799 248 875
1476 2 2 13 12 658 875 292
1477 2 2 13 12 147 841 372
1478 2 2 13 12 841 819 372
1479 2 2 13 12 841 218 819
1480 2 2 13 12 372 819 312
1481 2 2 13 12 50 30 876
1482 2 2 13 12 30 627 876
1483 2 2 13 12 30 51 627
1484 2 2 13 12 876 627 251
1485 2 2 13 12 138 746 800
1486 2 2 13 12 746 864 800
1487 2 2 13 12 746 220 864
1488 2 2 13 12 800 864 316
1489 2 2 13 12 108 84 877
1490 2 2 13 12 84 691 877
1491 2 2 13 12 84 109 691
1492 2 2 13 12 877 691 292
1493 2 2 13 12 154 462 878
1494 2 2 13 12 462 648 878
1495 2 2 13 12 462 224 648
1496 2 2 13 12 878 648 265
1497 2 2 13 12 136 879 565
1498 2 2 13 12 879 880 565
1499 2 2 13 12 879 315 880
1500 2 2 13 12 565 880 231
1501 2 2 13 12 175 330 858
1502 2 2 13 12 330 880 858
1503 2 2 13 12 330 231 880
1504 2 2 13 12 858 880 315
1505 2 2 13 12 167 881 810
1506 2 2 13 12 881 852 810
1507 2 2 13 12 881 291 852
1508 2 2 13 12 810 852 210
1509 2 2 13 12 136 492 882
1510 2 2 13 12 492 871 882
1511 2 2 13 12 492 223 871
1512 2 2 13 12 882 871 282
1513 2 2 13 12 153 634 714
1514 2 2 13 12 634 883 714
1515 2 2 13 12 634 243 883
1516 2 2 13 12 714 883 318
1517 2 2 13 12 146 840 739
1518 2 2 13 12 840 870 739
1519 2 2 13 12 840 219 870
1520 2 2 13 12 739 870 294
1521 2 2 13 12 120 128 619
1522 2 2 13 12 128 884 619
1523 2 2 13 12 128 121 884
1524 2 2 13 12 619 884 260
1525 2 2 13 12 48 28 584
1526 2 2 13 12 28 885 584
1527 2 2 13 12 28 49 885
1528 2 2 13 12 584 885 247
1529 2 2 13 12 41 21 453
1530 2 2 13 12 21 464 453
1531 2 2 13 12 21 42 464
1532 2 2 13 12 453 464 249
1533 2 2 13 12 135 324 392
1534 2 2 13 12 324 869 392
1535 2 2 13 12 324 298 869
1536 2 2 13 12 392 869 219
1537 2 2 13 12 157 872 638
1538 2 2 13 12 872 848 638
1539 2 2 13 12 872 223 848
1540 2 2 13 12 638 848 308
1541 2 2 13 12 111 87 523
1542 2 2 13 12 87 618 523
1543 2 2 13 12 87 112 618
1544 2 2 13 12 523 618 255
1545 2 2 13 12 56 70 886
1546 2 2 13 12 70 783 886
1547 2 2 13 12 70 95 783
1548 2 2 13 12 886 783 305
1549 2 2 13 12 170 616 888
1550 2 2 13 12 616 887 888
1551 2 2 13 12 616 222 887
1552 2 2 13 12 888 887 304
1553 2 2 13 12 98 74 889
1554 2 2 13 12 74 829 889
1555 2 2 13 12 74 99 829
1556 2 2 13 12 889 829 317
1557 2 2 13 12 166 624 891
1558 2 2 13 12 624 890 891
1559 2 2 13 12 624 235 890
1560 2 2 13 12 891 890 250
1561 2 2 13 12 104 80 621
1562 2 2 13 12 80 578 621
1563 2 2 13 12 80 105 578
1564 2 2 13 12 621 578 256
1565 2 2 13 12 214 842 732
1566 2 2 13 12 842 892 732
1567 2 2 13 12 842 311 892
1568 2 2 13 12 732 892 229
1569 2 2 13 12 170 893 895
1570 2 2 13 12 893 894 895
1571 2 2 13 12 893 240 894
1572 2 2 13 12 895 894 246
1573 2 2 13 12 36 896 35
1574 2 2 13 12 896 693 35
1575 2 2 13 12 896 302 693
1576 2 2 13 12 35 693 55
1577 2 2 13 12 154 897 722
1578 2 2 13 12 897 898 722
1579 2 2 13 12 897 232 898
1580 2 2 13 12 722 898 267
1581 2 2 13 12 167 825 881
1582 2 2 13 12 825 899 881
1583 2 2 13 12 825 225 899
1584 2 2 13 12 881 899 291
1585 2 2 13 12 3 8 900
1586 2 2 13 12 8 793 900
1587 2 2 13 12 8 4 793
1588 2 2 13 12 900 793 281
1589 2 2 13 12 151 853 845
1590 2 2 13 12 853 899 845
1591 2 2 13 12 853 291 899
1592 2 2 13 12 845 899 225
1593 2 2 13 12 197 708 742
1594 2 2 13 12 708 883 742
1595 2 2 13 12 708 318 883
1596 2 2 13 12 742 883 243
1597 2 2 13 12 158 873 570
1598 2 2 13 12 873 543 570
1599 2 2 13 12 873 266 543
1600 2 2 13 12 570 543 226
1601 2 2 13 12 49 901 885
1602 2 2 13 12 901 902 885
1603 2 2 13 12 901 290 902
1604 2 2 13 12 885 902 247
1605 2 2 13 12 114 90 836
1606 2 2 13 12 90 690 836
1607 2 2 13 12 90 115 690
1608 2 2 13 12 836 690 261
1609 2 2 13 12 36 63 896
1610 2 2 13 12 63 774 896
1611 2 2 13 12 63 57 774
1612 2 2 13 12 896 774 302
1613 2 2 13 12 5 10 804
1614 2 2 13 12 10 903 804
1615 2 2 13 12 10 6 903
1616 2 2 13 12 804 903 276
1617 2 2 13 12 38 821 818
1618 2 2 13 12 821 898 818
1619 2 2 13 12 821 267 898
1620 2 2 13 12 818 898 232
1621 2 2 13 12 99 75 827
1622 2 2 13 12 75 834 827
1623 2 2 13 12 75 100 834
1624 2 2 13 12 827 834 293
1625 2 2 13 12 164 904 905
1626 2 2 13 12 904 890 905
1627 2 2 13 12 904 250 890
1628 2 2 13 12 905 890 235
1629 2 2 13 12 56 886 69
1630 2 2 13 12 886 767 69
1631 2 2 13 12 886 305 767
1632 2 2 13 12 69 767 62
1633 2 2 13 12 94 125 907
1634 2 2 13 12 125 906 907
1635 2 2 13 12 125 118 906
1636 2 2 13 12 907 906 301
1637 2 2 13 12 94 907 93
1638 2 2 13 12 907 764 93
1639 2 2 13 12 907 301 764
1640 2 2 13 12 93 764 117
1641 2 2 13 12 164 905 909
1642 2 2 13 12 905 908 909
1643 2 2 13 12 905 235 908
1644 2 2 13 12 909 908 277
1645 2 2 13 12 220 745 863
1646 2 2 13 12 745 910 863
1647 2 2 13 12 745 229 910
1648 2 2 13 12 863 910 309
1649 2 2 13 12 59 66 784
1650 2 2 13 12 66 789 784
1651 2 2 13 12 66 60 789
1652 2 2 13 12 784 789 269
1653 2 2 13 12 168 402 674
1654 2 2 13 12 402 911 674
1655 2 2 13 12 402 262 911
1656 2 2 13 12 674 911 254
1657 2 2 13 12 156 699 807
1658 2 2 13 12 699 894 807
1659 2 2 13 12 699 246 894
1660 2 2 13 12 807 894 240
1661 2 2 13 12 162 469 817
1662 2 2 13 12 469 614 817
1663 2 2 13 12 469 228 614
1664 2 2 13 12 817 614 285
1665 2 2 13 12 50 876 913
1666 2 2 13 12 876 912 913
1667 2 2 13 12 876 251 912
1668 2 2 13 12 913 912 290
1669 2 2 13 12 171 351 665
1670 2 2 13 12 351 911 665
1671 2 2 13 12 351 254 911
1672 2 2 13 12 665 911 262
1673 2 2 13 12 173 914 915
1674 2 2 13 12 914 912 915
1675 2 2 13 12 914 290 912
1676 2 2 13 12 915 912 251
1677 2 2 13 12 121 770 884
1678 2 2 13 12 770 744 884
1679 2 2 13 12 770 230 744
1680 2 2 13 12 884 744 260
1681 2 2 13 12 165 831 717
1682 2 2 13 12 831 851 717
1683 2 2 13 12 831 299 851
1684 2 2 13 12 717 851 227
1685 2 2 13 12 44 24 795
1686 2 2 13 12 24 916 795
1687 2 2 13 12 24 45 916
1688 2 2 13 12 795 916 280
1689 2 2 13 12 163 569 830
1690 2 2 13 12 569 332 830
1691 2 2 13 12 569 231 332
1692 2 2 13 12 830 332 279
1693 2 2 13 12 100 76 838
1694 2 2 13 12 76 917 838
1695 2 2 13 12 76 101 917
1696 2 2 13 12 838 917 287
1697 2 2 13 12 49 29 901
1698 2 2 13 12 29 913 901
1699 2 2 13 12 29 50 913
1700 2 2 13 12 901 913 290
1701 2 2 13 12 247 902 919
1702 2 2 13 12 902 918 919
1703 2 2 13 12 902 290 918
1704 2 2 13 12 919 918 314
1705 2 2 13 12 12 606 333
1706 2 2 13 12 606 908 333
1707 2 2 13 12 606 277 908
1708 2 2 13 12 333 908 235
1709 2 2 13 12 175 327 573
1710 2 2 13 12 327 920 573
1711 2 2 13 12 327 272 920
1712 2 2 13 12 573 920 313
1713 2 2 13 12 118 126 922
1714 2 2 13 12 126 921 922
1715 2 2 13 12 126 119 921
1716 2 2 13 12 922 921 310
1717 2 2 13 12 155 706 865
1718 2 2 13 12 706 676 865
1719 2 2 13 12 706 237 676
1720 2 2 13 12 865 676 273
1721 2 2 13 12 164 909 533
1722 2 2 13 12 909 923 533
1723 2 2 13 12 909 277 923
1724 2 2 13 12 533 923 259
1725 2 2 13 12 166 891 815
1726 2 2 13 12 891 924 815
1727 2 2 13 12 891 250 924
1728 2 2 13 12 815 924 268
1729 2 2 13 12 160 857 598
1730 2 2 13 12 857 802 598
1731 2 2 13 12 857 278 802
1732 2 2 13 12 598 802 238
1733 2 2 13 12 154 878 925
1734 2 2 13 12 878 839 925
1735 2 2 13 12 878 265 839
1736 2 2 13 12 925 839 239
1737 2 2 13 12 139 926 678
1738 2 2 13 12 926 927 678
1739 2 2 13 12 926 250 927
1740 2 2 13 12 678 927 295
1741 2 2 13 12 3 900 656
1742 2 2 13 12 900 928 656
1743 2 2 13 12 900 281 928
1744 2 2 13 12 656 928 257
1745 2 2 13 12 154 929 897
1746 2 2 13 12 929 930 897
1747 2 2 13 12 929 307 930
1748 2 2 13 12 897 930 232
1749 2 2 13 12 170 895 932
1750 2 2 13 12 895 931 932
1751 2 2 13 12 895 246 931
1752 2 2 13 12 932 931 313
1753 2 2 13 12 174 933 762
1754 2 2 13 12 933 892 762
1755 2 2 13 12 933 229 892
1756 2 2 13 12 762 892 311
1757 2 2 13 12 6 562 903
1758 2 2 13 12 562 934 903
1759 2 2 13 12 562 245 934
1760 2 2 13 12 903 934 276
1761 2 2 13 12 174 583 933
1762 2 2 13 12 583 910 933
1763 2 2 13 12 583 309 910
1764 2 2 13 12 933 910 229
1765 2 2 13 12 134 806 936
1766 2 2 13 12 806 935 936
1767 2 2 13 12 806 240 935
1768 2 2 13 12 936 935 304
1769 2 2 13 12 170 888 893
1770 2 2 13 12 888 935 893
1771 2 2 13 12 888 304 935
1772 2 2 13 12 893 935 240
1773 2 2 13 12 184 751 724
1774 2 2 13 12 751 930 724
1775 2 2 13 12 751 232 930
1776 2 2 13 12 724 930 307
1777 2 2 13 12 154 925 929
1778 2 2 13 12 925 862 929
1779 2 2 13 12 925 239 862
1780 2 2 13 12 929 862 307
1781 2 2 13 12 139 813 926
1782 2 2 13 12 813 924 926
1783 2 2 13 12 813 268 924
1784 2 2 13 12 926 924 250
1785 2 2 13 12 119 484 921
1786 2 2 13 12 484 937 921
1787 2 2 13 12 484 233 937
1788 2 2 13 12 921 937 310
1789 2 2 13 12 191 938 611
1790 2 2 13 12 938 937 611
1791 2 2 13 12 938 310 937
1792 2 2 13 12 611 937 233
1793 2 2 13 12 166 779 623
1794 2 2 13 12 779 934 623
1795 2 2 13 12 779 276 934
1796 2 2 13 12 623 934 245
1797 2 2 13 12 45 743 916
1798 2 2 13 12 743 796 916
1799 2 2 13 12 743 253 796
1800 2 2 13 12 916 796 280
1801 2 2 13 12 142 574 695
1802 2 2 13 12 574 931 695
1803 2 2 13 12 574 313 931
1804 2 2 13 12 695 931 246
1805 2 2 13 12 184 752 605
1806 2 2 13 12 752 923 605
1807 2 2 13 12 752 259 923
1808 2 2 13 12 605 923 277
1809 2 2 13 12 179 568 626
1810 2 2 13 12 568 939 626
1811 2 2 13 12 568 284 939
1812 2 2 13 12 626 939 251
1813 2 2 13 12 173 915 409
1814 2 2 13 12 915 939 409
1815 2 2 13 12 915 251 939
1816 2 2 13 12 409 939 284
1817 2 2 13 12 52 861 867
1818 2 2 13 12 861 814 867
1819 2 2 13 12 861 241 814
1820 2 2 13 12 867 814 296
1821 2 2 13 12 168 675 816
1822 2 2 13 12 675 928 816
1823 2 2 13 12 675 257 928
1824 2 2 13 12 816 928 281
1825 2 2 13 12 108 877 874
1826 2 2 13 12 877 875 874
1827 2 2 13 12 877 292 875
1828 2 2 13 12 874 875 248
1829 2 2 13 12 164 445 904
1830 2 2 13 12 445 927 904
1831 2 2 13 12 445 295 927
1832 2 2 13 12 904 927 250
1833 2 2 13 12 101 775 917
1834 2 2 13 12 775 822 917
1835 2 2 13 12 775 258 822
1836 2 2 13 12 917 822 287
1837 2 2 13 12 98 889 843
1838 2 2 13 12 889 832 843
1839 2 2 13 12 889 317 832
1840 2 2 13 12 843 832 242
1841 2 2 13 12 157 637 734
1842 2 2 13 12 637 919 734
1843 2 2 13 12 637 247 919
1844 2 2 13 12 734 919 314
1845 2 2 13 12 191 771 938
1846 2 2 13 12 771 940 938
1847 2 2 13 12 771 301 940
1848 2 2 13 12 938 940 310
1849 2 2 13 12 118 922 906
1850 2 2 13 12 922 940 906
1851 2 2 13 12 922 310 940
1852 2 2 13 12 906 940 301
1853 2 2 13 12 222 866 887
1854 2 2 13 12 866 941 887
1855 2 2 13 12 866 273 941
1856 2 2 13 12 887 941 304
1857 2 2 13 12 134 936 667
1858 2 2 13 12 936 941 667
1859 2 2 13 12 936 304 941
1860 2 2 13 12 667 941 273
1861 2 2 13 12 196 697 728
1862 2 2 13 12 697 942 728
1863 2 2 13 12 697 303 942
1864 2 2 13 12 728 942 306
1865 2 2 13 12 169 671 719
1866 2 2 13 12 671 942 719
1867 2 2 13 12 671 306 942
1868 2 2 13 12 719 942 303
1869 2 2 13 12 170 932 615
1870 2 2 13 12 932 920 615
1871 2 2 13 12 932 313 920
1872 2 2 13 12 615 920 272
1873 2 2 13 12 173 730 914
1874 2 2 13 12 730 918 914
1875 2 2 13 12 730 314 918
1876 2 2 13 12 914 918 290
1877 2 2 13 12 213 859 854
1878 2 2 13 12 859 943 854
1879 2 2 13 12 859 315 943
1880 2 2 13 12 854 943 282
1881 2 2 13 12 136 882 879
1882 2 2 13 12 882 943 879
1883 2 2 13 12 882 282 943
1884 2 2 13 12 879 943 315
$EndElements
