$MeshFormat
2.2 0 8
$EndMeshFormat
$Nodes
253
1 0 0 0
2 0.6 0 0
3 0.6 0.2 0
4 3 0.2 0
5 3 1 0
6 0 1 0
7 0.1199999999997404 0 0
8 0.2399999999994016 0 0
9 0.3599999999993833 0 0
10 0.4799999999997011 0 0
11 0.6 0.09999999999973698 0
12 0.7199999999997614 0.2 0
13 0.8399999999995054 0.2 0
14 0.9599999999992799 0.2 0
15 1.079999999998924 0.2 0
16 1.199999999998569 0.2 0
17 1.319999999998213 0.2 0
18 1.439999999997858 0.2 0
19 1.559999999997589 0.2 0
20 1.679999999997234 0.2 0
21 1.799999999996965 0.2 0
22 1.919999999997251 0.2 0
23 2.039999999997537 0.2 0
24 2.15999999999784 0.2 0
25 2.279999999998195 0.2 0
26 2.399999999998481 0.2 0
27 2.519999999998766 0.2 0
28 2.639999999999053 0.2 0
29 2.759999999999357 0.2 0
30 2.879999999999713 0.2 0
31 3 0.3142857142854975 0
32 3 0.428571428570854 0
33 3 0.5428571428562321 0
34 3 0.6571428571419604 0
35 3 0.7714285714279612 0
36 3 0.885714285713959 0
37 2.8750000000015 1 0
38 2.750000000002075 1 0
39 2.625000000001812 1 0
40 2.500000000003167 1 0
41 2.375000000002933 1 0
42 2.250000000002583 1 0
43 2.125000000002233 1 0
44 2.000000000001941 1 0
45 1.875000000002486 1 0
46 1.750000000003061 1 0
47 1.625000000003636 1 0
48 1.500000000004168 1 0
49 1.375000000003861 1 0
50 1.250000000003511 1 0
51 1.125000000003161 1 0
52 1.00000000000281 1 0
53 0.8750000000024589 1 0
54 0.7500000000021076 1 0
55 0.6250000000017564 1 0
56 0.5000000000014051 1 0
57 0.3750000000010538 1 0
58 0.2500000000007025 1 0
59 0.1250000000003508 1 0
60 0 0.8749999999995011 0
61 0 0.7500000000003465 0
62 0 0.6250000000012137 0
63 0 0.5000000000020591 0
64 0 0.3750000000015605 0
65 0 0.2500000000010404 0
66 0 0.1250000000005203 0
67 0.413170877007616 0.5784660359946197 0
68 2.614771457911321 0.6118927348947492 0
69 0.8032333977038877 0.5966198853183021 0
70 2.076524300948503 0.5933205784370402 0
71 1.259999999998391 0.5978124999999492 0
72 1.698128502727749 0.6014762560114576 0
73 0.319064087582793 0.2985723446857207 0
74 2.352214343004329 0.4760890867131818 0
75 0.6274812376201937 0.4463622376977183 0
76 2.324171033000417 0.7397596790838591 0
77 1.041047682599019 0.4433484975611494 0
78 1.476143986230382 0.4428109178002573 0
79 1.046755517820656 0.7814329262282041 0
80 0.6124099257041369 0.7440625674092132 0
81 1.465218568045776 0.7421330300135827 0
82 1.902710439381582 0.4312019106778527 0
83 1.9017371473629 0.7753726137479702 0
84 0.2424190353179199 0.7641716297516776 0
85 2.781662343919729 0.4248413205581151 0
86 2.779582977968246 0.7868312063527986 0
87 0.2024402672203851 0.4807486482749209 0
88 0.8266872438658628 0.3934924727043217 0
89 2.555840328264973 0.3869499224910313 0
90 2.52495992892688 0.8118516195638869 0
91 2.102624797667892 0.4191023306462021 0
92 1.257974183970384 0.402187036977139 0
93 0.8068823338468496 0.8046240468717207 0
94 1.674009024009419 0.3898091138902435 0
95 1.669736902433024 0.7886617447920541 0
96 1.282435700120389 0.8152032942769171 0
97 2.13495597066932 0.8069470201003073 0
98 0.4957981904342963 0.3317073270986049 0
99 0.4301570139062577 0.814024755952382 0
100 0.4230135073858169 0.1672481212880329 0
101 2.830749350581919 0.5999999999990965 0
102 0.1852402076149881 0.164122845771262 0
103 0.5787886248174834 0.6000896663675258 0
104 2.441816930502127 0.6197576070397837 0
105 0.1552845337312996 0.3568365239030604 0
106 0.379247167336105 0.452794780388418 0
107 2.252147058332047 0.35477406210034 0
108 1.952481337918325 0.5996012918509528 0
109 2.257445800129507 0.6094213916455352 0
110 0.9523288863907803 0.5949288448322677 0
111 1.412950650953805 0.5739019524055926 0
112 0.1575038070560876 0.64354929102295 0
113 2.42203853933171 0.3595874157811885 0
114 0.9281989561067409 0.8739304064723091 0
115 1.148262489353036 0.3268076468048927 0
116 1.376173518032823 0.3320473072045563 0
117 1.143219355134161 0.851525883770593 0
118 0.6569043312593071 0.3091749926782044 0
119 0.9510510928415278 0.3451747595688529 0
120 1.800155223518526 0.3447173245850034 0
121 1.128866845634786 0.5653060444104372 0
122 1.558815099713277 0.8676075009504841 0
123 2.646800302298429 0.8530202682374439 0
124 1.560932463122604 0.5713914737348238 0
125 0.1442931572729751 0.8382544537592903 0
126 1.975051974591547 0.3205735086714744 0
127 2.861064748558394 0.3306213091385925 0
128 1.99852968673883 0.8558188944055618 0
129 1.817300268902381 0.8679963020426956 0
130 0.4988567942454489 0.4699175828224118 0
131 0.2886454502491559 0.6343447760296548 0
132 0.6811468302780538 0.8699207539245273 0
133 2.388449304685383 0.8309070387646957 0
134 1.555692149773716 0.3405115959379419 0
135 2.859586476176422 0.8693004617230482 0
136 0.4897912100152735 0.6844471153250825 0
137 1.418282410318982 0.8561195167835371 0
138 1.179292160177012 0.7073517393304378 0
139 0.2971080847914475 0.1200570297799715 0
140 2.664936973496098 0.3426104502645705 0
141 2.255000424250398 0.8607352749036854 0
142 0.6889579443269082 0.5413604759783114 0
143 0.3147469952848463 0.879379809858184 0
144 2.89168541014112 0.49761024724154 0
145 2.885147801220436 0.7047591124793282 0
146 0.935595106928738 0.7326278976943789 0
147 2.225812733940352 0.4717624249219691 0
148 1.777746254246237 0.4882292926771999 0
149 2.017811361823702 0.7119182516929246 0
150 2.639745141452428 0.7295914110986712 0
151 0.5481120272657906 0.8758291469269316 0
152 1.591017069404158 0.6881711397124769 0
153 0.7330484143250166 0.706132888669335 0
154 1.775717397188779 0.7078056274375705 0
155 1.353282287396105 0.4845676274360248 0
156 2.459533887324152 0.5000085372064059 0
157 2.00997512205681 0.497678862841354 0
158 0.9154048150725087 0.4885704597355859 0
159 2.714340500181709 0.5389211609336129 0
160 1.161957188115244 0.4596950350800071 0
161 0.3652866197476957 0.7107766903790483 0
162 1.346028942399485 0.6924159466871349 0
163 1.825104653230367 0.5987190410430736 0
164 0.08936533106039275 0.4528523632518908 0
165 2.157540723370504 0.6788546487112319 0
166 0.7730652958316201 0.2945397986866911 0
167 0.1015709398245424 0.7393806085394747 0
168 2.74405620488601 0.6619992709597093 0
169 0.5011316331331295 0.2250530931255015 0
170 0.2774969018105868 0.3960132361842087 0
171 2.65906442666891 0.4472862029536159 0
172 1.589180346083299 0.4570540071058935 0
173 0.7327326398068217 0.4546731529087542 0
174 2.528636341527989 0.6808567191255683 0
175 2.577486769171355 0.2891805380832216 0
176 2.551971192773285 0.9054232750549005 0
177 0.2965792746397313 0.520203930680639 0
178 2.758910967217546 0.8910365494311074 0
179 0.5005736613823358 0.09731160634112843 0
180 2.429707826981794 0.7270768321973409 0
181 2.098469800835535 0.2983616318054501 0
182 1.308032839635773 0.9139715598641824 0
183 1.260482038270605 0.2922083981973176 0
184 0.4146447692786644 0.2645543091723942 0
185 2.327479754677792 0.2923173590983658 0
186 1.047015203106731 0.9020389092952357 0
187 1.712227673442194 0.2873325502125085 0
188 0.1034487521013994 0.2462871510738108 0
189 0.8082456240472422 0.9096950414537114 0
190 1.685801252150148 0.9087407049994826 0
191 0.1024174294703892 0.1032207322917008 0
192 2.093305165828826 0.9053392664448441 0
193 0.5781514713532051 0.3655728046866378 0
194 0.0971906094188973 0.5499119784618383 0
195 0.4364856328861318 0.9164524853259319 0
196 0.2346433043652388 0.2581602402730863 0
197 2.773989277968119 0.2974746030406102 0
198 1.038317443896902 0.2900795720077952 0
199 0.8004845712735673 0.4973346603627314 0
200 1.24865170621709 0.4991143691667963 0
201 0.8701607265075592 0.2866414061919731 0
202 0.3376947506807921 0.2217184090398411 0
203 2.923233014463258 0.6002417713993694 0
204 1.91085845527052 0.905713695593814 0
205 1.88338907169748 0.2938072279313999 0
206 2.350862130453686 0.574068404977203 0
207 2.583918597884161 0.5092339114940234 0
208 0.6671836547130315 0.6390063431826271 0
209 0.5201175442228647 0.7795908964034024 0
210 0.4113541653250571 0.07653950069802369 0
211 0.5663971252359875 0.2863016435177897 0
212 1.668866325208014 0.5049441211645069 0
213 2.225822790284029 0.7391436028889237 0
214 1.627247552605911 0.2786183802583839 0
215 0.1889531443751933 0.07748012156858686 0
216 2.118683399095695 0.5085482950847567 0
217 1.472516697278885 0.2872153772628761 0
218 2.334152132665104 0.3856296172566576 0
219 1.385498091335571 0.7723759661374749 0
220 1.050890450181028 0.6685431337920096 0
221 2.178967911798549 0.9207651660385601 0
222 1.475229538785165 0.6536027085107221 0
223 0.2132625755279837 0.9079419974425796 0
224 2.217061635804299 0.2752321571742385 0
225 2.802092221593841 0.5153271379573134 0
226 1.219615033279074 0.9152526935388856 0
227 2.327803724659297 0.9193352954787021 0
228 0.7048156962118299 0.7809776914612816 0
229 0.4025516678056456 0.3617855704978781 0
230 2.495073127353057 0.2871435752710883 0
231 2.916972417214775 0.4049833930284646 0
232 0.8462176278390544 0.6869867126772008 0
233 0.3275361319899516 0.7892058292208741 0
234 2.917079052127988 0.7948046831750338 0
235 0.08771626388078459 0.9104111289768573 0
236 2.92378109454157 0.2741727078740205 0
237 0.576541206589908 0.5155406331197401 0
238 2.52573544302995 0.5843499019521061 0
239 2.92346236943922 0.927503484430536 0
240 0.5026624956530027 0.5624008038520354 0
241 0.7246965653125577 0.3740658717423101 0
242 2.015912179604306 0.4005196532229718 0
243 1.891260133710139 0.6744435655943016 0
244 0.06520963930027211 0.8153082767013711 0
245 1.887667006229603 0.531143611911014 0
246 1.558010281039404 0.7767965951802991 0
247 2.360800744213506 0.6540167829887443 0
248 2.167348223228566 0.3412858957722341 0
249 2.17272562792206 0.5667467628542019 0
250 1.685671562849119 0.694192304955803 0
251 2.450637054259877 0.913456146596638 0
252 0.2133713604912292 0.572170197866088 0
253 1.481216853471965 0.9139299969302207 0
$EndNodes
$Elements
504
1 1 2 2 1 1 7
2 1 2 2 1 7 8
3 1 2 2 1 8 9
4 1 2 2 1 9 10
5 1 2 2 1 10 2
6 1 2 2 2 2 11
7 1 2 2 2 11 3
8 1 2 2 3 3 12
9 1 2 2 3 12 13
10 1 2 2 3 13 14
11 1 2 2 3 14 15
12 1 2 2 3 15 16
13 1 2 2 3 16 17
14 1 2 2 3 17 18
15 1 2 2 3 18 19
16 1 2 2 3 19 20
17 1 2 2 3 20 21
18 1 2 2 3 21 22
19 1 2 2 3 22 23
20 1 2 2 3 23 24
21 1 2 2 3 24 25
22 1 2 2 3 25 26
23 1 2 2 3 26 27
24 1 2 2 3 27 28
25 1 2 2 3 28 29
26 1 2 2 3 29 30
27 1 2 2 3 30 4
28 1 2 4 4 4 31
29 1 2 4 4 31 32
30 1 2 4 4 32 33
31 1 2 4 4 33 34
32 1 2 4 4 34 35
33 1 2 4 4 35 36
34 1 2 4 4 36 5
35 1 2 3 5 5 37
36 1 2 3 5 37 38
37 1 2 3 5 38 39
38 1 2 3 5 39 40
39 1 2 3 5 40 41
40 1 2 3 5 41 42
41 1 2 3 5 42 43
42 1 2 3 5 43 44
43 1 2 3 5 44 45
44 1 2 3 5 45 46
45 1 2 3 5 46 47
46 1 2 3 5 47 48
47 1 2 3 5 48 49
48 1 2 3 5 49 50
49 1 2 3 5 50 51
50 1 2 3 5 51 52
51 1 2 3 5 52 53
52 1 2 3 5 53 54
53 1 2 3 5 54 55
54 1 2 3 5 55 56
55 1 2 3 5 56 57
56 1 2 3 5 57 58
57 1 2 3 5 58 59
58 1 2 3 5 59 6
59 1 2 1 6 6 60
60 1 2 1 6 60 61
61 1 2 1 6 61 62
62 1 2 1 6 62 63
63 1 2 1 6 63 64
64 1 2 1 6 64 65
65 1 2 1 6 65 66
66 1 2 1 6 66 1
67 2 2 13 12 232 110 146
68 2 2 13 12 69 110 232
69 2 2 13 12 109 147 206
70 2 2 13 12 147 74 206
71 2 2 13 12 165 109 213
72 2 2 13 12 3 169 179
73 2 2 13 12 134 78 217
74 2 2 13 12 78 116 217
75 2 2 13 12 208 142 69
76 2 2 13 12 39 123 178
77 2 2 13 12 67 106 130
78 2 2 13 12 64 188 105
79 2 2 13 12 89 156 113
80 2 2 13 12 77 121 110
81 2 2 13 12 74 113 156
82 2 2 13 12 80 136 103
83 2 2 13 12 197 28 29
84 2 2 13 12 77 198 115
85 2 2 13 12 109 76 213
86 2 2 13 12 137 81 246
87 2 2 13 12 62 112 167
88 2 2 13 12 38 39 178
89 2 2 13 12 83 129 154
90 2 2 13 12 77 119 198
91 2 2 13 12 95 154 129
92 2 2 13 12 78 124 111
93 2 2 13 12 139 202 196
94 2 2 13 12 153 208 69
95 2 2 13 12 122 137 246
96 2 2 13 12 140 28 197
97 2 2 13 12 15 16 115
98 2 2 13 12 17 18 116
99 2 2 13 12 102 139 196
100 2 2 13 12 74 147 218
101 2 2 13 12 84 112 131
102 2 2 13 12 3 179 11
103 2 2 13 12 107 218 147
104 2 2 13 12 253 47 48
105 2 2 13 12 69 158 110
106 2 2 13 12 71 155 111
107 2 2 13 12 101 145 168
108 2 2 13 12 92 116 155
109 2 2 13 12 78 155 116
110 2 2 13 12 70 149 108
111 2 2 13 12 94 120 148
112 2 2 13 12 86 168 145
113 2 2 13 12 82 148 120
114 2 2 13 12 66 191 188
115 2 2 13 12 79 138 117
116 2 2 13 12 52 53 114
117 2 2 13 12 98 130 229
118 2 2 13 12 87 105 170
119 2 2 13 12 96 117 138
120 2 2 13 12 122 47 253
121 2 2 13 12 16 183 115
122 2 2 13 12 79 114 146
123 2 2 13 12 93 146 114
124 2 2 13 12 88 119 158
125 2 2 13 12 17 116 183
126 2 2 13 12 71 162 138
127 2 2 13 12 77 158 119
128 2 2 13 12 96 138 162
129 2 2 13 12 79 186 114
130 2 2 13 12 87 164 105
131 2 2 13 12 71 138 121
132 2 2 13 12 81 162 222
133 2 2 13 12 79 117 186
134 2 2 13 12 111 222 162
135 2 2 13 12 2 11 179
136 2 2 13 12 64 105 164
137 2 2 13 12 61 62 167
138 2 2 13 12 3 12 118
139 2 2 13 12 82 120 205
140 2 2 13 12 80 103 208
141 2 2 13 12 70 108 157
142 2 2 13 12 82 205 126
143 2 2 13 12 83 149 128
144 2 2 13 12 106 229 130
145 2 2 13 12 97 128 149
146 2 2 13 12 78 111 155
147 2 2 13 12 65 66 188
148 2 2 13 12 76 133 141
149 2 2 13 12 110 220 146
150 2 2 13 12 77 110 158
151 2 2 13 12 37 178 135
152 2 2 13 12 80 132 151
153 2 2 13 12 79 146 220
154 2 2 13 12 64 65 188
155 2 2 13 12 71 121 200
156 2 2 13 12 22 23 126
157 2 2 13 12 84 223 125
158 2 2 13 12 55 151 132
159 2 2 13 12 53 189 114
160 2 2 13 12 67 177 106
161 2 2 13 12 67 161 131
162 2 2 13 12 85 127 231
163 2 2 13 12 98 193 130
164 2 2 13 12 85 231 144
165 2 2 13 12 84 143 223
166 2 2 13 12 72 152 124
167 2 2 13 12 121 160 200
168 2 2 13 12 45 46 129
169 2 2 13 12 92 115 183
170 2 2 13 12 86 145 234
171 2 2 13 12 86 123 150
172 2 2 13 12 84 167 112
173 2 2 13 12 67 136 161
174 2 2 13 12 86 234 135
175 2 2 13 12 92 183 116
176 2 2 13 12 83 128 204
177 2 2 13 12 83 204 129
178 2 2 13 12 54 55 132
179 2 2 13 12 37 38 178
180 2 2 13 12 2 179 10
181 2 2 13 12 71 111 162
182 2 2 13 12 90 150 123
183 2 2 13 12 70 165 149
184 2 2 13 12 93 114 189
185 2 2 13 12 74 218 113
186 2 2 13 12 97 149 165
187 2 2 13 12 92 160 115
188 2 2 13 12 77 115 160
189 2 2 13 12 76 109 247
190 2 2 13 12 75 130 193
191 2 2 13 12 47 122 190
192 2 2 13 12 30 127 197
193 2 2 13 12 108 149 243
194 2 2 13 12 23 181 126
195 2 2 13 12 8 9 139
196 2 2 13 12 55 56 151
197 2 2 13 12 84 131 161
198 2 2 13 12 21 120 187
199 2 2 13 12 89 113 230
200 2 2 13 12 68 168 150
201 2 2 13 12 94 172 134
202 2 2 13 12 78 134 172
203 2 2 13 12 57 58 143
204 2 2 13 12 122 253 137
205 2 2 13 12 3 118 211
206 2 2 13 12 95 190 122
207 2 2 13 12 83 243 149
208 2 2 13 12 74 156 206
209 2 2 13 12 84 125 167
210 2 2 13 12 18 217 116
211 2 2 13 12 81 219 162
212 2 2 13 12 104 206 156
213 2 2 13 12 54 132 189
214 2 2 13 12 62 194 112
215 2 2 13 12 46 190 129
216 2 2 13 12 100 179 169
217 2 2 13 12 26 113 185
218 2 2 13 12 26 230 113
219 2 2 13 12 77 160 121
220 2 2 13 12 32 33 144
221 2 2 13 12 126 181 242
222 2 2 13 12 87 170 177
223 2 2 13 12 34 35 145
224 2 2 13 12 242 181 91
225 2 2 13 12 68 159 168
226 2 2 13 12 85 197 127
227 2 2 13 12 44 128 192
228 2 2 13 12 72 124 212
229 2 2 13 12 69 199 158
230 2 2 13 12 106 177 170
231 2 2 13 12 95 129 190
232 2 2 13 12 93 189 132
233 2 2 13 12 14 119 201
234 2 2 13 12 51 186 117
235 2 2 13 12 1 7 191
236 2 2 13 12 96 226 117
237 2 2 13 12 67 240 136
238 2 2 13 12 94 134 214
239 2 2 13 12 86 178 123
240 2 2 13 12 105 196 170
241 2 2 13 12 68 207 159
242 2 2 13 12 15 115 198
243 2 2 13 12 85 140 197
244 2 2 13 12 103 136 240
245 2 2 13 12 1 191 66
246 2 2 13 12 29 30 197
247 2 2 13 12 121 138 220
248 2 2 13 12 102 188 191
249 2 2 13 12 159 207 171
250 2 2 13 12 73 229 170
251 2 2 13 12 52 114 186
252 2 2 13 12 75 142 237
253 2 2 13 12 85 171 140
254 2 2 13 12 73 170 196
255 2 2 13 12 71 200 155
256 2 2 13 12 57 143 195
257 2 2 13 12 51 117 226
258 2 2 13 12 21 205 120
259 2 2 13 12 30 236 127
260 2 2 13 12 76 180 133
261 2 2 13 12 75 237 130
262 2 2 13 12 90 133 180
263 2 2 13 12 14 198 119
264 2 2 13 12 80 151 209
265 2 2 13 12 99 195 143
266 2 2 13 12 106 170 229
267 2 2 13 12 89 140 171
268 2 2 13 12 112 252 131
269 2 2 13 12 39 176 123
270 2 2 13 12 97 141 221
271 2 2 13 12 87 252 194
272 2 2 13 12 99 161 136
273 2 2 13 12 103 237 142
274 2 2 13 12 95 122 246
275 2 2 13 12 88 201 119
276 2 2 13 12 86 135 178
277 2 2 13 12 75 118 241
278 2 2 13 12 90 251 133
279 2 2 13 12 67 130 240
280 2 2 13 12 107 147 248
281 2 2 13 12 72 148 163
282 2 2 13 12 91 248 147
283 2 2 13 12 133 227 141
284 2 2 13 12 44 204 128
285 2 2 13 12 80 228 132
286 2 2 13 12 78 172 124
287 2 2 13 12 110 121 220
288 2 2 13 12 67 131 177
289 2 2 13 12 79 220 138
290 2 2 13 12 20 21 187
291 2 2 13 12 87 194 164
292 2 2 13 12 72 163 154
293 2 2 13 12 111 124 222
294 2 2 13 12 90 123 176
295 2 2 13 12 94 187 120
296 2 2 13 12 12 166 118
297 2 2 13 12 75 193 118
298 2 2 13 12 82 157 245
299 2 2 13 12 82 126 242
300 2 2 13 12 49 137 253
301 2 2 13 12 22 126 205
302 2 2 13 12 19 134 217
303 2 2 13 12 108 245 157
304 2 2 13 12 69 142 199
305 2 2 13 12 59 235 223
306 2 2 13 12 36 239 234
307 2 2 13 12 63 64 164
308 2 2 13 12 125 223 235
309 2 2 13 12 31 231 236
310 2 2 13 12 43 44 192
311 2 2 13 12 97 192 128
312 2 2 13 12 100 139 210
313 2 2 13 12 75 173 142
314 2 2 13 12 37 135 239
315 2 2 13 12 33 203 144
316 2 2 13 12 28 140 175
317 2 2 13 12 34 145 203
318 2 2 13 12 49 182 137
319 2 2 13 12 8 139 215
320 2 2 13 12 45 129 204
321 2 2 13 12 19 214 134
322 2 2 13 12 94 214 187
323 2 2 13 12 86 150 168
324 2 2 13 12 93 132 228
325 2 2 13 12 96 137 182
326 2 2 13 12 72 250 152
327 2 2 13 12 124 172 212
328 2 2 13 12 89 175 140
329 2 2 13 12 9 210 139
330 2 2 13 12 68 150 174
331 2 2 13 12 90 174 150
332 2 2 13 12 84 233 143
333 2 2 13 12 101 144 203
334 2 2 13 12 81 137 219
335 2 2 13 12 101 203 145
336 2 2 13 12 73 196 202
337 2 2 13 12 89 230 175
338 2 2 13 12 100 202 139
339 2 2 13 12 102 215 139
340 2 2 13 12 96 219 137
341 2 2 13 12 12 13 166
342 2 2 13 12 95 246 152
343 2 2 13 12 13 14 201
344 2 2 13 12 97 221 192
345 2 2 13 12 135 234 239
346 2 2 13 12 99 151 195
347 2 2 13 12 127 236 231
348 2 2 13 12 101 168 159
349 2 2 13 12 76 141 213
350 2 2 13 12 41 227 251
351 2 2 13 12 97 213 141
352 2 2 13 12 99 143 233
353 2 2 13 12 90 176 251
354 2 2 13 12 42 141 227
355 2 2 13 12 80 209 136
356 2 2 13 12 56 195 151
357 2 2 13 12 124 152 222
358 2 2 13 12 48 49 253
359 2 2 13 12 42 221 141
360 2 2 13 12 142 173 199
361 2 2 13 12 133 251 227
362 2 2 13 12 80 208 153
363 2 2 13 12 81 222 152
364 2 2 13 12 82 245 148
365 2 2 13 12 103 142 208
366 2 2 13 12 51 52 186
367 2 2 13 12 39 40 176
368 2 2 13 12 44 45 204
369 2 2 13 12 31 32 231
370 2 2 13 12 85 159 171
371 2 2 13 12 99 136 209
372 2 2 13 12 21 22 205
373 2 2 13 12 35 36 234
374 2 2 13 12 82 242 157
375 2 2 13 12 93 232 146
376 2 2 13 12 58 223 143
377 2 2 13 12 84 161 233
378 2 2 13 12 85 144 225
379 2 2 13 12 58 59 223
380 2 2 13 12 91 147 216
381 2 2 13 12 94 148 212
382 2 2 13 12 32 144 231
383 2 2 13 12 109 249 147
384 2 2 13 12 35 234 145
385 2 2 13 12 18 19 217
386 2 2 13 12 99 209 151
387 2 2 13 12 14 15 198
388 2 2 13 12 95 152 250
389 2 2 13 12 27 28 175
390 2 2 13 12 75 241 173
391 2 2 13 12 112 194 252
392 2 2 13 12 83 154 243
393 2 2 13 12 95 250 154
394 2 2 13 12 72 212 148
395 2 2 13 12 89 207 156
396 2 2 13 12 26 27 230
397 2 2 13 12 93 153 232
398 2 2 13 12 93 228 153
399 2 2 13 12 91 216 157
400 2 2 13 12 92 155 200
401 2 2 13 12 49 50 182
402 2 2 13 12 96 182 226
403 2 2 13 12 81 152 246
404 2 2 13 12 25 26 185
405 2 2 13 12 72 154 250
406 2 2 13 12 50 51 226
407 2 2 13 12 88 158 199
408 2 2 13 12 70 249 165
409 2 2 13 12 109 165 249
410 2 2 13 12 101 225 144
411 2 2 13 12 70 157 216
412 2 2 13 12 87 177 252
413 2 2 13 12 80 153 228
414 2 2 13 12 62 63 194
415 2 2 13 12 23 24 181
416 2 2 13 12 16 17 183
417 2 2 13 12 69 232 153
418 2 2 13 12 91 157 242
419 2 2 13 12 53 54 189
420 2 2 13 12 5 37 239
421 2 2 13 12 104 156 238
422 2 2 13 12 40 41 251
423 2 2 13 12 100 169 184
424 2 2 13 12 46 47 190
425 2 2 13 12 148 245 163
426 2 2 13 12 104 174 180
427 2 2 13 12 4 236 30
428 2 2 13 12 88 166 201
429 2 2 13 12 101 159 225
430 2 2 13 12 7 8 215
431 2 2 13 12 85 225 159
432 2 2 13 12 131 252 177
433 2 2 13 12 92 200 160
434 2 2 13 12 24 224 181
435 2 2 13 12 56 57 195
436 2 2 13 12 4 31 236
437 2 2 13 12 9 10 210
438 2 2 13 12 13 201 166
439 2 2 13 12 41 42 227
440 2 2 13 12 98 184 169
441 2 2 13 12 5 239 36
442 2 2 13 12 6 60 235
443 2 2 13 12 6 235 59
444 2 2 13 12 98 169 211
445 2 2 13 12 154 163 243
446 2 2 13 12 33 34 203
447 2 2 13 12 102 196 188
448 2 2 13 12 90 180 174
449 2 2 13 12 96 162 219
450 2 2 13 12 25 185 224
451 2 2 13 12 105 188 196
452 2 2 13 12 107 224 185
453 2 2 13 12 63 164 194
454 2 2 13 12 99 233 161
455 2 2 13 12 19 20 214
456 2 2 13 12 97 165 213
457 2 2 13 12 42 43 221
458 2 2 13 12 24 25 224
459 2 2 13 12 181 224 248
460 2 2 13 12 3 211 169
461 2 2 13 12 109 206 247
462 2 2 13 12 60 61 244
463 2 2 13 12 89 171 207
464 2 2 13 12 98 211 193
465 2 2 13 12 100 184 202
466 2 2 13 12 94 212 172
467 2 2 13 12 88 199 173
468 2 2 13 12 73 184 229
469 2 2 13 12 7 215 191
470 2 2 13 12 88 241 166
471 2 2 13 12 104 180 247
472 2 2 13 12 108 163 245
473 2 2 13 12 10 179 210
474 2 2 13 12 108 243 163
475 2 2 13 12 68 174 238
476 2 2 13 12 104 238 174
477 2 2 13 12 118 166 241
478 2 2 13 12 88 173 241
479 2 2 13 12 73 202 184
480 2 2 13 12 61 167 244
481 2 2 13 12 125 244 167
482 2 2 13 12 100 210 179
483 2 2 13 12 20 187 214
484 2 2 13 12 76 247 180
485 2 2 13 12 118 193 211
486 2 2 13 12 113 218 185
487 2 2 13 12 107 185 218
488 2 2 13 12 27 175 230
489 2 2 13 12 102 191 215
490 2 2 13 12 50 226 182
491 2 2 13 12 98 229 184
492 2 2 13 12 43 192 221
493 2 2 13 12 40 251 176
494 2 2 13 12 91 181 248
495 2 2 13 12 125 235 244
496 2 2 13 12 60 244 235
497 2 2 13 12 156 207 238
498 2 2 13 12 68 238 207
499 2 2 13 12 130 237 240
500 2 2 13 12 103 240 237
501 2 2 13 12 104 247 206
502 2 2 13 12 107 248 224
503 2 2 13 12 147 249 216
504 2 2 13 12 70 216 249
$EndElements
